<?xml version="1.0" standalone="no"?>
<!DOCTYPE svg PUBLIC "-//W3C//DTD SVG 20010904//EN"
 "http://www.w3.org/TR/2001/REC-SVG-20010904/DTD/svg10.dtd">
<svg version="1.0" xmlns="http://www.w3.org/2000/svg"
 width="260.000000pt" height="260.000000pt" viewBox="0 0 260.000000 260.000000"
 preserveAspectRatio="xMidYMid meet">
<metadata>
Created by potrace 1.11, written by Peter Selinger 2001-2013
</metadata>
<g transform="translate(0.000000,260.000000) scale(0.100000,-0.100000)"
fill="#000000" stroke="none">
<path d="M1169 2596 c-2 -2 -24 -6 -49 -10 -91 -12 -117 -18 -209 -47 -371
-117 -674 -398 -816 -754 -68 -171 -94 -321 -90 -515 2 -80 6 -156 9 -170 4
-14 9 -38 12 -55 26 -147 98 -321 196 -470 64 -99 246 -282 348 -350 144 -97
306 -165 480 -202 119 -25 382 -24 499 1 549 118 946 531 1035 1077 14 80 15
322 3 394 -49 287 -167 516 -372 720 -205 205 -433 323 -720 372 -39 6 -320
15 -326 9z m329 -222 c219 -42 409 -143 572 -304 139 -138 236 -306 287 -498
24 -86 27 -116 27 -272 1 -161 -1 -183 -27 -274 -54 -196 -147 -357 -287 -496
-165 -165 -367 -270 -588 -306 -99 -16 -286 -18 -350 -3 -20 4 -52 11 -70 14
-53 9 -182 55 -247 87 -209 105 -388 285 -494 495 -32 64 -76 185 -85 238 -53
281 -23 517 94 741 157 302 424 505 755 573 110 23 308 25 413 5z"/>
<path d="M1185 1994 c-123 -28 -211 -65 -298 -128 -231 -166 -339 -468 -266
-746 63 -238 273 -445 509 -501 202 -47 401 -11 570 104 137 94 259 274 286
425 2 12 6 34 9 50 6 27 6 159 1 197 -6 52 -31 136 -57 194 -88 194 -258 337
-468 391 -64 16 -237 25 -286 14z"/>
</g>
</svg>
