<?xml version="1.0" encoding="UTF-8" standalone="no"?>
<svg
   xmlns:dc="http://purl.org/dc/elements/1.1/"
   xmlns:cc="http://creativecommons.org/ns#"
   xmlns:rdf="http://www.w3.org/1999/02/22-rdf-syntax-ns#"
   xmlns:svg="http://www.w3.org/2000/svg"
   xmlns="http://www.w3.org/2000/svg"
   xmlns:sodipodi="http://sodipodi.sourceforge.net/DTD/sodipodi-0.dtd"
   xmlns:inkscape="http://www.inkscape.org/namespaces/inkscape"
   viewBox="0 0 128 128"
   version="1.1"
   id="svg25"
   sodipodi:docname="advancedCheckout.svg"
   inkscape:version="0.92.2 (unknown)">
  <metadata
     id="metadata29">
    <rdf:RDF>
      <cc:Work
         rdf:about="">
        <dc:format>image/svg+xml</dc:format>
        <dc:type
           rdf:resource="http://purl.org/dc/dcmitype/StillImage" />
      </cc:Work>
    </rdf:RDF>
  </metadata>
  <sodipodi:namedview
     pagecolor="#ffffff"
     bordercolor="#666666"
     borderopacity="1"
     objecttolerance="10"
     gridtolerance="10"
     guidetolerance="10"
     inkscape:pageopacity="0"
     inkscape:pageshadow="2"
     inkscape:window-width="1920"
     inkscape:window-height="1027"
     id="namedview27"
     showgrid="false"
     inkscape:zoom="5.2149125"
     inkscape:cx="63.998782"
     inkscape:cy="59.033003"
     inkscape:window-x="0"
     inkscape:window-y="0"
     inkscape:window-maximized="1"
     inkscape:current-layer="_02_Website_Optimization" />
  <defs
     id="defs4">
    <style
       id="style2">.cls-1{fill:#c3edf5;}.cls-2{fill:#4d91bb;}.cls-3{fill:#87dbec;}.cls-4{fill:#4dbab4;}.cls-5{fill:#e88f8d;}.cls-6{fill:#ffda75;}.cls-7{fill:#c2e085;}</style>
  </defs>
  <title
     id="title6" />
  <g
     data-name="02 Website Optimization"
     id="_02_Website_Optimization">
    <rect
       class="cls-1"
       height="90"
       width="90"
       x="19"
       y="19"
       id="rect8"
       style="fill:#545960;fill-opacity:1" />
    <rect
       class="cls-2"
       height="20"
       width="90"
       x="19"
       y="19"
       id="rect10" />
    <path
       class="cls-3"
       d="M56.32,109a11.92,11.92,0,0,1,23.84,0H109v-8L98.43,98.5l-6-10.4,3.14-10.39-13.89-8L74.24,77.6h-12L54.8,69.69l-13.89,8L44,88.1,38,98.5,27.47,101v8Z"
       id="path12"
       style="fill:#e9f7f7;fill-opacity:1" />
    <path
       class="cls-4"
       d="M52.08,109a11.92,11.92,0,0,1,23.84,0h28.85v-8L94.2,98.5l-6-10.4,3.14-10.39-13.89-8L70,77.6H58l-7.43-7.91-13.89,8L39.81,88.1l-6,10.4L23.24,101v8Z"
       id="path14"
       style="fill:#00dcf0;fill-opacity:1" />
    <circle
       class="cls-5"
       cx="26.24"
       cy="29"
       r="3"
       id="circle16" />
    <circle
       class="cls-6"
       cx="35.24"
       cy="29"
       r="3"
       id="circle18" />
    <circle
       class="cls-7"
       cx="44.24"
       cy="29"
       r="3"
       id="circle20" />
    <polygon
       class="cls-3"
       points="19 39 109 43.5 109 39 19 39"
       id="polygon22"
       style="fill:#242529;fill-opacity:1" />
  </g>
</svg>
