<?xml version="1.0" encoding="UTF-8" standalone="no"?>
<!-- Generator: Adobe Illustrator 16.0.0, SVG Export Plug-In . SVG Version: 6.00 Build 0)  -->

<svg
   xmlns:dc="http://purl.org/dc/elements/1.1/"
   xmlns:cc="http://creativecommons.org/ns#"
   xmlns:rdf="http://www.w3.org/1999/02/22-rdf-syntax-ns#"
   xmlns:svg="http://www.w3.org/2000/svg"
   xmlns="http://www.w3.org/2000/svg"
   xmlns:sodipodi="http://sodipodi.sourceforge.net/DTD/sodipodi-0.dtd"
   xmlns:inkscape="http://www.inkscape.org/namespaces/inkscape"
   version="1.1"
   id="Layer_1"
   x="0px"
   y="0px"
   width="256px"
   height="256px"
   viewBox="0 0 256 256"
   style="enable-background:new 0 0 256 256;"
   xml:space="preserve"
   sodipodi:docname="android.svg"
   inkscape:version="0.92.2 (unknown)"><metadata
     id="metadata15"><rdf:RDF><cc:Work
         rdf:about=""><dc:format>image/svg+xml</dc:format><dc:type
           rdf:resource="http://purl.org/dc/dcmitype/StillImage" /><dc:title /></cc:Work></rdf:RDF></metadata><defs
     id="defs13"><clipPath
       clipPathUnits="userSpaceOnUse"
       id="clipPath825"><path
         inkscape:connector-curvature="0"
         d="m 110.93048,76.599322 c 0,2.104671 -1.74765,3.793033 -3.8968,3.793033 -2.12552,0 -3.87319,-1.711491 -3.87319,-3.793033 0,-2.081542 1.72405,-3.81616 3.87319,-3.81616 2.14915,0 3.8968,1.734618 3.8968,3.81616 z m 38.30678,-3.81616 c -2.14915,0 -3.87319,1.734618 -3.8968,3.81616 0,2.104671 1.74765,3.816161 3.8968,3.816161 2.14914,0 3.87319,-1.71149 3.87319,-3.793032 0.0237,-2.104671 -1.72405,-3.839289 -3.87319,-3.839289 z m 94.6333,-58.838261 V 240.60172 H 12.423994 V 13.944901 Z M 82.164985,96.859667 h 91.988205 c 0,-15.588438 -9.21064,-29.141591 -23.30998,-36.28822 l 7.17957,-12.836177 c 0.37787,-0.67072 0.11809,-1.526464 -0.56681,-1.896516 -0.70851,-0.370052 -1.55872,-0.115642 -1.93659,0.555077 l -7.25042,12.974947 c -12.75318,-5.550779 -27.67912,-5.504523 -40.26698,-0.02313 l -7.25042,-12.951814 c -0.37787,-0.693847 -1.2517,-0.925129 -1.93659,-0.555077 -0.708513,0.370052 -0.944683,1.225796 -0.56681,1.896516 l 7.17957,12.836177 C 91.304763,67.694947 82.164985,81.271229 82.164985,96.859667 Z m -3.991273,11.656643 c 0,-5.55078 -4.605314,-10.083923 -10.29701,-10.060793 -5.691696,0 -10.297011,4.510013 -10.297011,10.083913 v 42.18593 c 0,5.57391 4.605315,10.08391 10.297011,10.08391 5.691696,0 10.29701,-4.51 10.29701,-10.08391 z m 95.979478,57.21928 -0.0237,-65.38356 -91.988203,0.0231 0.02362,65.38355 c 0,5.94396 4.912336,10.75464 10.981904,10.75464 h 7.486589 v 22.31875 c 0,5.55078 4.60531,10.08392 10.27339,10.08392 5.6917,0 10.29701,-4.53314 10.29701,-10.08392 v -22.31875 h 13.88679 v 22.31875 c 0,5.55078 4.60532,10.08392 10.29701,10.08392 5.6917,0 10.29702,-4.53314 10.29702,-10.08392 v -22.31875 h 7.5102 c 6.04595,-0.0231 10.95829,-4.83381 10.95829,-10.77777 z m 24.56167,-15.03336 v -42.18592 c 0,-5.57391 -4.60531,-10.083923 -10.297,-10.083923 -5.6917,0 -10.29702,4.510013 -10.29702,10.083923 v 42.18592 c 0,5.57391 4.60532,10.08392 10.29702,10.08392 5.69169,0 10.297,-4.51001 10.297,-10.08392 z"
         id="path827"
         style="stroke-width:0.23371345" /></clipPath></defs><sodipodi:namedview
     pagecolor="#ffffff"
     bordercolor="#666666"
     borderopacity="1"
     objecttolerance="10"
     gridtolerance="10"
     guidetolerance="10"
     inkscape:pageopacity="0"
     inkscape:pageshadow="2"
     inkscape:window-width="1920"
     inkscape:window-height="1027"
     id="namedview11"
     showgrid="false"
     inkscape:zoom="2.6074563"
     inkscape:cx="159.43091"
     inkscape:cy="97.74209"
     inkscape:window-x="0"
     inkscape:window-y="0"
     inkscape:window-maximized="1"
     inkscape:current-layer="Layer_1" /><g
     id="g8"
     transform="translate(1.53574,2.3010932)"
     clip-path="url(#clipPath825)"
     style="fill:#4a4f55;fill-opacity:1"><path
       d="m 180,121.064 h -8.703 l -3.428,20.309 h 8.176 c 3.691,-0.35 6.593,-1.494 8.703,-3.429 2.109,-1.935 3.251,-5.54 3.428,-10.814 0,-4.044 -2.728,-6.066 -8.176,-6.066 z"
       id="path2"
       inkscape:connector-curvature="0"
       style="fill:#4a4f55;fill-opacity:1" /><path
       d="M 226,14 H 30 c -8.837,0 -16,7.164 -16,16 v 196 c 0,8.837 7.163,16 16,16 h 196 c 8.836,0 16,-7.163 16,-16 V 30 c 0,-8.836 -7.164,-16 -16,-16 z"
       id="path4"
       inkscape:connector-curvature="0"
       sodipodi:nodetypes="sssssssss"
       style="fill:#4a4f55;fill-opacity:1" /></g></svg>