<?xml version="1.0" encoding="UTF-8" standalone="no"?>
<svg
   xmlns:dc="http://purl.org/dc/elements/1.1/"
   xmlns:cc="http://creativecommons.org/ns#"
   xmlns:rdf="http://www.w3.org/1999/02/22-rdf-syntax-ns#"
   xmlns:svg="http://www.w3.org/2000/svg"
   xmlns="http://www.w3.org/2000/svg"
   xmlns:sodipodi="http://sodipodi.sourceforge.net/DTD/sodipodi-0.dtd"
   xmlns:inkscape="http://www.inkscape.org/namespaces/inkscape"
   enable-background="new 0 0 64 64"
   height="100"
   id="Layer_1"
   version="1.1"
   viewBox="0 0 46 35.429001"
   xml:space="preserve"
   sodipodi:docname="if_Programming_Development_Api_1743800.svg"
   inkscape:version="0.92.2 (5c3e80d, 2017-08-06)"><metadata
     id="metadata879"><rdf:RDF><cc:Work
         rdf:about=""><dc:format>image/svg+xml</dc:format><dc:type
           rdf:resource="http://purl.org/dc/dcmitype/StillImage" /></cc:Work></rdf:RDF></metadata><defs
     id="defs877" /><sodipodi:namedview
     pagecolor="#ffffff"
     bordercolor="#666666"
     borderopacity="1"
     objecttolerance="10"
     gridtolerance="10"
     guidetolerance="10"
     inkscape:pageopacity="0"
     inkscape:pageshadow="2"
     inkscape:window-width="1920"
     inkscape:window-height="1017"
     id="namedview875"
     showgrid="false"
     inkscape:zoom="9.3691649"
     inkscape:cx="12.683738"
     inkscape:cy="16.525885"
     inkscape:window-x="-8"
     inkscape:window-y="-8"
     inkscape:window-maximized="1"
     inkscape:current-layer="Layer_1" /><polygon
     style="fill:#37474f"
     id="polygon848"
     points="28,23 28,22 24,22 24,23 27,23 27,28 24,28 24,23 23,23 23,32 24,32 24,29 27,29 27,32 28,32 "
     transform="translate(-9,-4.5)" /><polygon
     style="fill:#37474f"
     id="polygon850"
     points="34,28 31,28 31,23 34,23 34,22 30,22 30,32 31,32 31,29 35,29 35,23 34,23 "
     transform="translate(-9,-4.5)" /><polygon
     style="fill:#37474f"
     id="polygon852"
     points="40,22 37,22 37,23 38,23 38,31 37,31 37,32 40,32 40,31 39,31 39,23 40,23 "
     transform="translate(-9,-4.5)" /><path
     inkscape:connector-curvature="0"
     id="path854"
     d="M 10,3.929 V 7.74 l 5,4 v 2.76 h -4 v 3 H 6.237 L 3.566,14.229 C 3.834,13.889 4,13.466 4,13 4,11.896 3.104,11 2,11 c -1.104,0 -2,0.896 -2,2 0,1.104 0.896,2 2,2 0.275,0 0.538,-0.056 0.776,-0.157 L 5.763,18.5 H 11 v 2 H 4.793 L 3.01,22.283 C 2.712,22.107 2.37,22 2,22 0.896,22 0,22.896 0,24 0,25.104 0.896,26 2,26 3.104,26 4,25.104 4,24 4,23.63 3.893,23.288 3.717,22.99 L 5.207,21.5 H 11 v 5 H 4.793 L 3.01,28.283 C 2.712,28.107 2.37,28 2,28 0.896,28 0,28.896 0,30 0,31.104 0.896,32 2,32 3.104,32 4,31.104 4,30 4,29.63 3.893,29.288 3.717,28.99 L 5.207,27.5 H 11 v 3 h 4 v 1 c -0.861,0.223 -1.5,0.999 -1.5,1.929 0,1.104 0.896,2 2,2 1.104,0 2,-0.896 2,-2 0,-0.93 -0.639,-1.706 -1.5,-1.929 v -1 h 4 v 1 c -0.861,0.223 -1.5,0.999 -1.5,1.929 0,1.104 0.896,2 2,2 1.104,0 2,-0.896 2,-2 0,-0.93 -0.639,-1.706 -1.5,-1.929 v -1 h 4 v 1 c -0.861,0.223 -1.5,0.999 -1.5,1.929 0,1.104 0.896,2 2,2 1.104,0 2,-0.896 2,-2 0,-0.93 -0.639,-1.706 -1.5,-1.929 v -1 h 4 v 1 c -0.861,0.223 -1.5,0.999 -1.5,1.929 0,1.104 0.896,2 2,2 1.104,0 2,-0.896 2,-2 0,-0.93 -0.639,-1.706 -1.5,-1.929 v -1 h 4 v -3 h 5.793 l 1.49,1.49 C 42.107,29.288 42,29.63 42,30 c 0,1.104 0.896,2 2,2 1.104,0 2,-0.896 2,-2 0,-1.104 -0.896,-2 -2,-2 -0.37,0 -0.712,0.107 -1.01,0.283 L 41.207,26.5 H 35 v -2 h 6.203 l 1.517,-1.476 c 0.347,0.293 0.79,0.476 1.28,0.476 1.104,0 2,-0.896 2,-2 0,-1.104 -0.896,-2 -2,-2 -1.104,0 -2,0.896 -2,2 0,0.247 0.051,0.481 0.133,0.7 l -1.336,1.3 H 35 v -5 h 5.237 l 2.986,-3.657 C 43.462,14.944 43.725,15 44,15 c 1.104,0 2,-0.896 2,-2 0,-1.104 -0.896,-2 -2,-2 -1.104,0 -2,0.896 -2,2 0,0.466 0.166,0.889 0.434,1.229 L 39.763,17.5 H 35 v -3 h -4 v -2.76 l 5,-4 V 3.929 C 36.861,3.706 37.5,2.93 37.5,2 c 0,-1.104 -0.896,-2 -2,-2 -1.104,0 -2,0.896 -2,2 0,0.93 0.639,1.706 1.5,1.929 V 7.26 l -5,4 V 14.5 H 26 V 9.744 L 31,5.827 V 3.929 C 31.861,3.706 32.5,2.93 32.5,2 c 0,-1.104 -0.896,-2 -2,-2 -1.104,0 -2,0.896 -2,2 0,0.93 0.639,1.706 1.5,1.929 V 5.34 L 25,9.257 V 14.5 H 21 V 9.256 L 16,5.34 V 3.929 C 16.861,3.706 17.5,2.93 17.5,2 c 0,-1.104 -0.896,-2 -2,-2 -1.104,0 -2,0.896 -2,2 0,0.93 0.639,1.706 1.5,1.929 v 1.898 l 5,3.917 V 14.5 h -4 v -3.24 l -5,-4 V 3.929 C 11.861,3.706 12.5,2.93 12.5,2 c 0,-1.104 -0.896,-2 -2,-2 -1.104,0 -2,0.896 -2,2 0,0.93 0.639,1.706 1.5,1.929 z M 2,14 c -0.552,0 -1,-0.448 -1,-1 0,-0.552 0.448,-1 1,-1 0.552,0 1,0.448 1,1 0,0.552 -0.448,1 -1,1 z m 0,11 c -0.552,0 -1,-0.448 -1,-1 0,-0.552 0.448,-1 1,-1 0.552,0 1,0.448 1,1 0,0.552 -0.448,1 -1,1 z m 0,6 c -0.552,0 -1,-0.448 -1,-1 0,-0.552 0.448,-1 1,-1 0.552,0 1,0.448 1,1 0,0.552 -0.448,1 -1,1 z m 42,-2 c 0.552,0 1,0.448 1,1 0,0.552 -0.448,1 -1,1 -0.552,0 -1,-0.448 -1,-1 0,-0.552 0.448,-1 1,-1 z m 0,-8.5 c 0.552,0 1,0.448 1,1 0,0.552 -0.448,1 -1,1 -0.552,0 -1,-0.448 -1,-1 0,-0.552 0.448,-1 1,-1 z M 44,12 c 0.552,0 1,0.448 1,1 0,0.552 -0.448,1 -1,1 -0.552,0 -1,-0.448 -1,-1 0,-0.552 0.448,-1 1,-1 z M 34.5,2 c 0,-0.552 0.448,-1 1,-1 0.552,0 1,0.448 1,1 0,0.552 -0.448,1 -1,1 -0.552,0 -1,-0.448 -1,-1 z m -5,0 c 0,-0.552 0.448,-1 1,-1 0.552,0 1,0.448 1,1 0,0.552 -0.448,1 -1,1 -0.552,0 -1,-0.448 -1,-1 z m -15,0 c 0,-0.552 0.448,-1 1,-1 0.552,0 1,0.448 1,1 0,0.552 -0.448,1 -1,1 -0.552,0 -1,-0.448 -1,-1 z m 2,31.429 c 0,0.552 -0.448,1 -1,1 -0.552,0 -1,-0.448 -1,-1 0,-0.552 0.448,-1 1,-1 0.552,0 1,0.448 1,1 z m 5,0 c 0,0.552 -0.448,1 -1,1 -0.552,0 -1,-0.448 -1,-1 0,-0.552 0.448,-1 1,-1 0.552,0 1,0.448 1,1 z m 5,0 c 0,0.552 -0.448,1 -1,1 -0.552,0 -1,-0.448 -1,-1 0,-0.552 0.448,-1 1,-1 0.552,0 1,0.448 1,1 z m 5,0 c 0,0.552 -0.448,1 -1,1 -0.552,0 -1,-0.448 -1,-1 0,-0.552 0.448,-1 1,-1 0.552,0 1,0.448 1,1 z M 34,15.5 v 2 1 5 1 2 1 2 H 12 v -2 -1 -5 -1 -2 -1 -2 z M 10.5,1 c 0.552,0 1,0.448 1,1 0,0.552 -0.448,1 -1,1 -0.552,0 -1,-0.448 -1,-1 0,-0.552 0.448,-1 1,-1 z" /></svg>