<?xml version="1.0" encoding="UTF-8" standalone="no"?>
<svg
   xmlns:dc="http://purl.org/dc/elements/1.1/"
   xmlns:cc="http://creativecommons.org/ns#"
   xmlns:rdf="http://www.w3.org/1999/02/22-rdf-syntax-ns#"
   xmlns:svg="http://www.w3.org/2000/svg"
   xmlns="http://www.w3.org/2000/svg"
   xmlns:sodipodi="http://sodipodi.sourceforge.net/DTD/sodipodi-0.dtd"
   xmlns:inkscape="http://www.inkscape.org/namespaces/inkscape"
   version="1.1"
   viewBox="0 0 251.40244 258.185"
   xml:space="preserve"
   id="svg1275"
   sodipodi:docname="if_bank-building_532649.svg"
   width="251.40244"
   height="258.185"
   inkscape:version="0.92.2 (5c3e80d, 2017-08-06)"><metadata
     id="metadata1281"><rdf:RDF><cc:Work
         rdf:about=""><dc:format>image/svg+xml</dc:format><dc:type
           rdf:resource="http://purl.org/dc/dcmitype/StillImage" /></cc:Work></rdf:RDF></metadata><defs
     id="defs1279" /><sodipodi:namedview
     pagecolor="#ffffff"
     bordercolor="#666666"
     borderopacity="1"
     objecttolerance="10"
     gridtolerance="10"
     guidetolerance="10"
     inkscape:pageopacity="0"
     inkscape:pageshadow="2"
     inkscape:window-width="1920"
     inkscape:window-height="1017"
     id="namedview1277"
     showgrid="false"
     inkscape:zoom="0.59961817"
     inkscape:cx="77.232885"
     inkscape:cy="-141.35566"
     inkscape:window-x="-8"
     inkscape:window-y="-8"
     inkscape:window-maximized="1"
     inkscape:current-layer="g1271" /><g
     id="bank-building"
     transform="translate(-124.29298,-118.722)"><g
       id="g1271"><g
         id="_x34_"><g
           id="g1053"><path
             d="m 373.659,206.979 c 3.188,2.34 2.564,4.259 -1.389,4.259 H 127.725 c -3.962,0 -4.586,-1.919 -1.389,-4.259 l 117.85,-86.499 c 3.205,-2.344 8.414,-2.344 11.615,0 z"
             style="fill:#ffffff"
             id="path1051"
             inkscape:connector-curvature="0" /></g><g
           id="g1057"><path
             d="m 325.54,207.079 c 2.854,2.103 2.29,3.816 -1.252,3.816 H 175.712 c -3.547,0 -4.111,-1.714 -1.248,-3.816 l 70.346,-51.628 c 2.863,-2.098 7.526,-2.098 10.38,0"
             style="fill:#b5b9bd"
             id="path1055"
             inkscape:connector-curvature="0" /></g><g
           id="g1061"><path
             d="m 333.617,226.53 c 0,-3.953 -3.24,-7.196 -7.205,-7.196 H 173.588 c -3.957,0 -7.209,3.243 -7.209,7.196 v 115.807 c 0,3.966 3.252,7.207 7.209,7.207 h 152.824 c 3.966,0 7.205,-3.242 7.205,-7.207 z"
             style="fill:#59616a"
             id="path1059"
             inkscape:connector-curvature="0" /></g><g
           id="g1070"><linearGradient
             gradientUnits="userSpaceOnUse"
             id="SVGID_1_"
             x1="155.7547"
             x2="181.2932"
             y1="271.33099"
             y2="271.33099"><stop
               offset="0.5"
               style="stop-color:#FFFFFF"
               id="stop1063" /><stop
               offset="0.5"
               style="stop-color:#EBEBEB"
               id="stop1065" /></linearGradient><path
             d="m 181.293,312.367 c 0,3.957 -3.24,7.188 -7.205,7.188 h -11.124 c -3.957,0 -7.21,-3.231 -7.21,-7.188 v -82.061 c 0,-3.959 3.252,-7.199 7.21,-7.199 h 11.124 c 3.966,0 7.205,3.239 7.205,7.199 z"
             style="fill:url(#SVGID_1_)"
             id="path1068"
             inkscape:connector-curvature="0" /></g><g
           id="g1079"><linearGradient
             gradientUnits="userSpaceOnUse"
             id="SVGID_2_"
             x1="318.69791"
             x2="344.23599"
             y1="271.33099"
             y2="271.33099"><stop
               offset="0.5"
               style="stop-color:#FFFFFF"
               id="stop1072" /><stop
               offset="0.5"
               style="stop-color:#EBEBEB"
               id="stop1074" /></linearGradient><path
             d="m 344.236,312.367 c 0,3.957 -3.252,7.188 -7.209,7.188 h -11.133 c -3.961,0 -7.196,-3.231 -7.196,-7.188 v -82.061 c 0,-3.959 3.235,-7.199 7.196,-7.199 h 11.133 c 3.957,0 7.209,3.239 7.209,7.199 z"
             style="fill:url(#SVGID_2_)"
             id="path1077"
             inkscape:connector-curvature="0" /></g><g
           id="g1088"><linearGradient
             gradientUnits="userSpaceOnUse"
             id="SVGID_3_"
             x1="264.3949"
             x2="289.91589"
             y1="271.33099"
             y2="271.33099"><stop
               offset="0.5"
               style="stop-color:#FFFFFF"
               id="stop1081" /><stop
               offset="0.5"
               style="stop-color:#EBEBEB"
               id="stop1083" /></linearGradient><path
             d="m 289.916,312.367 c 0,3.957 -3.239,7.188 -7.196,7.188 h -11.137 c -3.962,0 -7.188,-3.231 -7.188,-7.188 v -82.061 c 0,-3.959 3.226,-7.199 7.188,-7.199 h 11.137 c 3.957,0 7.196,3.239 7.196,7.199 z"
             style="fill:url(#SVGID_3_)"
             id="path1086"
             inkscape:connector-curvature="0" /></g><g
           id="g1097"><linearGradient
             gradientUnits="userSpaceOnUse"
             id="SVGID_4_"
             x1="210.07919"
             x2="235.6002"
             y1="271.33099"
             y2="271.33099"><stop
               offset="0.5"
               style="stop-color:#FFFFFF"
               id="stop1090" /><stop
               offset="0.5"
               style="stop-color:#EBEBEB"
               id="stop1092" /></linearGradient><path
             d="m 235.6,312.367 c 0,3.957 -3.235,7.188 -7.188,7.188 h -11.145 c -3.949,0 -7.188,-3.231 -7.188,-7.188 v -82.061 c 0,-3.959 3.239,-7.199 7.188,-7.199 h 11.145 c 3.953,0 7.188,3.239 7.188,7.199 z"
             style="fill:url(#SVGID_4_)"
             id="path1095"
             inkscape:connector-curvature="0" /></g><g
           id="g1106"><linearGradient
             gradientUnits="userSpaceOnUse"
             id="SVGID_5_"
             x1="249.99339"
             x2="249.99339"
             y1="376.9071"
             y2="349.54419"><stop
               offset="0.5"
               style="stop-color:#EBEBEB"
               id="stop1099" /><stop
               offset="0.5"
               style="stop-color:#FFFFFF"
               id="stop1101" /></linearGradient><path
             d="m 370.322,369.715 c 0,3.959 -3.235,7.192 -7.197,7.192 H 136.862 c -3.953,0 -7.197,-3.233 -7.197,-7.192 v -12.978 c 0,-3.959 3.244,-7.192 7.197,-7.192 h 226.263 c 3.962,0 7.197,3.233 7.197,7.192 z"
             style="fill:url(#SVGID_5_)"
             id="path1104"
             inkscape:connector-curvature="0" /></g><g
           id="g1115"><linearGradient
             gradientUnits="userSpaceOnUse"
             id="SVGID_6_"
             x1="249.99561"
             x2="249.99561"
             y1="349.54419"
             y2="329.98419"><stop
               offset="0.5"
               style="stop-color:#EBEBEB"
               id="stop1108" /><stop
               offset="0.5"
               style="stop-color:#FFFFFF"
               id="stop1110" /></linearGradient><path
             d="m 362.92,337.189 c 0,-3.957 -3.24,-7.205 -7.197,-7.205 H 144.259 c -3.957,0 -7.188,3.248 -7.188,7.205 v 5.147 c 0,3.966 3.231,7.207 7.188,7.207 h 211.464 c 3.957,0 7.197,-3.242 7.197,-7.207 z"
             style="fill:url(#SVGID_6_)"
             id="path1113"
             inkscape:connector-curvature="0" /></g><g
           id="g1124"><linearGradient
             gradientUnits="userSpaceOnUse"
             id="SVGID_7_"
             x1="168.5327"
             x2="168.5327"
             y1="239.42751"
             y2="226.38699"><stop
               offset="0.5"
               style="stop-color:#FFFFFF"
               id="stop1117" /><stop
               offset="0.5"
               style="stop-color:#EBEBEB"
               id="stop1119" /></linearGradient><path
             d="m 186.768,232.908 c 0,3.579 -3.24,6.519 -7.197,6.519 h -22.077 c -3.97,0 -7.196,-2.94 -7.196,-6.519 0,-3.587 3.226,-6.521 7.196,-6.521 h 22.077 c 3.957,0 7.197,2.934 7.197,6.521 z"
             style="fill:url(#SVGID_7_)"
             id="path1122"
             inkscape:connector-curvature="0" /></g><g
           id="g1133"><linearGradient
             gradientUnits="userSpaceOnUse"
             id="SVGID_8_"
             x1="331.47141"
             x2="331.47141"
             y1="239.42751"
             y2="226.38699"><stop
               offset="0.5"
               style="stop-color:#FFFFFF"
               id="stop1126" /><stop
               offset="0.5"
               style="stop-color:#EBEBEB"
               id="stop1128" /></linearGradient><path
             d="m 349.71,232.908 c 0,3.579 -3.244,6.519 -7.192,6.519 h -22.094 c -3.961,0 -7.192,-2.94 -7.192,-6.519 0,-3.587 3.231,-6.521 7.192,-6.521 h 22.094 c 3.949,0 7.192,2.934 7.192,6.521 z"
             style="fill:url(#SVGID_8_)"
             id="path1131"
             inkscape:connector-curvature="0" /></g><g
           id="g1142"><linearGradient
             gradientUnits="userSpaceOnUse"
             id="SVGID_9_"
             x1="277.14911"
             x2="277.14911"
             y1="239.42751"
             y2="226.38699"><stop
               offset="0.5"
               style="stop-color:#FFFFFF"
               id="stop1135" /><stop
               offset="0.5"
               style="stop-color:#EBEBEB"
               id="stop1137" /></linearGradient><path
             d="m 295.39,232.908 c 0,3.579 -3.244,6.519 -7.201,6.519 h -22.081 c -3.957,0 -7.201,-2.94 -7.201,-6.519 0,-3.587 3.244,-6.521 7.201,-6.521 h 22.081 c 3.958,0 7.201,2.934 7.201,6.521 z"
             style="fill:url(#SVGID_9_)"
             id="path1140"
             inkscape:connector-curvature="0" /></g><g
           id="g1151"><linearGradient
             gradientUnits="userSpaceOnUse"
             id="SVGID_10_"
             x1="222.8421"
             x2="222.8421"
             y1="239.42751"
             y2="226.38699"><stop
               offset="0.5"
               style="stop-color:#FFFFFF"
               id="stop1144" /><stop
               offset="0.5"
               style="stop-color:#EBEBEB"
               id="stop1146" /></linearGradient><path
             d="m 241.083,232.908 c 0,3.579 -3.248,6.519 -7.201,6.519 h -22.085 c -3.957,0 -7.196,-2.94 -7.196,-6.519 0,-3.587 3.239,-6.521 7.196,-6.521 h 22.085 c 3.953,0 7.201,2.934 7.201,6.521 z"
             style="fill:url(#SVGID_10_)"
             id="path1149"
             inkscape:connector-curvature="0" /></g><g
           id="g1160"><linearGradient
             gradientUnits="userSpaceOnUse"
             id="SVGID_11_"
             x1="168.5262"
             x2="168.5262"
             y1="246.0515"
             y2="239.5321"><stop
               offset="0.5"
               style="stop-color:#FFFFFF"
               id="stop1153" /><stop
               offset="0.5"
               style="stop-color:#EBEBEB"
               id="stop1155" /></linearGradient><path
             d="m 184.037,243.173 c 0,1.584 -1.299,2.879 -2.876,2.879 h -25.256 c -1.585,0 -2.889,-1.295 -2.889,-2.879 v -0.746 c 0,-1.596 1.303,-2.895 2.889,-2.895 h 25.256 c 1.577,0 2.876,1.299 2.876,2.895 z"
             style="fill:url(#SVGID_11_)"
             id="path1158"
             inkscape:connector-curvature="0" /></g><g
           id="g1169"><linearGradient
             gradientUnits="userSpaceOnUse"
             id="SVGID_12_"
             x1="331.46481"
             x2="331.46481"
             y1="246.0515"
             y2="239.5321"><stop
               offset="0.5"
               style="stop-color:#FFFFFF"
               id="stop1162" /><stop
               offset="0.5"
               style="stop-color:#EBEBEB"
               id="stop1164" /></linearGradient><path
             d="m 346.975,243.173 c 0,1.584 -1.295,2.879 -2.885,2.879 h -25.256 c -1.585,0 -2.88,-1.295 -2.88,-2.879 v -0.746 c 0,-1.596 1.295,-2.895 2.88,-2.895 h 25.256 c 1.59,0 2.885,1.299 2.885,2.895 z"
             style="fill:url(#SVGID_12_)"
             id="path1167"
             inkscape:connector-curvature="0" /></g><g
           id="g1178"><linearGradient
             gradientUnits="userSpaceOnUse"
             id="SVGID_13_"
             x1="277.14911"
             x2="277.14911"
             y1="246.0515"
             y2="239.5321"><stop
               offset="0.5"
               style="stop-color:#FFFFFF"
               id="stop1171" /><stop
               offset="0.5"
               style="stop-color:#EBEBEB"
               id="stop1173" /></linearGradient><path
             d="m 292.655,243.173 c 0,1.584 -1.295,2.879 -2.876,2.879 h -25.252 c -1.598,0 -2.885,-1.295 -2.885,-2.879 v -0.746 c 0,-1.596 1.287,-2.895 2.885,-2.895 h 25.252 c 1.581,0 2.876,1.299 2.876,2.895 z"
             style="fill:url(#SVGID_13_)"
             id="path1176"
             inkscape:connector-curvature="0" /></g><g
           id="g1187"><linearGradient
             gradientUnits="userSpaceOnUse"
             id="SVGID_14_"
             x1="222.8441"
             x2="222.8441"
             y1="246.0515"
             y2="239.5321"><stop
               offset="0.5"
               style="stop-color:#FFFFFF"
               id="stop1180" /><stop
               offset="0.5"
               style="stop-color:#EBEBEB"
               id="stop1182" /></linearGradient><path
             d="m 238.352,243.173 c 0,1.584 -1.312,2.879 -2.884,2.879 h -25.252 c -1.59,0 -2.88,-1.295 -2.88,-2.879 v -0.746 c 0,-1.596 1.29,-2.895 2.88,-2.895 h 25.252 c 1.572,0 2.884,1.299 2.884,2.895 z"
             style="fill:url(#SVGID_14_)"
             id="path1185"
             inkscape:connector-curvature="0" /></g><g
           id="g1196"><linearGradient
             gradientUnits="userSpaceOnUse"
             id="SVGID_15_"
             x1="168.5262"
             x2="168.5262"
             y1="316.96729"
             y2="310.4483"><stop
               offset="0.5"
               style="stop-color:#FFFFFF"
               id="stop1189" /><stop
               offset="0.5"
               style="stop-color:#EBEBEB"
               id="stop1191" /></linearGradient><path
             d="m 184.037,314.091 c 0,1.588 -1.299,2.876 -2.876,2.876 h -25.256 c -1.585,0 -2.889,-1.288 -2.889,-2.876 v -0.767 c 0,-1.575 1.303,-2.876 2.889,-2.876 h 25.256 c 1.577,0 2.876,1.301 2.876,2.876 z"
             style="fill:url(#SVGID_15_)"
             id="path1194"
             inkscape:connector-curvature="0" /></g><g
           id="g1205"><linearGradient
             gradientUnits="userSpaceOnUse"
             id="SVGID_16_"
             x1="331.46481"
             x2="331.46481"
             y1="316.96729"
             y2="310.4483"><stop
               offset="0.5"
               style="stop-color:#FFFFFF"
               id="stop1198" /><stop
               offset="0.5"
               style="stop-color:#EBEBEB"
               id="stop1200" /></linearGradient><path
             d="m 346.975,314.091 c 0,1.588 -1.295,2.876 -2.885,2.876 h -25.256 c -1.585,0 -2.88,-1.288 -2.88,-2.876 v -0.767 c 0,-1.575 1.295,-2.876 2.88,-2.876 h 25.256 c 1.59,0 2.885,1.301 2.885,2.876 z"
             style="fill:url(#SVGID_16_)"
             id="path1203"
             inkscape:connector-curvature="0" /></g><g
           id="g1214"><linearGradient
             gradientUnits="userSpaceOnUse"
             id="SVGID_17_"
             x1="277.14911"
             x2="277.14911"
             y1="316.96729"
             y2="310.4483"><stop
               offset="0.5"
               style="stop-color:#FFFFFF"
               id="stop1207" /><stop
               offset="0.5"
               style="stop-color:#EBEBEB"
               id="stop1209" /></linearGradient><path
             d="m 292.655,314.091 c 0,1.588 -1.295,2.876 -2.876,2.876 h -25.252 c -1.598,0 -2.885,-1.288 -2.885,-2.876 v -0.767 c 0,-1.575 1.287,-2.876 2.885,-2.876 h 25.252 c 1.581,0 2.876,1.301 2.876,2.876 z"
             style="fill:url(#SVGID_17_)"
             id="path1212"
             inkscape:connector-curvature="0" /></g><g
           id="g1223"><linearGradient
             gradientUnits="userSpaceOnUse"
             id="SVGID_18_"
             x1="222.8441"
             x2="222.8441"
             y1="316.96729"
             y2="310.4483"><stop
               offset="0.5"
               style="stop-color:#FFFFFF"
               id="stop1216" /><stop
               offset="0.5"
               style="stop-color:#EBEBEB"
               id="stop1218" /></linearGradient><path
             d="m 238.352,314.091 c 0,1.588 -1.312,2.876 -2.884,2.876 h -25.252 c -1.59,0 -2.88,-1.288 -2.88,-2.876 v -0.767 c 0,-1.575 1.29,-2.876 2.88,-2.876 h 25.252 c 1.572,0 2.884,1.301 2.884,2.876 z"
             style="fill:url(#SVGID_18_)"
             id="path1221"
             inkscape:connector-curvature="0" /></g><g
           id="g1232"><linearGradient
             gradientUnits="userSpaceOnUse"
             id="SVGID_19_"
             x1="168.5327"
             x2="168.5327"
             y1="329.98419"
             y2="316.95679"><stop
               offset="0.5"
               style="stop-color:#FFFFFF"
               id="stop1225" /><stop
               offset="0.5"
               style="stop-color:#EBEBEB"
               id="stop1227" /></linearGradient><path
             d="m 186.768,323.467 c 0,3.59 -3.24,6.517 -7.197,6.517 h -22.077 c -3.97,0 -7.196,-2.927 -7.196,-6.517 0,-3.586 3.226,-6.511 7.196,-6.511 h 22.077 c 3.957,10e-4 7.197,2.926 7.197,6.511 z"
             style="fill:url(#SVGID_19_)"
             id="path1230"
             inkscape:connector-curvature="0" /></g><g
           id="g1241"><linearGradient
             gradientUnits="userSpaceOnUse"
             id="SVGID_20_"
             x1="331.47141"
             x2="331.47141"
             y1="329.98419"
             y2="316.95679"><stop
               offset="0.5"
               style="stop-color:#FFFFFF"
               id="stop1234" /><stop
               offset="0.5"
               style="stop-color:#EBEBEB"
               id="stop1236" /></linearGradient><path
             d="m 349.71,323.467 c 0,3.59 -3.244,6.517 -7.192,6.517 h -22.094 c -3.961,0 -7.192,-2.927 -7.192,-6.517 0,-3.586 3.231,-6.511 7.192,-6.511 h 22.094 c 3.949,10e-4 7.192,2.926 7.192,6.511 z"
             style="fill:url(#SVGID_20_)"
             id="path1239"
             inkscape:connector-curvature="0" /></g><g
           id="g1250"><linearGradient
             gradientUnits="userSpaceOnUse"
             id="SVGID_21_"
             x1="277.14911"
             x2="277.14911"
             y1="329.98419"
             y2="316.95679"><stop
               offset="0.5"
               style="stop-color:#FFFFFF"
               id="stop1243" /><stop
               offset="0.5"
               style="stop-color:#EBEBEB"
               id="stop1245" /></linearGradient><path
             d="m 295.39,323.467 c 0,3.59 -3.244,6.517 -7.201,6.517 h -22.081 c -3.957,0 -7.201,-2.927 -7.201,-6.517 0,-3.586 3.244,-6.511 7.201,-6.511 h 22.081 c 3.958,10e-4 7.201,2.926 7.201,6.511 z"
             style="fill:url(#SVGID_21_)"
             id="path1248"
             inkscape:connector-curvature="0" /></g><g
           id="g1259"><linearGradient
             gradientUnits="userSpaceOnUse"
             id="SVGID_22_"
             x1="222.8421"
             x2="222.8421"
             y1="329.98419"
             y2="316.95679"><stop
               offset="0.5"
               style="stop-color:#FFFFFF"
               id="stop1252" /><stop
               offset="0.5"
               style="stop-color:#EBEBEB"
               id="stop1254" /></linearGradient><path
             d="m 241.083,323.467 c 0,3.59 -3.248,6.517 -7.201,6.517 h -22.085 c -3.957,0 -7.196,-2.927 -7.196,-6.517 0,-3.586 3.239,-6.511 7.196,-6.511 h 22.085 c 3.953,10e-4 7.201,2.926 7.201,6.511 z"
             style="fill:url(#SVGID_22_)"
             id="path1257"
             inkscape:connector-curvature="0" /></g><g
           id="g1268"><linearGradient
             gradientUnits="userSpaceOnUse"
             id="SVGID_23_"
             x1="249.99561"
             x2="249.99561"
             y1="226.3633"
             y2="206.806"><stop
               offset="0.5"
               style="stop-color:#FFFFFF"
               id="stop1261" /><stop
               offset="0.5"
               style="stop-color:#EBEBEB"
               id="stop1263" /></linearGradient><path
             d="m 362.92,214.013 c 0,-3.957 -3.24,-7.207 -7.197,-7.207 H 144.259 c -3.957,0 -7.188,3.25 -7.188,7.207 v 5.149 c 0,3.957 3.231,7.201 7.188,7.201 h 211.464 c 3.957,0 7.197,-3.243 7.197,-7.201 z"
             style="fill:url(#SVGID_23_)"
             id="path1266"
             inkscape:connector-curvature="0" /></g></g></g></g><g
     id="Layer_1"
     transform="translate(-124.29298,-118.722)" /></svg>