<?xml version="1.0" encoding="UTF-8" standalone="no"?>
<svg
   xmlns:dc="http://purl.org/dc/elements/1.1/"
   xmlns:cc="http://creativecommons.org/ns#"
   xmlns:rdf="http://www.w3.org/1999/02/22-rdf-syntax-ns#"
   xmlns:svg="http://www.w3.org/2000/svg"
   xmlns="http://www.w3.org/2000/svg"
   xmlns:sodipodi="http://sodipodi.sourceforge.net/DTD/sodipodi-0.dtd"
   xmlns:inkscape="http://www.inkscape.org/namespaces/inkscape"
   style="enable-background:new 0 0 499.987 500.007;"
   version="1.1"
   viewBox="0 0 499.987 500.007"
   xml:space="preserve"
   id="svg1533"
   sodipodi:docname="Bank.svg"
   inkscape:version="0.92.2 (5c3e80d, 2017-08-06)"><metadata
     id="metadata1539"><rdf:RDF><cc:Work
         rdf:about=""><dc:format>image/svg+xml</dc:format><dc:type
           rdf:resource="http://purl.org/dc/dcmitype/StillImage" /><dc:title></dc:title></cc:Work></rdf:RDF></metadata><defs
     id="defs1537" /><sodipodi:namedview
     pagecolor="#ffffff"
     bordercolor="#666666"
     borderopacity="1"
     objecttolerance="10"
     gridtolerance="10"
     guidetolerance="10"
     inkscape:pageopacity="0"
     inkscape:pageshadow="2"
     inkscape:window-width="1920"
     inkscape:window-height="1017"
     id="namedview1535"
     showgrid="false"
     inkscape:zoom="1.8879736"
     inkscape:cx="272.2408"
     inkscape:cy="301.2637"
     inkscape:window-x="-8"
     inkscape:window-y="-8"
     inkscape:window-maximized="1"
     inkscape:current-layer="g1529" /><g
     id="bank-building"><g
       id="g1529"><path
         d="M249.998,500.007C111.931,500.007,0,388.076,0,250C0,111.931,111.931,0,249.998,0    s249.989,111.931,249.989,250C499.987,388.076,388.065,500.007,249.998,500.007z"
         style="fill:#59616A;"
         id="path1307" /><g
         id="_x34_"
         transform="matrix(1.4641,0,0,1.4641,-116.0223,-145.01071)"><g
           id="g1311"><path
             d="m 373.659,206.979 c 3.188,2.34 2.564,4.259 -1.389,4.259 H 127.725 c -3.962,0 -4.586,-1.919 -1.389,-4.259 l 117.85,-86.499 c 3.205,-2.344 8.414,-2.344 11.615,0 z"
             style="fill:#ffffff"
             id="path1309"
             inkscape:connector-curvature="0" /></g><g
           id="g1315"><path
             d="m 325.54,207.079 c 2.854,2.103 2.29,3.816 -1.252,3.816 H 175.712 c -3.547,0 -4.111,-1.714 -1.248,-3.816 l 70.346,-51.628 c 2.863,-2.098 7.526,-2.098 10.38,0"
             style="fill:#b5b9bd"
             id="path1313"
             inkscape:connector-curvature="0" /></g><g
           id="g1319"><path
             d="m 333.617,226.53 c 0,-3.953 -3.24,-7.196 -7.205,-7.196 H 173.588 c -3.957,0 -7.209,3.243 -7.209,7.196 v 115.807 c 0,3.966 3.252,7.207 7.209,7.207 h 152.824 c 3.966,0 7.205,-3.242 7.205,-7.207 z"
             style="fill:#59616a"
             id="path1317"
             inkscape:connector-curvature="0" /></g><g
           id="g1328"><linearGradient
             gradientUnits="userSpaceOnUse"
             id="SVGID_1_"
             x1="155.7547"
             x2="181.2932"
             y1="271.33099"
             y2="271.33099"><stop
               offset="0.5"
               style="stop-color:#FFFFFF"
               id="stop1321" /><stop
               offset="0.5"
               style="stop-color:#EBEBEB"
               id="stop1323" /></linearGradient><path
             d="m 181.293,312.367 c 0,3.957 -3.24,7.188 -7.205,7.188 h -11.124 c -3.957,0 -7.21,-3.231 -7.21,-7.188 v -82.061 c 0,-3.959 3.252,-7.199 7.21,-7.199 h 11.124 c 3.966,0 7.205,3.239 7.205,7.199 z"
             style="fill:url(#SVGID_1_)"
             id="path1326"
             inkscape:connector-curvature="0" /></g><g
           id="g1337"><linearGradient
             gradientUnits="userSpaceOnUse"
             id="SVGID_2_"
             x1="318.69791"
             x2="344.23599"
             y1="271.33099"
             y2="271.33099"><stop
               offset="0.5"
               style="stop-color:#FFFFFF"
               id="stop1330" /><stop
               offset="0.5"
               style="stop-color:#EBEBEB"
               id="stop1332" /></linearGradient><path
             d="m 344.236,312.367 c 0,3.957 -3.252,7.188 -7.209,7.188 h -11.133 c -3.961,0 -7.196,-3.231 -7.196,-7.188 v -82.061 c 0,-3.959 3.235,-7.199 7.196,-7.199 h 11.133 c 3.957,0 7.209,3.239 7.209,7.199 z"
             style="fill:url(#SVGID_2_)"
             id="path1335"
             inkscape:connector-curvature="0" /></g><g
           id="g1346"><linearGradient
             gradientUnits="userSpaceOnUse"
             id="SVGID_3_"
             x1="264.3949"
             x2="289.91589"
             y1="271.33099"
             y2="271.33099"><stop
               offset="0.5"
               style="stop-color:#FFFFFF"
               id="stop1339" /><stop
               offset="0.5"
               style="stop-color:#EBEBEB"
               id="stop1341" /></linearGradient><path
             d="m 289.916,312.367 c 0,3.957 -3.239,7.188 -7.196,7.188 h -11.137 c -3.962,0 -7.188,-3.231 -7.188,-7.188 v -82.061 c 0,-3.959 3.226,-7.199 7.188,-7.199 h 11.137 c 3.957,0 7.196,3.239 7.196,7.199 z"
             style="fill:url(#SVGID_3_)"
             id="path1344"
             inkscape:connector-curvature="0" /></g><g
           id="g1355"><linearGradient
             gradientUnits="userSpaceOnUse"
             id="SVGID_4_"
             x1="210.07919"
             x2="235.6002"
             y1="271.33099"
             y2="271.33099"><stop
               offset="0.5"
               style="stop-color:#FFFFFF"
               id="stop1348" /><stop
               offset="0.5"
               style="stop-color:#EBEBEB"
               id="stop1350" /></linearGradient><path
             d="m 235.6,312.367 c 0,3.957 -3.235,7.188 -7.188,7.188 h -11.145 c -3.949,0 -7.188,-3.231 -7.188,-7.188 v -82.061 c 0,-3.959 3.239,-7.199 7.188,-7.199 h 11.145 c 3.953,0 7.188,3.239 7.188,7.199 z"
             style="fill:url(#SVGID_4_)"
             id="path1353"
             inkscape:connector-curvature="0" /></g><g
           id="g1364"><linearGradient
             gradientUnits="userSpaceOnUse"
             id="SVGID_5_"
             x1="249.99339"
             x2="249.99339"
             y1="376.9071"
             y2="349.54419"><stop
               offset="0.5"
               style="stop-color:#EBEBEB"
               id="stop1357" /><stop
               offset="0.5"
               style="stop-color:#FFFFFF"
               id="stop1359" /></linearGradient><path
             d="m 370.322,369.715 c 0,3.959 -3.235,7.192 -7.197,7.192 H 136.862 c -3.953,0 -7.197,-3.233 -7.197,-7.192 v -12.978 c 0,-3.959 3.244,-7.192 7.197,-7.192 h 226.263 c 3.962,0 7.197,3.233 7.197,7.192 z"
             style="fill:url(#SVGID_5_)"
             id="path1362"
             inkscape:connector-curvature="0" /></g><g
           id="g1373"><linearGradient
             gradientUnits="userSpaceOnUse"
             id="SVGID_6_"
             x1="249.99561"
             x2="249.99561"
             y1="349.54419"
             y2="329.98419"><stop
               offset="0.5"
               style="stop-color:#EBEBEB"
               id="stop1366" /><stop
               offset="0.5"
               style="stop-color:#FFFFFF"
               id="stop1368" /></linearGradient><path
             d="m 362.92,337.189 c 0,-3.957 -3.24,-7.205 -7.197,-7.205 H 144.259 c -3.957,0 -7.188,3.248 -7.188,7.205 v 5.147 c 0,3.966 3.231,7.207 7.188,7.207 h 211.464 c 3.957,0 7.197,-3.242 7.197,-7.207 z"
             style="fill:url(#SVGID_6_)"
             id="path1371"
             inkscape:connector-curvature="0" /></g><g
           id="g1382"><linearGradient
             gradientUnits="userSpaceOnUse"
             id="SVGID_7_"
             x1="168.5327"
             x2="168.5327"
             y1="239.42751"
             y2="226.38699"><stop
               offset="0.5"
               style="stop-color:#FFFFFF"
               id="stop1375" /><stop
               offset="0.5"
               style="stop-color:#EBEBEB"
               id="stop1377" /></linearGradient><path
             d="m 186.768,232.908 c 0,3.579 -3.24,6.519 -7.197,6.519 h -22.077 c -3.97,0 -7.196,-2.94 -7.196,-6.519 0,-3.587 3.226,-6.521 7.196,-6.521 h 22.077 c 3.957,0 7.197,2.934 7.197,6.521 z"
             style="fill:url(#SVGID_7_)"
             id="path1380"
             inkscape:connector-curvature="0" /></g><g
           id="g1391"><linearGradient
             gradientUnits="userSpaceOnUse"
             id="SVGID_8_"
             x1="331.47141"
             x2="331.47141"
             y1="239.42751"
             y2="226.38699"><stop
               offset="0.5"
               style="stop-color:#FFFFFF"
               id="stop1384" /><stop
               offset="0.5"
               style="stop-color:#EBEBEB"
               id="stop1386" /></linearGradient><path
             d="m 349.71,232.908 c 0,3.579 -3.244,6.519 -7.192,6.519 h -22.094 c -3.961,0 -7.192,-2.94 -7.192,-6.519 0,-3.587 3.231,-6.521 7.192,-6.521 h 22.094 c 3.949,0 7.192,2.934 7.192,6.521 z"
             style="fill:url(#SVGID_8_)"
             id="path1389"
             inkscape:connector-curvature="0" /></g><g
           id="g1400"><linearGradient
             gradientUnits="userSpaceOnUse"
             id="SVGID_9_"
             x1="277.14911"
             x2="277.14911"
             y1="239.42751"
             y2="226.38699"><stop
               offset="0.5"
               style="stop-color:#FFFFFF"
               id="stop1393" /><stop
               offset="0.5"
               style="stop-color:#EBEBEB"
               id="stop1395" /></linearGradient><path
             d="m 295.39,232.908 c 0,3.579 -3.244,6.519 -7.201,6.519 h -22.081 c -3.957,0 -7.201,-2.94 -7.201,-6.519 0,-3.587 3.244,-6.521 7.201,-6.521 h 22.081 c 3.958,0 7.201,2.934 7.201,6.521 z"
             style="fill:url(#SVGID_9_)"
             id="path1398"
             inkscape:connector-curvature="0" /></g><g
           id="g1409"><linearGradient
             gradientUnits="userSpaceOnUse"
             id="SVGID_10_"
             x1="222.8421"
             x2="222.8421"
             y1="239.42751"
             y2="226.38699"><stop
               offset="0.5"
               style="stop-color:#FFFFFF"
               id="stop1402" /><stop
               offset="0.5"
               style="stop-color:#EBEBEB"
               id="stop1404" /></linearGradient><path
             d="m 241.083,232.908 c 0,3.579 -3.248,6.519 -7.201,6.519 h -22.085 c -3.957,0 -7.196,-2.94 -7.196,-6.519 0,-3.587 3.239,-6.521 7.196,-6.521 h 22.085 c 3.953,0 7.201,2.934 7.201,6.521 z"
             style="fill:url(#SVGID_10_)"
             id="path1407"
             inkscape:connector-curvature="0" /></g><g
           id="g1418"><linearGradient
             gradientUnits="userSpaceOnUse"
             id="SVGID_11_"
             x1="168.5262"
             x2="168.5262"
             y1="246.0515"
             y2="239.5321"><stop
               offset="0.5"
               style="stop-color:#FFFFFF"
               id="stop1411" /><stop
               offset="0.5"
               style="stop-color:#EBEBEB"
               id="stop1413" /></linearGradient><path
             d="m 184.037,243.173 c 0,1.584 -1.299,2.879 -2.876,2.879 h -25.256 c -1.585,0 -2.889,-1.295 -2.889,-2.879 v -0.746 c 0,-1.596 1.303,-2.895 2.889,-2.895 h 25.256 c 1.577,0 2.876,1.299 2.876,2.895 z"
             style="fill:url(#SVGID_11_)"
             id="path1416"
             inkscape:connector-curvature="0" /></g><g
           id="g1427"><linearGradient
             gradientUnits="userSpaceOnUse"
             id="SVGID_12_"
             x1="331.46481"
             x2="331.46481"
             y1="246.0515"
             y2="239.5321"><stop
               offset="0.5"
               style="stop-color:#FFFFFF"
               id="stop1420" /><stop
               offset="0.5"
               style="stop-color:#EBEBEB"
               id="stop1422" /></linearGradient><path
             d="m 346.975,243.173 c 0,1.584 -1.295,2.879 -2.885,2.879 h -25.256 c -1.585,0 -2.88,-1.295 -2.88,-2.879 v -0.746 c 0,-1.596 1.295,-2.895 2.88,-2.895 h 25.256 c 1.59,0 2.885,1.299 2.885,2.895 z"
             style="fill:url(#SVGID_12_)"
             id="path1425"
             inkscape:connector-curvature="0" /></g><g
           id="g1436"><linearGradient
             gradientUnits="userSpaceOnUse"
             id="SVGID_13_"
             x1="277.14911"
             x2="277.14911"
             y1="246.0515"
             y2="239.5321"><stop
               offset="0.5"
               style="stop-color:#FFFFFF"
               id="stop1429" /><stop
               offset="0.5"
               style="stop-color:#EBEBEB"
               id="stop1431" /></linearGradient><path
             d="m 292.655,243.173 c 0,1.584 -1.295,2.879 -2.876,2.879 h -25.252 c -1.598,0 -2.885,-1.295 -2.885,-2.879 v -0.746 c 0,-1.596 1.287,-2.895 2.885,-2.895 h 25.252 c 1.581,0 2.876,1.299 2.876,2.895 z"
             style="fill:url(#SVGID_13_)"
             id="path1434"
             inkscape:connector-curvature="0" /></g><g
           id="g1445"><linearGradient
             gradientUnits="userSpaceOnUse"
             id="SVGID_14_"
             x1="222.8441"
             x2="222.8441"
             y1="246.0515"
             y2="239.5321"><stop
               offset="0.5"
               style="stop-color:#FFFFFF"
               id="stop1438" /><stop
               offset="0.5"
               style="stop-color:#EBEBEB"
               id="stop1440" /></linearGradient><path
             d="m 238.352,243.173 c 0,1.584 -1.312,2.879 -2.884,2.879 h -25.252 c -1.59,0 -2.88,-1.295 -2.88,-2.879 v -0.746 c 0,-1.596 1.29,-2.895 2.88,-2.895 h 25.252 c 1.572,0 2.884,1.299 2.884,2.895 z"
             style="fill:url(#SVGID_14_)"
             id="path1443"
             inkscape:connector-curvature="0" /></g><g
           id="g1454"><linearGradient
             gradientUnits="userSpaceOnUse"
             id="SVGID_15_"
             x1="168.5262"
             x2="168.5262"
             y1="316.96729"
             y2="310.4483"><stop
               offset="0.5"
               style="stop-color:#FFFFFF"
               id="stop1447" /><stop
               offset="0.5"
               style="stop-color:#EBEBEB"
               id="stop1449" /></linearGradient><path
             d="m 184.037,314.091 c 0,1.588 -1.299,2.876 -2.876,2.876 h -25.256 c -1.585,0 -2.889,-1.288 -2.889,-2.876 v -0.767 c 0,-1.575 1.303,-2.876 2.889,-2.876 h 25.256 c 1.577,0 2.876,1.301 2.876,2.876 z"
             style="fill:url(#SVGID_15_)"
             id="path1452"
             inkscape:connector-curvature="0" /></g><g
           id="g1463"><linearGradient
             gradientUnits="userSpaceOnUse"
             id="SVGID_16_"
             x1="331.46481"
             x2="331.46481"
             y1="316.96729"
             y2="310.4483"><stop
               offset="0.5"
               style="stop-color:#FFFFFF"
               id="stop1456" /><stop
               offset="0.5"
               style="stop-color:#EBEBEB"
               id="stop1458" /></linearGradient><path
             d="m 346.975,314.091 c 0,1.588 -1.295,2.876 -2.885,2.876 h -25.256 c -1.585,0 -2.88,-1.288 -2.88,-2.876 v -0.767 c 0,-1.575 1.295,-2.876 2.88,-2.876 h 25.256 c 1.59,0 2.885,1.301 2.885,2.876 z"
             style="fill:url(#SVGID_16_)"
             id="path1461"
             inkscape:connector-curvature="0" /></g><g
           id="g1472"><linearGradient
             gradientUnits="userSpaceOnUse"
             id="SVGID_17_"
             x1="277.14911"
             x2="277.14911"
             y1="316.96729"
             y2="310.4483"><stop
               offset="0.5"
               style="stop-color:#FFFFFF"
               id="stop1465" /><stop
               offset="0.5"
               style="stop-color:#EBEBEB"
               id="stop1467" /></linearGradient><path
             d="m 292.655,314.091 c 0,1.588 -1.295,2.876 -2.876,2.876 h -25.252 c -1.598,0 -2.885,-1.288 -2.885,-2.876 v -0.767 c 0,-1.575 1.287,-2.876 2.885,-2.876 h 25.252 c 1.581,0 2.876,1.301 2.876,2.876 z"
             style="fill:url(#SVGID_17_)"
             id="path1470"
             inkscape:connector-curvature="0" /></g><g
           id="g1481"><linearGradient
             gradientUnits="userSpaceOnUse"
             id="SVGID_18_"
             x1="222.8441"
             x2="222.8441"
             y1="316.96729"
             y2="310.4483"><stop
               offset="0.5"
               style="stop-color:#FFFFFF"
               id="stop1474" /><stop
               offset="0.5"
               style="stop-color:#EBEBEB"
               id="stop1476" /></linearGradient><path
             d="m 238.352,314.091 c 0,1.588 -1.312,2.876 -2.884,2.876 h -25.252 c -1.59,0 -2.88,-1.288 -2.88,-2.876 v -0.767 c 0,-1.575 1.29,-2.876 2.88,-2.876 h 25.252 c 1.572,0 2.884,1.301 2.884,2.876 z"
             style="fill:url(#SVGID_18_)"
             id="path1479"
             inkscape:connector-curvature="0" /></g><g
           id="g1490"><linearGradient
             gradientUnits="userSpaceOnUse"
             id="SVGID_19_"
             x1="168.5327"
             x2="168.5327"
             y1="329.98419"
             y2="316.95679"><stop
               offset="0.5"
               style="stop-color:#FFFFFF"
               id="stop1483" /><stop
               offset="0.5"
               style="stop-color:#EBEBEB"
               id="stop1485" /></linearGradient><path
             d="m 186.768,323.467 c 0,3.59 -3.24,6.517 -7.197,6.517 h -22.077 c -3.97,0 -7.196,-2.927 -7.196,-6.517 0,-3.586 3.226,-6.511 7.196,-6.511 h 22.077 c 3.957,10e-4 7.197,2.926 7.197,6.511 z"
             style="fill:url(#SVGID_19_)"
             id="path1488"
             inkscape:connector-curvature="0" /></g><g
           id="g1499"><linearGradient
             gradientUnits="userSpaceOnUse"
             id="SVGID_20_"
             x1="331.47141"
             x2="331.47141"
             y1="329.98419"
             y2="316.95679"><stop
               offset="0.5"
               style="stop-color:#FFFFFF"
               id="stop1492" /><stop
               offset="0.5"
               style="stop-color:#EBEBEB"
               id="stop1494" /></linearGradient><path
             d="m 349.71,323.467 c 0,3.59 -3.244,6.517 -7.192,6.517 h -22.094 c -3.961,0 -7.192,-2.927 -7.192,-6.517 0,-3.586 3.231,-6.511 7.192,-6.511 h 22.094 c 3.949,10e-4 7.192,2.926 7.192,6.511 z"
             style="fill:url(#SVGID_20_)"
             id="path1497"
             inkscape:connector-curvature="0" /></g><g
           id="g1508"><linearGradient
             gradientUnits="userSpaceOnUse"
             id="SVGID_21_"
             x1="277.14911"
             x2="277.14911"
             y1="329.98419"
             y2="316.95679"><stop
               offset="0.5"
               style="stop-color:#FFFFFF"
               id="stop1501" /><stop
               offset="0.5"
               style="stop-color:#EBEBEB"
               id="stop1503" /></linearGradient><path
             d="m 295.39,323.467 c 0,3.59 -3.244,6.517 -7.201,6.517 h -22.081 c -3.957,0 -7.201,-2.927 -7.201,-6.517 0,-3.586 3.244,-6.511 7.201,-6.511 h 22.081 c 3.958,10e-4 7.201,2.926 7.201,6.511 z"
             style="fill:url(#SVGID_21_)"
             id="path1506"
             inkscape:connector-curvature="0" /></g><g
           id="g1517"><linearGradient
             gradientUnits="userSpaceOnUse"
             id="SVGID_22_"
             x1="222.8421"
             x2="222.8421"
             y1="329.98419"
             y2="316.95679"><stop
               offset="0.5"
               style="stop-color:#FFFFFF"
               id="stop1510" /><stop
               offset="0.5"
               style="stop-color:#EBEBEB"
               id="stop1512" /></linearGradient><path
             d="m 241.083,323.467 c 0,3.59 -3.248,6.517 -7.201,6.517 h -22.085 c -3.957,0 -7.196,-2.927 -7.196,-6.517 0,-3.586 3.239,-6.511 7.196,-6.511 h 22.085 c 3.953,10e-4 7.201,2.926 7.201,6.511 z"
             style="fill:url(#SVGID_22_)"
             id="path1515"
             inkscape:connector-curvature="0" /></g><g
           id="g1526"><linearGradient
             gradientUnits="userSpaceOnUse"
             id="SVGID_23_"
             x1="249.99561"
             x2="249.99561"
             y1="226.3633"
             y2="206.806"><stop
               offset="0.5"
               style="stop-color:#FFFFFF"
               id="stop1519" /><stop
               offset="0.5"
               style="stop-color:#EBEBEB"
               id="stop1521" /></linearGradient><path
             d="m 362.92,214.013 c 0,-3.957 -3.24,-7.207 -7.197,-7.207 H 144.259 c -3.957,0 -7.188,3.25 -7.188,7.207 v 5.149 c 0,3.957 3.231,7.201 7.188,7.201 h 211.464 c 3.957,0 7.197,-3.243 7.197,-7.201 z"
             style="fill:url(#SVGID_23_)"
             id="path1524"
             inkscape:connector-curvature="0" /></g></g></g></g><g
     id="Layer_1" /></svg>