<?xml version="1.0" encoding="UTF-8" standalone="no"?>
<!-- Generator: Adobe Illustrator 16.0.0, SVG Export Plug-In . SVG Version: 6.00 Build 0)  -->

<svg
   xmlns:dc="http://purl.org/dc/elements/1.1/"
   xmlns:cc="http://creativecommons.org/ns#"
   xmlns:rdf="http://www.w3.org/1999/02/22-rdf-syntax-ns#"
   xmlns:svg="http://www.w3.org/2000/svg"
   xmlns="http://www.w3.org/2000/svg"
   xmlns:sodipodi="http://sodipodi.sourceforge.net/DTD/sodipodi-0.dtd"
   xmlns:inkscape="http://www.inkscape.org/namespaces/inkscape"
   version="1.1"
   id="Layer_1"
   x="0px"
   y="0px"
   width="256px"
   height="256px"
   viewBox="0 0 256 256"
   style="enable-background:new 0 0 256 256;"
   xml:space="preserve"
   sodipodi:docname="c.svg"
   inkscape:version="0.92.2 (5c3e80d, 2017-08-06)"><metadata
     id="metadata15"><rdf:RDF><cc:Work
         rdf:about=""><dc:format>image/svg+xml</dc:format><dc:type
           rdf:resource="http://purl.org/dc/dcmitype/StillImage" /><dc:title /></cc:Work></rdf:RDF></metadata><defs
     id="defs13"><filter
       style="color-interpolation-filters:sRGB;"
       inkscape:label="Greyscale"
       id="filter1463"><feColorMatrix
         values="0.21 0.72 0.072 0.15 0 0.21 0.72 0.072 0.15 0 0.21 0.72 0.072 0.15 0 0 0 0 1 0 "
         id="feColorMatrix1461" /></filter><filter
       style="color-interpolation-filters:sRGB;"
       inkscape:label="Greyscale"
       id="filter1467"><feColorMatrix
         values="0.21 0.72 0.072 0.15 0 0.21 0.72 0.072 0.15 0 0.21 0.72 0.072 0.15 0 0 0 0 1 0 "
         id="feColorMatrix1465" /></filter><filter
       style="color-interpolation-filters:sRGB;"
       inkscape:label="Greyscale"
       id="filter1471"><feColorMatrix
         values="0.21 0.72 0.072 0.15 0 0.21 0.72 0.072 0.15 0 0.21 0.72 0.072 0.15 0 0 0 0 1 0 "
         id="feColorMatrix1469" /></filter></defs><sodipodi:namedview
     pagecolor="#ffffff"
     bordercolor="#666666"
     borderopacity="1"
     objecttolerance="10"
     gridtolerance="10"
     guidetolerance="10"
     inkscape:pageopacity="0"
     inkscape:pageshadow="2"
     inkscape:window-width="1920"
     inkscape:window-height="1017"
     id="namedview11"
     showgrid="false"
     inkscape:zoom="2.3091456"
     inkscape:cx="89.618893"
     inkscape:cy="146.5975"
     inkscape:window-x="-8"
     inkscape:window-y="-8"
     inkscape:window-maximized="1"
     inkscape:current-layer="Layer_1"
     showguides="false" /><g
     id="g8"
     transform="translate(0.7751196,0.7751196)"
     style="fill:#4a4f55;fill-opacity:1"><path
       d="m 180,121.064 h -8.703 l -3.428,20.309 h 8.176 c 3.691,-0.35 6.593,-1.494 8.703,-3.429 2.109,-1.935 3.251,-5.54 3.428,-10.814 0,-4.044 -2.728,-6.066 -8.176,-6.066 z"
       id="path2"
       inkscape:connector-curvature="0"
       style="fill:#4a4f55;fill-opacity:1" /><path
       d="M 226,14 H 30 c -8.837,0 -16,7.164 -16,16 v 196 c 0,8.837 7.163,16 16,16 h 196 c 8.836,0 16,-7.163 16,-16 V 30 c 0,-8.836 -7.164,-16 -16,-16 z"
       id="path4"
       inkscape:connector-curvature="0"
       sodipodi:nodetypes="sssssssss"
       style="fill:#4a4f55;fill-opacity:1" /></g><path
     inkscape:connector-curvature="0"
     style="fill:#00599c;stroke-width:0.65610003;filter:url(#filter1463)"
     d="m 228.59818,185.47609 c 1.5753,-2.72872 2.5542,-5.8032 2.5542,-8.56407 V 81.076157 c 0,-2.760869 -0.97759,-5.834698 -2.55354,-8.563418 l -97.82976,56.481671 z"
     id="path840"
     transform="matrix(0.9,0,0,0.9,12.949232,14.616998)" /><path
     inkscape:connector-curvature="0"
     style="fill:#004482;stroke-width:0.65610003;filter:url(#filter1467)"
     d="m 139.46241,239.88712 82.99665,-47.9176 c 2.39083,-1.38044 4.56382,-3.76405 6.13912,-6.49343 l -97.8291,-56.48168 -97.829101,56.48234 c 1.575296,2.72872 3.748956,5.11299 6.139128,6.49277 l 82.996653,47.9176 c 4.78099,2.76087 12.60565,2.76087 17.38665,0 z"
     id="path842"
     transform="matrix(0.9,0,0,0.9,12.949232,14.616998)" /><path
     inkscape:connector-curvature="0"
     style="fill:#659ad2;stroke-width:0.65610003;filter:url(#filter1471)"
     d="m 228.59884,72.512083 c -1.57596,-2.729376 -3.74961,-5.112987 -6.13978,-6.493421 L 139.46241,18.101054 c -4.781,-2.760869 -12.60566,-2.760869 -17.38665,0 L 39.079107,66.018662 c -4.781657,2.760212 -8.693325,9.536413 -8.693325,15.057495 v 95.835863 c 0,2.76087 0.978245,5.83535 2.554197,8.56407 l 97.829101,-56.48168 z"
     id="path844"
     transform="matrix(0.9,0,0,0.9,12.949232,14.616998)" /><g
     id="g848"
     transform="matrix(0.59049,0,0,0.59049,40.296435,29.044359)"><path
       style="fill:#ffffff"
       inkscape:connector-curvature="0"
       d="m 153,274.175 c -56.243,0 -102,-45.757 -102,-102 0,-56.243 45.757,-102 102,-102 36.292,0 70.139,19.53 88.331,50.968 l -44.143,25.544 C 188.083,130.951 171.15,121.175 153,121.175 c -28.122,0 -51,22.878 -51,51 0,28.121 22.878,51 51,51 18.152,0 35.085,-9.776 44.191,-25.515 l 44.143,25.543 c -18.192,31.441 -52.04,50.972 -88.334,50.972 z"
       id="path846" /></g></svg>