<?xml version="1.0" encoding="UTF-8" standalone="no"?>
<!-- Generator: Adobe Illustrator 16.0.0, SVG Export Plug-In . SVG Version: 6.00 Build 0)  -->

<svg
   xmlns:dc="http://purl.org/dc/elements/1.1/"
   xmlns:cc="http://creativecommons.org/ns#"
   xmlns:rdf="http://www.w3.org/1999/02/22-rdf-syntax-ns#"
   xmlns:svg="http://www.w3.org/2000/svg"
   xmlns="http://www.w3.org/2000/svg"
   xmlns:sodipodi="http://sodipodi.sourceforge.net/DTD/sodipodi-0.dtd"
   xmlns:inkscape="http://www.inkscape.org/namespaces/inkscape"
   version="1.1"
   id="Layer_1"
   x="0px"
   y="0px"
   width="256px"
   height="256px"
   viewBox="0 0 256 256"
   style="enable-background:new 0 0 256 256;"
   xml:space="preserve"
   sodipodi:docname="c.svg"
   inkscape:version="0.92.3 (2405546, 2018-03-11)"><metadata
     id="metadata15"><rdf:RDF><cc:Work
         rdf:about=""><dc:format>image/svg+xml</dc:format><dc:type
           rdf:resource="http://purl.org/dc/dcmitype/StillImage" /><dc:title /></cc:Work></rdf:RDF></metadata><defs
     id="defs13"><filter
       style="color-interpolation-filters:sRGB;"
       inkscape:label="Greyscale"
       id="filter1463"><feColorMatrix
         values="0.21 0.72 0.072 0.15 0 0.21 0.72 0.072 0.15 0 0.21 0.72 0.072 0.15 0 0 0 0 1 0 "
         id="feColorMatrix1461" /></filter><filter
       style="color-interpolation-filters:sRGB;"
       inkscape:label="Greyscale"
       id="filter1467"><feColorMatrix
         values="0.21 0.72 0.072 0.15 0 0.21 0.72 0.072 0.15 0 0.21 0.72 0.072 0.15 0 0 0 0 1 0 "
         id="feColorMatrix1465" /></filter><filter
       style="color-interpolation-filters:sRGB;"
       inkscape:label="Greyscale"
       id="filter1471"><feColorMatrix
         values="0.21 0.72 0.072 0.15 0 0.21 0.72 0.072 0.15 0 0.21 0.72 0.072 0.15 0 0 0 0 1 0 "
         id="feColorMatrix1469" /></filter></defs><sodipodi:namedview
     pagecolor="#ffffff"
     bordercolor="#666666"
     borderopacity="1"
     objecttolerance="10"
     gridtolerance="10"
     guidetolerance="10"
     inkscape:pageopacity="0"
     inkscape:pageshadow="2"
     inkscape:window-width="1920"
     inkscape:window-height="1026"
     id="namedview11"
     showgrid="false"
     inkscape:zoom="2.3091456"
     inkscape:cx="89.562971"
     inkscape:cy="136.14564"
     inkscape:window-x="0"
     inkscape:window-y="0"
     inkscape:window-maximized="1"
     inkscape:current-layer="Layer_1"
     showguides="false" /><g
     id="g8"
     transform="translate(0.7751196,0.7751196)"
     style="fill:#4a4f55;fill-opacity:1"><path
       style="fill:#4a4f55;fill-opacity:1"
       d="M 30.775391 14.775391 C 21.938391 14.775391 14.775391 21.939391 14.775391 30.775391 L 14.775391 226.77539 C 14.775391 235.61239 21.938391 242.77539 30.775391 242.77539 L 226.77539 242.77539 C 235.61139 242.77539 242.77539 235.61239 242.77539 226.77539 L 242.77539 30.775391 C 242.77539 21.939391 235.61139 14.775391 226.77539 14.775391 L 30.775391 14.775391 z M 130.64062 29.044922 C 133.47691 29.044922 136.31339 29.665812 138.46484 30.908203 L 213.16211 74.033203 C 215.31326 75.275594 217.26914 77.420515 218.6875 79.876953 L 168.30469 108.9668 L 218.6875 79.878906 C 220.10585 82.334754 220.98633 85.101155 220.98633 87.585938 L 220.98633 173.83789 C 220.98633 176.32267 220.10527 179.08907 218.6875 181.54492 C 217.26973 184.00136 215.31386 186.14628 213.16211 187.38867 L 138.46484 230.51562 C 134.16194 233.00041 127.12125 233.00041 122.81836 230.51562 L 48.121094 187.38867 C 45.969939 186.14687 44.01347 184.00272 42.595703 181.54688 L 78.505859 160.8125 L 42.595703 181.54492 C 41.177346 179.08907 40.296875 176.32267 40.296875 173.83789 L 40.296875 87.585938 C 40.296875 82.616963 43.817602 76.517394 48.121094 74.033203 L 122.81836 30.908203 C 124.9698 29.665812 127.80435 29.044922 130.64062 29.044922 z M 78.505859 160.8125 C 88.934397 178.80489 108.39025 190.94141 130.64062 190.94141 C 152.07187 190.94141 172.05859 179.40935 182.80078 160.84375 L 170.77148 153.88086 L 170.36523 153.64648 L 156.73633 145.75977 C 156.73369 145.76432 156.73115 145.76888 156.72852 145.77344 C 151.34962 155.05915 141.35394 160.82617 130.64062 160.82617 C 119.51516 160.82617 109.78839 154.75804 104.57422 145.76172 C 102.00578 141.33024 100.52734 136.19298 100.52734 130.71289 C 100.52734 114.10713 114.03487 100.59766 130.64062 100.59766 C 141.35332 100.59766 151.34846 106.3656 156.72656 115.65039 L 167.77539 109.27344 L 168.30469 108.9668 L 182.80078 100.57812 C 172.05859 82.014305 152.0707 70.482422 130.64062 70.482422 C 97.429701 70.482422 70.412109 97.501963 70.412109 130.71289 C 70.412109 141.67345 73.368753 151.94943 78.505859 160.8125 z M 167.77539 109.27344 L 156.72656 115.65234 C 156.72865 115.65595 156.73229 115.6585 156.73438 115.66211 L 167.77539 109.27344 z M 156.72656 115.65234 L 156.72656 115.65039 L 130.64062 130.71289 L 156.72656 115.65234 z "
       transform="translate(-0.7751196,-0.7751196)"
       id="path4" /></g><g
     id="g848"
     transform="matrix(0.59049,0,0,0.59049,40.296435,29.044359)" /></svg>