<?xml version="1.0" encoding="UTF-8" standalone="no"?>
<svg
   xmlns:dc="http://purl.org/dc/elements/1.1/"
   xmlns:cc="http://creativecommons.org/ns#"
   xmlns:rdf="http://www.w3.org/1999/02/22-rdf-syntax-ns#"
   xmlns:svg="http://www.w3.org/2000/svg"
   xmlns="http://www.w3.org/2000/svg"
   xmlns:sodipodi="http://sodipodi.sourceforge.net/DTD/sodipodi-0.dtd"
   xmlns:inkscape="http://www.inkscape.org/namespaces/inkscape"
   enable-background="new 0 0 64 64"
   height="30"
   version="1.1"
   viewBox="0 0 40 30"
   width="40"
   xml:space="preserve"
   id="svg1285"
   sodipodi:docname="if_creditcard_1055079.svg"
   inkscape:version="0.92.2 (5c3e80d, 2017-08-06)"><metadata
     id="metadata1291"><rdf:RDF><cc:Work
         rdf:about=""><dc:format>image/svg+xml</dc:format><dc:type
           rdf:resource="http://purl.org/dc/dcmitype/StillImage" /></cc:Work></rdf:RDF></metadata><defs
     id="defs1289" /><sodipodi:namedview
     pagecolor="#ffffff"
     bordercolor="#666666"
     borderopacity="1"
     objecttolerance="10"
     gridtolerance="10"
     guidetolerance="10"
     inkscape:pageopacity="0"
     inkscape:pageshadow="2"
     inkscape:window-width="1920"
     inkscape:window-height="1017"
     id="namedview1287"
     showgrid="false"
     inkscape:zoom="6.625"
     inkscape:cx="56.244188"
     inkscape:cy="21.810667"
     inkscape:window-x="-8"
     inkscape:window-y="-8"
     inkscape:window-maximized="1"
     inkscape:current-layer="Layer_1" /><g
     id="Layer_1"
     transform="translate(-12,-19)"><g
       id="g1261"
       style="opacity:0.2"><path
         d="m 52,45 c 0,2.209 -1.791,4 -4,4 H 16 c -2.209,0 -4,-1.791 -4,-4 V 25 c 0,-2.209 1.791,-4 4,-4 h 32 c 2.209,0 4,1.791 4,4 z"
         id="path1259"
         inkscape:connector-curvature="0"
         style="fill:#231f20" /></g><g
       id="g1265"><path
         d="m 52,43 c 0,2.209 -1.791,4 -4,4 H 16 c -2.209,0 -4,-1.791 -4,-4 V 23 c 0,-2.209 1.791,-4 4,-4 h 32 c 2.209,0 4,1.791 4,4 z"
         id="path1263"
         inkscape:connector-curvature="0"
         style="fill:#ffffff" /></g><g
       id="g1269"><rect
         height="6"
         width="40"
         x="12"
         y="25"
         id="rect1267"
         style="fill:#4f5d73" /></g><g
       id="g1273"><circle
         cx="38"
         cy="41"
         r="2"
         id="circle1271"
         style="fill:#e0995e" /></g><g
       id="g1277"><circle
         cx="46"
         cy="41"
         r="2"
         id="circle1275"
         style="fill:#e0995e" /></g><g
       id="g1281"><circle
         cx="30"
         cy="41"
         r="2"
         id="circle1279"
         style="fill:#e0995e" /></g></g><g
     id="Layer_2"
     transform="translate(-12,-19)" /></svg>