<?xml version="1.0" encoding="UTF-8" standalone="no"?>
<svg
   xmlns:dc="http://purl.org/dc/elements/1.1/"
   xmlns:cc="http://creativecommons.org/ns#"
   xmlns:rdf="http://www.w3.org/1999/02/22-rdf-syntax-ns#"
   xmlns:svg="http://www.w3.org/2000/svg"
   xmlns="http://www.w3.org/2000/svg"
   xmlns:sodipodi="http://sodipodi.sourceforge.net/DTD/sodipodi-0.dtd"
   xmlns:inkscape="http://www.inkscape.org/namespaces/inkscape"
   enable-background="new 0 0 64 64"
   height="500.00699"
   version="1.1"
   viewBox="0 0 499.987 500.00697"
   width="499.987"
   xml:space="preserve"
   id="svg1285"
   sodipodi:docname="Card.svg"
   inkscape:version="0.92.2 (5c3e80d, 2017-08-06)"><metadata
     id="metadata1291"><rdf:RDF><cc:Work
         rdf:about=""><dc:format>image/svg+xml</dc:format><dc:type
           rdf:resource="http://purl.org/dc/dcmitype/StillImage" /></cc:Work></rdf:RDF></metadata><defs
     id="defs1289" /><sodipodi:namedview
     pagecolor="#ffffff"
     bordercolor="#666666"
     borderopacity="1"
     objecttolerance="10"
     gridtolerance="10"
     guidetolerance="10"
     inkscape:pageopacity="0"
     inkscape:pageshadow="2"
     inkscape:window-width="1920"
     inkscape:window-height="1017"
     id="namedview1287"
     showgrid="false"
     inkscape:zoom="0.82812502"
     inkscape:cx="-211.42261"
     inkscape:cy="88.238971"
     inkscape:window-x="-8"
     inkscape:window-y="-8"
     inkscape:window-maximized="1"
     inkscape:current-layer="layer3" /><g
     id="Layer_2"
     transform="translate(205.84412,225.48964)" /><g
     inkscape:groupmode="layer"
     id="layer4"
     inkscape:label="Layer 2"
     transform="translate(217.84412,244.48964)"><path
       d="m 32.153888,255.51736 c -138.066998,0 -249.998008,-111.931 -249.998008,-250.0069974 0,-138.0690026 111.93101,-250.0000026 249.998008,-250.0000026 138.067002,0 249.989002,111.931 249.989002,250.0000026 0,138.0759974 -111.922,250.0069974 -249.989002,250.0069974 z"
       style="fill:#59616a"
       id="path1307"
       inkscape:connector-curvature="0" /></g><g
     inkscape:groupmode="layer"
     id="layer3"
     inkscape:label="Layer 1"
     style="display:inline"
     transform="translate(217.84412,244.48964)"><g
       id="Layer_1"
       transform="matrix(9.68,0,0,9.68,-277.76,-317.44)"><g
         id="g1265"><path
           d="m 52,43 c 0,2.209 -1.791,4 -4,4 H 16 c -2.209,0 -4,-1.791 -4,-4 V 23 c 0,-2.209 1.791,-4 4,-4 h 32 c 2.209,0 4,1.791 4,4 z"
           id="path1263"
           inkscape:connector-curvature="0"
           style="fill:#ffffff" /></g><g
         id="g1269"><rect
           height="6"
           width="40"
           x="12"
           y="25"
           id="rect1267"
           style="fill:#4f5d73" /></g><g
         id="g1273"><circle
           cx="38"
           cy="41"
           r="2"
           id="circle1271"
           style="fill:#e0995e" /></g><g
         id="g1277"><circle
           cx="46"
           cy="41"
           r="2"
           id="circle1275"
           style="fill:#e0995e" /></g><g
         id="g1281"><circle
           cx="30"
           cy="41"
           r="2"
           id="circle1279"
           style="fill:#e0995e" /></g></g></g></svg>