<?xml version="1.0" encoding="UTF-8" standalone="no"?>
<svg
   xmlns:dc="http://purl.org/dc/elements/1.1/"
   xmlns:cc="http://creativecommons.org/ns#"
   xmlns:rdf="http://www.w3.org/1999/02/22-rdf-syntax-ns#"
   xmlns:svg="http://www.w3.org/2000/svg"
   xmlns="http://www.w3.org/2000/svg"
   xmlns:sodipodi="http://sodipodi.sourceforge.net/DTD/sodipodi-0.dtd"
   xmlns:inkscape="http://www.inkscape.org/namespaces/inkscape"
   enable-background="new 0 0 512 419.916"
   height="512"
   id="Layer_1"
   version="1.1"
   viewBox="0 0 512 512.00002"
   width="512"
   xml:space="preserve"
   sodipodi:docname="cart.svg"
   inkscape:version="0.92.2 (5c3e80d, 2017-08-06)"><metadata
     id="metadata13468"><rdf:RDF><cc:Work
         rdf:about=""><dc:format>image/svg+xml</dc:format><dc:type
           rdf:resource="http://purl.org/dc/dcmitype/StillImage" /><dc:title></dc:title></cc:Work></rdf:RDF></metadata><defs
     id="defs13466" /><sodipodi:namedview
     pagecolor="#ffffff"
     bordercolor="#666666"
     borderopacity="1"
     objecttolerance="10"
     gridtolerance="10"
     guidetolerance="10"
     inkscape:pageopacity="0"
     inkscape:pageshadow="2"
     inkscape:window-width="1920"
     inkscape:window-height="1017"
     id="namedview13464"
     showgrid="false"
     inkscape:zoom="0.5546875"
     inkscape:cx="-51.380282"
     inkscape:cy="209.95799"
     inkscape:window-x="-8"
     inkscape:window-y="-8"
     inkscape:window-maximized="1"
     inkscape:current-layer="Layer_1" /><g
     id="meanicons_x5F_54"
     style="fill:#00c3d7;fill-opacity:1"
     transform="translate(0,46.084015)"><path
       d="m 511.379,101.124 c -3.012,-8.65 -11.662,-5.565 -13.59,5.396 -6.794,38.72 -19.805,114.087 -26.744,150.493 -0.627,3.59 -7.035,10.145 -10.698,10.023 -60.235,-2.049 -261.713,-4.676 -261.713,-4.676 L 131.965,69.752 128.182,56.766 C 127.508,54.983 126.881,53.344 126.495,52.38 122.062,40.839 114.665,33.32 108.377,28.888 102.16,24.431 97.004,22.841 96.281,22.6 L 96.039,22.528 50.02,11.035 C 46.936,4.65 37.201,0 25.588,0 11.469,0 0,6.818 0,15.275 c 0,8.409 11.469,15.252 25.588,15.252 4.578,0 8.818,-0.771 12.578,-2.096 l 50.693,12.722 c 0.82,0.266 3.808,1.493 7.133,4.023 3.71,2.867 7.902,7.228 10.553,14.144 3.518,9.181 22.287,61.151 40.094,110.569 8.914,24.721 17.588,48.863 24.07,66.813 5.662,15.854 9.661,26.864 10.529,29.25 0.145,0.796 0.578,3.156 0.554,5.88 0.024,2.915 -0.458,6.168 -1.759,8.696 -1.301,2.556 -3.036,4.65 -7.181,6.507 -12.866,5.638 -20.384,18.19 -20.479,31.201 -0.097,8.192 3.301,16.892 10.48,23.034 7.156,6.12 17.3,9.396 29.805,9.396 3.325,0 8.096,0 13.83,0 l 16.963,0.049 c -14.36,4.554 -24.817,17.806 -24.817,33.708 0,19.563 15.854,35.49 35.515,35.49 19.613,0 35.516,-15.927 35.516,-35.49 0,-15.854 -10.433,-29.106 -24.77,-33.686 l 16.916,0.024 c 23.828,0.023 50.813,0.097 76.933,0.169 18.239,0.023 36.021,0.048 52.021,0.12 l 15.709,0.023 c -13.758,4.867 -23.707,17.878 -23.707,33.348 0,19.563 15.948,35.49 35.538,35.49 19.638,0 35.49,-15.927 35.49,-35.49 0,-15.396 -9.782,-28.359 -23.468,-33.322 l 15.589,0.048 c 5.951,0 9.373,0.024 9.373,0.024 0.048,0 0.048,0 0.048,0 1.157,0 1.88,0 1.88,0 5.373,0 9.687,-4.313 9.687,-9.64 0.049,-5.323 -4.289,-9.661 -9.613,-9.71 0,0 -223.379,-0.506 -262.701,-0.506 -9.301,-0.022 -14.457,-2.36 -17.155,-4.698 -2.698,-2.385 -3.71,-5.06 -3.807,-8.385 -0.097,-5.301 3.614,-11.372 8.771,-13.469 8.264,-3.47 13.926,-9.493 16.914,-15.71 1.445,-2.963 2.313,-5.879 2.891,-8.697 1.783,0.409 3.615,0.698 5.543,0.747 l 252.99,5.155 c 0.239,0 0.338,0 0.458,0 0.119,0 0.24,0 0.313,0 h 1.156 c 0.265,0 0.386,0 0.48,0 5.639,0 10.844,-1.999 14.938,-5.276 4.048,-3.301 7.229,-7.999 8.192,-13.732 l 24.647,-146.566 c 0.313,-1.807 0.458,-3.614 0.458,-5.396 0,-3.827 1.397,-10.694 0,-14.164 z"
       id="path13459"
       style="fill:#00c3d7;fill-opacity:1"
       inkscape:connector-curvature="0" /></g><g
     id="Layer_1_1_"
     transform="translate(0,92.084015)" /></svg>