<?xml version="1.0" encoding="UTF-8" standalone="no"?>
<svg
   xmlns:dc="http://purl.org/dc/elements/1.1/"
   xmlns:cc="http://creativecommons.org/ns#"
   xmlns:rdf="http://www.w3.org/1999/02/22-rdf-syntax-ns#"
   xmlns:svg="http://www.w3.org/2000/svg"
   xmlns="http://www.w3.org/2000/svg"
   xmlns:sodipodi="http://sodipodi.sourceforge.net/DTD/sodipodi-0.dtd"
   xmlns:inkscape="http://www.inkscape.org/namespaces/inkscape"
   enable-background="new 0 0 64 64"
   height="30.031"
   version="1.1"
   viewBox="0 0 44.031002 30.031"
   width="44.031002"
   xml:space="preserve"
   id="svg1497"
   sodipodi:docname="if_money_1055022.svg"
   inkscape:version="0.92.2 (5c3e80d, 2017-08-06)"><metadata
     id="metadata1503"><rdf:RDF><cc:Work
         rdf:about=""><dc:format>image/svg+xml</dc:format><dc:type
           rdf:resource="http://purl.org/dc/dcmitype/StillImage" /></cc:Work></rdf:RDF></metadata><defs
     id="defs1501" /><sodipodi:namedview
     pagecolor="#ffffff"
     bordercolor="#666666"
     borderopacity="1"
     objecttolerance="10"
     gridtolerance="10"
     guidetolerance="10"
     inkscape:pageopacity="0"
     inkscape:pageshadow="2"
     inkscape:window-width="1920"
     inkscape:window-height="1017"
     id="namedview1499"
     showgrid="false"
     inkscape:zoom="3.6875"
     inkscape:cx="22.031"
     inkscape:cy="17.031"
     inkscape:window-x="-8"
     inkscape:window-y="-8"
     inkscape:window-maximized="1"
     inkscape:current-layer="Layer_1" /><g
     id="Layer_1"
     transform="translate(-9.9689999,-19)"><g
       id="g1447"><g
         id="g1415"
         style="opacity:0.2"><g
           id="g1405"><path
             d="m 49.969,33.062 c -2.226,0 -4.031,-1.805 -4.031,-4.031 0,-0.359 0.062,-0.7 0.15,-1.031 H 21.881 c 0.088,0.331 0.15,0.672 0.15,1.031 0,2.226 -1.805,4.031 -4.031,4.031 -0.347,0 -0.678,-0.058 -1,-0.14 v 8.187 c 0.322,-0.083 0.653,-0.14 1,-0.14 2.226,0 4.031,1.805 4.031,4.031 0,0.347 -0.058,0.678 -0.14,1 h 24.187 c -0.083,-0.322 -0.14,-0.653 -0.14,-1 0,-2.226 1.805,-4.031 4.031,-4.031 0.359,0 0.7,0.062 1.031,0.15 v -8.206 c -0.331,0.088 -0.672,0.149 -1.031,0.149 z M 34,43 c -3.314,0 -6,-2.686 -6,-6 0,-3.314 2.686,-6 6,-6 3.314,0 6,2.686 6,6 0,3.314 -2.686,6 -6,6 z"
             id="path1403"
             inkscape:connector-curvature="0"
             style="fill:#231f20" /></g><g
           id="g1409"><path
             d="M 50,25 H 18 c -0.276,0 -0.546,0.028 -0.806,0.081 -1.84,0.374 -3.225,2 -3.225,3.95 0,0.106 0.023,0.206 0.031,0.31 V 44.69 c -0.008,0.104 -0.031,0.204 -0.031,0.31 0,2.226 1.805,4.031 4.031,4.031 0.106,0 0.206,-0.023 0.31,-0.031 h 31.349 c 0.104,0.008 0.204,0.031 0.31,0.031 1.95,0 3.576,-1.385 3.95,-3.225 C 53.972,45.546 54,45.276 54,45 V 29 c 0,-2.209 -1.791,-4 -4,-4 z m -0.031,15.969 c -2.226,0 -4.031,1.805 -4.031,4.031 0,0.347 0.058,0.678 0.14,1 H 21.891 c 0.083,-0.322 0.14,-0.653 0.14,-1 0,-2.226 -1.805,-4.031 -4.031,-4.031 -0.347,0 -0.678,0.058 -1,0.14 v -8.187 c 0.322,0.083 0.653,0.14 1,0.14 2.226,0 4.031,-1.805 4.031,-4.031 0,-0.359 -0.062,-0.7 -0.15,-1.031 h 24.206 c -0.088,0.331 -0.15,0.672 -0.15,1.031 0,2.226 1.805,4.031 4.031,4.031 0.359,0 0.7,-0.062 1.031,-0.15 v 8.206 c -0.33,-0.087 -0.671,-0.149 -1.03,-0.149 z"
             id="path1407"
             inkscape:connector-curvature="0"
             style="fill:#231f20" /></g><g
           id="g1413"><circle
             cx="34"
             cy="37"
             r="6"
             id="circle1411"
             style="fill:#231f20" /></g></g><g
         id="g1425"><g
           id="g1419"><path
             d="m 18,46 c -1.654,0 -3,-1.346 -3,-3 V 27 c 0,-1.654 1.346,-3 3,-3 h 32 c 1.654,0 3,1.346 3,3 v 16 c 0,1.654 -1.346,3 -3,3 z"
             id="path1417"
             inkscape:connector-curvature="0"
             style="fill:#76c2af" /></g><g
           id="g1423"><path
             d="m 50,25 c 1.103,0 2,0.897 2,2 v 16 c 0,1.103 -0.897,2 -2,2 H 18 c -1.103,0 -2,-0.897 -2,-2 V 27 c 0,-1.103 0.897,-2 2,-2 h 32 m 0,-2 H 18 c -2.209,0 -4,1.791 -4,4 v 16 c 0,2.209 1.791,4 4,4 h 32 c 2.209,0 4,-1.791 4,-4 V 27 c 0,-2.209 -1.791,-4 -4,-4 z"
             id="path1421"
             inkscape:connector-curvature="0"
             style="fill:#e0e0d1" /></g></g><g
         id="g1429"><circle
           cx="34"
           cy="35"
           r="6"
           id="circle1427"
           style="fill:#4f5d73" /></g><g
         id="g1433"><circle
           cx="49.969002"
           cy="27.031"
           r="4.0310001"
           id="circle1431"
           style="fill:#e0e0d1" /></g><g
         id="g1437"><circle
           cx="18"
           cy="27.031"
           r="4.0310001"
           id="circle1435"
           style="fill:#e0e0d1" /></g><g
         id="g1441"><circle
           cx="49.969002"
           cy="43"
           r="4.0310001"
           id="circle1439"
           style="fill:#e0e0d1" /></g><g
         id="g1445"><circle
           cx="18"
           cy="43"
           r="4.0310001"
           id="circle1443"
           style="fill:#e0e0d1" /></g></g><g
       id="g1493"><g
         id="g1461"
         style="opacity:0.2"><g
           id="g1451"><path
             d="m 47.969,29.062 c -2.226,0 -4.031,-1.805 -4.031,-4.031 0,-0.359 0.062,-0.7 0.15,-1.031 H 19.881 c 0.088,0.331 0.15,0.672 0.15,1.031 0,2.226 -1.805,4.031 -4.031,4.031 -0.347,0 -0.678,-0.058 -1,-0.14 v 8.187 c 0.322,-0.083 0.653,-0.14 1,-0.14 2.226,0 4.031,1.805 4.031,4.031 0,0.347 -0.058,0.678 -0.14,1 h 24.187 c -0.083,-0.322 -0.14,-0.653 -0.14,-1 0,-2.226 1.805,-4.031 4.031,-4.031 0.359,0 0.7,0.062 1.031,0.15 v -8.206 c -0.331,0.088 -0.672,0.149 -1.031,0.149 z M 32,39 c -3.314,0 -6,-2.686 -6,-6 0,-3.314 2.686,-6 6,-6 3.314,0 6,2.686 6,6 0,3.314 -2.686,6 -6,6 z"
             id="path1449"
             inkscape:connector-curvature="0"
             style="fill:#231f20" /></g><g
           id="g1455"><path
             d="M 48,21 H 16 c -0.276,0 -0.546,0.028 -0.806,0.081 -1.84,0.374 -3.225,2 -3.225,3.95 0,0.106 0.023,0.206 0.031,0.31 V 40.69 c -0.008,0.104 -0.031,0.204 -0.031,0.31 0,2.226 1.805,4.031 4.031,4.031 0.106,0 0.206,-0.023 0.31,-0.031 h 31.349 c 0.104,0.008 0.204,0.031 0.31,0.031 1.95,0 3.576,-1.385 3.95,-3.225 C 51.972,41.546 52,41.276 52,41 V 25 c 0,-2.209 -1.791,-4 -4,-4 z m -0.031,15.969 c -2.226,0 -4.031,1.805 -4.031,4.031 0,0.347 0.058,0.678 0.14,1 H 19.891 c 0.083,-0.322 0.14,-0.653 0.14,-1 0,-2.226 -1.805,-4.031 -4.031,-4.031 -0.347,0 -0.678,0.058 -1,0.14 v -8.187 c 0.322,0.083 0.653,0.14 1,0.14 2.226,0 4.031,-1.805 4.031,-4.031 0,-0.359 -0.062,-0.7 -0.15,-1.031 h 24.206 c -0.088,0.331 -0.15,0.672 -0.15,1.031 0,2.226 1.805,4.031 4.031,4.031 0.359,0 0.7,-0.062 1.031,-0.15 v 8.206 c -0.33,-0.087 -0.671,-0.149 -1.03,-0.149 z"
             id="path1453"
             inkscape:connector-curvature="0"
             style="fill:#231f20" /></g><g
           id="g1459"><circle
             cx="32"
             cy="33"
             r="6"
             id="circle1457"
             style="fill:#231f20" /></g></g><g
         id="g1471"><g
           id="g1465"><path
             d="m 14,42 c -1.654,0 -3,-1.346 -3,-3 V 23 c 0,-1.654 1.346,-3 3,-3 h 32 c 1.654,0 3,1.346 3,3 v 16 c 0,1.654 -1.346,3 -3,3 z"
             id="path1463"
             inkscape:connector-curvature="0"
             style="fill:#76c2af" /></g><g
           id="g1469"><path
             d="m 46,21 c 1.103,0 2,0.897 2,2 v 16 c 0,1.103 -0.897,2 -2,2 H 14 c -1.103,0 -2,-0.897 -2,-2 V 23 c 0,-1.103 0.897,-2 2,-2 h 32 m 0,-2 H 14 c -2.209,0 -4,1.791 -4,4 v 16 c 0,2.209 1.791,4 4,4 h 32 c 2.209,0 4,-1.791 4,-4 V 23 c 0,-2.209 -1.791,-4 -4,-4 z"
             id="path1467"
             inkscape:connector-curvature="0"
             style="fill:#e0e0d1" /></g></g><g
         id="g1475"><circle
           cx="30"
           cy="31"
           r="6"
           id="circle1473"
           style="fill:#4f5d73" /></g><g
         id="g1479"><circle
           cx="45.969002"
           cy="23.031"
           r="4.0310001"
           id="circle1477"
           style="fill:#e0e0d1" /></g><g
         id="g1483"><circle
           cx="14"
           cy="23.031"
           r="4.0310001"
           id="circle1481"
           style="fill:#e0e0d1" /></g><g
         id="g1487"><circle
           cx="45.969002"
           cy="39"
           r="4.0310001"
           id="circle1485"
           style="fill:#e0e0d1" /></g><g
         id="g1491"><circle
           cx="14"
           cy="39"
           r="4.0310001"
           id="circle1489"
           style="fill:#e0e0d1" /></g></g></g><g
     id="Layer_2"
     transform="translate(-9.9689999,-19)" /></svg>