<?xml version="1.0" encoding="UTF-8" standalone="no"?>
<!-- Created with Inkscape (http://www.inkscape.org/) -->

<svg
   xmlns:dc="http://purl.org/dc/elements/1.1/"
   xmlns:cc="http://creativecommons.org/ns#"
   xmlns:rdf="http://www.w3.org/1999/02/22-rdf-syntax-ns#"
   xmlns:svg="http://www.w3.org/2000/svg"
   xmlns="http://www.w3.org/2000/svg"
   xmlns:sodipodi="http://sodipodi.sourceforge.net/DTD/sodipodi-0.dtd"
   xmlns:inkscape="http://www.inkscape.org/namespaces/inkscape"
   version="1.1"
   id="svg11374"
   width="512"
   height="512"
   viewBox="0 0 512 511.99999"
   sodipodi:docname="conciliator.svg"
   inkscape:version="0.92.2 (5c3e80d, 2017-08-06)">
  <metadata
     id="metadata11380">
    <rdf:RDF>
      <cc:Work
         rdf:about="">
        <dc:format>image/svg+xml</dc:format>
        <dc:type
           rdf:resource="http://purl.org/dc/dcmitype/StillImage" />
        <dc:title></dc:title>
      </cc:Work>
    </rdf:RDF>
  </metadata>
  <defs
     id="defs11378" />
  <sodipodi:namedview
     pagecolor="#ffffff"
     bordercolor="#666666"
     borderopacity="1"
     objecttolerance="10"
     gridtolerance="10"
     guidetolerance="10"
     inkscape:pageopacity="0"
     inkscape:pageshadow="2"
     inkscape:window-width="1920"
     inkscape:window-height="1017"
     id="namedview11376"
     showgrid="false"
     inkscape:zoom="0.834386"
     inkscape:cx="377.15768"
     inkscape:cy="146.69145"
     inkscape:window-x="-8"
     inkscape:window-y="-8"
     inkscape:window-maximized="1"
     inkscape:current-layer="svg11374"
     fit-margin-top="0"
     fit-margin-left="0"
     fit-margin-right="0"
     fit-margin-bottom="0" />
  <path
     style="fill:#00c3d7;fill-opacity:1;stroke-width:1.29146814"
     d="m 268.90318,403.01718 c -5.86568,-1.36519 -13.71642,-5.16233 -21.75345,-10.52136 l -5.95301,-3.96941 3.80773,-6.12535 c 2.72254,-4.37967 3.8336,-7.83796 3.89857,-12.1346 l 0.0907,-6.00929 6.57458,6.19581 c 20.40753,19.23183 25.29938,24.42687 25.28109,26.84786 -0.0425,5.61872 -4.0751,7.54833 -11.94636,5.71634 z m 31.63099,-7.94409 c -2.9036,-1.59819 -19.70338,-16.78085 -37.33284,-33.73921 -25.22631,-24.26604 -32.21067,-31.69308 -32.79127,-34.86963 -2.35102,-12.8629 -15.73795,-23.27722 -27.02072,-21.02068 -3.09695,0.61942 -3.52275,0.18328 -4.91949,-5.03893 -1.9476,-7.28191 -9.42014,-15.62188 -15.67659,-17.49637 -2.64368,-0.79205 -7.81066,-1.23212 -11.48218,-0.97793 -5.73824,0.39727 -6.67539,0.13584 -6.6747,-1.86204 0.003,-5.97779 -7.69961,-14.89615 -15.77819,-18.27077 -10.60627,-4.43049 -21.02765,-0.86324 -32.03955,10.96714 l -7.1373,7.66776 -6.98119,-4.70141 c -8.679419,-5.84506 -23.657012,-12.83133 -30.080078,-14.03078 -2.66364,-0.49742 -4.842999,-1.13565 -4.842999,-1.41827 0,-0.28264 2.669409,-6.75601 5.932035,-14.38529 11.915226,-27.86244 20.507103,-52.46179 28.262522,-80.9183 2.50018,-9.17377 4.74113,-16.87495 4.97988,-17.1137 0.23877,-0.23877 4.98185,0.729 10.54019,2.15059 12.37675,3.16544 27.9494,3.34751 43.91682,0.51344 11.31007,-2.00742 33.32297,-2.01909 36.55859,-0.0194 0.95962,0.59308 0.63294,2.20053 -1.02271,5.03256 -3.50072,5.98804 -9.24966,22.25927 -18.80714,53.22967 -8.31744,26.95212 -8.35296,27.13283 -5.96696,30.34949 3.18805,4.2979 11.35645,9.78562 17.14911,11.52116 20.71728,6.20704 43.77641,-11.13988 50.94873,-38.3277 1.26253,-4.78587 2.41487,-8.87112 2.56078,-9.07839 0.14589,-0.20726 3.90519,1.75648 8.35404,4.36387 11.4148,6.69004 24.90602,12.73184 35.76153,16.01518 l 9.30385,2.81403 41.29868,41.80838 c 22.87059,23.15284 42.89399,44.53058 44.87388,47.90901 7.16541,12.22683 4.19296,24.01918 -6.98422,27.70797 -9.21981,3.04282 -11.76116,1.19674 -43.67062,-31.72304 -16.13047,-16.64115 -30.15502,-30.57396 -31.16571,-30.9618 -4.03112,-1.54689 -9.22453,4.02305 -7.1413,7.65905 0.53386,0.93179 14.48265,15.66925 30.9973,32.74993 l 30.02663,31.05575 v 6.39509 c 0,5.67688 -0.50151,6.83541 -4.46566,10.31597 -4.91556,4.3159 -14.24766,6.52731 -18.31019,4.33888 -1.32428,-0.71335 -17.70687,-16.75129 -36.40575,-35.63985 -18.69889,-18.88855 -34.7846,-34.34282 -35.74599,-34.34282 -2.52249,0 -5.80691,3.65883 -5.80691,6.46889 0,1.41529 14.12556,16.789 34.2239,37.24798 31.60911,32.17626 34.2239,35.18312 34.2239,39.35565 0,3.45925 -0.93095,5.30103 -3.97349,7.86117 -4.9694,4.18145 -10.63231,4.32158 -17.68862,0.43767 z m -92.78694,-7.30918 c -4.65087,-2.83599 -7.19832,-8.87878 -6.08651,-14.4378 0.9902,-4.95101 11.35694,-16.51545 16.86986,-18.81891 7.32302,-3.05975 14.56655,0.21871 17.90554,8.1042 2.69404,6.36233 0.39244,11.91231 -8.42984,20.32734 -8.58595,8.18961 -13.01258,9.24392 -20.25905,4.82517 z m -38.23457,-16.33605 c -4.66992,-2.53427 -6.16694,-5.64009 -6.16694,-12.79435 0,-5.85956 0.21489,-6.15794 16.46622,-22.86415 18.03789,-18.54281 22.48543,-21.42866 29.47144,-19.12306 6.32414,2.08715 9.59546,6.85268 9.59546,13.97831 0,5.88365 -0.0855,5.99661 -18.45268,24.36371 -16.73648,16.73652 -18.86846,18.44787 -22.92355,18.40096 -2.45897,-0.0283 -6.05448,-0.91107 -7.98995,-1.96142 z m -23.74625,-28.89621 c -4.55361,-1.94027 -8.25005,-7.7564 -8.25005,-12.98097 0,-6.10721 3.87156,-11.42965 19.03747,-26.17181 10.2247,-9.93902 12.18241,-11.30035 16.25083,-11.30035 9.03166,0 15.07896,5.43826 15.07896,13.56042 0,5.49859 -3.00097,9.64608 -17.08185,23.60796 -13.94953,13.83163 -18.31513,16.1482 -25.03536,13.28475 z m -26.18761,-35.6791 c -4.49889,-3.78556 -6.13293,-9.85553 -4.09564,-15.21404 2.23467,-5.87758 15.36125,-18.76402 20.76193,-20.38212 6.4859,-1.94322 13.14278,1.16345 16.17211,7.5473 3.36652,7.09437 1.13955,12.37172 -9.59303,22.73316 -8.00138,7.72469 -9.47157,8.62223 -14.12344,8.62223 -3.68691,0 -6.33168,-0.95869 -9.12193,-3.30653 z m 229.3041,-43.86583 c -20.55115,-21.03686 -33.9557,-35.69999 -32.93245,-36.02453 0.94913,-0.30101 4.05033,-0.93338 6.89157,-1.40524 7.37286,-1.22449 17.31618,-5.74879 18.82326,-8.56479 1.76415,-3.29633 -0.68556,-7.56778 -4.33969,-7.56695 -1.5732,3.7e-4 -5.76617,1.10385 -9.3177,2.45217 -19.42501,7.37467 -41.05902,2.86135 -71.95786,-15.01193 -11.92202,-6.89624 -12.6333,-7.54568 -12.6333,-11.535 0,-5.07244 -3.67825,-7.78815 -7.66136,-5.65646 -2.96397,1.58628 -3.62497,3.70984 -3.83359,12.31576 -0.62636,25.83971 -16.73898,48.53877 -34.35215,48.39448 -3.06729,-0.0252 -12.90908,-4.32306 -14.02168,-6.1233 -0.80076,-1.29561 8.25472,-31.7108 16.62269,-55.8316 4.78842,-13.8027 7.2294,-18.68283 10.86235,-21.71635 4.93638,-4.12189 22.376,-11.12055 41.10717,-16.49662 29.36955,-8.42943 38.51031,-8.09801 73.28479,2.657 26.93123,8.32926 35.34951,10.05484 49.07578,10.05956 11.23046,0.005 22.66201,-1.83404 30.77745,-4.94821 1.34505,-0.51615 2.52009,2.19385 4.63046,10.6792 6.38343,25.66659 17.72982,58.40219 30.05281,86.70571 3.51483,8.07283 6.20595,14.83255 5.9803,15.02166 -0.22565,0.18907 -3.60667,1.37516 -7.51335,2.63575 -15.64433,5.04803 -31.25274,14.689 -46.67394,28.82958 -4.00626,3.67358 -7.49323,6.66306 -7.7488,6.64328 -0.25555,-0.0198 -16.06082,-16.0007 -35.12276,-35.51317 z M 29.270374,252.69542 c -8.03799,-3.05735 -14.955183,-5.89948 -15.37155,-6.31584 -0.626265,-0.62626 44.223112,-129.50714 45.618733,-131.0917 0.618606,-0.70236 27.634536,8.84431 31.122711,10.99789 6.910284,4.26638 5.186799,17.8692 -7.01568,55.37223 -9.61488,29.5503 -16.656975,47.85983 -23.226309,60.38852 -4.482657,8.54911 -11.827125,16.57515 -14.943969,16.33078 -0.863172,-0.0677 -8.145945,-2.62451 -16.183936,-5.68188 z m 432.570546,1.28123 c -6.21127,-5.61152 -12.5139,-18.30087 -22.12845,-44.55209 -18.50737,-50.53177 -23.95519,-74.57239 -18.39601,-81.17952 1.95148,-2.31936 28.20926,-13.04294 32.03575,-13.08327 0.74987,-0.008 4.07922,7.68601 7.39856,17.09758 3.31934,9.41158 13.79062,38.99151 23.26942,65.73318 l 17.23426,48.62124 -16.2412,5.9433 c -8.93265,3.26881 -16.67407,5.94329 -17.20316,5.94329 -0.52908,0 -3.2152,-2.03568 -5.96917,-4.52371 z"
     id="path11927"
     inkscape:connector-curvature="0" />
</svg>
