<?xml version="1.0" encoding="UTF-8" standalone="no"?>
<!-- Generator: Adobe Illustrator 16.0.0, SVG Export Plug-In . SVG Version: 6.00 Build 0)  -->

<svg
   xmlns:dc="http://purl.org/dc/elements/1.1/"
   xmlns:cc="http://creativecommons.org/ns#"
   xmlns:rdf="http://www.w3.org/1999/02/22-rdf-syntax-ns#"
   xmlns:svg="http://www.w3.org/2000/svg"
   xmlns="http://www.w3.org/2000/svg"
   xmlns:sodipodi="http://sodipodi.sourceforge.net/DTD/sodipodi-0.dtd"
   xmlns:inkscape="http://www.inkscape.org/namespaces/inkscape"
   version="1.1"
   id="Layer_1"
   x="0px"
   y="0px"
   width="256px"
   height="256px"
   viewBox="0 0 256 256"
   style="enable-background:new 0 0 256 256;"
   xml:space="preserve"
   sodipodi:docname="dart.svg"
   inkscape:version="0.92.2 (5c3e80d, 2017-08-06)"><metadata
     id="metadata15"><rdf:RDF><cc:Work
         rdf:about=""><dc:format>image/svg+xml</dc:format><dc:type
           rdf:resource="http://purl.org/dc/dcmitype/StillImage" /><dc:title></dc:title></cc:Work></rdf:RDF></metadata><defs
     id="defs13"><filter
       style="color-interpolation-filters:sRGB;"
       inkscape:label="Greyscale"
       id="filter2627"><feColorMatrix
         values="0.21 0.72 0.072 0.15 0 0.21 0.72 0.072 0.15 0 0.21 0.72 0.072 0.15 0 0 0 0 1 0 "
         id="feColorMatrix2625" /></filter></defs><sodipodi:namedview
     pagecolor="#ffffff"
     bordercolor="#666666"
     borderopacity="1"
     objecttolerance="10"
     gridtolerance="10"
     guidetolerance="10"
     inkscape:pageopacity="0"
     inkscape:pageshadow="2"
     inkscape:window-width="1920"
     inkscape:window-height="1017"
     id="namedview11"
     showgrid="false"
     inkscape:zoom="0.5772864"
     inkscape:cx="496.82781"
     inkscape:cy="31.586793"
     inkscape:window-x="-8"
     inkscape:window-y="-8"
     inkscape:window-maximized="1"
     inkscape:current-layer="Layer_1"
     showguides="false" /><g
     id="g8"
     transform="translate(0.7751196,0.7751196)"
     style="fill:#4a4f55;fill-opacity:1"><path
       d="m 180,121.064 h -8.703 l -3.428,20.309 h 8.176 c 3.691,-0.35 6.593,-1.494 8.703,-3.429 2.109,-1.935 3.251,-5.54 3.428,-10.814 0,-4.044 -2.728,-6.066 -8.176,-6.066 z"
       id="path2"
       inkscape:connector-curvature="0"
       style="fill:#4a4f55;fill-opacity:1" /><path
       d="M 226,14 H 30 c -8.837,0 -16,7.164 -16,16 v 196 c 0,8.837 7.163,16 16,16 h 196 c 8.836,0 16,-7.163 16,-16 V 30 c 0,-8.836 -7.164,-16 -16,-16 z"
       id="path4"
       inkscape:connector-curvature="0"
       sodipodi:nodetypes="sssssssss"
       style="fill:#4a4f55;fill-opacity:1" /></g><g
     transform="matrix(0.729,0,0,0.729,35.300986,35.60633)"
     id="g1979"
     style="filter:url(#filter2627)"><path
       style="fill:#00d2b8"
       inkscape:connector-curvature="0"
       d="M 70.534,69.696 53.988,53.15 l 0.07,119.6 0.198,5.59 c 0.082,2.63 0.57,5.598 1.384,8.674 l 131.104,46.23 32.772,-14.52 0.012,-0.04 L 70.534,69.696"
       id="path1967" /><path
       style="fill:#55ddca"
       inkscape:connector-curvature="0"
       d="m 55.64,187.014 0.008,0.008 c -0.008,-0.054 -0.036,-0.114 -0.036,-0.17 0,0.056 0.008,0.108 0.028,0.162 z m 163.876,31.71 -32.772,14.52 -131.096,-46.222 c 2.504,9.608 8.048,20.408 14.014,26.314 l 42.784,42.54 95.13,0.124 11.952,-37.316 z"
       id="path1969" /><path
       style="fill:#0081c6"
       inkscape:connector-curvature="0"
       d="m 3.034,130.116 c -4.236,4.522 -2.132,13.85 4.688,20.722 l 29.418,29.662 18.5,6.514 c -0.814,-3.076 -1.302,-6.044 -1.384,-8.674 l -0.198,-5.59 -0.07,-119.6 z"
       id="path1971" /><path
       style="fill:#0079b3"
       inkscape:connector-curvature="0"
       d="m 187.82,54.686 c -3.076,-0.786 -6.026,-1.272 -8.7,-1.356 l -5.908,-0.204 -119.224,0.016 165.556,165.542 h 0.014 L 234.098,185.88 187.82,54.686"
       id="path1973" /><path
       style="fill:#00a4e4"
       inkscape:connector-curvature="0"
       d="m 187.67,54.654 c 0.064,0.014 0.114,0.032 0.156,0.038 l -0.006,-0.006 c -0.036,-0.018 -0.086,-0.018 -0.15,-0.032 z m 26.448,14.078 C 208.11,62.674 197.452,57.168 187.826,54.692 l 46.272,131.188 -14.54,32.804 h -0.014 l 35.532,-11.348 0.076,-97.416 z"
       id="path1975" /><path
       style="fill:#00d2b8"
       inkscape:connector-curvature="0"
       d="M 181.338,36.298 151.684,6.862 c -6.858,-6.794 -16.19,-8.908 -20.7,-4.684 l -76.996,50.964 119.224,-0.016 5.908,0.204 c 2.674,0.084 5.624,0.57 8.7,1.356 z"
       id="path1977" /></g></svg>