<?xml version="1.0" encoding="UTF-8" standalone="no"?>
<!-- Generator: Adobe Illustrator 16.0.0, SVG Export Plug-In . SVG Version: 6.00 Build 0)  -->

<svg
   xmlns:dc="http://purl.org/dc/elements/1.1/"
   xmlns:cc="http://creativecommons.org/ns#"
   xmlns:rdf="http://www.w3.org/1999/02/22-rdf-syntax-ns#"
   xmlns:svg="http://www.w3.org/2000/svg"
   xmlns="http://www.w3.org/2000/svg"
   xmlns:sodipodi="http://sodipodi.sourceforge.net/DTD/sodipodi-0.dtd"
   xmlns:inkscape="http://www.inkscape.org/namespaces/inkscape"
   version="1.1"
   id="Layer_1"
   x="0px"
   y="0px"
   width="256px"
   height="256px"
   viewBox="0 0 256 256"
   style="enable-background:new 0 0 256 256;"
   xml:space="preserve"
   sodipodi:docname="dart.svg"
   inkscape:version="0.92.3 (2405546, 2018-03-11)"><metadata
     id="metadata15"><rdf:RDF><cc:Work
         rdf:about=""><dc:format>image/svg+xml</dc:format><dc:type
           rdf:resource="http://purl.org/dc/dcmitype/StillImage" /><dc:title /></cc:Work></rdf:RDF></metadata><defs
     id="defs13"><filter
       style="color-interpolation-filters:sRGB;"
       inkscape:label="Greyscale"
       id="filter2627"><feColorMatrix
         values="0.21 0.72 0.072 0.15 0 0.21 0.72 0.072 0.15 0 0.21 0.72 0.072 0.15 0 0 0 0 1 0 "
         id="feColorMatrix2625" /></filter></defs><sodipodi:namedview
     pagecolor="#ffffff"
     bordercolor="#666666"
     borderopacity="1"
     objecttolerance="10"
     gridtolerance="10"
     guidetolerance="10"
     inkscape:pageopacity="0"
     inkscape:pageshadow="2"
     inkscape:window-width="1920"
     inkscape:window-height="1026"
     id="namedview11"
     showgrid="false"
     inkscape:zoom="2.3091456"
     inkscape:cx="-36.750637"
     inkscape:cy="84.502657"
     inkscape:window-x="0"
     inkscape:window-y="0"
     inkscape:window-maximized="1"
     inkscape:current-layer="Layer_1"
     showguides="false" /><g
     id="g8"
     transform="translate(0.7751196,0.7751196)"
     style="fill:#4a4f55;fill-opacity:1;stroke:#4a4f55;stroke-opacity:1;stroke-width:5;stroke-miterlimit:4;stroke-dasharray:none"><path
       style="fill:#4a4f55;fill-opacity:1;stroke:#4a4f55;stroke-opacity:1;stroke-width:5;stroke-miterlimit:4;stroke-dasharray:none"
       d="M 30.775391 14.775391 C 21.938391 14.775391 14.775391 21.939391 14.775391 30.775391 L 14.775391 226.77539 C 14.775391 235.61239 21.938391 242.77539 30.775391 242.77539 L 226.77539 242.77539 C 235.61139 242.77539 242.77539 235.61239 242.77539 226.77539 L 242.77539 30.775391 C 242.77539 21.939391 235.61139 14.775391 226.77539 14.775391 L 30.775391 14.775391 z M 135.02734 35.341797 C 135.26278 35.333449 135.5015 35.333623 135.74414 35.34375 C 138.97931 35.478772 142.80892 37.242374 145.93359 40.337891 L 167.55078 61.796875 L 172.27539 75.201172 C 170.03299 74.628178 167.88294 74.274127 165.93359 74.212891 L 161.62695 74.064453 L 74.712891 74.076172 L 130.8418 36.923828 C 131.9206 35.913434 133.37929 35.400231 135.02734 35.341797 z M 74.441406 74.298828 L 74.492188 161.48633 L 74.636719 165.5625 C 74.696497 167.47977 75.053078 169.64236 75.646484 171.88477 L 62.160156 167.13672 L 40.712891 145.51367 C 35.741111 140.50398 34.208831 133.70279 37.296875 130.40625 L 74.441406 74.298828 z M 161.57227 74.335938 L 165.87891 74.484375 C 167.82825 74.545611 169.98025 74.899662 172.22266 75.472656 L 205.95898 171.11328 L 195.35938 195.02734 L 195.34766 195.02734 L 74.658203 74.347656 L 161.57227 74.335938 z M 74.658203 74.353516 L 86.720703 86.414062 L 195.33594 195.02734 L 195.32812 195.05664 L 171.4375 205.64062 L 75.863281 171.93945 C 75.269875 169.69705 74.913294 167.5325 74.853516 165.61523 L 74.708984 161.54102 L 74.658203 74.353516 z M 172.41016 75.449219 C 172.45681 75.459425 172.49329 75.459534 172.51953 75.472656 L 172.52539 75.476562 C 179.54274 77.281567 187.31157 81.296609 191.69141 85.712891 L 221.60547 115.73828 L 221.54883 186.75391 L 195.6582 195.02344 L 195.65625 195.02734 L 195.64648 195.02734 L 195.6582 195.02344 L 206.25586 171.11328 L 172.52539 75.476562 C 172.49477 75.472188 172.45681 75.459425 172.41016 75.449219 z M 75.814453 172.11914 C 75.814453 172.15996 75.835965 172.20282 75.841797 172.24219 L 171.41016 205.9375 L 195.30078 195.35352 L 186.59766 222.52734 L 117.24805 222.4375 L 86.058594 191.42578 C 81.70938 187.12031 77.667213 179.24642 75.841797 172.24219 L 75.835938 172.23633 C 75.821358 172.19696 75.814453 172.15996 75.814453 172.11914 z "
       transform="translate(-0.7751196,-0.7751196)"
       id="path4" /></g><g
     transform="matrix(0.729,0,0,0.729,35.300986,35.60633)"
     id="g1979"
     style="filter:url(#filter2627)" /></svg>