<?xml version="1.0" encoding="UTF-8" standalone="no"?>
<!-- Generator: Adobe Illustrator 16.0.0, SVG Export Plug-In . SVG Version: 6.00 Build 0)  -->

<svg
   xmlns:dc="http://purl.org/dc/elements/1.1/"
   xmlns:cc="http://creativecommons.org/ns#"
   xmlns:rdf="http://www.w3.org/1999/02/22-rdf-syntax-ns#"
   xmlns:svg="http://www.w3.org/2000/svg"
   xmlns="http://www.w3.org/2000/svg"
   xmlns:sodipodi="http://sodipodi.sourceforge.net/DTD/sodipodi-0.dtd"
   xmlns:inkscape="http://www.inkscape.org/namespaces/inkscape"
   version="1.1"
   id="Layer_1"
   x="0px"
   y="0px"
   width="256px"
   height="256px"
   viewBox="0 0 256 256"
   style="enable-background:new 0 0 256 256;"
   xml:space="preserve"
   sodipodi:docname="dot-net.svg"
   inkscape:version="0.92.3 (2405546, 2018-03-11)"><metadata
     id="metadata15"><rdf:RDF><cc:Work
         rdf:about=""><dc:format>image/svg+xml</dc:format><dc:type
           rdf:resource="http://purl.org/dc/dcmitype/StillImage" /><dc:title /></cc:Work></rdf:RDF></metadata><defs
     id="defs13" /><sodipodi:namedview
     pagecolor="#ffffff"
     bordercolor="#666666"
     borderopacity="1"
     objecttolerance="10"
     gridtolerance="10"
     guidetolerance="10"
     inkscape:pageopacity="0"
     inkscape:pageshadow="2"
     inkscape:window-width="1920"
     inkscape:window-height="1026"
     id="namedview11"
     showgrid="false"
     inkscape:zoom="2.3091456"
     inkscape:cx="81.752146"
     inkscape:cy="140.10802"
     inkscape:window-x="0"
     inkscape:window-y="0"
     inkscape:window-maximized="1"
     inkscape:current-layer="Layer_1" /><g
     id="g8"
     style="fill:#4a4f55;fill-opacity:1"
     transform="translate(-0.43306061)"><path
       style="fill:#4a4f55;fill-opacity:1"
       d="m 30,14 c -8.837,0 -16,7.164 -16,16 v 196 c 0,8.837 7.163,16 16,16 h 196 c 8.836,0 16,-7.163 16,-16 V 30 c 0,-8.836 -7.164,-16 -16,-16 z m 58.929688,72.527344 h 33.750002 c 16.8,0 20.925,10.05 30,42.374996 6.3,-21.825 13.575,-42.374996 30,-42.374996 h 30 a 3.75,3.75 0 0 1 3.22461,1.875 3.75,3.75 0 0 1 0.0742,3.675781 c -33.3,59.774995 -43.64883,69.449215 -55.79883,69.449215 h -33.75 c -11.55,0 -16.875,-8.92382 -28.125002,-49.04882 l -9.826172,9.82421 c -12.3,36 -18.298828,39.22461 -33.298828,39.22461 h -15 a 3.75,3.75 0 0 1 -3.75,-4.79882 c 14.549999,-48.525 30.75,-70.201176 52.5,-70.201176 z"
       id="path4"
       inkscape:connector-curvature="0" /></g><g
     inkscape:groupmode="layer"
     id="layer3"
     inkscape:label="Layer 1"><g
       transform="matrix(7.5,0,0,7.5,36.429338,34.027671)"
       data-name="Dot Net"
       id="Dot_Net"
       style="fill:#ffffff;fill-opacity:1" /></g><g
     inkscape:groupmode="layer"
     id="layer4"
     inkscape:label="Layer 2" /></svg>