<?xml version="1.0" encoding="UTF-8" standalone="no"?>
<!-- Generator: Adobe Illustrator 16.0.0, SVG Export Plug-In . SVG Version: 6.00 Build 0)  -->

<svg
   xmlns:dc="http://purl.org/dc/elements/1.1/"
   xmlns:cc="http://creativecommons.org/ns#"
   xmlns:rdf="http://www.w3.org/1999/02/22-rdf-syntax-ns#"
   xmlns:svg="http://www.w3.org/2000/svg"
   xmlns="http://www.w3.org/2000/svg"
   xmlns:sodipodi="http://sodipodi.sourceforge.net/DTD/sodipodi-0.dtd"
   xmlns:inkscape="http://www.inkscape.org/namespaces/inkscape"
   version="1.1"
   id="Layer_1"
   x="0px"
   y="0px"
   width="256px"
   height="256px"
   viewBox="0 0 256 256"
   style="enable-background:new 0 0 256 256;"
   xml:space="preserve"
   sodipodi:docname="dot-net.svg"
   inkscape:version="0.92.2 (unknown)"><metadata
     id="metadata15"><rdf:RDF><cc:Work
         rdf:about=""><dc:format>image/svg+xml</dc:format><dc:type
           rdf:resource="http://purl.org/dc/dcmitype/StillImage" /><dc:title /></cc:Work></rdf:RDF></metadata><defs
     id="defs13" /><sodipodi:namedview
     pagecolor="#ffffff"
     bordercolor="#666666"
     borderopacity="1"
     objecttolerance="10"
     gridtolerance="10"
     guidetolerance="10"
     inkscape:pageopacity="0"
     inkscape:pageshadow="2"
     inkscape:window-width="1920"
     inkscape:window-height="1027"
     id="namedview11"
     showgrid="false"
     inkscape:zoom="1.6328125"
     inkscape:cx="12.963177"
     inkscape:cy="107.21284"
     inkscape:window-x="0"
     inkscape:window-y="0"
     inkscape:window-maximized="1"
     inkscape:current-layer="Layer_1" /><g
     id="g8"
     style="fill:#4a4f55;fill-opacity:1"><path
       d="m 180,121.064 h -8.703 l -3.428,20.309 h 8.176 c 3.691,-0.35 6.593,-1.494 8.703,-3.429 2.109,-1.935 3.251,-5.54 3.428,-10.814 0,-4.044 -2.728,-6.066 -8.176,-6.066 z"
       id="path2"
       inkscape:connector-curvature="0"
       style="fill:#4a4f55;fill-opacity:1" /><path
       d="M 226,14 H 30 c -8.837,0 -16,7.164 -16,16 v 196 c 0,8.837 7.163,16 16,16 h 196 c 8.836,0 16,-7.163 16,-16 V 30 c 0,-8.836 -7.164,-16 -16,-16 z"
       id="path4"
       inkscape:connector-curvature="0"
       sodipodi:nodetypes="sssssssss"
       style="fill:#4a4f55;fill-opacity:1" /></g><g
     inkscape:groupmode="layer"
     id="layer3"
     inkscape:label="Layer 1"><g
       transform="matrix(7.5,0,0,7.5,36.429338,34.027671)"
       data-name="Dot Net"
       id="Dot_Net"
       style="fill:#ffffff;fill-opacity:1"><path
         inkscape:connector-curvature="0"
         d="M 23.93,7.25 A 0.5,0.5 0 0 0 23.5,7 h -4 c -2.19,0 -3.16,2.74 -4,5.65 C 14.29,8.34 13.74,7 11.5,7 H 7 C 4.1,7 1.94,9.89 0,16.36 A 0.5,0.5 0 0 0 0.5,17 h 2 c 2,0 2.8,-0.43 4.44,-5.23 L 8.25,10.46 C 9.75,15.81 10.46,17 12,17 h 4.5 c 1.62,0 3,-1.29 7.44,-9.26 A 0.5,0.5 0 0 0 23.93,7.25 Z"
         style="fill:#ffffff;fill-opacity:1"
         id="path4-7" /></g></g><g
     inkscape:groupmode="layer"
     id="layer4"
     inkscape:label="Layer 2" /></svg>