<?xml version="1.0" encoding="UTF-8" standalone="no"?>
<!-- Created with Inkscape (http://www.inkscape.org/) -->

<svg
   xmlns:dc="http://purl.org/dc/elements/1.1/"
   xmlns:cc="http://creativecommons.org/ns#"
   xmlns:rdf="http://www.w3.org/1999/02/22-rdf-syntax-ns#"
   xmlns:svg="http://www.w3.org/2000/svg"
   xmlns="http://www.w3.org/2000/svg"
   xmlns:sodipodi="http://sodipodi.sourceforge.net/DTD/sodipodi-0.dtd"
   xmlns:inkscape="http://www.inkscape.org/namespaces/inkscape"
   version="1.1"
   id="svg815"
   width="512"
   height="512"
   viewBox="0 0 512 512"
   sodipodi:docname="fraud.svg"
   inkscape:version="0.92.2 (5c3e80d, 2017-08-06)">
  <metadata
     id="metadata821">
    <rdf:RDF>
      <cc:Work
         rdf:about="">
        <dc:format>image/svg+xml</dc:format>
        <dc:type
           rdf:resource="http://purl.org/dc/dcmitype/StillImage" />
        <dc:title></dc:title>
      </cc:Work>
    </rdf:RDF>
  </metadata>
  <defs
     id="defs819" />
  <sodipodi:namedview
     pagecolor="#ffffff"
     bordercolor="#666666"
     borderopacity="1"
     objecttolerance="10"
     gridtolerance="10"
     guidetolerance="10"
     inkscape:pageopacity="0"
     inkscape:pageshadow="2"
     inkscape:window-width="1920"
     inkscape:window-height="1017"
     id="namedview817"
     showgrid="false"
     inkscape:zoom="0.62109374"
     inkscape:cx="-261.11075"
     inkscape:cy="378.80624"
     inkscape:window-x="-8"
     inkscape:window-y="-8"
     inkscape:window-maximized="1"
     inkscape:current-layer="svg815" />
  <g
     id="g889"
     transform="matrix(1.0648,0,0,1.0648,358.78174,227.76578)"
     style="fill:#00c3d7;fill-opacity:1">
    <g
       id="scull"
       style="fill:#00c3d7;fill-opacity:1">
      <g
         id="g871"
         style="fill:#00c3d7;fill-opacity:1">
        <path
           id="path865"
           d="m 32.472,74.848 c 2.769,-1.534 7.627,-3.772 14.574,-6.712 0.341,-0.17 1.236,-0.553 2.685,-1.151 2.471,-2.514 4.516,-4.4 6.137,-5.657 1.619,-1.256 2.791,-1.886 3.516,-1.886 0.895,0 1.555,0.278 1.981,0.831 0.425,0.554 0.639,1.406 0.639,2.557 0,0.981 -0.15,2.365 -0.448,4.155 1.832,2.301 2.749,4.006 2.749,5.114 0,0.938 -0.256,1.652 -0.767,2.141 -0.511,0.49 -1.278,0.735 -2.301,0.735 -0.511,0 -1.289,-0.266 -2.333,-0.799 -1.045,-0.532 -2.376,-1.31 -3.995,-2.333 -3.921,0.725 -9.546,2.92 -16.875,6.584 0.937,0.554 1.619,0.959 2.046,1.214 2.557,1.449 5.71,3.388 9.46,5.817 0.468,0.299 1.534,0.938 3.196,1.918 7.755,0.895 11.634,2.855 11.634,5.881 0,1.961 -2.088,3.282 -6.264,3.963 -1.96,2.386 -3.58,3.58 -4.858,3.58 -1.534,0 -3.026,-2.004 -4.475,-6.009 -0.128,-0.425 -0.362,-1.044 -0.703,-1.854 -5.967,-4.9 -11.336,-8.608 -16.108,-11.122 -5.839,3.282 -11.25,7.202 -16.236,11.761 -0.682,4.816 -2.131,7.223 -4.347,7.223 -1.406,0 -3.026,-1.364 -4.858,-4.091 -4.347,0 -6.52,-1.192 -6.52,-3.58 0,-1.747 0.809,-3.014 2.429,-3.803 1.619,-0.788 5.028,-1.566 10.227,-2.333 3.892,-2.854 8.513,-5.71 13.86,-8.565 -7.181,-3.58 -13.037,-5.774 -17.567,-6.584 -1.066,0.938 -2.045,1.641 -2.941,2.11 -0.895,0.469 -1.726,0.703 -2.493,0.703 -1.109,0 -1.95,-0.234 -2.525,-0.703 -0.575,-0.468 -0.863,-1.151 -0.863,-2.045 0,-0.809 0.937,-2.45 2.813,-4.922 -0.426,-1.747 -0.639,-3.068 -0.639,-3.963 0,-1.278 0.256,-2.226 0.767,-2.844 0.511,-0.617 1.256,-0.927 2.237,-0.927 0.98,0 2.258,0.639 3.835,1.918 1.576,1.278 3.473,3.218 5.689,5.817 4.9,1.746 10.78,4.367 17.642,7.861 z"
           inkscape:connector-curvature="0"
           style="fill:#00c3d7;fill-opacity:1" />
        <path
           id="path867"
           d="m 44.298,48.448 -1.598,6.328 -3.9,3.388 c -0.679,1.321 -1.582,2.312 -2.708,2.972 -1.125,0.661 -2.452,0.991 -3.98,0.991 -3.058,0 -5.287,-1.32 -6.689,-3.963 L 21.5,54.776 19.893,48.448 22.208,47.873 c 0.255,0.639 0.446,1.13 0.574,1.47 0.979,2.259 2.052,3.75 3.223,4.474 1.171,0.725 3.117,1.087 5.841,1.087 3.064,0 5.18,-0.341 6.351,-1.023 1.171,-0.681 2.245,-2.194 3.224,-4.538 0.128,-0.341 0.318,-0.831 0.574,-1.47 z"
           inkscape:connector-curvature="0"
           style="fill:#00c3d7;fill-opacity:1" />
        <path
           id="path869"
           d="M 48.144,5.306 C 44.01,1.769 38.62,0 31.972,0 25.324,0 19.933,1.769 15.8,5.306 11.666,8.844 9.6,13.467 9.6,19.177 c 0,4.901 0.66,8.46 1.981,10.675 1.704,2.983 2.621,4.986 2.749,6.009 l 0.831,5.369 8.99,4.283 1.285,3.26 c 0.807,0.256 1.762,0.458 2.866,0.607 1.104,0.15 2.335,0.224 3.694,0.224 2.76,0 4.946,-0.277 6.56,-0.831 l 1.279,-3.26 8.949,-4.283 0.831,-5.369 c 0.17,-1.023 0.384,-1.79 0.639,-2.301 2.727,-4.687 4.091,-9.481 4.091,-14.382 0,-5.711 -2.068,-10.335 -6.201,-13.872 z M 22.671,35.732 c -3.558,0 -5.337,-2.046 -5.337,-6.137 0,-1.959 0.46,-3.43 1.382,-4.411 0.921,-0.98 2.304,-1.47 4.148,-1.47 3.472,0 5.209,1.812 5.209,5.433 0,4.391 -1.801,6.585 -5.402,6.585 z m 11.143,8.625 c -0.47,0 -0.981,-0.17 -1.534,-0.511 -0.554,0.342 -1.066,0.511 -1.534,0.511 -0.767,0 -1.353,-0.17 -1.758,-0.511 -0.405,-0.341 -0.607,-0.852 -0.607,-1.534 0,-0.639 0.511,-1.534 1.534,-2.685 0.809,-0.98 1.598,-2.11 2.365,-3.388 0.724,1.236 1.512,2.365 2.365,3.388 1.023,1.151 1.534,2.024 1.534,2.621 10e-4,1.406 -0.789,2.109 -2.365,2.109 z m 7.81,-8.625 c -3.58,0 -5.37,-2.046 -5.37,-6.137 0,-3.92 1.832,-5.881 5.497,-5.881 1.747,0 3.057,0.447 3.931,1.342 0.873,0.895 1.311,2.259 1.311,4.091 10e-4,4.391 -1.789,6.585 -5.369,6.585 z"
           inkscape:connector-curvature="0"
           style="fill:#00c3d7;fill-opacity:1" />
      </g>
    </g>
    <g
       id="Слой_1"
       style="fill:#00c3d7;fill-opacity:1" />
  </g>
  <path
     style="fill:#00c3d7;fill-opacity:1;stroke-width:4.73244429"
     d="M 44.688535,383.6789 30.855239,369.84566 V 248.44025 127.03483 L 44.688535,113.2016 58.521846,99.36825 H 258.01258 457.50331 l 13.83333,13.83335 13.83329,13.83323 v 121.40542 121.40541 l -13.83329,13.83324 -13.83333,13.83335 H 258.01258 58.521846 Z m 422.049565,-4.71376 11.68345,-11.31446 -1.0648,-77.35185 V 205.4909 H 258.01258 38.659144 v 83.98557 76.52964 l 9.963723,11.44829 12.093984,13.3117 H 257.19029 453.66375 Z M 73.447237,347.82154 v -0.71235 h 42.592003 42.592 v 0.71235 7.09871 h -42.592 -42.592003 z m 7.452523,-63.888 V 261.9253 h 70.63282 70.63419 v 22.00824 20.9458 H 151.53258 80.89976 Z m 134.52082,0 v -14.19729 h -63.888 -63.888 v 14.19729 14.19742 h 63.888 63.888 z M 477.35675,184.55225 V 170.35496 H 258.01258 38.659144 v 14.19729 14.19729 H 258.01258 477.35675 Z m 0,-41.03621 V 130.8744 L 466.36051,119.09463 455.30832,107.17792 H 258.83486 62.361409 l -11.73021,10.53991 -11.972055,11.51199 v 13.46386 19.85384 H 258.01258 477.35675 Z"
     id="path845"
     inkscape:connector-curvature="0"
     sodipodi:nodetypes="ccccccccccccccccccccccccccccccccccccccccccccccccccccccccccccccccccccccccccccccc" />
</svg>
