<?xml version="1.0" encoding="UTF-8" standalone="no"?>
<!-- Generator: Adobe Illustrator 16.0.0, SVG Export Plug-In . SVG Version: 6.00 Build 0)  -->

<svg
   xmlns:dc="http://purl.org/dc/elements/1.1/"
   xmlns:cc="http://creativecommons.org/ns#"
   xmlns:rdf="http://www.w3.org/1999/02/22-rdf-syntax-ns#"
   xmlns:svg="http://www.w3.org/2000/svg"
   xmlns="http://www.w3.org/2000/svg"
   xmlns:sodipodi="http://sodipodi.sourceforge.net/DTD/sodipodi-0.dtd"
   xmlns:inkscape="http://www.inkscape.org/namespaces/inkscape"
   version="1.1"
   id="Layer_1"
   x="0px"
   y="0px"
   width="256px"
   height="256px"
   viewBox="0 0 256 256"
   style="enable-background:new 0 0 256 256;"
   xml:space="preserve"
   sodipodi:docname="go.svg"
   inkscape:version="0.92.3 (2405546, 2018-03-11)"><metadata
     id="metadata15"><rdf:RDF><cc:Work
         rdf:about=""><dc:format>image/svg+xml</dc:format><dc:type
           rdf:resource="http://purl.org/dc/dcmitype/StillImage" /><dc:title /></cc:Work></rdf:RDF></metadata><defs
     id="defs13" /><sodipodi:namedview
     pagecolor="#ffffff"
     bordercolor="#666666"
     borderopacity="1"
     objecttolerance="10"
     gridtolerance="10"
     guidetolerance="10"
     inkscape:pageopacity="0"
     inkscape:pageshadow="2"
     inkscape:window-width="1920"
     inkscape:window-height="1026"
     id="namedview11"
     showgrid="false"
     inkscape:zoom="2.3091456"
     inkscape:cx="138.70406"
     inkscape:cy="163.12799"
     inkscape:window-x="0"
     inkscape:window-y="0"
     inkscape:window-maximized="1"
     inkscape:current-layer="Layer_1"
     showguides="false" /><g
     id="g8"
     transform="translate(0.7751196,0.7751196)"
     style="fill:#4a4f55;fill-opacity:1"><path
       style="fill:#4a4f55;fill-opacity:1"
       d="M 30.775391 14.775391 C 21.938391 14.775391 14.775391 21.939391 14.775391 30.775391 L 14.775391 226.77539 C 14.775391 235.61239 21.938391 242.77539 30.775391 242.77539 L 226.77539 242.77539 C 235.61139 242.77539 242.77539 235.61239 242.77539 226.77539 L 242.77539 30.775391 C 242.77539 21.939391 235.61139 14.775391 226.77539 14.775391 L 30.775391 14.775391 z M 127.98242 34.21875 C 143.64829 34.21875 158.58168 36.268432 169.41602 45.638672 C 185.81394 34.072282 200.60173 59.985843 181.71484 66.720703 C 186.69278 85.461183 184.93599 105.22669 185.81445 124.69922 L 189.18164 124.69922 C 189.32805 124.84563 189.47468 124.8457 189.62109 124.8457 L 189.91406 124.8457 L 190.5 124.99219 L 190.64648 124.99219 L 191.08594 125.13867 C 191.23235 125.28508 191.2325 125.28516 191.37891 125.28516 L 191.81641 125.43164 C 191.96282 125.57805 191.96296 125.57812 192.10938 125.57812 C 192.10938 125.57812 192.25593 125.72461 192.40234 125.72461 L 192.69531 125.87109 C 192.69531 125.87109 192.84187 126.01758 192.98828 126.01758 L 193.28125 126.16406 C 193.28125 126.16406 193.42781 126.31055 193.57422 126.31055 L 193.7207 126.45703 C 193.7207 126.60344 193.86726 126.60359 194.01367 126.75 L 194.16016 126.89648 C 194.45298 126.89648 194.59968 127.04304 194.74609 127.18945 C 196.21019 128.21432 198.991 131.72807 196.64844 130.84961 C 196.35562 136.26678 190.93819 133.77645 188.44922 132.01953 L 188.15625 131.87305 C 188.15625 131.72664 188.00977 131.72656 188.00977 131.72656 L 187.86328 131.72656 C 187.86328 131.58015 187.7168 131.58203 187.7168 131.58203 L 187.2793 131.58203 C 187.2793 131.58203 187.13274 131.43555 186.98633 131.43555 L 186.83984 131.43555 C 188.01112 150.46885 189.47413 171.55175 180.83594 188.82812 C 178.93261 192.7812 176.29734 196.1479 173.36914 198.92969 L 173.51562 199.07617 L 173.66211 199.22266 L 173.80859 199.36914 L 173.95508 199.51562 L 174.10156 199.66211 L 174.24805 199.80859 L 174.39453 199.95508 L 174.54102 200.10156 L 174.6875 200.24805 L 174.83398 200.39453 L 174.98047 200.54102 L 175.12695 200.6875 L 175.27344 200.83203 L 175.41992 200.97852 L 175.56641 201.125 L 175.71289 201.27148 L 175.85938 201.41797 L 176.00586 201.56445 L 176.15039 201.71094 L 176.15039 201.85742 L 176.29688 202.00391 L 176.44336 202.15039 L 176.58984 202.29688 L 176.73633 202.44336 L 176.88281 202.58984 L 177.0293 202.73633 L 177.17578 202.88281 L 177.32227 203.0293 L 177.46875 203.17578 L 177.61523 203.32227 L 177.76172 203.46875 L 177.9082 203.61523 C 178.05461 203.61523 178.05469 203.76172 178.05469 203.76172 C 178.2011 203.76172 178.20117 203.9082 178.20117 203.9082 C 178.34758 203.9082 178.34766 204.05469 178.34766 204.05469 C 178.49407 204.05469 178.49414 204.20117 178.49414 204.20117 C 178.64055 204.20117 178.64062 204.34766 178.64062 204.34766 C 178.78704 204.34766 178.78711 204.49414 178.78711 204.49414 C 178.93352 204.49414 178.93359 204.64062 178.93359 204.64062 C 179.08 204.64063 179.08008 204.78516 179.08008 204.78516 C 179.22649 204.78516 179.22656 204.93164 179.22656 204.93164 C 179.37297 204.93164 179.37305 205.07812 179.37305 205.07812 C 179.51946 205.07812 179.51953 205.22461 179.51953 205.22461 C 179.66594 205.22461 179.66602 205.37109 179.66602 205.37109 C 179.81243 205.37109 179.8125 205.51758 179.8125 205.51758 C 179.95891 205.51758 179.95703 205.66406 179.95703 205.66406 L 179.95703 205.81055 C 180.10344 205.81055 180.10352 205.95703 180.10352 205.95703 L 180.10352 206.10352 C 180.24993 206.10352 180.25 206.25 180.25 206.25 L 180.25 209.32422 L 180.10352 209.4707 C 180.10352 209.61711 179.8125 209.61719 179.8125 209.61719 L 179.37305 209.76367 L 179.37305 209.91016 L 179.8125 210.05664 C 179.8125 210.20305 180.25 210.20312 180.25 210.20312 L 180.25 212.25391 C 180.10359 212.25391 180.10352 212.39844 180.10352 212.39844 L 180.10352 212.54492 C 179.95711 212.54492 179.95703 212.69141 179.95703 212.69141 L 179.95703 212.83789 C 179.81062 212.83789 179.8125 212.98438 179.8125 212.98438 L 179.8125 213.13086 L 179.66602 213.27734 L 179.51953 213.42383 L 179.37305 213.57031 L 179.22656 213.7168 L 179.08008 213.86328 L 178.93359 214.00977 L 178.78711 214.15625 L 178.64062 214.15625 L 178.49414 214.30273 L 178.34766 214.30273 L 178.05469 214.44922 L 177.76172 214.74219 L 177.61523 214.74219 L 177.46875 214.88867 C 177.46875 215.03508 177.32227 215.03516 177.32227 215.03516 L 177.17578 215.18164 C 177.17578 215.32805 177.0293 215.32812 177.0293 215.32812 C 177.0293 215.47454 176.88281 215.47461 176.88281 215.47461 L 176.73633 215.47461 C 176.73633 215.62102 176.58984 215.62109 176.58984 215.62109 L 176.44336 215.62109 C 176.44336 215.7675 176.29688 215.76758 176.29688 215.76758 L 173.22266 215.76758 C 173.22266 215.62117 173.07617 215.62109 173.07617 215.62109 C 173.07617 215.47468 172.92969 215.47461 172.92969 215.47461 C 172.92969 215.3282 172.7832 215.32812 172.7832 215.32812 L 172.63672 215.18164 L 172.49023 215.03516 L 172.34375 214.88867 L 172.19922 214.74219 C 169.41743 212.54604 166.92805 207.86081 163.70703 206.83594 C 152.14064 213.13157 137.64587 214.88845 124.9082 214.44922 C 115.83078 214.1564 105.72803 212.40026 97.089844 208.30078 L 97.822266 209.17773 C 92.844326 209.90978 90.062371 214.44838 85.962891 216.64453 C 82.009821 218.98709 80.544773 215.91377 80.251953 215.32812 C 79.959133 215.18172 79.814379 215.18164 79.667969 215.18164 L 79.375 215.18164 L 78.789062 214.5957 C 77.910603 213.1316 77.617336 211.81386 77.910156 210.64258 L 78.056641 210.20312 C 78.056641 209.9103 78.203199 209.61704 78.349609 209.32422 L 78.642578 208.88477 L 79.228516 208.00781 C 79.374926 207.8614 79.521633 207.56821 79.814453 207.27539 L 81.423828 205.81055 L 82.742188 204.78516 L 83.621094 204.20117 L 84.058594 203.9082 L 85.376953 203.0293 C 85.816183 202.73648 86.256008 202.44321 86.548828 202.15039 L 87.28125 202.15039 C 84.64587 199.95424 82.301768 197.31875 80.398438 194.24414 C 69.710508 176.96776 74.836309 151.19924 75.568359 132.01953 L 75.568359 129.38477 L 75.421875 131.28906 C 75.421875 132.16752 75.275316 132.7521 75.128906 133.04492 L 74.982422 133.19141 C 74.982422 133.33782 74.982348 133.48438 74.835938 133.48438 C 74.689528 133.63079 74.396336 133.63093 74.103516 133.77734 C 73.957106 133.92375 73.956957 133.92383 73.810547 133.92383 L 73.517578 134.07031 L 73.371094 134.07031 C 73.224684 134.07031 72.785007 134.21695 72.492188 134.50977 L 72.345703 134.65625 C 69.856733 136.41317 64.441258 138.90154 64.148438 133.48438 C 63.123568 133.04515 62.830078 132.45861 62.830078 131.72656 L 62.830078 131.28906 L 62.976562 130.84961 L 63.416016 129.9707 L 63.708984 129.53125 C 63.855394 129.38484 64.148512 129.09165 64.294922 128.79883 L 64.441406 128.65234 L 65.025391 128.06641 C 65.171801 128.06641 65.318434 127.91985 65.464844 127.77344 L 66.050781 127.33594 L 66.34375 127.18945 C 66.34375 127.18945 66.490309 127.04297 66.636719 127.04297 L 66.929688 126.89648 L 67.222656 126.75 C 67.222656 126.75 67.369215 126.60352 67.515625 126.60352 L 67.808594 126.45703 L 68.248047 126.31055 C 68.248047 126.16414 68.394531 126.16406 68.394531 126.16406 L 68.832031 126.01758 L 68.978516 126.01758 L 69.417969 125.87109 L 69.564453 125.87109 L 70.150391 125.72461 L 70.296875 125.72461 L 70.882812 125.57812 C 71.029222 125.43171 71.32234 125.43164 71.46875 125.43164 C 71.76157 125.28523 72.054762 125.28516 72.201172 125.28516 L 72.931641 125.28516 C 74.395741 125.13875 74.543415 124.55273 75.421875 124.55273 C 75.130461 105.6108 70.055997 87.104655 76.068359 68.744141 C 73.19932 67.871657 71.746071 66.855058 70.296875 65.550781 L 70.150391 65.550781 L 69.710938 65.111328 L 69.271484 64.671875 L 69.125 64.525391 L 68.832031 64.085938 C 68.685621 64.085938 68.685547 63.939453 68.685547 63.939453 L 68.394531 63.5 C 68.248121 63.5 68.248047 63.353516 68.248047 63.353516 L 67.955078 62.914062 C 67.808668 62.914063 67.808594 62.767578 67.808594 62.767578 L 67.662109 62.330078 C 67.515699 62.330078 67.515625 62.183594 67.515625 62.183594 L 67.369141 61.744141 C 67.222731 61.744141 67.222656 61.597656 67.222656 61.597656 L 67.076172 61.158203 L 67.076172 61.011719 L 66.929688 60.572266 L 66.929688 60.425781 C 66.783277 60.279371 66.783203 60.132738 66.783203 59.986328 L 66.783203 55.447266 C 66.929613 55.300856 66.929688 55.154222 66.929688 55.007812 L 66.929688 54.861328 L 67.076172 54.423828 L 67.076172 54.277344 C 67.076172 54.277344 67.075874 54.130636 66.490234 53.691406 C 66.636644 53.691406 66.636719 53.544922 66.636719 53.544922 L 66.783203 53.105469 C 66.929613 53.105469 66.929688 52.958984 66.929688 52.958984 L 67.076172 52.519531 C 67.222582 52.519531 67.222656 52.373047 67.222656 52.373047 L 67.369141 51.933594 C 67.515551 51.933594 67.515625 51.787109 67.515625 51.787109 L 67.662109 51.347656 L 67.808594 51.201172 C 67.955004 51.201172 67.955152 51.054613 68.101562 50.908203 L 68.248047 50.763672 C 68.394457 50.763672 68.392652 50.617113 68.539062 50.470703 L 68.685547 50.324219 C 68.831957 50.324219 68.832106 50.17766 68.978516 50.03125 L 69.125 49.884766 C 69.27141 49.884766 69.271559 49.738207 69.417969 49.591797 L 69.564453 49.445312 C 69.710863 49.445312 69.711012 49.298754 69.857422 49.152344 L 70.003906 49.005859 L 70.296875 48.712891 L 70.443359 48.566406 C 70.443359 48.419996 70.589918 48.419848 70.736328 48.273438 L 70.882812 48.126953 L 71.322266 47.833984 C 71.322266 47.687574 71.46875 47.6875 71.46875 47.6875 L 71.908203 47.394531 C 71.908203 47.248121 72.054688 47.248047 72.054688 47.248047 L 72.492188 46.957031 C 72.492188 46.810621 72.638672 46.810547 72.638672 46.810547 L 73.078125 46.517578 L 73.224609 46.517578 L 73.664062 46.224609 L 73.810547 46.224609 L 74.25 45.931641 L 74.396484 45.931641 C 74.689304 45.785231 74.836012 45.638672 74.982422 45.638672 L 75.128906 45.638672 C 75.275316 45.492262 75.568434 45.345703 75.714844 45.345703 C 75.861254 45.199293 76.152418 45.052734 76.298828 45.052734 L 76.298828 44.90625 C 79.812668 43.88138 83.765754 44.467838 87.865234 46.517578 C 98.113934 38.465028 112.60937 35.24362 127.98242 34.21875 z M 149.6582 44.121094 C 140.39899 44.278406 130.90138 50.965002 131.64258 62.330078 C 135.44924 84.145168 171.02669 78.434156 165.90234 56.472656 C 163.91666 47.825316 156.85982 43.99874 149.6582 44.121094 z M 107.21484 45.984375 C 97.107943 45.657526 86.401729 52.813334 89.037109 65.990234 C 93.868639 84.877124 124.32167 80.045019 123.15039 61.011719 C 122.5739 51.019236 115.07577 46.238591 107.21484 45.984375 z M 140.42773 55.886719 C 143.20952 55.886719 145.4043 58.376562 145.4043 61.451172 C 145.4043 64.525782 143.20952 67.013672 140.42773 67.013672 C 137.64594 67.013672 135.44922 64.525782 135.44922 61.451172 C 135.44922 58.376562 137.64594 55.886719 140.42773 55.886719 z M 97.382812 57.205078 C 100.31101 57.205078 102.50781 59.692968 102.50781 62.767578 C 102.50781 65.842188 100.1646 68.332031 97.382812 68.332031 C 94.601022 68.332031 92.257812 65.842188 92.257812 62.767578 C 92.257813 59.692968 94.601022 57.205078 97.382812 57.205078 z M 142.76953 61.158203 C 142.18389 61.158203 141.59766 61.889044 141.59766 62.621094 C 141.59766 63.499554 142.18389 64.085938 142.76953 64.085938 C 143.35517 64.085938 143.94141 63.499554 143.94141 62.621094 C 143.94141 61.742634 143.35517 61.158203 142.76953 61.158203 z M 99.724609 62.621094 C 99.138969 62.621094 98.554688 63.353887 98.554688 64.085938 C 98.554688 64.964397 98.992559 65.550781 99.724609 65.550781 C 100.45666 65.550781 100.89648 64.817987 100.89648 64.085938 C 100.89648 63.207477 100.45666 62.621094 99.724609 62.621094 z M 136.32812 77.556641 C 134.27838 81.656121 122.56589 82.239956 121.54102 77.847656 C 117.58795 78.579706 114.51276 83.265606 116.5625 87.072266 C 117.73378 88.975596 119.19816 89.415941 120.95508 89.269531 C 119.34457 94.979521 122.85837 104.20316 128.56836 96.589844 L 128.86133 96.736328 C 129.59338 98.346838 130.91105 99.371242 132.66797 99.664062 C 133.83925 99.078423 135.30311 98.930971 136.03516 97.613281 C 136.47439 94.685081 135.88867 91.758352 135.88867 88.976562 C 137.93841 89.708613 139.9873 90.000912 141.89062 87.951172 C 145.8437 83.851692 140.86683 79.752791 136.32812 77.556641 z "
       transform="translate(-0.7751196,-0.7751196)"
       id="path4" /></g><g
     transform="matrix(1.4641,0,0,1.4641,36.329792,32.315089)"
     id="g4"
     style="fill:#ffffff;fill-opacity:1" /></svg>