<?xml version="1.0" ?><!DOCTYPE svg  PUBLIC '-//W3C//DTD SVG 1.0//EN'  'http://www.w3.org/TR/2001/REC-SVG-20010904/DTD/svg10.dtd'><svg enable-background="new 0 0 200 200" height="200px" id="Layer_1" version="1.0" viewBox="0 0 200 200" width="200px" xml:space="preserve" xmlns="http://www.w3.org/2000/svg" xmlns:xlink="http://www.w3.org/1999/xlink"><g id="New_Symbol"/><g id="New_Symbol_1_"/><g id="New_Symbol_1"/><g id="New_Symbol_9_2_"/><g id="New_Symbol_7"/><g id="New_Symbol_9_1_"/><g id="New_Symbol_9"/><g id="Nuevo_símbolo"/><g id="New_Symbol_10"/><g id="New_Symbol_12"/><g id="New_Symbol_14"/><g id="New_Symbol_15"/><g id="New_Symbol_16"/><g id="New_Symbol_17_1_"/><g id="New_Symbol_18"/><g id="New_Symbol_19"/><g id="New_Symbol_17"/><g><g><g><path d="M156.7,165H55.3V16.7h101.5V165z M57.8,162.5h96.5V19.2H57.8V162.5z"/></g></g><g><g><path d="M112.6,61.6V16.8h23.3v44.8l-11.7-11.7L112.6,61.6z M124.2,46.4l9.2,9.2V19.3h-18.3v36.3L124.2,46.4z"/></g></g><g><g><path d="M138.5,148.8h-65V93.2h65V148.8z M76,146.3h60V95.7H76V146.3z"/></g></g><g><g><path d="M147.9,183.3H55.7c-6.8,0-12.4-5.2-12.4-11.7c0-3.7,3.7-9.2,13.9-9.2v2.5c-8.4,0-11.4,4-11.4,6.7c0,5.1,4.4,9.2,9.9,9.2     h89.7v-17.1h2.5V183.3z"/></g></g><g><g><polygon points="45.8,171.7 43.3,171.7 43.3,31 55.6,17.1 57.4,18.7 45.8,31.9    "/></g></g><g><g><polygon points="96.3,132.6 85.3,121.6 96.3,110.8 95.2,109.7 83.1,121.6 95.2,133.7    "/></g><g><path d="M95.2,134.4l-12.8-12.8L95.2,109l1.8,1.8l-11,10.8l11,11L95.2,134.4z M83.8,121.6L95.2,133l0.4-0.4l-11-11l11-10.8     l-0.4-0.4L83.8,121.6z"/></g></g><g><g><polygon points="118.9,133.7 131,121.6 118.9,109.7 117.8,110.8 128.8,121.6 117.8,132.6    "/></g><g><path d="M118.9,134.4l-1.8-1.8l11-11l-11-10.8l1.8-1.8l12.8,12.6L118.9,134.4z M118.5,132.6l0.4,0.4l11.4-11.4l-11.4-11.2     l-0.4,0.4l11,10.8L118.5,132.6z"/></g></g><g><g><rect height="24.9" transform="matrix(0.9111 0.4121 -0.4121 0.9111 59.6223 -33.4067)" width="1.6" x="106.5" y="109.1"/></g><g><path d="M103.1,133.9l-2.3-1.1l10.7-23.6l2.3,1.1L103.1,133.9z M102.1,132.3l0.5,0.2l9.8-21.7l-0.5-0.2L102.1,132.3z"/></g></g></g></svg>