<?xml version="1.0" encoding="UTF-8" standalone="no"?>
<svg
   xmlns:dc="http://purl.org/dc/elements/1.1/"
   xmlns:cc="http://creativecommons.org/ns#"
   xmlns:rdf="http://www.w3.org/1999/02/22-rdf-syntax-ns#"
   xmlns:svg="http://www.w3.org/2000/svg"
   xmlns="http://www.w3.org/2000/svg"
   xmlns:sodipodi="http://sodipodi.sourceforge.net/DTD/sodipodi-0.dtd"
   xmlns:inkscape="http://www.inkscape.org/namespaces/inkscape"
   enable-background="new 0 0 512 512"
   height="512"
   id="Creativity"
   version="1.1"
   viewBox="0 0 512 512"
   width="512"
   xml:space="preserve"
   sodipodi:docname="innovation.svg"
   inkscape:version="0.92.2 (5c3e80d, 2017-08-06)"><metadata
     id="metadata14211"><rdf:RDF><cc:Work
         rdf:about=""><dc:format>image/svg+xml</dc:format><dc:type
           rdf:resource="http://purl.org/dc/dcmitype/StillImage" /><dc:title></dc:title></cc:Work></rdf:RDF></metadata><defs
     id="defs14209" /><sodipodi:namedview
     pagecolor="#ffffff"
     bordercolor="#666666"
     borderopacity="1"
     objecttolerance="10"
     gridtolerance="10"
     guidetolerance="10"
     inkscape:pageopacity="0"
     inkscape:pageshadow="2"
     inkscape:window-width="1920"
     inkscape:window-height="1017"
     id="namedview14207"
     showgrid="false"
     inkscape:zoom="0.65186406"
     inkscape:cx="-65.659341"
     inkscape:cy="207.64985"
     inkscape:window-x="-8"
     inkscape:window-y="-8"
     inkscape:window-maximized="1"
     inkscape:current-layer="Creativity" /><linearGradient
     gradientUnits="userSpaceOnUse"
     id="SVGID_1_"
     x1="173.9585"
     x2="339.47"
     y1="343.0127"
     y2="177.50121"><stop
       offset="0"
       style="stop-color:#00FFFF"
       id="stop14166" /><stop
       offset="1"
       style="stop-color:#FF7BAC"
       id="stop14168" /></linearGradient><linearGradient
     gradientUnits="userSpaceOnUse"
     id="SVGID_2_"
     x1="256.00101"
     x2="256.00101"
     y1="112.9092"
     y2="50.384102"><stop
       offset="0"
       style="stop-color:#00FFFF"
       id="stop14185" /><stop
       offset="1"
       style="stop-color:#FF7BAC"
       id="stop14187" /></linearGradient><linearGradient
     gradientUnits="userSpaceOnUse"
     id="SVGID_3_"
     x1="125.8999"
     x2="125.8999"
     y1="158.34911"
     y2="112.7236"><stop
       offset="0"
       style="stop-color:#00FFFF"
       id="stop14192" /><stop
       offset="1"
       style="stop-color:#FF7BAC"
       id="stop14194" /></linearGradient><linearGradient
     gradientUnits="userSpaceOnUse"
     id="SVGID_4_"
     x1="386.10159"
     x2="386.10159"
     y1="158.34911"
     y2="112.7235"><stop
       offset="0"
       style="stop-color:#00FFFF"
       id="stop14199" /><stop
       offset="1"
       style="stop-color:#FF7BAC"
       id="stop14201" /></linearGradient><g
     id="g3983"
     transform="translate(-4.6021865,3.0681244)"><path
       inkscape:connector-curvature="0"
       style="fill:#00c3d7;fill-opacity:1"
       id="path14171"
       d="m 348.24755,290.69732 -0.054,-10e-4 c 10.03,-15.889 15.76,-34.764 15.539,-54.993 -0.596,-54.549 -45.023,-99.137 -99.57,-99.916 -56.488,-0.807 -102.532,44.741 -102.532,101.043 0,19.233 5.375,37.211 14.702,52.516 l -0.036,-10e-4 c 0,0 0.037,0.035 0.089,0.086 3.231,5.29 25.706,43.559 32.758,76.838 2.237,10.556 11.448,18.171 22.237,18.313 l 61.21,0.811 c 11.037,0.146 20.576,-7.563 22.858,-18.361 7.13,-33.736 29.612,-71.393 32.659,-76.201 0.087,-0.083 0.14,-0.134 0.14,-0.134 z" /><path
       style="fill:#ffffff"
       inkscape:connector-curvature="0"
       id="path14173"
       d="m 217.51655,270.07632 c 8.758,33.782 28.805,111.104 30.07,115.983 1.613,6.226 11.262,3.586 9.643,-2.658 -8.758,-33.781 -28.805,-111.104 -30.07,-115.984 -1.614,-6.225 -11.262,-3.586 -9.643,2.659 z" /><path
       style="fill:#ffffff"
       inkscape:connector-curvature="0"
       id="path14175"
       d="m 298.21055,267.41632 c -8.758,33.783 -28.805,111.105 -30.069,115.984 -1.616,6.234 8.026,8.894 9.643,2.658 8.759,-33.781 28.805,-111.104 30.07,-115.983 1.615,-6.233 -8.026,-8.893 -9.644,-2.659 z" /><path
       style="fill:#ffffff"
       inkscape:connector-curvature="0"
       id="path14177"
       d="m 246.12055,272.45332 c -1.225,1.626 -0.258,0.284 0.094,0.006 0.702,-0.558 1.275,-1.167 2.044,-1.648 1.985,-1.246 4.788,-2.106 7.119,-1.436 3.814,1.097 6.398,4.714 10.413,5.821 7.271,2.007 17.854,0.034 22.095,-6.856 3.383,-5.495 -5.264,-10.523 -8.635,-5.047 0.249,-0.403 0.011,0.214 -0.864,0.732 -2.028,1.205 -4.046,1.728 -6.43,1.819 -5.051,0.194 -7.169,-3.105 -11.313,-5.128 -7.998,-3.904 -18.042,-0.102 -23.157,6.688 -3.874,5.143 4.805,10.131 8.634,5.049 z" /><path
       inkscape:connector-curvature="0"
       style="fill:#00c3d7;fill-opacity:1"
       id="path14179"
       d="m 305.99955,391.41232 h -86.629 c -4.495,0 -8.152,3.657 -8.152,8.152 v 7.715 c 0,4.495 3.657,8.152 8.152,8.152 h 86.629 c 4.495,0 8.152,-3.657 8.152,-8.152 v -7.715 c 0.001,-4.494 -3.656,-8.152 -8.152,-8.152 z" /><path
       inkscape:connector-curvature="0"
       style="fill:#00c3d7;fill-opacity:1"
       id="path14181"
       d="m 305.99955,420.64532 h -86.629 c -4.495,0 -8.152,3.657 -8.152,8.152 v 7.715 c 0,4.495 3.657,8.152 8.152,8.152 h 86.629 c 4.495,0 8.152,-3.657 8.152,-8.152 v -7.715 c 0.001,-4.495 -3.656,-8.152 -8.152,-8.152 z" /><path
       inkscape:connector-curvature="0"
       style="fill:#00c3d7;fill-opacity:1"
       id="path14183"
       d="m 299.47655,450.97232 v 0 h -73.583 v 0 h -1 c 0,10.995 4.635,19.608 10.553,19.608 h 54.477 c 5.917,0 10.553,-8.613 10.553,-19.608 z" /><path
       inkscape:connector-curvature="0"
       style="fill:#00c3d7;fill-opacity:1"
       id="path14190"
       d="m 251.93455,49.689319 c 0,20.841002 0,41.683002 0,62.524001 0,12.87 20,12.891 20,0 0,-20.840999 0,-41.682999 0,-62.524001 10e-4,-12.869 -20,-12.89 -20,0 z" /><path
       inkscape:connector-curvature="0"
       style="fill:#00c3d7;fill-opacity:1"
       id="path14197"
       d="m 161.01155,149.87632 c -14.737,-14.737 -29.475,-29.475 -44.212,-44.211 -9.113,-9.112999 -23.259,5.025 -14.142,14.142 14.737,14.737 29.475,29.474 44.211,44.211 9.113,9.113 23.259,-5.025 14.143,-14.142 z" /><path
       inkscape:connector-curvature="0"
       style="fill:#00c3d7;fill-opacity:1"
       id="path14204"
       d="m 377.00155,164.01832 c 14.737,-14.737 29.475,-29.474 44.211,-44.211 9.113,-9.113 -5.025,-23.258999 -14.142,-14.142 -14.737,14.737 -29.475,29.474 -44.212,44.211 -9.111,9.113 5.026,23.259 14.143,14.142 z" /></g></svg>