<?xml version="1.0" encoding="UTF-8" standalone="no"?>
<svg
   xmlns:dc="http://purl.org/dc/elements/1.1/"
   xmlns:cc="http://creativecommons.org/ns#"
   xmlns:rdf="http://www.w3.org/1999/02/22-rdf-syntax-ns#"
   xmlns:svg="http://www.w3.org/2000/svg"
   xmlns="http://www.w3.org/2000/svg"
   xmlns:sodipodi="http://sodipodi.sourceforge.net/DTD/sodipodi-0.dtd"
   xmlns:inkscape="http://www.inkscape.org/namespaces/inkscape"
   data-name="Layer 1"
   id="Layer_1"
   viewBox="0 0 47.366398 63.136123"
   version="1.1"
   sodipodi:docname="light.svg"
   width="47.366398"
   height="63.136124"
   inkscape:version="0.92.3 (2405546, 2018-03-11)">
  <metadata
     id="metadata29">
    <rdf:RDF>
      <cc:Work
         rdf:about="">
        <dc:format>image/svg+xml</dc:format>
        <dc:type
           rdf:resource="http://purl.org/dc/dcmitype/StillImage" />
        <dc:title />
      </cc:Work>
    </rdf:RDF>
  </metadata>
  <sodipodi:namedview
     pagecolor="#ffffff"
     bordercolor="#666666"
     borderopacity="1"
     objecttolerance="10"
     gridtolerance="10"
     guidetolerance="10"
     inkscape:pageopacity="0"
     inkscape:pageshadow="2"
     inkscape:window-width="1920"
     inkscape:window-height="1026"
     id="namedview27"
     showgrid="false"
     inkscape:zoom="4.4500587"
     inkscape:cx="5.3034208"
     inkscape:cy="78.750582"
     inkscape:window-x="0"
     inkscape:window-y="0"
     inkscape:window-maximized="1"
     inkscape:current-layer="Layer_1" />
  <defs
     id="defs4">
    <style
       id="style2">.cls-1{fill:#13818d;}.cls-2{fill:#fff;}.cls-3{fill:#f9c774;}</style>
  </defs>
  <path
     class="cls-2"
     d="m 46.866376,23.746123 a 23.19,23.19 0 1 0 -36.15,19.2 2.63,2.63 0 0 0 -0.9000005,1.13 2.73,2.73 0 0 0 2.0000005,3.5 40.82,40.82 0 0 0 24.15,0 2.73,2.73 0 0 0 2,-3.5 2.67,2.67 0 0 0 -1.11,-1.27 23.15,23.15 0 0 0 10.01,-19.06 z"
     id="path10"
     inkscape:connector-curvature="0"
     style="fill:#ffffff;stroke:#000000;stroke-opacity:1" />
  <path
     class="cls-2"
     d="m 35.746376,50.456123 a 2.3,2.3 0 0 1 -1.68,3 34.49,34.49 0 0 1 -20.39,0 2.3,2.3 0 0 1 -1.68,-3 v 0 a 2.45,2.45 0 0 1 3,-1.32 30,30 0 0 0 17.75,0 2.45,2.45 0 0 1 3,1.32 z"
     id="path12"
     inkscape:connector-curvature="0"
     style="fill:#ffffff;stroke:#000000;stroke-opacity:1" />
  <path
     class="cls-2"
     d="m 33.976376,56.186123 a 2.09,2.09 0 0 0 -2.55,-1.12 25.53,25.53 0 0 1 -15.1,0 2.09,2.09 0 0 0 -2.56,1.12 2,2 0 0 0 1.43,2.56 29.09,29.09 0 0 0 4,0.93 1.5,1.5 0 0 0 0,0.26 c 0,1.49 2.1,2.7 4.7,2.7 2.6,0 4.7,-1.21 4.7,-2.7 a 1.49,1.49 0 0 0 0,-0.26 29.12,29.12 0 0 0 4,-0.93 2,2 0 0 0 1.38,-2.56 z"
     id="path24"
     inkscape:connector-curvature="0"
     style="fill:#ffffff;stroke:#000000;stroke-opacity:1" />
</svg>
