<?xml version="1.0" encoding="UTF-8" standalone="no"?>
<svg
   xmlns:dc="http://purl.org/dc/elements/1.1/"
   xmlns:cc="http://creativecommons.org/ns#"
   xmlns:rdf="http://www.w3.org/1999/02/22-rdf-syntax-ns#"
   xmlns:svg="http://www.w3.org/2000/svg"
   xmlns="http://www.w3.org/2000/svg"
   viewBox="0 0 599.37945 179.03026"
   height="179.03026"
   width="599.37946"
   xml:space="preserve"
   id="svg2"
   version="1.1"><metadata
     id="metadata8"><rdf:RDF><cc:Work
         rdf:about=""><dc:format>image/svg+xml</dc:format><dc:type
           rdf:resource="http://purl.org/dc/dcmitype/StillImage" /><dc:title></dc:title></cc:Work></rdf:RDF></metadata><defs
     id="defs6"><clipPath
       id="clipPath22"
       clipPathUnits="userSpaceOnUse"><path
         id="path20"
         d="M 0,595.28 H 841.89 V 0 H 0 Z" /></clipPath><clipPath
       id="clipPath64"
       clipPathUnits="userSpaceOnUse"><path
         id="path62"
         d="M 0,595.28 H 841.89 V 0 H 0 Z" /></clipPath></defs><g
     transform="matrix(1.3333333,0,0,-1.3333333,-297.18893,526.90612)"
     id="g10"><path
       id="path12"
       style="fill:#4a4f55;fill-opacity:1;fill-rule:nonzero;stroke:none"
       d="m 223.82,364.376 h 12.265 V 309.444 H 223.82 Z" /><path
       id="path14"
       style="fill:#4a4f55;fill-opacity:1;fill-rule:nonzero;stroke:none"
       d="m 251.524,393.109 h 218.275 v -9.977 H 251.524 Z" /><g
       id="g16"><g
         clip-path="url(#clipPath22)"
         id="g18"><g
           transform="translate(343.307,353.7105)"
           id="g24"><path
             id="path26"
             style="fill:#4a4f55;fill-opacity:1;fill-rule:nonzero;stroke:none"
             d="m 0,0 c -2.057,0.201 -4.399,0.603 -7.96,0.603 -10.295,0 -14.417,-7.544 -14.417,-17.806 0,-13.08 5.242,-17.606 13.296,-17.606 3.651,0 6.739,1.51 9.081,2.717 z m -11.516,-66.903 c -7.773,0 -14.886,1.613 -19.289,2.918 l 1.875,10.462 c 4.679,-1.106 11.513,-2.112 15.353,-2.112 8.147,0 13.67,1.406 13.67,11.067 0.186,0.201 0,2.716 0,3.017 -2.528,-2.01 -6.086,-3.621 -9.83,-3.621 -11.702,0 -24.811,3.219 -24.811,28.07 0,18.711 12.079,28.672 26.683,28.672 5.808,0 12.169,-0.804 20.13,-2.115 v -55.432 c 0,-15.391 -12.921,-20.926 -23.781,-20.926" /></g><g
           transform="translate(390.7767,355.6206)"
           id="g28"><path
             id="path30"
             style="fill:#4a4f55;fill-opacity:1;fill-rule:nonzero;stroke:none"
             d="M 0,0 C -5.244,0 -10.674,-3.82 -11.234,-13.076 H 9.175 C 9.272,-4.629 5.242,0 0,0 m -11.517,-22.434 c 0.093,-11.97 7.025,-13.681 16.199,-13.681 3.558,0 9.828,0.504 13.855,1.406 l 1.875,-10.262 c -4.027,-1.406 -11.798,-2.111 -17.979,-2.111 -16.011,0 -26.217,5.937 -26.217,27.467 0,22.334 10.489,29.678 24.908,29.678 14.792,0 20.783,-10.463 20.783,-27.667 v -4.83 z" /></g><path
           id="path32"
           style="fill:#4a4f55;fill-opacity:1;fill-rule:nonzero;stroke:none"
           d="m 485.235,364.376 h 12.266 v -54.932 h -12.266 z" /><g
           transform="translate(547.5101,352.5035)"
           id="g34"><path
             id="path36"
             style="fill:#4a4f55;fill-opacity:1;fill-rule:nonzero;stroke:none"
             d="m 0,0 c -3.369,1.408 -6.555,2.414 -11.703,2.414 -7.865,0 -13.858,-4.83 -13.858,-17.707 0,-12.375 3.09,-17.906 16.571,-17.906 4.215,0 7.021,0.802 10.394,1.304 l 1.684,-10.259 c -4.025,-0.905 -7.395,-1.811 -12.918,-1.811 -20.598,0 -28.371,8.35 -28.371,28.873 0,17.406 10.301,28.373 26.498,28.373 7.299,0 11.889,-1.51 15.258,-3.521 z" /></g><g
           transform="translate(582.6215,355.2203)"
           id="g38"><path
             id="path40"
             style="fill:#4a4f55;fill-opacity:1;fill-rule:nonzero;stroke:none"
             d="m 0,0 c -10.018,0 -12.732,-8.855 -12.732,-18.41 0,-10.264 3.087,-17.908 12.917,-17.908 10.02,0 12.456,8.046 12.456,18.007 C 12.641,-8.953 10.205,0 0,0 m -0.562,-46.983 c -15.731,0 -24.532,10.561 -24.532,28.168 0,18.512 10.209,29.379 25.375,29.379 17.037,0 24.994,-10.564 24.994,-28.875 0,-18.916 -11.045,-28.672 -25.837,-28.672" /></g><g
           transform="translate(237.0097,388.1206)"
           id="g42"><path
             id="path44"
             style="fill:#4a4f55;fill-opacity:1;fill-rule:nonzero;stroke:none"
             d="m 0,0 c 0,-3.898 -3.159,-7.059 -7.058,-7.059 -3.902,0 -7.06,3.161 -7.06,7.059 0,3.898 3.158,7.059 7.06,7.059 C -3.159,7.059 0,3.898 0,0" /></g><g
           transform="translate(498.4252,388.1206)"
           id="g46"><path
             id="path48"
             style="fill:#4a4f55;fill-opacity:1;fill-rule:nonzero;stroke:none"
             d="m 0,0 c 0,-3.898 -3.162,-7.059 -7.059,-7.059 -3.898,0 -7.06,3.161 -7.06,7.059 0,3.898 3.162,7.059 7.06,7.059 C -3.162,7.059 0,3.898 0,0" /></g><g
           transform="translate(281.0438,365.8824)"
           id="g50"><path
             id="path52"
             style="fill:#4a4f55;fill-opacity:1;fill-rule:nonzero;stroke:none"
             d="m 0,0 c -7.769,0 -13.669,-4.625 -17.135,-7.242 v 0.111 c -0.121,-0.133 -0.247,-0.265 -0.368,-0.398 -1.207,4.427 -4.378,5.705 -7.262,6.023 h -4.728 v -54.932 h 12.358 v 40.243 c 2.438,1.41 8.054,4.73 13.203,4.73 6.928,0 8.332,-3.625 8.332,-11.57 v -33.403 h 12.265 v 34.911 C 16.665,-10.262 15.638,0 0,0" /></g><g
           transform="translate(453.1664,365.8824)"
           id="g54"><path
             id="path56"
             style="fill:#4a4f55;fill-opacity:1;fill-rule:nonzero;stroke:none"
             d="m 0,0 c -7.769,0 -13.669,-4.625 -17.132,-7.242 v 0.111 c -0.125,-0.133 -0.25,-0.265 -0.371,-0.398 -1.207,4.427 -4.379,5.705 -7.262,6.023 h -4.724 v -54.932 h 12.357 v 40.243 c 2.432,1.41 8.051,4.73 13.202,4.73 6.926,0 8.33,-3.625 8.33,-11.57 v -33.403 h 12.266 v 34.911 C 16.666,-10.262 15.635,0 0,0" /></g></g></g><g
       id="g58"><g
         clip-path="url(#clipPath64)"
         id="g60"><g
           transform="translate(489.9243,278.916)"
           id="g66"><path
             id="path68"
             style="fill:#00c3d7;fill-opacity:1;fill-rule:nonzero;stroke:none"
             d="M 0,0 H 8.797 C 8.729,3.358 7.291,5.037 4.484,5.037 2.989,5.037 1.897,4.641 1.207,3.847 0.518,3.054 0.114,1.771 0,0 m 5.589,-12.73 c -3.474,0 -6.015,0.915 -7.625,2.743 -1.61,1.828 -2.415,4.628 -2.415,8.4 0,3.335 0.742,5.894 2.225,7.677 1.484,1.782 3.709,2.674 6.676,2.674 2.645,0 4.703,-0.8 6.176,-2.399 1.472,-1.598 2.208,-4.008 2.208,-7.227 0,-0.783 -0.035,-1.484 -0.104,-2.105 H 0.104 c 0.091,-2.138 0.609,-3.651 1.552,-4.536 0.943,-0.886 2.426,-1.329 4.45,-1.329 1.955,0 3.818,0.38 5.589,1.139 l 0.518,-3.622 c -1.932,-0.944 -4.14,-1.415 -6.624,-1.415" /></g><g
           transform="translate(520.6626,283.919)"
           id="g70"><path
             id="path72"
             style="fill:#00c3d7;fill-opacity:1;fill-rule:nonzero;stroke:none"
             d="M 0,0 C 0,1.656 -0.356,2.812 -1.069,3.467 -1.782,4.123 -2.99,4.45 -4.691,4.45 h -4.21 v -8.9 h 4.21 c 1.677,0 2.879,0.315 3.604,0.948 C -0.362,-2.869 0,-1.702 0,0 m 4.899,-0.034 c 0,-2.761 -0.765,-4.836 -2.295,-6.228 -1.529,-1.391 -3.961,-2.087 -7.295,-2.087 h -4.21 v -9.005 h -4.761 V 8.521 h 8.971 c 3.38,0 5.824,-0.684 7.331,-2.052 C 4.146,5.1 4.899,2.933 4.899,-0.034" /></g><g
           transform="translate(540.1899,272.6719)"
           id="g74"><path
             id="path76"
             style="fill:#00c3d7;fill-opacity:1;fill-rule:nonzero;stroke:none"
             d="m 0,0 v 3.036 c -0.828,0.391 -2.001,0.586 -3.52,0.586 -2.737,0 -4.105,-1.081 -4.105,-3.242 0,-2.186 1.161,-3.277 3.485,-3.277 1.08,0 2.04,0.293 2.88,0.878 C -0.42,-1.432 0,-0.759 0,0 m 1,-6.106 -0.379,2.208 -0.103,0.034 c -1.358,-1.725 -3.313,-2.587 -5.866,-2.587 -2.001,0 -3.57,0.563 -4.709,1.69 -1.138,1.126 -1.708,2.818 -1.708,5.072 0,1.977 0.65,3.542 1.95,4.692 1.298,1.149 3.133,1.725 5.503,1.725 1.517,0 2.955,-0.219 4.312,-0.656 v 1.553 c 0,1.287 -0.34,2.213 -1.018,2.776 -0.678,0.564 -1.789,0.846 -3.329,0.846 -2.048,0 -3.967,-0.392 -5.761,-1.173 l -0.38,3.622 c 2.047,0.898 4.358,1.346 6.934,1.346 2.852,0 4.882,-0.639 6.09,-1.915 C 3.743,11.851 4.347,9.798 4.347,6.969 V -6.106 Z" /></g><g
           transform="translate(553.0923,264.2539)"
           id="g78"><path
             id="path80"
             style="fill:#00c3d7;fill-opacity:1;fill-rule:nonzero;stroke:none"
             d="M 0,0 C 1.564,0 2.691,0.759 3.381,2.277 L 3.484,2.588 -5.52,23.08 h 5.038 L 4.658,9.28 5.589,6.658 h 0.103 l 0.691,2.692 4.036,13.73 h 4.692 L 7.763,2.242 C 7.026,0.241 6.095,-1.19 4.969,-2.053 3.841,-2.915 2.438,-3.347 0.76,-3.347 c -1.289,0 -2.415,0.219 -3.382,0.656 l 0.38,3.209 C -1.552,0.173 -0.805,0 0,0" /></g><g
           transform="translate(599.0464,266.5655)"
           id="g82"><path
             id="path84"
             style="fill:#00c3d7;fill-opacity:1;fill-rule:nonzero;stroke:none"
             d="m 0,0 h -4.381 v 13.489 c 0,2.415 -1.22,3.623 -3.657,3.623 -1.059,0 -1.909,-0.288 -2.553,-0.863 -0.644,-0.574 -0.967,-1.414 -0.967,-2.518 V 0 h -4.38 v 13.731 c 0,2.277 -1.173,3.415 -3.52,3.415 -0.736,0 -1.443,-0.172 -2.121,-0.517 -0.679,-0.345 -1.202,-0.806 -1.57,-1.38 V 0 h -4.381 v 20.665 l 3.138,0.207 0.76,-2.069 c 1.494,1.54 3.278,2.311 5.348,2.311 2.644,0 4.496,-0.989 5.554,-2.967 1.264,1.978 3.219,2.967 5.865,2.967 2.093,0 3.761,-0.644 5.003,-1.932 C -0.621,17.894 0,16.02 0,13.559 Z" /></g><g
           transform="translate(607.1196,278.916)"
           id="g86"><path
             id="path88"
             style="fill:#00c3d7;fill-opacity:1;fill-rule:nonzero;stroke:none"
             d="M 0,0 H 8.797 C 8.729,3.358 7.291,5.037 4.484,5.037 2.989,5.037 1.897,4.641 1.207,3.847 0.518,3.054 0.114,1.771 0,0 m 5.589,-12.73 c -3.474,0 -6.015,0.915 -7.625,2.743 -1.61,1.828 -2.415,4.628 -2.415,8.4 0,3.335 0.742,5.894 2.225,7.677 1.484,1.782 3.709,2.674 6.676,2.674 2.645,0 4.703,-0.8 6.176,-2.399 1.472,-1.598 2.208,-4.008 2.208,-7.227 0,-0.783 -0.035,-1.484 -0.104,-2.105 H 0.104 c 0.091,-2.138 0.609,-3.651 1.552,-4.536 0.943,-0.886 2.426,-1.329 4.45,-1.329 1.955,0 3.818,0.38 5.589,1.139 l 0.518,-3.622 c -1.932,-0.944 -4.14,-1.415 -6.624,-1.415" /></g><g
           transform="translate(640.687,266.5655)"
           id="g90"><path
             id="path92"
             style="fill:#00c3d7;fill-opacity:1;fill-rule:nonzero;stroke:none"
             d="m 0,0 h -4.382 v 13.421 c 0,2.483 -1.322,3.725 -3.967,3.725 -0.805,0 -1.593,-0.172 -2.363,-0.517 -0.771,-0.345 -1.363,-0.806 -1.777,-1.38 V 0 h -4.381 v 20.665 l 3.139,0.242 0.69,-2.001 c 1.609,1.494 3.576,2.242 5.899,2.242 2.231,0 3.979,-0.661 5.245,-1.983 C -0.633,17.842 0,15.939 0,13.455 Z" /></g><g
           transform="translate(655.6597,283.9532)"
           id="g94"><path
             id="path96"
             style="fill:#00c3d7;fill-opacity:1;fill-rule:nonzero;stroke:none"
             d="m 0,0 h -4.864 v -11.558 c 0,-1.724 0.908,-2.587 2.725,-2.587 0.691,0 1.253,0.081 1.691,0.242 l 0.276,-3.278 c -0.828,-0.367 -1.909,-0.551 -3.243,-0.551 -1.932,0 -3.387,0.522 -4.364,1.569 -0.978,1.047 -1.467,2.547 -1.467,4.502 V 0 h -2.587 v 3.381 h 2.726 l 0.793,4.865 3.45,0.345 V 3.381 H 0 Z" /></g><g
           transform="translate(672.4263,272.8789)"
           id="g98"><path
             id="path100"
             style="fill:#00c3d7;fill-opacity:1;fill-rule:nonzero;stroke:none"
             d="m 0,0 c 0,-2.116 -0.627,-3.767 -1.88,-4.951 -1.254,-1.185 -3.18,-1.777 -5.779,-1.777 -2.576,0 -4.727,0.518 -6.451,1.553 l 0.517,3.726 c 1.633,-1.081 3.611,-1.621 5.934,-1.621 1.196,0 2.093,0.241 2.691,0.724 0.598,0.483 0.898,1.126 0.898,1.932 0,0.713 -0.346,1.294 -1.035,1.742 -0.691,0.448 -1.536,0.822 -2.537,1.121 -1,0.299 -1.995,0.644 -2.984,1.035 -0.989,0.391 -1.828,1.018 -2.519,1.881 -0.689,0.863 -1.035,1.96 -1.035,3.294 0,1.863 0.651,3.353 1.95,4.468 1.299,1.115 3.179,1.674 5.641,1.674 2.069,0 3.989,-0.392 5.761,-1.173 L -1.207,9.971 c -1.702,0.713 -3.52,1.069 -5.451,1.069 -1.035,0 -1.846,-0.195 -2.433,-0.587 -0.586,-0.39 -0.88,-0.931 -0.88,-1.621 0,-0.667 0.346,-1.202 1.035,-1.604 0.691,-0.403 1.524,-0.748 2.502,-1.036 0.977,-0.287 1.95,-0.621 2.915,-1 0.966,-0.38 1.794,-1.006 2.484,-1.879 C -0.345,2.438 0,1.334 0,0" /></g></g></g></g></svg>