<?xml version="1.0" encoding="UTF-8" standalone="no"?>
<!-- Generator: Adobe Illustrator 16.0.0, SVG Export Plug-In . SVG Version: 6.00 Build 0)  -->

<svg
   xmlns:dc="http://purl.org/dc/elements/1.1/"
   xmlns:cc="http://creativecommons.org/ns#"
   xmlns:rdf="http://www.w3.org/1999/02/22-rdf-syntax-ns#"
   xmlns:svg="http://www.w3.org/2000/svg"
   xmlns="http://www.w3.org/2000/svg"
   xmlns:sodipodi="http://sodipodi.sourceforge.net/DTD/sodipodi-0.dtd"
   xmlns:inkscape="http://www.inkscape.org/namespaces/inkscape"
   version="1.1"
   id="Layer_1"
   x="0px"
   y="0px"
   width="256px"
   height="256px"
   viewBox="0 0 256 256"
   style="enable-background:new 0 0 256 256;"
   xml:space="preserve"
   sodipodi:docname="lua.svg"
   inkscape:version="0.92.2 (unknown)"><metadata
     id="metadata15"><rdf:RDF><cc:Work
         rdf:about=""><dc:format>image/svg+xml</dc:format><dc:type
           rdf:resource="http://purl.org/dc/dcmitype/StillImage" /><dc:title /></cc:Work></rdf:RDF></metadata><defs
     id="defs13" /><sodipodi:namedview
     pagecolor="#ffffff"
     bordercolor="#666666"
     borderopacity="1"
     objecttolerance="10"
     gridtolerance="10"
     guidetolerance="10"
     inkscape:pageopacity="0"
     inkscape:pageshadow="2"
     inkscape:window-width="1920"
     inkscape:window-height="1027"
     id="namedview11"
     showgrid="false"
     inkscape:zoom="0.81640625"
     inkscape:cx="185.83706"
     inkscape:cy="126.00457"
     inkscape:window-x="0"
     inkscape:window-y="0"
     inkscape:window-maximized="1"
     inkscape:current-layer="Layer_1"
     showguides="false" /><g
     id="g8"
     transform="translate(0.7751196,0.7751196)"
     style="fill:#4a4f55;fill-opacity:1"><path
       d="m 180,121.064 h -8.703 l -3.428,20.309 h 8.176 c 3.691,-0.35 6.593,-1.494 8.703,-3.429 2.109,-1.935 3.251,-5.54 3.428,-10.814 0,-4.044 -2.728,-6.066 -8.176,-6.066 z"
       id="path2"
       inkscape:connector-curvature="0"
       style="fill:#4a4f55;fill-opacity:1" /><path
       d="M 226,14 H 30 c -8.837,0 -16,7.164 -16,16 v 196 c 0,8.837 7.163,16 16,16 h 196 c 8.836,0 16,-7.163 16,-16 V 30 c 0,-8.836 -7.164,-16 -16,-16 z"
       id="path4"
       inkscape:connector-curvature="0"
       sodipodi:nodetypes="sssssssss"
       style="fill:#4a4f55;fill-opacity:1" /></g><g
     id="g1975"
     transform="matrix(0.405,0,0,0.405,201.50376,66.099353)"
     style="fill:#ffffff;fill-opacity:1"><path
       style="fill:#ffffff;fill-opacity:1"
       d="m -227.37733,408.45938 c 0.29186,-0.47223 -2.95326,-1.14914 -7.21136,-1.50425 -4.25811,-0.35511 -11.2517,-1.31717 -15.54132,-2.13791 -77.08155,-14.74814 -139.24537,-66.62672 -167.18493,-139.52356 -6.86692,-17.91641 -13.45074,-48.22571 -13.4903,-62.10403 -0.0109,-3.83703 -0.29226,-4.94313 -0.98469,-3.87166 -0.65278,1.01011 -0.97438,-2.84662 -0.98469,-11.80902 -0.01,-8.62175 0.33688,-13.09135 0.98469,-12.69098 0.61226,0.3784 1,-1.19684 1,-4.06265 0,-6.80526 2.72605,-24.35036 5.64893,-36.357 16.74771,-68.796422 66.39178,-126.0381219 132.35107,-152.606342 59.6474,-24.025802 129.5836,-20.39289 185.92217,9.6579301 C -43.990568,24.988398 -1.9990183,84.815773 8.8496017,156.31797 c 2.3934803,15.77525 2.3724803,46.29679 -0.0427,62 -11.3731,73.94763 -56.0983097,135.33023 -122.0968617,167.57045 -21.83904,10.66835 -51.51276,19.29966 -72.31476,21.03448 -4.47066,0.37284 -7.8897,1.06425 -7.59784,1.53648 0.29188,0.47222 -7.39745,0.85859 -17.08737,0.85859 -9.68992,0 -17.37925,-0.38637 -17.0874,-0.85859 z m 18.78818,-106.26579 c 6.98922,-1.48296 13.90444,-5.04751 18.27923,-9.4223 3.85319,-3.85318 4.26215,-3.59004 4.735,3.04668 l 0.28499,4 8.48111,0.29418 c 7.11512,0.24679 8.68549,0.0147 9.75,-1.44113 1.96554,-2.68804 1.83875,-103.63522 -0.13222,-105.27098 -0.89688,-0.74434 -4.58565,-1.05832 -10.25,-0.87245 l -8.84889,0.29038 -0.53327,34 c -0.51194,32.63958 -0.62681,34.2353 -2.8708,39.88083 -4.61759,11.6171 -12.64566,17.55767 -23.78083,17.59721 -6.97253,0.0248 -10.7248,-1.11056 -14.19398,-4.29465 -5.31542,-4.87862 -5.48326,-6.21024 -6.07308,-48.18339 l -0.54804,-39 h -9.5 -9.5 v 44 c 0,41.83183 0.0975,44.19711 1.9792,48 6.87106,13.88656 24.79937,21.17832 42.72158,17.37562 z m 112.132212,-1.87416 c 3.20815,-1.21399 8.64495,-4.33562 12.08177,-6.93694 l 6.24878,-4.72969 1.96299,4.07292 c 3.78247,7.84804 12.85987,11.14817 23.35364,8.49031 l 5.51983,-1.39806 v -7.5 -7.5 l -4.9602,-0.5 c -4.24082,-0.42748 -5.06028,-0.86258 -5.65032,-3 -0.37956,-1.375 -0.73937,-17.35 -0.79957,-35.5 -0.10733,-32.36211 -0.15455,-33.09665 -2.44276,-38 -5.7218,-12.26111 -18.72563,-18.5 -38.55988,-18.5 -25.515962,0 -39.484032,9.55048 -43.175762,29.52084 -1.43432,7.75898 -0.66239,8.47916 9.08849,8.47916 8.63567,0 9.23312,-0.36264 10.90562,-6.61945 2.4859,-9.29974 8.95576,-13.3237 21.47836,-13.35859 4.336192,-0.0121 9.645302,0.50574 11.798022,1.15071 7.43265,2.22688 11.91283,10.17787 10.36974,18.40324 -0.93529,4.9855 -4.41523,6.19927 -24.491712,8.54246 -20.89926,2.43922 -27.38955,4.50221 -34.44179,10.94756 -7.63372,6.97679 -10.08432,12.90667 -10.09769,24.43407 -0.0118,10.12798 1.75863,15.33157 7.4035,21.76072 3.60882,4.11021 11.43726,8.30504 18.12125,9.71016 7.04182,1.48034 19.67171,0.53414 26.287692,-1.96942 z m -20.464142,-16.17605 c -1.99714,-0.53233 -4.90828,-2.30091 -6.46921,-3.93016 -2.44469,-2.55171 -2.89251,-3.92616 -3.231,-9.91661 -0.38401,-6.79592 -0.31531,-7.03197 3.01612,-10.3634 4.06137,-4.06137 7.08575,-4.99764 24.815242,-7.6822 7.425,-1.12427 14.7375,-2.44573 16.25,-2.93657 l 2.75,-0.89243 -0.005,9.69798 c -0.004,8.2873 -0.33167,10.23242 -2.25,13.37207 -3.75769,6.15006 -11.12719,10.70672 -20.544102,12.7027 -6.14694,1.30289 -9.29352,1.29161 -14.33193,-0.0514 z m -151.90403,14.24033 c 1.34088,-2.50546 1.34088,-14.62602 0,-17.13148 -0.99359,-1.85653 -2.46044,-1.93426 -36.5,-1.93426 h -35.46482 l -0.0153,-61.75 c -0.008,-33.9625 -0.38273,-62.32908 -0.83179,-63.03684 -0.60042,-0.94633 -3.57327,-1.21094 -11.23469,-1 l -10.41821,0.28684 -0.25663,72.43689 c -0.20295,57.28785 0.006,72.60373 1,73.23468 0.69115,0.43879 21.8283,0.8047 46.97145,0.81312 44.18172,0.0148 45.74953,-0.0496 46.75,-1.91895 z m 168.03894,-139.134 c 32.302932,-8.9516 53.575522,-40.51243 49.060402,-72.787897 -3.13374,-22.401015 -16.66228,-41.457625 -36.24548,-51.056245 -12.226512,-5.99277 -18.980752,-7.40737 -32.792892,-6.86809 -18.69096,0.72976 -31.25807,6.21397 -44.62972,19.47611 -19.53712,19.37713 -24.8843,50.025395 -13.04604,74.775692 9.20682,19.24875 23.90861,31.31208 45.14997,37.0471 7.90274,2.13369 23.71706,1.84825 32.50376,-0.58667 z M 5.1542117,27.132468 C -16.020558,25.211358 -34.643068,11.927818 -44.766628,-8.4763419 c -5.91719,-11.9261601 -7.67601,-28.5466401 -4.46633,-42.2056721 5.00802,-21.31193 22.99324,-40.11957 44.3745297,-46.40365 2.98733,-0.878 6.72638,-1.59635 8.30902,-1.59635 1.6637,0 2.61681,-0.42183 2.25948,-1 -0.39136,-0.633236 2.17595,-0.999996 7.0000003,-0.999996 4.18992,0 7.39948,0.35363 7.13235,0.785846 -0.26713,0.43223 2.51881,1.35231 6.19098,2.04463 17.65387,3.32832 34.84084,16.58555 43.04559,33.20337 2.29901,4.65638 4.75157,11.29608 5.45014,14.75488 0.69858,3.45881 1.58757,5.97131 1.97554,5.58333 0.38797,-0.38797 0.7054,3.44616 0.7054,8.520292 0,5.07412 -0.39026,8.98449 -0.86723,8.6897 -0.47698,-0.29479 -1.14554,1.49446 -1.48569,3.97611 -1.60234,11.69033 -11.84968,28.6472801 -22.24034,36.80256 -13.73065,10.77671 -29.06373,15.12303 -47.4626003,13.45376 z"
       id="path1977"
       inkscape:connector-curvature="0" /></g></svg>