<?xml version="1.0" encoding="UTF-8" standalone="no"?>
<!-- Generator: Adobe Illustrator 16.0.0, SVG Export Plug-In . SVG Version: 6.00 Build 0)  -->

<svg
   xmlns:dc="http://purl.org/dc/elements/1.1/"
   xmlns:cc="http://creativecommons.org/ns#"
   xmlns:rdf="http://www.w3.org/1999/02/22-rdf-syntax-ns#"
   xmlns:svg="http://www.w3.org/2000/svg"
   xmlns="http://www.w3.org/2000/svg"
   xmlns:sodipodi="http://sodipodi.sourceforge.net/DTD/sodipodi-0.dtd"
   xmlns:inkscape="http://www.inkscape.org/namespaces/inkscape"
   version="1.1"
   id="Layer_1"
   x="0px"
   y="0px"
   width="256px"
   height="256px"
   viewBox="0 0 256 256"
   style="enable-background:new 0 0 256 256;"
   xml:space="preserve"
   sodipodi:docname="lua.svg"
   inkscape:version="0.92.3 (2405546, 2018-03-11)"><metadata
     id="metadata15"><rdf:RDF><cc:Work
         rdf:about=""><dc:format>image/svg+xml</dc:format><dc:type
           rdf:resource="http://purl.org/dc/dcmitype/StillImage" /><dc:title /></cc:Work></rdf:RDF></metadata><defs
     id="defs13" /><sodipodi:namedview
     pagecolor="#ffffff"
     bordercolor="#666666"
     borderopacity="1"
     objecttolerance="10"
     gridtolerance="10"
     guidetolerance="10"
     inkscape:pageopacity="0"
     inkscape:pageshadow="2"
     inkscape:window-width="1920"
     inkscape:window-height="1026"
     id="namedview11"
     showgrid="false"
     inkscape:zoom="6.53125"
     inkscape:cx="212.67444"
     inkscape:cy="90.015694"
     inkscape:window-x="0"
     inkscape:window-y="0"
     inkscape:window-maximized="1"
     inkscape:current-layer="Layer_1"
     showguides="false" /><g
     id="g8"
     transform="translate(0.7751196,0.7751196)"
     style="fill:#4a4f55;fill-opacity:1"><path
       style="fill:#4a4f55;fill-opacity:1"
       d="M 30.775391 14.775391 C 21.938391 14.775391 14.775391 21.939391 14.775391 30.775391 L 14.775391 226.77539 C 14.775391 235.61239 21.938391 242.77539 30.775391 242.77539 L 226.77539 242.77539 C 235.61139 242.77539 242.77539 235.61239 242.77539 226.77539 L 242.77539 30.775391 C 242.77539 21.939391 235.61139 14.775391 226.77539 14.775391 L 30.775391 14.775391 z M 206.65039 25.322266 C 208.34731 25.322266 209.64725 25.465578 209.53906 25.640625 C 209.43087 25.815678 210.55965 26.18836 212.04688 26.46875 C 219.19669 27.81672 226.15755 33.185799 229.48047 39.916016 C 230.41157 41.80185 231.40458 44.491764 231.6875 45.892578 C 231.97042 47.293396 232.33115 48.311429 232.48828 48.154297 C 232.64541 47.997169 232.77344 49.550445 232.77344 51.605469 C 232.77344 53.660487 232.61505 55.242437 232.42188 55.123047 C 232.2287 55.003657 231.95807 55.729307 231.82031 56.734375 C 231.17136 61.468959 227.02267 68.335784 222.81445 71.638672 C 217.25354 76.003239 211.04334 77.763945 203.5918 77.087891 C 195.01602 76.309841 187.47309 70.9297 183.37305 62.666016 C 180.97658 57.835921 180.26453 51.104174 181.56445 45.572266 C 183.5927 36.940934 190.87573 29.324349 199.53516 26.779297 C 200.74502 26.423707 202.25942 26.132812 202.90039 26.132812 C 203.57419 26.132812 203.96112 25.962674 203.81641 25.728516 C 203.65791 25.472055 204.69665 25.322266 206.65039 25.322266 z M 116.21289 52.34375 C 130.81068 52.329643 145.38803 55.790766 158.22266 62.636719 C 183.68792 76.219807 200.6942 100.44981 205.08789 129.4082 C 206.05725 135.79718 206.04846 148.15778 205.07031 154.51758 C 200.46421 184.46637 182.35051 209.32748 155.62109 222.38477 C 146.77628 226.70545 134.75879 230.19974 126.33398 230.90234 C 124.52337 231.05334 123.13766 231.33414 123.25586 231.52539 C 123.37407 231.71664 120.26036 231.87305 116.33594 231.87305 C 112.41152 231.87305 109.29782 231.71664 109.41602 231.52539 C 109.53422 231.33414 108.22062 231.05984 106.49609 230.91602 C 104.77156 230.7722 101.93847 230.38318 100.20117 230.05078 C 68.983144 224.07778 43.805756 203.06619 32.490234 173.54297 C 29.709132 166.28682 27.043366 154.01134 27.027344 148.39062 C 27.022929 146.83663 26.90934 146.38832 26.628906 146.82227 C 26.36453 147.23136 26.234644 145.67079 26.230469 142.04102 C 26.226419 138.54921 26.366543 136.73824 26.628906 136.90039 C 26.876872 137.05364 27.033203 136.41651 27.033203 135.25586 C 27.033203 132.49973 28.138499 125.39394 29.322266 120.53125 C 36.105088 92.668699 56.210316 69.484739 82.923828 58.724609 C 93.492602 54.467538 104.85905 52.354722 116.21289 52.34375 z M 154.56836 77.615234 C 153.94853 77.615731 153.29299 77.628949 152.59375 77.65625 C 145.02391 77.951803 139.93505 80.173755 134.51953 85.544922 C 126.607 93.39266 124.44183 105.80425 129.23633 115.82812 C 132.96509 123.62387 138.91873 128.5113 147.52148 130.83398 C 150.72209 131.69813 157.12693 131.58185 160.68555 130.5957 C 173.76823 126.97031 182.38331 114.18875 180.55469 101.11719 C 179.28552 92.044776 173.8062 84.326894 165.875 80.439453 C 161.54223 78.315765 158.90713 77.61176 154.56836 77.615234 z M 60.576172 128.25195 C 60.023155 128.24793 59.365563 128.25794 58.589844 128.2793 L 54.371094 128.39648 L 54.267578 157.73242 C 54.185383 180.934 54.269305 187.13704 54.671875 187.39258 C 54.951791 187.57029 63.512337 187.71925 73.695312 187.72266 C 91.588909 187.72865 92.223716 187.7024 92.628906 186.94531 C 93.171963 185.9306 93.171963 181.02057 92.628906 180.00586 C 92.226502 179.25396 91.633678 179.22266 77.847656 179.22266 L 63.484375 179.22266 L 63.478516 154.21484 C 63.475276 140.46003 63.322494 128.97024 63.140625 128.68359 C 62.958247 128.39615 62.235222 128.26402 60.576172 128.25195 z M 161.125 142.77344 C 150.79104 142.77344 145.13382 146.64052 143.63867 154.72852 C 143.05777 157.8709 143.36925 158.16406 147.31836 158.16406 C 150.81581 158.16406 151.05897 158.01643 151.73633 155.48242 C 152.74312 151.71603 155.36194 150.0864 160.43359 150.07227 C 162.18975 150.06737 164.34104 150.2759 165.21289 150.53711 C 168.22311 151.439 170.03706 154.66091 169.41211 157.99219 C 169.03332 160.01131 167.62316 160.50218 159.49219 161.45117 C 151.02799 162.43906 148.40108 163.2744 145.54492 165.88477 C 142.45327 168.71037 141.46049 171.11265 141.45508 175.78125 C 141.4503 179.88308 142.16695 181.98994 144.45312 184.59375 C 145.9147 186.25839 149.08595 187.95632 151.79297 188.52539 C 154.64491 189.12493 159.75998 188.74246 162.43945 187.72852 C 163.73875 187.23685 165.94012 185.97346 167.33203 184.91992 L 169.86328 183.00391 L 170.6582 184.65234 C 172.1901 187.8308 175.86526 189.16823 180.11523 188.0918 L 182.35156 187.52539 L 182.35156 184.48828 L 182.35156 181.45117 L 180.3418 181.24805 C 178.62426 181.07492 178.29365 180.89886 178.05469 180.0332 C 177.90097 179.47633 177.75485 173.007 177.73047 165.65625 C 177.687 152.5496 177.66696 152.25148 176.74023 150.26562 C 174.42291 145.29988 169.15787 142.77344 161.125 142.77344 z M 131.20508 144.05469 C 130.73674 144.04864 130.21414 144.05345 129.64062 144.07227 L 126.05664 144.19141 L 125.83984 157.96094 C 125.63251 171.17997 125.58655 171.82684 124.67773 174.11328 C 122.80761 178.81821 119.55662 181.22227 115.04688 181.23828 C 112.223 181.24833 110.70385 180.78956 109.29883 179.5 C 107.14608 177.52416 107.07677 176.98545 106.83789 159.98633 L 106.61719 144.19141 L 102.76953 144.19141 L 98.921875 144.19141 L 98.921875 162.00977 C 98.921875 178.95166 98.960568 179.911 99.722656 181.45117 C 102.50544 187.07523 109.7669 190.02837 117.02539 188.48828 C 119.85602 187.88768 122.65594 186.44366 124.42773 184.67188 C 125.98828 183.11134 126.1542 183.21838 126.3457 185.90625 L 126.46094 187.52539 L 129.89648 187.64453 C 132.77811 187.74448 133.41458 187.65016 133.8457 187.06055 C 134.64175 185.97189 134.58926 145.08826 133.79102 144.42578 C 133.51859 144.19969 132.61009 144.07282 131.20508 144.05469 z M 169.18945 166.71094 L 169.1875 170.63867 C 169.18588 173.99503 169.05231 174.78118 168.27539 176.05273 C 166.75353 178.54351 163.76893 180.38889 159.95508 181.19727 C 157.46557 181.72494 156.19095 181.72165 154.15039 181.17773 C 153.34155 180.96214 152.16343 180.24578 151.53125 179.58594 C 150.54115 178.55249 150.35974 177.99644 150.22266 175.57031 C 150.06713 172.81796 150.09413 172.72228 151.44336 171.37305 C 153.08821 169.72819 154.3137 169.34897 161.49414 168.26172 C 164.50127 167.80639 167.46166 167.27106 168.07422 167.07227 L 169.18945 166.71094 z "
       transform="translate(-0.7751196,-0.7751196)"
       id="path4" /></g><g
     id="g1975"
     transform="matrix(0.405,0,0,0.405,201.50376,66.099353)"
     style="fill:#ffffff;fill-opacity:1" /></svg>