<?xml version="1.0" encoding="UTF-8" standalone="no"?>
<svg
   xmlns:dc="http://purl.org/dc/elements/1.1/"
   xmlns:cc="http://creativecommons.org/ns#"
   xmlns:rdf="http://www.w3.org/1999/02/22-rdf-syntax-ns#"
   xmlns:svg="http://www.w3.org/2000/svg"
   xmlns="http://www.w3.org/2000/svg"
   xmlns:sodipodi="http://sodipodi.sourceforge.net/DTD/sodipodi-0.dtd"
   xmlns:inkscape="http://www.inkscape.org/namespaces/inkscape"
   enable-background="new 0 0 38 68"
   height="512"
   id="Layer_1"
   version="1.1"
   viewBox="0 0 512 512"
   width="512"
   xml:space="preserve"
   sodipodi:docname="mobile.svg"
   inkscape:version="0.92.2 (5c3e80d, 2017-08-06)"><metadata
     id="metadata4001"><rdf:RDF><cc:Work
         rdf:about=""><dc:format>image/svg+xml</dc:format><dc:type
           rdf:resource="http://purl.org/dc/dcmitype/StillImage" /><dc:title></dc:title></cc:Work></rdf:RDF></metadata><defs
     id="defs3999" /><sodipodi:namedview
     pagecolor="#ffffff"
     bordercolor="#666666"
     borderopacity="1"
     objecttolerance="10"
     gridtolerance="10"
     guidetolerance="10"
     inkscape:pageopacity="0"
     inkscape:pageshadow="2"
     inkscape:window-width="1920"
     inkscape:window-height="1017"
     id="namedview3997"
     showgrid="false"
     inkscape:zoom="0.43382353"
     inkscape:cx="-222.13721"
     inkscape:cy="291.57917"
     inkscape:window-x="-8"
     inkscape:window-y="-8"
     inkscape:window-maximized="1"
     inkscape:current-layer="Layer_1" /><path
     d="M 359.80163,23.00332 H 157.65599 c -14.88465,0 -26.95275,12.068083 -26.95275,26.952755 V 454.24733 c 0,14.88465 12.0681,26.95275 26.95275,26.95275 h 202.14564 c 14.88465,0 26.95274,-12.0681 26.95274,-26.95275 V 49.956075 c 0,-14.884672 -12.06809,-26.952755 -26.95274,-26.952755 z M 211.5615,43.217882 h 94.33463 c 1.85974,0 3.36909,1.509354 3.36909,3.369093 0,1.859741 -1.50935,3.3691 -3.36909,3.3691 h -94.33464 c -1.85973,0 -3.36908,-1.509359 -3.36908,-3.3691 0,-1.859739 1.50935,-3.369093 3.36909,-3.369093 z m 47.16731,417.767638 c -7.43896,0 -13.47637,-6.03742 -13.47637,-13.47638 0,-7.43896 6.03741,-13.47637 13.47637,-13.47637 7.43896,0 13.47638,6.03741 13.47638,13.47637 0,7.43896 -6.03742,13.47638 -13.47638,13.47638 z m 107.811,-40.42913 h -215.622 V 63.43245 h 215.622 z"
     id="path3994"
     style="fill:#00c3d7;fill-opacity:1;stroke-width:6.73818779"
     inkscape:connector-curvature="0" /></svg>