<?xml version="1.0" encoding="UTF-8" standalone="no"?>
<svg
   xmlns:dc="http://purl.org/dc/elements/1.1/"
   xmlns:cc="http://creativecommons.org/ns#"
   xmlns:rdf="http://www.w3.org/1999/02/22-rdf-syntax-ns#"
   xmlns:svg="http://www.w3.org/2000/svg"
   xmlns="http://www.w3.org/2000/svg"
   xmlns:sodipodi="http://sodipodi.sourceforge.net/DTD/sodipodi-0.dtd"
   xmlns:inkscape="http://www.inkscape.org/namespaces/inkscape"
   version="1.1"
   viewBox="0 0 512 512"
   xml:space="preserve"
   id="svg10798"
   sodipodi:docname="panel.svg"
   width="512"
   height="512"
   inkscape:version="0.92.2 (5c3e80d, 2017-08-06)"><metadata
     id="metadata10804"><rdf:RDF><cc:Work
         rdf:about=""><dc:format>image/svg+xml</dc:format><dc:type
           rdf:resource="http://purl.org/dc/dcmitype/StillImage" /><dc:title></dc:title></cc:Work></rdf:RDF></metadata><defs
     id="defs10802" /><sodipodi:namedview
     pagecolor="#ffffff"
     bordercolor="#666666"
     borderopacity="1"
     objecttolerance="10"
     gridtolerance="10"
     guidetolerance="10"
     inkscape:pageopacity="0"
     inkscape:pageshadow="2"
     inkscape:window-width="1920"
     inkscape:window-height="1017"
     id="namedview10800"
     showgrid="false"
     inkscape:zoom="0.47199245"
     inkscape:cx="-538.65919"
     inkscape:cy="-89.856035"
     inkscape:window-x="-8"
     inkscape:window-y="-8"
     inkscape:window-maximized="1"
     inkscape:current-layer="svg10798" /><g
     id="_x32_4_1_"
     style="fill:#00c3d7;fill-opacity:1"
     transform="matrix(1.21,0,0,1.21,-46.630322,-44.899938)"><path
       d="m 195.881,389.671 -5.075,10.898 c 0,0 0.534,3.193 2.659,3.193 2.116,0 120.066,0 122.175,0 2.139,0 2.139,-3.193 2.139,-3.193 l -5.075,-10.898 z"
       style="fill:#00c3d7;fill-opacity:1"
       id="path10773"
       inkscape:connector-curvature="0" /><rect
       height="20.493999"
       style="fill:#00c3d7;fill-opacity:1"
       width="116.865"
       x="195.58099"
       y="366.51099"
       id="rect10775" /><path
       d="M 430.63,96.245 H 69.385 c -5.852,0 -10.635,4.775 -10.635,10.635 v 212.801 4.994 24.889 c 0,6.547 4.783,11.938 10.635,11.938 H 430.63 c 5.837,0 10.62,-5.391 10.62,-11.938 v -24.889 -4.994 -212.802 c 0,-5.859 -4.783,-10.634 -10.62,-10.634 z M 419.028,314.04 H 80.107 V 122.685 h 338.921 z"
       style="fill:#00c3d7;fill-opacity:1"
       id="path10777"
       inkscape:connector-curvature="0" /><polygon
       points="143.615,217.475 151.797,217.475 151.797,206.598 143.615,206.598 143.615,142.49 134.951,142.49 134.951,206.598 126.769,206.598 126.769,217.475 134.951,217.475 134.951,281.579 143.615,281.579 "
       style="fill:#00c3d7;fill-opacity:1"
       id="polygon10779" /><polygon
       points="183.254,197.882 191.443,197.882 191.443,186.999 183.254,186.999 183.254,142.49 174.598,142.49 174.598,186.999 166.416,186.999 166.416,197.882 174.598,197.882 174.598,281.579 183.254,281.579 "
       style="fill:#00c3d7;fill-opacity:1"
       id="polygon10781" /><polygon
       points="222.9,246.574 231.082,246.574 231.082,235.69 222.9,235.69 222.9,142.49 214.243,142.49 214.243,235.69 206.055,235.69 206.055,246.574 214.243,246.574 214.243,281.579 222.9,281.579 "
       style="fill:#00c3d7;fill-opacity:1"
       id="polygon10783" /><polygon
       points="262.583,179.726 270.727,179.726 270.727,168.842 262.583,168.842 262.583,142.49 253.926,142.49 253.926,168.842 245.693,168.842 245.693,179.726 253.926,179.726 253.926,281.579 262.583,281.579 "
       style="fill:#00c3d7;fill-opacity:1"
       id="polygon10785" /><path
       d="m 406.922,206.459 c -2.85,-0.447 -5.721,-0.601 -8.555,-0.498 l -6.885,-13.821 -0.535,-0.293 c -5.428,4.512 -12.283,6.943 -19.27,6.973 l 3.288,15.359 c -2.3,1.662 -4.424,3.581 -6.387,5.705 l -15.11,-5.075 c -1.537,-0.506 -3.383,0.278 -4.079,1.735 l -6.146,12.759 c -0.703,1.473 -0.16,3.392 1.201,4.277 l 13.382,8.643 c -0.454,2.864 -0.6,5.713 -0.483,8.562 l -14.26,7.098 c -1.458,0.723 -2.213,2.572 -1.678,4.111 l 4.688,13.359 c 0.542,1.537 2.271,2.519 3.867,2.182 l 15.571,-3.353 c 1.677,2.299 3.589,4.438 5.728,6.387 l -5.068,15.102 c -0.513,1.539 0.256,3.385 1.729,4.102 l 12.759,6.139 c 1.458,0.688 3.384,0.16 4.271,-1.217 l 8.635,-13.373 c 2.863,0.453 5.721,0.615 8.569,0.482 l 7.097,14.268 c 0.732,1.451 2.564,2.213 4.117,1.67 l 4.855,-1.699 v -34.906 c -8.335,6.709 -20.083,8.48 -30.381,3.545 -14.238,-6.855 -20.223,-23.954 -13.367,-38.2 6.849,-14.238 23.943,-20.236 38.196,-13.381 2.021,0.974 3.882,2.183 5.552,3.545 V 206.43 l -8.387,-4.482 z"
       style="fill:#00c3d7;fill-opacity:1"
       id="path10787"
       inkscape:connector-curvature="0" /><path
       d="m 355.117,191.027 c 11.177,5.97 24.412,4.212 33.589,-3.405 l 29.517,15.769 v -25.92 l -18.729,-10.027 c 1.224,-11.865 -4.672,-23.854 -15.834,-29.816 -11.331,-6.05 -24.749,-4.175 -33.948,3.691 l 24.733,13.213 0.418,12.722 -10.796,6.717 -24.756,-13.221 c -1.42,12.01 4.49,24.227 15.806,30.277 z"
       style="fill:#00c3d7;fill-opacity:1"
       id="path10789"
       inkscape:connector-curvature="0" /><path
       d="m 407.361,233.302 c 4.196,2.021 7.207,5.522 8.715,9.573 v -11.199 c -1.735,-1.618 -3.721,-3.01 -5.969,-4.094 -11.77,-5.654 -25.898,-0.711 -31.56,11.045 -5.654,11.77 -0.703,25.901 11.053,31.571 9.09,4.365 19.556,2.402 26.477,-4.131 v -11.152 c -0.19,0.498 -0.388,0.996 -0.622,1.48 -4.146,8.602 -14.495,12.234 -23.101,8.074 -8.613,-4.131 -12.246,-14.468 -8.094,-23.088 4.153,-8.598 14.488,-12.224 23.101,-8.079 z"
       style="fill:#00c3d7;fill-opacity:1"
       id="path10791"
       inkscape:connector-curvature="0" /></g><g
     id="Layer_1"
     transform="translate(-58.75,108.238)" /></svg>