<?xml version="1.0" encoding="UTF-8" standalone="no"?>
<!-- Created with Inkscape (http://www.inkscape.org/) -->

<svg
   xmlns:dc="http://purl.org/dc/elements/1.1/"
   xmlns:cc="http://creativecommons.org/ns#"
   xmlns:rdf="http://www.w3.org/1999/02/22-rdf-syntax-ns#"
   xmlns:svg="http://www.w3.org/2000/svg"
   xmlns="http://www.w3.org/2000/svg"
   xmlns:sodipodi="http://sodipodi.sourceforge.net/DTD/sodipodi-0.dtd"
   xmlns:inkscape="http://www.inkscape.org/namespaces/inkscape"
   version="1.1"
   id="svg977"
   width="320.81766"
   height="353.79199"
   viewBox="0 0 320.81765 353.792"
   sodipodi:docname="perl.svg"
   inkscape:version="0.92.2 (unknown)">
  <metadata
     id="metadata983">
    <rdf:RDF>
      <cc:Work
         rdf:about="">
        <dc:format>image/svg+xml</dc:format>
        <dc:type
           rdf:resource="http://purl.org/dc/dcmitype/StillImage" />
        <dc:title></dc:title>
      </cc:Work>
    </rdf:RDF>
  </metadata>
  <defs
     id="defs981" />
  <sodipodi:namedview
     pagecolor="#ffffff"
     bordercolor="#666666"
     borderopacity="1"
     objecttolerance="10"
     gridtolerance="10"
     guidetolerance="10"
     inkscape:pageopacity="0"
     inkscape:pageshadow="2"
     inkscape:window-width="1920"
     inkscape:window-height="1027"
     id="namedview979"
     showgrid="false"
     inkscape:zoom="1.2206897"
     inkscape:cx="340.88247"
     inkscape:cy="188.29426"
     inkscape:window-x="0"
     inkscape:window-y="0"
     inkscape:window-maximized="1"
     inkscape:current-layer="svg977" />
  <g
     id="g1548"
     transform="translate(-10.792122,-26.978375)">
    <path
       style="fill:#24669b;stroke-width:1.33333337"
       d="M 105.93747,364.38237 C 67.016857,354.14765 40.901337,346.6472 40.230487,345.51113 39.009447,343.44336 9.9321467,29.577484 10.811677,27.959036 c 0.71058,-1.307548 320.060013,-1.307548 320.777213,0 0.88904,1.620819 -26.86738,312.820334 -28.08458,314.878804 -0.83656,1.41475 -111.63657,33.65956 -130.30656,37.92157 -1.46667,0.33482 -31.73379,-7.03485 -67.26028,-16.37704 z m 38.59361,-64.52185 c 2.77008,-1.43424 3.28144,-2.5773 3.02624,-6.7647 -0.40306,-6.61334 6.86343,-48.44968 10.292,-59.25558 1.47498,-4.64868 2.68176,-9.484 2.68176,-10.74516 0,-1.26117 0.85962,-3.45772 1.91024,-4.88121 1.5078,-2.04291 2.25831,-2.24497 3.56239,-0.95912 1.31328,1.29492 1.19495,3.27353 -0.57691,9.64653 -2.72694,9.80828 -2.8456,17.68274 -0.3384,22.4573 1.03987,1.98025 4.93987,6.45786 8.66667,9.95025 8.52392,7.98776 8.79707,11.23371 1.44268,17.14385 -5.91353,4.75224 -6.61071,7.06223 -2.75432,9.12611 4.0264,2.15487 9.671,1.62428 14.58383,-1.37084 l 4.49618,-2.74112 2.92308,2.74609 c 3.66862,3.44648 6.34252,3.47768 9.3906,0.1096 2.97238,-3.28444 2.09586,-10.49398 -1.89224,-15.56404 -3.73496,-4.74824 -3.52978,-5.90318 2.37594,-13.37449 7.58082,-9.59047 8.64854,-12.23848 8.49453,-21.067 -0.14855,-8.51484 2.39753,-19.71703 5.42025,-23.84783 1.64232,-2.24438 2.36072,-0.92985 7.28674,13.33334 3.00562,8.70276 5.83316,18.04013 6.2834,20.74972 1.00277,6.03482 -1.15559,25.24782 -4.2031,37.41446 -2.63849,10.53376 -2.06088,11.64964 6.53159,12.61814 7.11348,0.8018 9.6996,-1.60318 9.41771,-8.758 -0.75883,-19.25951 0.0535,-90.31147 1.05921,-92.64322 0.80775,-1.8728 0.96027,3.03652 0.433,13.93708 -0.52745,10.90415 -0.33401,17.12496 0.54947,17.67099 2.84812,1.76023 5.51412,-0.98424 8.68137,-8.93689 7.47037,-18.75739 5.75719,-31.05324 -7.18419,-51.56242 -4.39598,-6.96666 -12.25573,-21.26469 -17.46609,-31.7734 -7.89439,-15.92208 -10.33023,-19.67377 -14.61415,-22.50873 -6.42356,-4.25091 -15.35297,-4.40923 -27.89862,-0.49463 -7.89651,2.46392 -9.68328,3.74384 -18.26983,13.08722 -5.23453,5.69592 -13.44467,14.25621 -18.24475,19.02288 -6.45532,6.41038 -9.29494,10.40226 -10.9074,15.33333 -2.19192,6.70315 -4.49221,10.62009 -4.49221,7.64936 0,-0.85285 1.26092,-4.72285 2.80204,-8.6 5.64303,-14.19672 0.12333,-34.14229 -11.02187,-39.82817 -6.33752,-3.23317 -9.26526,-3.21151 -15.78924,0.11677 -2.8799,1.46921 -8.24272,3.31608 -11.917383,4.10416 -8.42175,1.80614 -14.74022,7.34846 -14.74022,12.92957 0,4.64704 1.98575,6.62546 7.82149,7.79261 2.3287,0.46574 4.57961,1.40601 5.00203,2.08949 0.42241,0.68348 -0.55658,4.3218 -2.17553,8.08516 -4.20358,9.77146 -3.38739,27.91492 1.70064,37.8043 4.922283,9.56726 9.618633,14.7341 17.502533,19.25596 5.53144,3.1726 8.38555,3.91146 15.14884,3.92162 5.70371,0.008 8.37286,0.53842 8.45856,1.67917 0.0689,0.91667 0.0224,7.13832 -0.10333,13.82589 -0.14403,7.6615 0.52436,14.69466 1.80693,19.01354 1.7462,5.88012 1.78084,7.7005 0.24368,12.80808 -2.14954,7.14241 -10.235,22.14705 -15.56113,28.87769 -4.37358,5.52692 -4.91502,9.71888 -1.51135,11.70133 3.32538,1.93685 17.71499,1.72097 21.66667,-0.32504 z m 40.99998,-43.67741 c -3.13451,-1.8224 -6.68003,-8.90329 -5.47279,-10.92991 0.53323,-0.89513 2.61707,-3.7275 4.63077,-6.29417 2.0137,-2.56667 4.69218,-7.36667 5.95216,-10.66667 3.48936,-9.13882 4.23182,-9.05036 5.26826,0.62775 1.18889,11.10173 0.008,20.37999 -3.13384,24.62152 -2.91716,3.93828 -4.20588,4.40816 -7.24456,2.64148 z"
       id="path1554"
       inkscape:connector-curvature="0" />
    <path
       style="fill:#2a5587;stroke-width:1.33333337"
       d="M 105.93747,364.38237 C 67.016857,354.14765 40.901337,346.6472 40.230487,345.51113 39.009447,343.44336 9.9321367,29.577487 10.811677,27.959039 c 0.71058,-1.307548 320.060003,-1.307548 320.777203,0 0.88904,1.620819 -26.86738,312.820331 -28.08458,314.878801 -0.83656,1.41475 -111.63657,33.65956 -130.30656,37.92157 -1.46667,0.33482 -31.73379,-7.03485 -67.26027,-16.37704 z M 237.0153,328.88284 c 23.36632,-6.50403 42.68171,-12.44761 42.92308,-13.20799 0.24138,-0.76037 5.27856,-58.08249 11.19375,-127.38249 5.91519,-69.3 11.10611,-128.849988 11.53537,-132.333321 l 0.78048,-6.333334 h -66.12512 -66.12512 v 34.617337 34.617328 l -5.66667,6.85127 c -3.11666,3.76819 -9.92301,11.14039 -15.12521,16.38266 -7.41213,7.46922 -9.83163,10.90909 -11.18291,15.89908 -0.94838,3.50222 -2.24204,6.68764 -2.87477,7.07869 -1.83501,1.13409 -1.35513,-1.49933 1.6516,-9.06368 5.64303,-14.19672 0.12333,-34.14229 -11.02187,-39.82817 -6.33751,-3.23317 -9.26525,-3.21151 -15.78923,0.11677 -2.8799,1.46921 -8.24272,3.31608 -11.917383,4.10416 -8.42175,1.80614 -14.74022,7.34846 -14.74022,12.92957 0,4.64704 1.98575,6.62546 7.82149,7.79261 2.3287,0.46574 4.57961,1.40601 5.00203,2.08949 0.42241,0.68348 -0.55658,4.3218 -2.17553,8.08516 -4.20358,9.77146 -3.38739,27.91492 1.70064,37.8043 4.922283,9.56726 9.618633,14.7341 17.502533,19.25596 5.53144,3.1726 8.38554,3.91146 15.14883,3.92162 5.70371,0.008 8.37286,0.53842 8.45856,1.67917 0.0689,0.91667 0.0224,7.13832 -0.10333,13.82589 -0.14403,7.6615 0.52436,14.69466 1.80693,19.01354 1.7462,5.88012 1.78084,7.7005 0.24368,12.80808 -2.14954,7.14241 -10.235,22.14705 -15.56113,28.87769 -7.16625,9.05603 -4.33317,13.15577 9.06767,13.12181 11.0245,-0.028 14.50302,-2.12537 14.11389,-8.51022 -0.40307,-6.61334 6.86343,-48.44968 10.292,-59.25558 1.47497,-4.64868 2.68176,-9.484 2.68176,-10.74516 0,-1.26117 0.85961,-3.45772 1.91024,-4.88121 1.5078,-2.04291 2.25831,-2.24497 3.56239,-0.95912 1.31328,1.29492 1.19494,3.27353 -0.57691,9.64653 -3.67841,13.23054 -2.44455,22.89935 3.55797,27.881 1.65062,1.36988 1.98458,8.64234 2.09928,45.71525 0.0751,24.24743 0.44038,44.57806 0.8119,45.17919 0.37152,0.60112 5.6164,-0.27085 11.6553,-1.93772 6.03891,-1.66687 30.09774,-8.35213 53.46406,-14.85616 z"
       id="path1552"
       inkscape:connector-curvature="0" />
  </g>
</svg>
