<?xml version="1.0" encoding="UTF-8" standalone="no"?>
<!-- Generator: Adobe Illustrator 16.0.0, SVG Export Plug-In . SVG Version: 6.00 Build 0)  -->

<svg
   xmlns:dc="http://purl.org/dc/elements/1.1/"
   xmlns:cc="http://creativecommons.org/ns#"
   xmlns:rdf="http://www.w3.org/1999/02/22-rdf-syntax-ns#"
   xmlns:svg="http://www.w3.org/2000/svg"
   xmlns="http://www.w3.org/2000/svg"
   xmlns:sodipodi="http://sodipodi.sourceforge.net/DTD/sodipodi-0.dtd"
   xmlns:inkscape="http://www.inkscape.org/namespaces/inkscape"
   version="1.1"
   id="Layer_1"
   x="0px"
   y="0px"
   width="256px"
   height="256px"
   viewBox="0 0 256 256"
   style="enable-background:new 0 0 256 256;"
   xml:space="preserve"
   sodipodi:docname="php.svg"
   inkscape:version="0.92.2 (unknown)"><metadata
     id="metadata15"><rdf:RDF><cc:Work
         rdf:about=""><dc:format>image/svg+xml</dc:format><dc:type
           rdf:resource="http://purl.org/dc/dcmitype/StillImage" /></cc:Work></rdf:RDF></metadata><defs
     id="defs13" /><sodipodi:namedview
     pagecolor="#ffffff"
     bordercolor="#666666"
     borderopacity="1"
     objecttolerance="10"
     gridtolerance="10"
     guidetolerance="10"
     inkscape:pageopacity="0"
     inkscape:pageshadow="2"
     inkscape:window-width="786"
     inkscape:window-height="480"
     id="namedview11"
     showgrid="false"
     inkscape:zoom="0.921875"
     inkscape:cx="134.50847"
     inkscape:cy="123.66102"
     inkscape:window-x="0"
     inkscape:window-y="0"
     inkscape:window-maximized="0"
     inkscape:current-layer="Layer_1" /><g
     id="g8"
     style="fill:#4a4f55;fill-opacity:1"><path
       d="M180,121.064h-8.703l-3.428,20.309h8.176c3.691-0.35,6.593-1.494,8.703-3.429c2.109-1.935,3.251-5.54,3.428-10.814   C188.176,123.086,185.448,121.064,180,121.064z"
       id="path2"
       style="fill:#4a4f55;fill-opacity:1" /><path
       d="M226,14H30c-8.837,0-16,7.164-16,16v196c0,8.837,7.163,16,16,16h196c8.836,0,16-7.163,16-16V30   C242,21.164,234.836,14,226,14z M102.725,145.196c-5.102,4.66-10.727,6.816-16.879,6.459H73.45l-2.638,14.507H57.89l10.812-55.385   h25.318c10.9,0.707,16.352,5.895,16.352,15.562C110.373,134.249,107.822,140.539,102.725,145.196z M134.901,151.655l5.012-25.315   c0.35-1.932,0.305-3.297-0.132-4.089c-0.441-0.791-1.806-1.187-4.088-1.187h-10.285l-6.067,30.591h-12.922l10.813-55.383h12.922   l-2.637,14.505h12.397c5.097,0.356,8.789,1.715,11.076,4.089c2.283,2.372,3.074,5.32,2.374,8.837l-4.747,27.952H134.901z    M194.241,145.196c-5.102,4.66-10.726,6.816-16.878,6.459h-12.396l-2.638,14.507h-12.922l10.812-55.385h25.319   c10.9,0.707,16.352,5.895,16.352,15.562C201.89,134.249,199.339,140.539,194.241,145.196z"
       id="path4"
       style="fill:#4a4f55;fill-opacity:1" /><path
       d="M88.482,121.064h-8.703l-3.428,20.309h8.176c3.691-0.35,6.593-1.494,8.703-3.429c2.109-1.935,3.251-5.54,3.428-10.814   C96.659,123.086,93.931,121.064,88.482,121.064z"
       id="path6"
       style="fill:#4a4f55;fill-opacity:1" /></g></svg>