<?xml version="1.0" encoding="UTF-8" standalone="no"?>
<!-- Created with Inkscape (http://www.inkscape.org/) -->

<svg
   xmlns:dc="http://purl.org/dc/elements/1.1/"
   xmlns:cc="http://creativecommons.org/ns#"
   xmlns:rdf="http://www.w3.org/1999/02/22-rdf-syntax-ns#"
   xmlns:svg="http://www.w3.org/2000/svg"
   xmlns="http://www.w3.org/2000/svg"
   xmlns:sodipodi="http://sodipodi.sourceforge.net/DTD/sodipodi-0.dtd"
   xmlns:inkscape="http://www.inkscape.org/namespaces/inkscape"
   width="54.731583mm"
   height="54.646568mm"
   viewBox="0 0 54.731583 54.646568"
   version="1.1"
   id="svg8"
   inkscape:version="0.92.2 (5c3e80d, 2017-08-06)"
   sodipodi:docname="plugins.svg">
  <defs
     id="defs2">
    <style
       id="style2">.cls-1{fill:#c3edf5;}.cls-2{fill:#4d91bb;}.cls-3{fill:#87dbec;}.cls-4{fill:#4dbab4;}.cls-5{fill:#e88f8d;}.cls-6{fill:#ffda75;}.cls-7{fill:#c2e085;}</style>
    <style
       id="style2-1">.cls-1{fill:#4d91bb;}</style>
  </defs>
  <sodipodi:namedview
     id="base"
     pagecolor="#ffffff"
     bordercolor="#666666"
     borderopacity="1.0"
     inkscape:pageopacity="0.0"
     inkscape:pageshadow="2"
     inkscape:zoom="1.4"
     inkscape:cx="345.23039"
     inkscape:cy="-1.9763062"
     inkscape:document-units="mm"
     inkscape:current-layer="layer1"
     showgrid="false"
     inkscape:window-width="1920"
     inkscape:window-height="1017"
     inkscape:window-x="-8"
     inkscape:window-y="-8"
     inkscape:window-maximized="1" />
  <metadata
     id="metadata5">
    <rdf:RDF>
      <cc:Work
         rdf:about="">
        <dc:format>image/svg+xml</dc:format>
        <dc:type
           rdf:resource="http://purl.org/dc/dcmitype/StillImage" />
        <dc:title></dc:title>
      </cc:Work>
    </rdf:RDF>
  </metadata>
  <g
     inkscape:label="Layer 1"
     inkscape:groupmode="layer"
     id="layer1"
     transform="translate(-73.375287,-112.21628)">
    <path
       inkscape:connector-curvature="0"
       id="path4531"
       d="m 76.843176,165.20172 -1.64639,-1.66116 3.38708,-3.37957 3.38709,-3.37956 -0.73676,-1.50977 c -1.5529,-3.18219 -1.49219,-6.8492 0.16953,-10.24102 0.70747,-1.44405 1.52159,-2.46238 3.69537,-4.62229 l 2.788,-2.77021 1.13769,1.11656 c 0.625727,0.61411 1.253847,1.11657 1.395807,1.11657 0.14196,0 1.9218,-1.66688 3.95519,-3.70417 2.3769,-2.38145 3.89286,-3.70417 4.24536,-3.70417 0.71711,0 1.34458,0.50977 1.573397,1.27823 0.15928,0.53494 -0.336527,1.14112 -3.737257,4.5692 l -3.9209,3.95243 3.62654,3.62654 3.62654,3.62655 3.952437,-3.92091 c 3.42807,-3.40073 4.03425,-3.89654 4.5692,-3.73725 0.76846,0.22882 1.27822,0.85629 1.27822,1.57339 0,0.3525 -1.32271,1.86847 -3.70416,4.24537 -2.0373,2.03339 -3.70417,3.81322 -3.70417,3.95519 0,0.14196 0.50601,0.77525 1.12448,1.40731 l 1.12448,1.1492 -2.96081,2.90224 c -2.245377,2.20096 -3.364197,3.08964 -4.630207,3.67779 -3.25574,1.51252 -7.07465,1.5341 -10.003767,0.0565 l -1.45521,-0.73406 -3.44519,3.3861 -3.44519,3.3861 z m 30.234174,-30.35597 -8.197317,-8.20052 2.774957,-2.79276 c 3.21791,-3.23856 5.24479,-4.42613 8.35102,-4.89294 2.23849,-0.3364 5.03603,0.13653 6.8095,1.15116 l 1.10819,0.63401 3.44519,-3.40335 3.44519,-3.40336 1.64639,1.66116 1.6464,1.66116 -3.38709,3.37957 -3.38708,3.37956 0.73676,1.50977 c 1.50512,3.08428 1.4882,6.74754 -0.0464,10.05094 -0.57789,1.24398 -1.48391,2.39195 -3.6021,4.56407 -1.5565,1.59612 -2.90117,2.90205 -2.98815,2.90205 -0.087,0 -3.84693,-3.69024 -8.35545,-8.20052 z"
       style="fill:#00dcf0;fill-opacity:1;stroke-width:0.26458335" />
    <path
       inkscape:connector-curvature="0"
       id="path4531-3"
       d="m 75.021677,163.48001 -1.64639,-1.66116 3.38708,-3.37957 3.38709,-3.37956 -0.73676,-1.50977 c -1.5529,-3.18219 -1.49219,-6.8492 0.16953,-10.24102 0.70747,-1.44405 1.52159,-2.46238 3.69537,-4.62229 l 2.788,-2.77021 1.13769,1.11656 c 0.62573,0.61411 1.25385,1.11657 1.39581,1.11657 0.14196,0 1.9218,-1.66688 3.95519,-3.70417 2.3769,-2.38145 3.89286,-3.70417 4.24536,-3.70417 0.71711,0 1.34458,0.50977 1.5734,1.27823 0.15928,0.53494 -0.33653,1.14112 -3.73726,4.5692 l -3.9209,3.95243 3.62654,3.62654 3.62654,3.62655 3.952453,-3.92091 c 3.42807,-3.40073 4.03425,-3.89654 4.5692,-3.73725 0.76846,0.22882 1.27822,0.85629 1.27822,1.57339 0,0.3525 -1.32271,1.86847 -3.70416,4.24537 -2.0373,2.03339 -3.70418,3.81322 -3.70418,3.95519 0,0.14197 0.50601,0.77525 1.12449,1.40731 l 1.12448,1.1492 -2.960821,2.90224 c -2.245382,2.20096 -3.364202,3.08964 -4.630212,3.67779 -3.25574,1.51252 -7.07465,1.5341 -10.00377,0.0565 l -1.45521,-0.73406 -3.44519,3.3861 -3.44519,3.38611 z m 30.234193,-30.35597 -8.197333,-8.20052 2.774962,-2.79276 c 3.217921,-3.23856 5.244801,-4.42613 8.351031,-4.89294 2.23849,-0.3364 5.03603,0.13653 6.8095,1.15116 l 1.10819,0.63401 3.44519,-3.40335 3.44519,-3.40336 1.64639,1.66116 1.6464,1.66116 -3.38709,3.37957 -3.38708,3.37956 0.73676,1.50977 c 1.50512,3.08428 1.4882,6.74754 -0.0464,10.05094 -0.57789,1.24398 -1.48391,2.39195 -3.6021,4.56407 -1.5565,1.59612 -2.90117,2.90205 -2.98815,2.90205 -0.087,0 -3.84693,-3.69024 -8.35545,-8.20052 z"
       style="fill:#545960;stroke-width:0.26458338;fill-opacity:1" />
  </g>
</svg>
