<?xml version="1.0" encoding="UTF-8" standalone="no"?>
<!-- Created with Inkscape (http://www.inkscape.org/) -->

<svg
   xmlns:dc="http://purl.org/dc/elements/1.1/"
   xmlns:cc="http://creativecommons.org/ns#"
   xmlns:rdf="http://www.w3.org/1999/02/22-rdf-syntax-ns#"
   xmlns:svg="http://www.w3.org/2000/svg"
   xmlns="http://www.w3.org/2000/svg"
   xmlns:sodipodi="http://sodipodi.sourceforge.net/DTD/sodipodi-0.dtd"
   xmlns:inkscape="http://www.inkscape.org/namespaces/inkscape"
   width="16.860262mm"
   height="16.866966mm"
   viewBox="0 0 16.860262 16.866966"
   version="1.1"
   id="svg1089"
   inkscape:version="0.92.3 (2405546, 2018-03-11)"
   sodipodi:docname="preloader-darkmode.svg">
  <defs
     id="defs1083" />
  <sodipodi:namedview
     id="base"
     pagecolor="#ffffff"
     bordercolor="#666666"
     borderopacity="1.0"
     inkscape:pageopacity="0.0"
     inkscape:pageshadow="2"
     inkscape:zoom="3.959798"
     inkscape:cx="-53.060709"
     inkscape:cy="6.8734239"
     inkscape:document-units="mm"
     inkscape:current-layer="layer1"
     showgrid="false"
     inkscape:window-width="1920"
     inkscape:window-height="1026"
     inkscape:window-x="0"
     inkscape:window-y="0"
     inkscape:window-maximized="1" />
  <metadata
     id="metadata1086">
    <rdf:RDF>
      <cc:Work
         rdf:about="">
        <dc:format>image/svg+xml</dc:format>
        <dc:type
           rdf:resource="http://purl.org/dc/dcmitype/StillImage" />
        <dc:title></dc:title>
      </cc:Work>
    </rdf:RDF>
  </metadata>
  <g
     inkscape:label="Layer 1"
     inkscape:groupmode="layer"
     id="layer1"
     transform="translate(-26.343679,-132.84033)">
    <g
       transform="matrix(0.13229167,0,0,0.13229167,26.308005,132.80388)"
       id="g1066">
      <path
         style="fill:#ffcb02"
         inkscape:connector-curvature="0"
         id="path2"
         d="M 0.6,57.54 C 6.33,51.31 17.93,42.04 34.26,45.19 55.4,48.5 64,63.95 64,63.95 64,63.95 42.42,65 30.28,83.63 a 38.63,38.63 0 0 0 -3.4,32.15 64.47,64.47 0 0 1 -5.52,-4.44 A 63.64,63.64 0 0 1 0.6,57.54 Z" />
      <path
         style="fill:#ff9e02"
         inkscape:connector-curvature="0"
         id="path4"
         d="m 65.32,29.05 c 7.65,19.98 -1.44,35.18 -1.44,35.18 0,0 -11.68,-18.18 -33.85,-19.38 A 38.6,38.6 0 0 0 0.56,57.93 63.8,63.8 0 0 1 37.56,6 c 8.2,1.8 22.26,7.16 27.76,23.05 z" />
      <path
         style="fill:#ff4b42"
         inkscape:connector-curvature="0"
         id="path6"
         d="m 94.92,47.7 c -13.48,16.63 -31.2,16.36 -31.2,16.36 0,0 9.92,-19.2 -0.13,-39 a 38.6,38.6 0 0 0 -26.18,-19 63.78,63.78 0 0 1 63.52,6.03 c 2.56,8 4.98,22.85 -6.05,35.6 z" />
      <path
         style="fill:#c063d6"
         inkscape:connector-curvature="0"
         id="path8"
         d="M 93.52,82.53 C 72.38,79.17 63.75,63.7 63.75,63.7 c 0,0 21.6,-1.02 33.7,-19.63 a 38.6,38.6 0 0 0 3.43,-32.04 64.33,64.33 0 0 1 5.74,4.6 63.63,63.63 0 0 1 20.82,53.26 c -5.62,6.2 -17.34,15.8 -33.94,12.6 z" />
      <path
         style="fill:#17a4f6"
         inkscape:connector-curvature="0"
         id="path10"
         d="m 62.5,99 c -7.65,-19.98 1.44,-35.17 1.44,-35.17 0,0 11.62,17.77 33.8,18.97 a 39.1,39.1 0 0 0 29.73,-13.03 63.8,63.8 0 0 1 -37.16,52.3 c -8.2,-1.8 -22.25,-7.15 -27.8,-23.06 z" />
      <path
         style="fill:#4fca24"
         inkscape:connector-curvature="0"
         id="path12"
         d="M 26.64,115.63 C 24,107.6 21.6,93.06 32.5,80.5 45.98,63.88 64.08,63.95 64.08,63.95 c 0,0 -9.6,19.06 0.44,38.86 a 38.82,38.82 0 0 0 26.05,19.17 63.78,63.78 0 0 1 -63.93,-6.3 z" />
    </g>
  </g>
</svg>
