<?xml version="1.0" encoding="UTF-8" standalone="no"?>
<!-- Generator: Adobe Illustrator 16.0.0, SVG Export Plug-In . SVG Version: 6.00 Build 0)  -->

<svg
   xmlns:dc="http://purl.org/dc/elements/1.1/"
   xmlns:cc="http://creativecommons.org/ns#"
   xmlns:rdf="http://www.w3.org/1999/02/22-rdf-syntax-ns#"
   xmlns:svg="http://www.w3.org/2000/svg"
   xmlns="http://www.w3.org/2000/svg"
   xmlns:sodipodi="http://sodipodi.sourceforge.net/DTD/sodipodi-0.dtd"
   xmlns:inkscape="http://www.inkscape.org/namespaces/inkscape"
   version="1.1"
   id="Layer_1"
   x="0px"
   y="0px"
   width="256px"
   height="256px"
   viewBox="0 0 256 256"
   style="enable-background:new 0 0 256 256;"
   xml:space="preserve"
   sodipodi:docname="prestashop.svg"
   inkscape:version="0.92.2 (unknown)"><metadata
     id="metadata15"><rdf:RDF><cc:Work
         rdf:about=""><dc:format>image/svg+xml</dc:format><dc:type
           rdf:resource="http://purl.org/dc/dcmitype/StillImage" /><dc:title></dc:title></cc:Work></rdf:RDF></metadata><defs
     id="defs13"><filter
       style="color-interpolation-filters:sRGB"
       inkscape:label="Greyscale"
       id="filter1075"><feColorMatrix
         values="0.21 0.72 0.072 0 0 0.21 0.72 0.072 0 0 0.21 0.72 0.072 0 0 0 0 0 1 0 "
         id="feColorMatrix1073" /></filter><filter
       style="color-interpolation-filters:sRGB"
       inkscape:label="Greyscale"
       id="filter1071"><feColorMatrix
         values="0.21 0.72 0.072 0 0 0.21 0.72 0.072 0 0 0.21 0.72 0.072 0 0 0 0 0 1 0 "
         id="feColorMatrix1069" /></filter><filter
       style="color-interpolation-filters:sRGB"
       inkscape:label="Greyscale"
       id="filter1067"><feColorMatrix
         values="0.21 0.72 0.072 0 0 0.21 0.72 0.072 0 0 0.21 0.72 0.072 0 0 0 0 0 1 0 "
         id="feColorMatrix1065" /></filter><filter
       style="color-interpolation-filters:sRGB"
       inkscape:label="Greyscale"
       id="filter1063"><feColorMatrix
         values="0.21 0.72 0.072 0 0 0.21 0.72 0.072 0 0 0.21 0.72 0.072 0 0 0 0 0 1 0 "
         id="feColorMatrix1061" /></filter><filter
       style="color-interpolation-filters:sRGB"
       inkscape:label="Greyscale"
       id="filter1059"><feColorMatrix
         values="0.21 0.72 0.072 0 0 0.21 0.72 0.072 0 0 0.21 0.72 0.072 0 0 0 0 0 1 0 "
         id="feColorMatrix1057" /></filter><filter
       style="color-interpolation-filters:sRGB"
       inkscape:label="Greyscale"
       id="filter1055"><feColorMatrix
         values="0.21 0.72 0.072 0 0 0.21 0.72 0.072 0 0 0.21 0.72 0.072 0 0 0 0 0 1 0 "
         id="feColorMatrix1053" /></filter><filter
       style="color-interpolation-filters:sRGB"
       inkscape:label="Greyscale"
       id="filter1051"><feColorMatrix
         values="0.21 0.72 0.072 0 0 0.21 0.72 0.072 0 0 0.21 0.72 0.072 0 0 0 0 0 1 0 "
         id="feColorMatrix1049" /></filter><filter
       style="color-interpolation-filters:sRGB"
       inkscape:label="Greyscale"
       id="filter1047"><feColorMatrix
         values="0.21 0.72 0.072 0 0 0.21 0.72 0.072 0 0 0.21 0.72 0.072 0 0 0 0 0 1 0 "
         id="feColorMatrix1045" /></filter><filter
       style="color-interpolation-filters:sRGB"
       inkscape:label="Greyscale"
       id="filter1043"><feColorMatrix
         values="0.21 0.72 0.072 0 0 0.21 0.72 0.072 0 0 0.21 0.72 0.072 0 0 0 0 0 1 0 "
         id="feColorMatrix1041" /></filter><filter
       style="color-interpolation-filters:sRGB"
       inkscape:label="Greyscale"
       id="filter1039"><feColorMatrix
         values="0.21 0.72 0.072 0 0 0.21 0.72 0.072 0 0 0.21 0.72 0.072 0 0 0 0 0 1 0 "
         id="feColorMatrix1037" /></filter><filter
       style="color-interpolation-filters:sRGB"
       inkscape:label="Greyscale"
       id="filter1035"><feColorMatrix
         values="0.21 0.72 0.072 0 0 0.21 0.72 0.072 0 0 0.21 0.72 0.072 0 0 0 0 0 1 0 "
         id="feColorMatrix1033" /></filter><filter
       style="color-interpolation-filters:sRGB"
       inkscape:label="Greyscale"
       id="filter1031"><feColorMatrix
         values="0.21 0.72 0.072 0 0 0.21 0.72 0.072 0 0 0.21 0.72 0.072 0 0 0 0 0 1 0 "
         id="feColorMatrix1029" /></filter><filter
       style="color-interpolation-filters:sRGB"
       inkscape:label="Greyscale"
       id="filter1027"><feColorMatrix
         values="0.21 0.72 0.072 0 0 0.21 0.72 0.072 0 0 0.21 0.72 0.072 0 0 0 0 0 1 0 "
         id="feColorMatrix1025" /></filter><filter
       style="color-interpolation-filters:sRGB"
       inkscape:label="Greyscale"
       id="filter1023"><feColorMatrix
         values="0.21 0.72 0.072 0 0 0.21 0.72 0.072 0 0 0.21 0.72 0.072 0 0 0 0 0 1 0 "
         id="feColorMatrix1021" /></filter><filter
       style="color-interpolation-filters:sRGB"
       inkscape:label="Greyscale"
       id="filter1019"><feColorMatrix
         values="0.21 0.72 0.072 0 0 0.21 0.72 0.072 0 0 0.21 0.72 0.072 0 0 0 0 0 1 0 "
         id="feColorMatrix1017" /></filter><filter
       style="color-interpolation-filters:sRGB"
       inkscape:label="Greyscale"
       id="filter1015"><feColorMatrix
         values="0.21 0.72 0.072 0 0 0.21 0.72 0.072 0 0 0.21 0.72 0.072 0 0 0 0 0 1 0 "
         id="feColorMatrix1013" /></filter><filter
       style="color-interpolation-filters:sRGB"
       inkscape:label="Greyscale"
       id="filter1011"><feColorMatrix
         values="0.21 0.72 0.072 0 0 0.21 0.72 0.072 0 0 0.21 0.72 0.072 0 0 0 0 0 1 0 "
         id="feColorMatrix1009" /></filter><filter
       style="color-interpolation-filters:sRGB"
       inkscape:label="Greyscale"
       id="filter1007"><feColorMatrix
         values="0.21 0.72 0.072 0 0 0.21 0.72 0.072 0 0 0.21 0.72 0.072 0 0 0 0 0 1 0 "
         id="feColorMatrix1005" /></filter><filter
       style="color-interpolation-filters:sRGB"
       inkscape:label="Greyscale"
       id="filter1003"><feColorMatrix
         values="0.21 0.72 0.072 0 0 0.21 0.72 0.072 0 0 0.21 0.72 0.072 0 0 0 0 0 1 0 "
         id="feColorMatrix1001" /></filter><filter
       style="color-interpolation-filters:sRGB"
       inkscape:label="Greyscale"
       id="filter999"><feColorMatrix
         values="0.21 0.72 0.072 0 0 0.21 0.72 0.072 0 0 0.21 0.72 0.072 0 0 0 0 0 1 0 "
         id="feColorMatrix997" /></filter><filter
       style="color-interpolation-filters:sRGB"
       inkscape:label="Greyscale"
       id="filter995"><feColorMatrix
         values="0.21 0.72 0.072 0 0 0.21 0.72 0.072 0 0 0.21 0.72 0.072 0 0 0 0 0 1 0 "
         id="feColorMatrix993" /></filter><filter
       style="color-interpolation-filters:sRGB"
       inkscape:label="Greyscale"
       id="filter991"><feColorMatrix
         values="0.21 0.72 0.072 0 0 0.21 0.72 0.072 0 0 0.21 0.72 0.072 0 0 0 0 0 1 0 "
         id="feColorMatrix989" /></filter><filter
       style="color-interpolation-filters:sRGB"
       inkscape:label="Greyscale"
       id="filter987"><feColorMatrix
         values="0.21 0.72 0.072 0 0 0.21 0.72 0.072 0 0 0.21 0.72 0.072 0 0 0 0 0 1 0 "
         id="feColorMatrix985" /></filter><filter
       style="color-interpolation-filters:sRGB"
       inkscape:label="Greyscale"
       id="filter983"><feColorMatrix
         values="0.21 0.72 0.072 0 0 0.21 0.72 0.072 0 0 0.21 0.72 0.072 0 0 0 0 0 1 0 "
         id="feColorMatrix981" /></filter><filter
       style="color-interpolation-filters:sRGB"
       inkscape:label="Greyscale"
       id="filter979"><feColorMatrix
         values="0.21 0.72 0.072 0 0 0.21 0.72 0.072 0 0 0.21 0.72 0.072 0 0 0 0 0 1 0 "
         id="feColorMatrix977" /></filter><filter
       style="color-interpolation-filters:sRGB"
       inkscape:label="Greyscale"
       id="filter975"><feColorMatrix
         values="0.21 0.72 0.072 0 0 0.21 0.72 0.072 0 0 0.21 0.72 0.072 0 0 0 0 0 1 0 "
         id="feColorMatrix973" /></filter><filter
       style="color-interpolation-filters:sRGB"
       inkscape:label="Greyscale"
       id="filter971"><feColorMatrix
         values="0.21 0.72 0.072 0 0 0.21 0.72 0.072 0 0 0.21 0.72 0.072 0 0 0 0 0 1 0 "
         id="feColorMatrix969" /></filter><filter
       style="color-interpolation-filters:sRGB"
       inkscape:label="Greyscale"
       id="filter967"><feColorMatrix
         values="0.21 0.72 0.072 0 0 0.21 0.72 0.072 0 0 0.21 0.72 0.072 0 0 0 0 0 1 0 "
         id="feColorMatrix965" /></filter><filter
       style="color-interpolation-filters:sRGB"
       inkscape:label="Greyscale"
       id="filter963"><feColorMatrix
         values="0.21 0.72 0.072 0 0 0.21 0.72 0.072 0 0 0.21 0.72 0.072 0 0 0 0 0 1 0 "
         id="feColorMatrix961" /></filter><filter
       style="color-interpolation-filters:sRGB"
       inkscape:label="Greyscale"
       id="filter959"><feColorMatrix
         values="0.21 0.72 0.072 0 0 0.21 0.72 0.072 0 0 0.21 0.72 0.072 0 0 0 0 0 1 0 "
         id="feColorMatrix957" /></filter><filter
       style="color-interpolation-filters:sRGB"
       inkscape:label="Greyscale"
       id="filter955"><feColorMatrix
         values="0.21 0.72 0.072 0 0 0.21 0.72 0.072 0 0 0.21 0.72 0.072 0 0 0 0 0 1 0 "
         id="feColorMatrix953" /></filter><filter
       style="color-interpolation-filters:sRGB"
       inkscape:label="Greyscale"
       id="filter951"><feColorMatrix
         values="0.21 0.72 0.072 0 0 0.21 0.72 0.072 0 0 0.21 0.72 0.072 0 0 0 0 0 1 0 "
         id="feColorMatrix949" /></filter><filter
       style="color-interpolation-filters:sRGB"
       inkscape:label="Greyscale"
       id="filter947"><feColorMatrix
         values="0.21 0.72 0.072 0 0 0.21 0.72 0.072 0 0 0.21 0.72 0.072 0 0 0 0 0 1 0 "
         id="feColorMatrix945" /></filter><filter
       style="color-interpolation-filters:sRGB"
       inkscape:label="Greyscale"
       id="filter943"><feColorMatrix
         values="0.21 0.72 0.072 0 0 0.21 0.72 0.072 0 0 0.21 0.72 0.072 0 0 0 0 0 1 0 "
         id="feColorMatrix941" /></filter><filter
       style="color-interpolation-filters:sRGB"
       inkscape:label="Greyscale"
       id="filter939"><feColorMatrix
         values="0.21 0.72 0.072 0 0 0.21 0.72 0.072 0 0 0.21 0.72 0.072 0 0 0 0 0 1 0 "
         id="feColorMatrix937" /></filter><filter
       style="color-interpolation-filters:sRGB"
       inkscape:label="Greyscale"
       id="filter935"><feColorMatrix
         values="0.21 0.72 0.072 0 0 0.21 0.72 0.072 0 0 0.21 0.72 0.072 0 0 0 0 0 1 0 "
         id="feColorMatrix933" /></filter><filter
       style="color-interpolation-filters:sRGB"
       inkscape:label="Greyscale"
       id="filter931"><feColorMatrix
         values="0.21 0.72 0.072 0 0 0.21 0.72 0.072 0 0 0.21 0.72 0.072 0 0 0 0 0 1 0 "
         id="feColorMatrix929" /></filter><filter
       style="color-interpolation-filters:sRGB"
       inkscape:label="Greyscale"
       id="filter927"><feColorMatrix
         values="0.21 0.72 0.072 0 0 0.21 0.72 0.072 0 0 0.21 0.72 0.072 0 0 0 0 0 1 0 "
         id="feColorMatrix925" /></filter><filter
       style="color-interpolation-filters:sRGB"
       inkscape:label="Greyscale"
       id="filter923"><feColorMatrix
         values="0.21 0.72 0.072 0 0 0.21 0.72 0.072 0 0 0.21 0.72 0.072 0 0 0 0 0 1 0 "
         id="feColorMatrix921" /></filter><filter
       style="color-interpolation-filters:sRGB"
       inkscape:label="Greyscale"
       id="filter919"><feColorMatrix
         values="0.21 0.72 0.072 0 0 0.21 0.72 0.072 0 0 0.21 0.72 0.072 0 0 0 0 0 1 0 "
         id="feColorMatrix917" /></filter><filter
       style="color-interpolation-filters:sRGB"
       inkscape:label="Greyscale"
       id="filter915"><feColorMatrix
         values="0.21 0.72 0.072 0 0 0.21 0.72 0.072 0 0 0.21 0.72 0.072 0 0 0 0 0 1 0 "
         id="feColorMatrix913" /></filter><filter
       style="color-interpolation-filters:sRGB"
       inkscape:label="Greyscale"
       id="filter911"><feColorMatrix
         values="0.21 0.72 0.072 0 0 0.21 0.72 0.072 0 0 0.21 0.72 0.072 0 0 0 0 0 1 0 "
         id="feColorMatrix909" /></filter><filter
       style="color-interpolation-filters:sRGB"
       inkscape:label="Greyscale"
       id="filter907"><feColorMatrix
         values="0.21 0.72 0.072 0 0 0.21 0.72 0.072 0 0 0.21 0.72 0.072 0 0 0 0 0 1 0 "
         id="feColorMatrix905" /></filter><filter
       style="color-interpolation-filters:sRGB"
       inkscape:label="Greyscale"
       id="filter1270"><feColorMatrix
         values="0.21 0.72 0.072 0 0 0.21 0.72 0.072 0 0 0.21 0.72 0.072 0 0 0 0 0 1 0 "
         id="feColorMatrix1268" /></filter><filter
       style="color-interpolation-filters:sRGB"
       inkscape:label="Greyscale"
       id="filter1274"><feColorMatrix
         values="0.21 0.72 0.072 0 0 0.21 0.72 0.072 0 0 0.21 0.72 0.072 0 0 0 0 0 1 0 "
         id="feColorMatrix1272" /></filter><filter
       style="color-interpolation-filters:sRGB"
       inkscape:label="Greyscale"
       id="filter1278"><feColorMatrix
         values="0.21 0.72 0.072 0 0 0.21 0.72 0.072 0 0 0.21 0.72 0.072 0 0 0 0 0 1 0 "
         id="feColorMatrix1276" /></filter><filter
       style="color-interpolation-filters:sRGB"
       inkscape:label="Greyscale"
       id="filter1282"><feColorMatrix
         values="0.21 0.72 0.072 0 0 0.21 0.72 0.072 0 0 0.21 0.72 0.072 0 0 0 0 0 1 0 "
         id="feColorMatrix1280" /></filter><filter
       style="color-interpolation-filters:sRGB"
       inkscape:label="Greyscale"
       id="filter1286"><feColorMatrix
         values="0.21 0.72 0.072 0 0 0.21 0.72 0.072 0 0 0.21 0.72 0.072 0 0 0 0 0 1 0 "
         id="feColorMatrix1284" /></filter><filter
       style="color-interpolation-filters:sRGB"
       inkscape:label="Greyscale"
       id="filter1290"><feColorMatrix
         values="0.21 0.72 0.072 0 0 0.21 0.72 0.072 0 0 0.21 0.72 0.072 0 0 0 0 0 1 0 "
         id="feColorMatrix1288" /></filter><filter
       style="color-interpolation-filters:sRGB"
       inkscape:label="Greyscale"
       id="filter1294"><feColorMatrix
         values="0.21 0.72 0.072 0 0 0.21 0.72 0.072 0 0 0.21 0.72 0.072 0 0 0 0 0 1 0 "
         id="feColorMatrix1292" /></filter><filter
       style="color-interpolation-filters:sRGB"
       inkscape:label="Greyscale"
       id="filter1298"><feColorMatrix
         values="0.21 0.72 0.072 0 0 0.21 0.72 0.072 0 0 0.21 0.72 0.072 0 0 0 0 0 1 0 "
         id="feColorMatrix1296" /></filter><filter
       style="color-interpolation-filters:sRGB"
       inkscape:label="Greyscale"
       id="filter1302"><feColorMatrix
         values="0.21 0.72 0.072 0 0 0.21 0.72 0.072 0 0 0.21 0.72 0.072 0 0 0 0 0 1 0 "
         id="feColorMatrix1300" /></filter><filter
       style="color-interpolation-filters:sRGB"
       inkscape:label="Greyscale"
       id="filter1306"><feColorMatrix
         values="0.21 0.72 0.072 0 0 0.21 0.72 0.072 0 0 0.21 0.72 0.072 0 0 0 0 0 1 0 "
         id="feColorMatrix1304" /></filter><filter
       style="color-interpolation-filters:sRGB"
       inkscape:label="Greyscale"
       id="filter1310"><feColorMatrix
         values="0.21 0.72 0.072 0 0 0.21 0.72 0.072 0 0 0.21 0.72 0.072 0 0 0 0 0 1 0 "
         id="feColorMatrix1308" /></filter><filter
       style="color-interpolation-filters:sRGB"
       inkscape:label="Greyscale"
       id="filter1314"><feColorMatrix
         values="0.21 0.72 0.072 0 0 0.21 0.72 0.072 0 0 0.21 0.72 0.072 0 0 0 0 0 1 0 "
         id="feColorMatrix1312" /></filter><filter
       style="color-interpolation-filters:sRGB"
       inkscape:label="Greyscale"
       id="filter1318"><feColorMatrix
         values="0.21 0.72 0.072 0 0 0.21 0.72 0.072 0 0 0.21 0.72 0.072 0 0 0 0 0 1 0 "
         id="feColorMatrix1316" /></filter><filter
       style="color-interpolation-filters:sRGB"
       inkscape:label="Greyscale"
       id="filter1322"><feColorMatrix
         values="0.21 0.72 0.072 0 0 0.21 0.72 0.072 0 0 0.21 0.72 0.072 0 0 0 0 0 1 0 "
         id="feColorMatrix1320" /></filter><filter
       style="color-interpolation-filters:sRGB"
       inkscape:label="Greyscale"
       id="filter1326"><feColorMatrix
         values="0.21 0.72 0.072 0 0 0.21 0.72 0.072 0 0 0.21 0.72 0.072 0 0 0 0 0 1 0 "
         id="feColorMatrix1324" /></filter><filter
       style="color-interpolation-filters:sRGB"
       inkscape:label="Greyscale"
       id="filter1330"><feColorMatrix
         values="0.21 0.72 0.072 0 0 0.21 0.72 0.072 0 0 0.21 0.72 0.072 0 0 0 0 0 1 0 "
         id="feColorMatrix1328" /></filter><filter
       style="color-interpolation-filters:sRGB"
       inkscape:label="Greyscale"
       id="filter1334"><feColorMatrix
         values="0.21 0.72 0.072 0 0 0.21 0.72 0.072 0 0 0.21 0.72 0.072 0 0 0 0 0 1 0 "
         id="feColorMatrix1332" /></filter><filter
       style="color-interpolation-filters:sRGB"
       inkscape:label="Greyscale"
       id="filter1338"><feColorMatrix
         values="0.21 0.72 0.072 0 0 0.21 0.72 0.072 0 0 0.21 0.72 0.072 0 0 0 0 0 1 0 "
         id="feColorMatrix1336" /></filter><filter
       style="color-interpolation-filters:sRGB"
       inkscape:label="Greyscale"
       id="filter1342"><feColorMatrix
         values="0.21 0.72 0.072 0 0 0.21 0.72 0.072 0 0 0.21 0.72 0.072 0 0 0 0 0 1 0 "
         id="feColorMatrix1340" /></filter><filter
       style="color-interpolation-filters:sRGB"
       inkscape:label="Greyscale"
       id="filter1346"><feColorMatrix
         values="0.21 0.72 0.072 0 0 0.21 0.72 0.072 0 0 0.21 0.72 0.072 0 0 0 0 0 1 0 "
         id="feColorMatrix1344" /></filter><filter
       style="color-interpolation-filters:sRGB"
       inkscape:label="Greyscale"
       id="filter1350"><feColorMatrix
         values="0.21 0.72 0.072 0 0 0.21 0.72 0.072 0 0 0.21 0.72 0.072 0 0 0 0 0 1 0 "
         id="feColorMatrix1348" /></filter><filter
       style="color-interpolation-filters:sRGB"
       inkscape:label="Greyscale"
       id="filter1354"><feColorMatrix
         values="0.21 0.72 0.072 0 0 0.21 0.72 0.072 0 0 0.21 0.72 0.072 0 0 0 0 0 1 0 "
         id="feColorMatrix1352" /></filter><filter
       style="color-interpolation-filters:sRGB"
       inkscape:label="Greyscale"
       id="filter1358"><feColorMatrix
         values="0.21 0.72 0.072 0 0 0.21 0.72 0.072 0 0 0.21 0.72 0.072 0 0 0 0 0 1 0 "
         id="feColorMatrix1356" /></filter><filter
       style="color-interpolation-filters:sRGB"
       inkscape:label="Greyscale"
       id="filter1362"><feColorMatrix
         values="0.21 0.72 0.072 0 0 0.21 0.72 0.072 0 0 0.21 0.72 0.072 0 0 0 0 0 1 0 "
         id="feColorMatrix1360" /></filter><filter
       style="color-interpolation-filters:sRGB"
       inkscape:label="Greyscale"
       id="filter1366"><feColorMatrix
         values="0.21 0.72 0.072 0 0 0.21 0.72 0.072 0 0 0.21 0.72 0.072 0 0 0 0 0 1 0 "
         id="feColorMatrix1364" /></filter><filter
       style="color-interpolation-filters:sRGB"
       inkscape:label="Greyscale"
       id="filter1370"><feColorMatrix
         values="0.21 0.72 0.072 0 0 0.21 0.72 0.072 0 0 0.21 0.72 0.072 0 0 0 0 0 1 0 "
         id="feColorMatrix1368" /></filter><filter
       style="color-interpolation-filters:sRGB"
       inkscape:label="Greyscale"
       id="filter1374"><feColorMatrix
         values="0.21 0.72 0.072 0 0 0.21 0.72 0.072 0 0 0.21 0.72 0.072 0 0 0 0 0 1 0 "
         id="feColorMatrix1372" /></filter><filter
       style="color-interpolation-filters:sRGB"
       inkscape:label="Greyscale"
       id="filter1378"><feColorMatrix
         values="0.21 0.72 0.072 0 0 0.21 0.72 0.072 0 0 0.21 0.72 0.072 0 0 0 0 0 1 0 "
         id="feColorMatrix1376" /></filter><filter
       style="color-interpolation-filters:sRGB"
       inkscape:label="Greyscale"
       id="filter1382"><feColorMatrix
         values="0.21 0.72 0.072 0 0 0.21 0.72 0.072 0 0 0.21 0.72 0.072 0 0 0 0 0 1 0 "
         id="feColorMatrix1380" /></filter><filter
       style="color-interpolation-filters:sRGB"
       inkscape:label="Greyscale"
       id="filter1386"><feColorMatrix
         values="0.21 0.72 0.072 0 0 0.21 0.72 0.072 0 0 0.21 0.72 0.072 0 0 0 0 0 1 0 "
         id="feColorMatrix1384" /></filter><filter
       style="color-interpolation-filters:sRGB"
       inkscape:label="Greyscale"
       id="filter1390"><feColorMatrix
         values="0.21 0.72 0.072 0 0 0.21 0.72 0.072 0 0 0.21 0.72 0.072 0 0 0 0 0 1 0 "
         id="feColorMatrix1388" /></filter><filter
       style="color-interpolation-filters:sRGB"
       inkscape:label="Greyscale"
       id="filter1394"><feColorMatrix
         values="0.21 0.72 0.072 0 0 0.21 0.72 0.072 0 0 0.21 0.72 0.072 0 0 0 0 0 1 0 "
         id="feColorMatrix1392" /></filter><filter
       style="color-interpolation-filters:sRGB"
       inkscape:label="Greyscale"
       id="filter1398"><feColorMatrix
         values="0.21 0.72 0.072 0 0 0.21 0.72 0.072 0 0 0.21 0.72 0.072 0 0 0 0 0 1 0 "
         id="feColorMatrix1396" /></filter><filter
       style="color-interpolation-filters:sRGB"
       inkscape:label="Greyscale"
       id="filter1402"><feColorMatrix
         values="0.21 0.72 0.072 0 0 0.21 0.72 0.072 0 0 0.21 0.72 0.072 0 0 0 0 0 1 0 "
         id="feColorMatrix1400" /></filter><filter
       style="color-interpolation-filters:sRGB"
       inkscape:label="Greyscale"
       id="filter1406"><feColorMatrix
         values="0.21 0.72 0.072 0 0 0.21 0.72 0.072 0 0 0.21 0.72 0.072 0 0 0 0 0 1 0 "
         id="feColorMatrix1404" /></filter><filter
       style="color-interpolation-filters:sRGB"
       inkscape:label="Greyscale"
       id="filter1410"><feColorMatrix
         values="0.21 0.72 0.072 0 0 0.21 0.72 0.072 0 0 0.21 0.72 0.072 0 0 0 0 0 1 0 "
         id="feColorMatrix1408" /></filter><filter
       style="color-interpolation-filters:sRGB"
       inkscape:label="Greyscale"
       id="filter1414"><feColorMatrix
         values="0.21 0.72 0.072 0 0 0.21 0.72 0.072 0 0 0.21 0.72 0.072 0 0 0 0 0 1 0 "
         id="feColorMatrix1412" /></filter><filter
       style="color-interpolation-filters:sRGB"
       inkscape:label="Greyscale"
       id="filter1418"><feColorMatrix
         values="0.21 0.72 0.072 0 0 0.21 0.72 0.072 0 0 0.21 0.72 0.072 0 0 0 0 0 1 0 "
         id="feColorMatrix1416" /></filter><filter
       style="color-interpolation-filters:sRGB"
       inkscape:label="Greyscale"
       id="filter1422"><feColorMatrix
         values="0.21 0.72 0.072 0 0 0.21 0.72 0.072 0 0 0.21 0.72 0.072 0 0 0 0 0 1 0 "
         id="feColorMatrix1420" /></filter><filter
       style="color-interpolation-filters:sRGB"
       inkscape:label="Greyscale"
       id="filter1426"><feColorMatrix
         values="0.21 0.72 0.072 0 0 0.21 0.72 0.072 0 0 0.21 0.72 0.072 0 0 0 0 0 1 0 "
         id="feColorMatrix1424" /></filter><filter
       style="color-interpolation-filters:sRGB"
       inkscape:label="Greyscale"
       id="filter1430"><feColorMatrix
         values="0.21 0.72 0.072 0 0 0.21 0.72 0.072 0 0 0.21 0.72 0.072 0 0 0 0 0 1 0 "
         id="feColorMatrix1428" /></filter><filter
       style="color-interpolation-filters:sRGB"
       inkscape:label="Greyscale"
       id="filter1434"><feColorMatrix
         values="0.21 0.72 0.072 0 0 0.21 0.72 0.072 0 0 0.21 0.72 0.072 0 0 0 0 0 1 0 "
         id="feColorMatrix1432" /></filter><filter
       style="color-interpolation-filters:sRGB"
       inkscape:label="Greyscale"
       id="filter1438"><feColorMatrix
         values="0.21 0.72 0.072 0 0 0.21 0.72 0.072 0 0 0.21 0.72 0.072 0 0 0 0 0 1 0 "
         id="feColorMatrix1436" /></filter></defs><sodipodi:namedview
     pagecolor="#ffffff"
     bordercolor="#666666"
     borderopacity="1"
     objecttolerance="10"
     gridtolerance="10"
     guidetolerance="10"
     inkscape:pageopacity="0"
     inkscape:pageshadow="2"
     inkscape:window-width="1920"
     inkscape:window-height="1027"
     id="namedview11"
     showgrid="false"
     inkscape:zoom="1.6328125"
     inkscape:cx="361.78225"
     inkscape:cy="51.078966"
     inkscape:window-x="0"
     inkscape:window-y="0"
     inkscape:window-maximized="1"
     inkscape:current-layer="Layer_1"
     showguides="false" /><g
     id="g8"
     transform="translate(0.7751196,0.7751196)"
     style="fill:#4a4f55;fill-opacity:1"><path
       d="m 180,121.064 h -8.703 l -3.428,20.309 h 8.176 c 3.691,-0.35 6.593,-1.494 8.703,-3.429 2.109,-1.935 3.251,-5.54 3.428,-10.814 0,-4.044 -2.728,-6.066 -8.176,-6.066 z"
       id="path2"
       inkscape:connector-curvature="0"
       style="fill:#4a4f55;fill-opacity:1" /><path
       d="M 226,14 H 30 c -8.837,0 -16,7.164 -16,16 v 196 c 0,8.837 7.163,16 16,16 h 196 c 8.836,0 16,-7.163 16,-16 V 30 c 0,-8.836 -7.164,-16 -16,-16 z"
       id="path4"
       inkscape:connector-curvature="0"
       sodipodi:nodetypes="sssssssss"
       style="fill:#4a4f55;fill-opacity:1" /></g><path
     inkscape:connector-curvature="0"
     style="fill:#ffffff;stroke-width:0.81;fill-opacity:1"
     d="m 93.351324,188.03677 c 1.65564,-0.7371 3.33315,-1.41507 5.02605,-2.05092 1.911596,-0.71847 3.838586,-1.39401 5.791496,-1.98207 2.43081,-0.73224 4.88187,-1.39482 7.36614,-1.92213 3.34935,-0.71118 6.73839,-1.23768 10.15254,-1.56897 -1.91484,6.02073 -4.03137,12.00744 -6.32448,17.95608 0.098,1.15182 0.15066,2.31093 0.18144,3.47328 4.61862,-0.91125 9.3879,-1.39887 14.27382,-1.39887 4.88511,0 9.6552,0.48762 14.27382,1.39887 0.0308,-1.16235 0.0834,-2.32146 0.18144,-3.47328 -2.29392,-5.94864 -4.40964,-11.93535 -6.32448,-17.95608 3.41415,0.33129 6.80319,0.85779 10.15254,1.56897 2.48346,0.52731 4.93452,1.18989 7.36533,1.92213 1.95372,0.58806 3.88071,1.2636 5.79231,1.98207 1.69371,0.63666 3.37203,1.31463 5.02767,2.05173 11.74824,5.23179 22.45806,12.99159 31.2417,23.06151 22.0158,-19.01151 35.96967,-47.10717 35.96967,-78.47928 0,-57.260517 -46.41948,-103.679997 -103.68,-103.679997 -57.260516,0 -103.68,46.41948 -103.68,103.679997 0,31.37211 13.953874,59.46696 35.969674,78.47928 8.78364,-10.06992 19.49508,-17.83053 31.24332,-23.06232"
     id="path2-7" /><path
     inkscape:connector-curvature="0"
     d="m 68.841334,104.77465 7.946,27.323 2.254,0.106 c 1.463,0 2.492,0.385 2.492,1.848 0,2.432 0.126,5.165 0.359,7.551 1.98,1.681 4.391,3.577 6.219,5.419 6.867,-3.998 13.321996,-8.614 19.299996,-13.776 -10.843996,-12.432 -24.065996,-22.012 -38.569996,-28.471"
     id="path4-5"
     style="fill:#525353;filter:url(#filter1438)"
     transform="matrix(0.81,0,0,0.81,110.52548,103.17012)" /><path
     inkscape:connector-curvature="0"
     d="m 53.304334,104.50165 9.33,-2.26 c -2.36,-0.887 -4.739,-1.721 -7.151,-2.446999 -3.001,-0.904 -6.027,-1.722 -9.093,-2.373 -4.135,-0.878 -8.319,-1.528 -12.534,-1.937 2.364,7.432999 4.976,14.823999 7.808,22.167999 -0.121,1.422 -0.186,2.853 -0.224,4.288 6.611,1.304 13.111,3.57 19.121,6.228 l -7.257,-23.667"
     id="path6"
     style="fill:#525353;filter:url(#filter1434)"
     transform="matrix(0.81,0,0,0.81,110.52548,103.17012)" /><path
     inkscape:connector-curvature="0"
     d="m -40.474666,147.02165 c 1.486,0.866 2.987,1.711 4.513,2.518 0.534,-2.565 1.388,-6.119 1.646,-8.758 -1.98,1.681 -4.331,4.398 -6.159,6.24"
     id="path8"
     style="fill:#000000;filter:url(#filter1430)"
     transform="matrix(0.81,0,0,0.81,110.52548,103.17012)" /><path
     inkscape:connector-curvature="0"
     d="m 60.405334,127.93265 c -6.009,-2.658 -12.354,-4.688 -18.965,-5.992 -5.702,-1.125 -11.591,-1.727 -17.622,-1.727 -6.032,0 -11.92,0.602 -17.6220003,1.727 -6.61,1.303 -13.507,3.28 -19.5149997,5.937 l -0.639,3.981 h 75.554 l -1.191,-3.926"
     id="path10"
     style="fill:#000000;filter:url(#filter1426)"
     transform="matrix(0.81,0,0,0.81,110.52548,103.17012)" /><path
     inkscape:connector-curvature="0"
     d="m -34.549666,141.53965 c 0.234,-2.386 0.403,-4.513 0.403,-6.946 0,-1.462 1.003,-2.399 2.466,-2.399 l 2.399,-0.084 8.079,-27.337 c -14.504,6.459 -27.728,16.04 -38.572,28.472 5.978,5.162 12.433,9.778 19.3,13.776 1.828,-1.842 3.732,-3.609 5.712,-5.29"
     id="path12"
     style="fill:#525353;filter:url(#filter1422)"
     transform="matrix(0.81,0,0,0.81,110.52548,103.17012)" /><path
     inkscape:connector-curvature="0"
     d="m 82.869334,146.40265 c 0.518,2.6 0.635,3.118 0.729,3.137 1.526,-0.807 3.026,-1.652 4.513,-2.518 -1.828,-1.842 -3.791,-3.668 -5.772,-5.349 l 0.53,4.73"
     id="path14"
     style="fill:#000000;filter:url(#filter1418)"
     transform="matrix(0.81,0,0,0.81,110.52548,103.17012)" /><path
     inkscape:connector-curvature="0"
     d="m 60.405334,127.93265 1.191,3.926 h 15.454 l -8.209,-27.084 c -2.044,-0.91 -4.116,-1.747 -6.207,-2.533 l -9.33,2.26 7.101,23.431"
     id="path16"
     style="fill:#aa9678;filter:url(#filter1414)"
     transform="matrix(0.81,0,0,0.81,110.52548,103.17012)" /><path
     inkscape:connector-curvature="0"
     d="m -29.142666,137.32865 c 0.081,-0.057 0.163,-0.114 0.243,-0.172 h -0.232 c -0.002,0.057 -0.008,0.115 -0.011,0.172"
     id="path18"
     style="fill:#c4b6a1;filter:url(#filter1410)"
     transform="matrix(0.81,0,0,0.81,110.52548,103.17012)" /><path
     inkscape:connector-curvature="0"
     d="m 76.768334,137.15665 h -0.233 c 0.081,0.058 0.163,0.115 0.243,0.172 -0.002,-0.057 -0.008,-0.115 -0.01,-0.172"
     id="path20"
     style="fill:#aa9678;filter:url(#filter1406)"
     transform="matrix(0.81,0,0,0.81,110.52548,103.17012)" /><path
     inkscape:connector-curvature="0"
     d="m 76.502334,136.76165 -52.794,0.06 0.11,27.536 c 19.648,0 38.256,-4.439 54.893,-12.351 -1.086,-4.772 -1.195,-9.912 -1.372,-14.914 -0.08,-0.058 -0.837,-0.331 -0.837,-0.331"
     id="path22"
     style="fill:#aa9678;filter:url(#filter1402)"
     transform="matrix(0.81,0,0,0.81,110.52548,103.17012)" /><path
     inkscape:connector-curvature="0"
     d="m 23.733334,136.93565 c 0,0 -53.085,-0.067 -53.166,-0.01 -0.176,5.003 -1.208,10.939 -1.642,15.081 16.637,7.912 35.2449997,12.351 54.893,12.351 l 0.03,-27.333 -0.115,-0.089"
     id="path24"
     style="fill:#c4b6a1;filter:url(#filter1398)"
     transform="matrix(0.81,0,0,0.81,110.52548,103.17012)" /><path
     inkscape:connector-curvature="0"
     d="m 23.818334,134.50765 h 0.001 v 2.649 h -0.001 z"
     id="path26"
     style="fill:#786453;filter:url(#filter1394)"
     transform="matrix(0.81,0,0,0.81,110.52548,103.17012)" /><path
     inkscape:connector-curvature="0"
     d="m 60.467334,113.59365 c -0.386,-0.444 -0.784,-0.919 -1.197,-1.46 0.414,0.541 0.811,1.016 1.197,1.46"
     id="path28"
     style="fill:#525353;filter:url(#filter1390)"
     transform="matrix(0.81,0,0,0.81,110.52548,103.17012)" /><path
     inkscape:connector-curvature="0"
     d="m 63.412334,116.51765 c 0,0 0.009,0.029 0.027,0.083 -0.018,-0.054 -0.027,-0.083 -0.027,-0.083 0,0 -1.298,-1.029 -2.945,-2.924 1.647,1.895 2.945,2.924 2.945,2.924"
     id="path30"
     style="fill:#aa9678;filter:url(#filter1386)"
     transform="matrix(0.81,0,0,0.81,110.52548,103.17012)" /><path
     inkscape:connector-curvature="0"
     d="m 102.52433,0.70565112 v 0.006 -0.006"
     id="path32"
     style="fill:#ffffff;filter:url(#filter1382)"
     transform="matrix(0.81,0,0,0.81,110.52548,103.17012)" /><path
     inkscape:connector-curvature="0"
     d="m 107.67533,37.558651 c 0,-0.013 10e-4,-0.025 10e-4,-0.038 0,0.013 -10e-4,0.025 -10e-4,0.038"
     id="path34"
     style="fill:#ffffff;filter:url(#filter1378)"
     transform="matrix(0.81,0,0,0.81,110.52548,103.17012)" /><path
     inkscape:connector-curvature="0"
     d="m 107.67633,37.520651 c 0,-0.012 -10e-4,-0.022 -10e-4,-0.035 0,0.012 10e-4,0.023 10e-4,0.035"
     id="path36"
     style="fill:#bbbcbd;filter:url(#filter1374)"
     transform="matrix(0.81,0,0,0.81,110.52548,103.17012)" /><path
     inkscape:connector-curvature="0"
     d="m 107.53233,35.526651 c 0.004,0.034 0.014,0.064 0.018,0.098 0.003,0.021 0.009,0.04 0.012,0.06 v 0.008 c 0.061,0.489 0.084,1 0.095,1.515 0.002,0.095 0.018,0.184 0.018,0.278 0,0.013 10e-4,0.023 10e-4,0.035 0,0.013 -10e-4,0.025 -10e-4,0.038 -0.001,0.102 -0.018,0.197 -0.019,0.298 -0.012,0.505 -0.034,1.006 -0.093,1.486 v 0.007 c -0.004,0.025 -0.01,0.048 -0.014,0.073 -0.004,0.039 -0.016,0.074 -0.021,0.112 -0.072,0.524 -0.164,1.032 -0.287,1.515 -0.001,0.003 -0.001,0.005 -0.002,0.007 v 10e-4 l 0.018,-0.02 c 0.002,-0.008 0.005,-0.015 0.007,-0.023 v 10e-4 l 3.35,-3.507 -3.377,-3.535 c 0,0.002 0,0.005 0.001,0.007 0.126,0.493 0.222,1.011 0.294,1.546"
     id="path38"
     style="fill:#676a6a;filter:url(#filter1370)"
     transform="matrix(0.81,0,0,0.81,110.52548,103.17012)" /><path
     inkscape:connector-curvature="0"
     d="m 107.52833,39.534651 c 0.009,-0.066 0.026,-0.125 0.035,-0.192 0.059,-0.48 0.081,-0.981 0.093,-1.486 0.001,-0.114 0.019,-0.221 0.019,-0.336 0,-0.107 -0.016,-0.207 -0.018,-0.313 -0.011,-0.515 -0.034,-1.026 -0.095,-1.515 -0.008,-0.058 -0.023,-0.109 -0.03,-0.166 -0.072,-0.535 -0.168,-1.053 -0.294,-1.546 -0.044,-0.172 -0.105,-0.325 -0.156,-0.491 -0.303,-1.002 -0.716,-1.887 -1.206,-2.622 -0.066,-0.098 -0.133,-0.193 -0.201,-0.285 -0.135,-0.181 -0.27,-0.357 -0.413,-0.515 -0.212,-0.229 -0.431,-0.44 -0.662,-0.615 -0.088,-0.067 -0.181,-0.114 -0.271,-0.172 -0.2,-0.129 -0.404,-0.242 -0.615,-0.328 -0.09,-0.036 -0.181,-0.072 -0.273,-0.101 -0.298,-0.092 -0.603,-0.158 -0.917,-0.158 -0.314,0 -0.618,0.066 -0.917,0.158 -0.092,0.029 -0.183,0.065 -0.273,0.102 -0.211,0.085 -0.415,0.198 -0.616,0.327 -0.088,0.058 -0.182,0.104 -0.269,0.171 -0.231,0.176 -0.450996,0.387 -0.662996,0.616 -0.143,0.158 -0.278,0.334 -0.411,0.513 -0.07,0.094 -0.137,0.189 -0.203,0.288 -0.49,0.735 -0.904,1.62 -1.206,2.622 -0.012,0.04 -0.026,0.079 -0.038,0.12 -0.134,0.46 -0.238,0.944 -0.325,1.441 -0.026,0.152 -0.061,0.298 -0.082,0.454 -0.08,0.556 -0.121,1.136 -0.131,1.73 -10e-4,0.082 -0.014,0.16 -0.014,0.242 h 0.02 c 0,4.876 2.307,8.828 5.151996,8.828 0.49,0 0.961,-0.128 1.41,-0.347 0.072,-0.036 0.143,-0.073 0.214,-0.114 0.186,-0.107 0.369,-0.224 0.544,-0.365 0.097,-0.078 0.188,-0.172 0.281,-0.26 0.227,-0.212 0.443,-0.452 0.648,-0.719 0.142,-0.187 0.282,-0.374 0.412,-0.583 0.083,-0.133 0.159,-0.277 0.236,-0.419 0.144,-0.266 0.28,-0.543 0.403,-0.837 0.046,-0.106 0.093,-0.209 0.135,-0.318 0.157,-0.409 0.294,-0.841 0.41,-1.294 0.123,-0.483 0.215,-0.991 0.287,-1.515 z m -4.819,-3.189 c -1.067,0 -1.932,-1.483 -1.932,-3.311 0,-1.827 0.865,-3.31 1.932,-3.31 1.067,0 1.931,1.483 1.931,3.31 0,1.828 -0.864,3.311 -1.931,3.311 z"
     id="path40"
     style="fill:#000000;filter:url(#filter1366)"
     transform="matrix(0.81,0,0,0.81,110.52548,103.17012)" /><path
     inkscape:connector-curvature="0"
     d="m 102.70933,29.724651 c -1.067,0 -1.932,1.483 -1.932,3.31 0,1.828 0.865,3.311 1.932,3.311 1.067,0 1.931,-1.483 1.931,-3.311 0,-1.827 -0.864,-3.31 -1.931,-3.31"
     id="path42"
     style="fill:#ffffff;filter:url(#filter1362)"
     transform="matrix(0.81,0,0,0.81,110.52548,103.17012)" /><path
     inkscape:connector-curvature="0"
     d="m 97.966334,33.490651 v 0 c 0.302,-1.002 0.716,-1.887 1.206,-2.622 0.066,-0.1 0.133,-0.193 0.203,-0.288 0.133,-0.179 0.268,-0.355 0.411,-0.513 0.212,-0.231 0.431996,-0.439 0.662996,-0.616 0.087,-0.067 0.181,-0.113 0.269,-0.171 0.2,-0.131 0.405,-0.24 0.616,-0.327 0.09,-0.037 0.181,-0.073 0.273,-0.102 0.298,-0.094 0.603,-0.158 0.917,-0.158 0.314,0 0.619,0.064 0.917,0.158 0.092,0.029 0.183,0.065 0.273,0.101 0.211,0.088 0.415,0.197 0.615,0.328 0.09,0.058 0.183,0.105 0.271,0.172 0.23,0.176 0.45,0.384 0.662,0.615 0.143,0.158 0.278,0.334 0.413,0.515 0.068,0.093 0.135,0.186 0.201,0.285 0.49,0.735 0.903,1.62 1.206,2.622 v 0.002 l -4.558,-20.877 -4.558996,20.876 h 0.001"
     id="path44"
     style="fill:#909393;filter:url(#filter1358)"
     transform="matrix(0.81,0,0,0.81,110.52548,103.17012)" /><path
     inkscape:connector-curvature="0"
     d="m 42.117334,37.325651 c -0.006,-0.42 -0.033,-0.835 -0.08,-1.243 -0.001,-0.005 -0.003,-0.011 -0.003,-0.017 -0.048,-0.402 -0.115,-0.799 -0.201,-1.188 -0.003,-0.01 -0.006,-0.019 -0.008,-0.03 -0.086,-0.385 -0.191,-0.763 -0.313,-1.134 -0.003,-0.008 -0.007,-0.016 -0.01,-0.025 -0.123,-0.371 -0.263,-0.734 -0.422,-1.088 -0.002,-0.007 -0.007,-0.014 -0.01,-0.022 -0.159,-0.355 -0.335,-0.702 -0.527,-1.038 -0.586,-1.027 -1.317,-1.958 -2.167,-2.768 -1.079,-1.027 -2.348,-1.858 -3.747,-2.434 -0.011,-0.004 -0.024,-0.008 -0.035,-0.013 -0.69,-0.281 -1.411,-0.501 -2.158,-0.651 -0.019,-0.003 -0.037,-0.004 -0.056,-0.008 -0.749,-0.147 -1.521,-0.227 -2.313,-0.227 -0.779,0 -1.536,0.08 -2.273,0.221 -0.026,0.005 -0.052,0.007 -0.078,0.012 -0.733,0.146 -1.44,0.36 -2.119,0.632 -0.017,0.007 -0.036,0.013 -0.054,0.021 -0.688,0.28 -1.345,0.621 -1.962,1.018 -0.003,0.002 -0.005,0.003 -0.007,0.003 -0.623,0.402 -1.208,0.859 -1.746,1.364 l -0.013,0.041 -0.045,0.01 c -0.859,0.817 -1.598,1.759 -2.189,2.794 -0.006,0.012 -0.014,0.024 -0.022,0.037 -0.18,0.317 -0.343,0.647 -0.493,0.983 -0.016,0.036 -0.036,0.07 -0.051,0.106 -0.137,0.311 -0.255,0.633 -0.365,0.957 -0.021,0.064 -0.049,0.124 -0.069,0.187 -0.096,0.303 -0.174,0.614 -0.248,0.925 -0.019,0.09 -0.048,0.176 -0.067,0.265 -0.064,0.308 -0.108,0.623 -0.149,0.939 -0.012,0.097 -0.033,0.19 -0.043,0.287 -0.043,0.413 -0.067,0.832 -0.067,1.258 0,0.798 0.082,1.576 0.231,2.33 0.002,0.015 0.003,0.032 0.007,0.048 0.151,0.753 0.373,1.479 0.658,2.174 0.004,0.01 0.006,0.02 0.011,0.029 0.58,1.406 1.419,2.679 2.456,3.76 0.82,0.855 1.764,1.588 2.802,2.174 0.005,0.003 0.01,0.006 0.015,0.009 0.324,0.182 0.659,0.346 1,0.498 0.028,0.012 0.055,0.028 0.084,0.04 0.316,0.138 0.643,0.257 0.972,0.368 0.056,0.019 0.11,0.043 0.166,0.061 0.304,0.097 0.618,0.175 0.932,0.247 0.085,0.02 0.167,0.048 0.253,0.066 0.305,0.063 0.619,0.106 0.935,0.147 0.095,0.011 0.189,0.033 0.286,0.043 0.411,0.043 0.829,0.066 1.252,0.066 1.665,0 3.251,-0.338 4.694,-0.949 0.721,-0.304 1.407,-0.677 2.048,-1.111 1.284,-0.867 2.391,-1.975 3.258,-3.257 0.433,-0.642 0.807,-1.327 1.112,-2.049 0.61,-1.443 0.948,-3.029 0.948,-4.694 0,-0.029 -0.004,-0.056 -0.004,-0.083 -10e-4,-0.031 -0.005,-0.06 -0.006,-0.091 z m -12.05,-1.413 c -2.502,0 -4.53,-2.029 -4.53,-4.531 0,-2.502 2.028,-4.53 4.53,-4.53 2.502,0 4.53,2.028 4.53,4.53 0,2.502 -2.028,4.531 -4.53,4.531 z"
     id="path46"
     style="fill:#000000;filter:url(#filter1354)"
     transform="matrix(0.81,0,0,0.81,110.52548,103.17012)" /><path
     inkscape:connector-curvature="0"
     d="m 30.067334,26.851651 c -2.502,0 -4.53,2.028 -4.53,4.53 0,2.502 2.028,4.531 4.53,4.531 2.502,0 4.53,-2.029 4.53,-4.531 0,-2.502 -2.028,-4.53 -4.53,-4.53"
     id="path48"
     style="fill:#ffffff;filter:url(#filter1350)"
     transform="matrix(0.81,0,0,0.81,110.52548,103.17012)" /><path
     inkscape:connector-curvature="0"
     d="m 21.770334,28.761651 v 0 l 0.045,-0.01 0.013,-0.041 8.306,-25.4019999 v -5.945 c 0,-0.044 -10e-4,-0.067 -10e-4,-0.067 -4.626,-0.949 -9.382,-1.47 -14.25,-1.47 -1.625,0 -3.237,0.069 -4.839,0.178 -0.233,0.016 -0.467,0.03 -0.701,0.048 -8.3370003,0.633 -16.5470003,2.806 -24.149,6.276 -6.519,2.977 -12.576,6.898 -18.021,11.5469999 v 0.001 c -0.002,0.003 -0.006,0.005 -0.009,0.008 -1.462,1.242 -2.863,2.553 -4.231,3.897 -0.256,0.25 -0.516,0.498 -0.769,0.752 -1.288,1.298 -2.533,2.639 -3.737,4.019 -0.261,0.301 -0.518,0.608 -0.776,0.912 -1.209,1.427 -2.385,2.881 -3.502,4.383 -0.093,0.126 -0.18,0.258 -0.272,0.384 -1.065,1.449 -2.079,2.936 -3.056,4.448 -0.191,0.295 -0.387,0.586 -0.574,0.884 -0.79,1.253 -1.525,2.54 -2.255,3.83 h 37.837 l 34.941,-8.632"
     id="path50"
     style="fill:#bbbcbd;filter:url(#filter1346)"
     transform="matrix(0.81,0,0,0.81,110.52548,103.17012)" /><path
     inkscape:connector-curvature="0"
     d="m 53.713334,25.903651 c 0.077,-0.991 0.14,-1.981 0.191,-2.973 0.069,-1.342 0.116,-2.686 0.142,-4.029 0.02,-1.043 0.017,-2.087 0.012,-3.13 0,-0.301 0.007,-0.602 0.004,-0.904 -0.028,-2.688 -0.133,-5.3789999 -0.297,-8.0729999 -0.008,-0.005 -0.015,-0.01 -0.023,-0.015 -0.003,-0.007 -0.007,-0.013 -0.01,-0.019 -0.01,-0.007 -0.049,-0.029 -0.085,-0.049 -0.032,-0.019 -0.06,-0.035 -0.12,-0.069 -0.494,-0.284 -1.708,-0.979 -2.798,-1.598 -0.024,-0.013 -0.047,-0.027 -0.07,-0.04 -0.276,-0.156 -0.542,-0.307 -0.783,-0.443 -0.005,-0.003 -0.01,-0.005 -0.014,-0.008 -0.208,-0.117 -0.382,-0.214 -0.543,-0.304 -0.032,-0.018 -0.077,-0.043 -0.107,-0.06 -0.177,-0.098 -0.314,-0.172 -0.395,-0.215 -1.739,-0.902 -3.514,-1.737 -5.319,-2.499 -4.303,-1.81699998 -10.099,-3.41 -13.364,-4.179 v 6.012 l 8.233,25.4429999 0.009,0.021 c 0.85,0.81 1.581,1.741 2.167,2.767 v 0.001 c 0.192,0.336 0.368,0.683 0.527,1.038 0.004,0.008 0.008,0.015 0.01,0.022 0.159,0.354 0.299,0.717 0.422,1.088 0.003,0.009 0.007,0.017 0.01,0.025 0.122,0.371 0.227,0.749 0.313,1.134 0.002,0.011 0.005,0.02 0.008,0.03 0.086,0.389 0.153,0.786 0.201,1.188 0,0.006 0.002,0.012 0.003,0.017 0.047,0.408 0.074,0.823 0.08,1.243 l 0.031,0.068 h 10.081 c 0.681,-3.689 1.156,-7.427 1.457,-11.181 0.007,-0.103 0.019,-0.206 0.027,-0.309"
     id="path52"
     style="fill:#e3dddb;filter:url(#filter1342)"
     transform="matrix(0.81,0,0,0.81,110.52548,103.17012)" /><path
     inkscape:connector-curvature="0"
     d="m 66.897334,16.907651 c -0.007,0.011 -0.012,0.024 -0.018,0.035 0.006,-0.011 0.012,-0.023 0.018,-0.034"
     id="path54"
     style="fill:#fcb03f;filter:url(#filter1338)"
     transform="matrix(0.81,0,0,0.81,110.52548,103.17012)" /><path
     inkscape:connector-curvature="0"
     d="m 21.828334,28.710651 v 0 c 0.538,-0.505 1.123,-0.962 1.746,-1.364 0.002,0 0.004,-0.001 0.007,-0.003 0.617,-0.397 1.274,-0.738 1.962,-1.018 0.018,-0.008 0.037,-0.013 0.054,-0.021 0.679,-0.272 1.386,-0.486 2.119,-0.632 0.026,-0.005 0.051,-0.007 0.078,-0.012 0.737,-0.141 1.494,-0.221 2.273,-0.221 0.792,0 1.564,0.08 2.313,0.227 0.019,0.004 0.037,0.005 0.056,0.008 0.747,0.15 1.468,0.37 2.158,0.651 0.011,0.005 0.023,0.009 0.035,0.013 1.399,0.576 2.668,1.407 3.747,2.434 l -0.009,-0.021 -8.233,-25.4429999 -8.306,25.4019999"
     id="path56"
     style="fill:#909393;filter:url(#filter1334)"
     transform="matrix(0.81,0,0,0.81,110.52548,103.17012)" /><path
     inkscape:connector-curvature="0"
     d="m 18.903334,42.051651 c -0.285,-0.695 -0.507,-1.421 -0.658,-2.174 -0.004,-0.016 -0.005,-0.033 -0.007,-0.048 -0.149,-0.754 -0.231,-1.532 -0.231,-2.33 0,-0.426 0.024,-0.845 0.067,-1.258 0.01,-0.097 0.031,-0.19 0.043,-0.287 0.041,-0.316 0.085,-0.631 0.149,-0.939 0.019,-0.089 0.048,-0.175 0.067,-0.265 0.074,-0.311 0.152,-0.622 0.248,-0.925 0.021,-0.063 0.047,-0.123 0.069,-0.187 0.11,-0.324 0.228,-0.646 0.365,-0.957 0.015,-0.036 0.035,-0.07 0.051,-0.106 0.15,-0.336 0.313,-0.666 0.493,-0.983 0.008,-0.013 0.016,-0.025 0.022,-0.037 0.591,-1.035 1.33,-1.977 2.189,-2.794 l -34.941,8.632 h -0.067 l 34.608,8.447 c -1.037,-1.081 -1.876,-2.354 -2.456,-3.76 -0.005,-0.009 -0.007,-0.019 -0.011,-0.029"
     id="path58"
     style="fill:#676a6a;filter:url(#filter1330)"
     transform="matrix(0.81,0,0,0.81,110.52548,103.17012)" /><path
     inkscape:connector-curvature="0"
     d="m 97.521334,35.505651 c 0.022,-0.156 0.055,-0.302 0.082,-0.454 0.087,-0.497 0.191,-0.981 0.325,-1.441 0.015,-0.052 0.021,-0.111 0.037,-0.162 l 4.558996,-20.876 -0.001,-11.90299988 C 98.798334,-2.4073489 94.809334,-4.0893489 90.656334,-4.0893489 c -5.248,0 -10.141,2.898 -13.8,6.477 -4.004,3.917 -7.098,8.8449999 -9.6,13.8179999 -0.115,0.229 -0.233,0.449 -0.347,0.679 0.771,0.668 1.534,1.345 2.287,2.034 1.704,1.559 3.371,3.159 5.016,4.781 0.766,0.756 1.518,1.528 2.272,2.297 0.8,0.815 1.601,1.628 2.389,2.456 1.013,1.065 2.017,2.139 3.011,3.224 0.419,0.456 0.837,0.914 1.251,1.374 1.199,1.327 2.392,2.66 3.565,4.011 l 0.002,0.002 c 0.197,0.206 0.335,0.354 0.388,0.414 h 10.282 c 0,-0.083 0.017,-0.159 0.018,-0.242 0.01,-0.594 0.051,-1.174 0.131,-1.73"
     id="path60"
     style="fill:#e3dddb;filter:url(#filter1326)"
     transform="matrix(0.81,0,0,0.81,110.52548,103.17012)" /><path
     inkscape:connector-curvature="0"
     d="m 66.908334,16.939651 c -0.004,-0.011 -0.008,-0.022 -0.011,-0.031 -0.006,0.011 -0.012,0.023 -0.018,0.034 0.006,0.006 0.036,0.036 0.045,0.044 -0.005,-0.016 -0.01,-0.031 -0.016,-0.047"
     id="path62"
     style="fill:#e3dddb;filter:url(#filter1322)"
     transform="matrix(0.81,0,0,0.81,110.52548,103.17012)" /><path
     inkscape:connector-curvature="0"
     d="m -57.206666,50.530651 c 0.03,-0.077 0.062,-0.153 0.092,-0.23 0.662,-1.731 1.387,-3.439 2.148,-5.131 0.213,-0.471 0.432,-0.938 0.652,-1.406 0.624,-1.328 1.284,-2.638 1.968,-3.936 0.278,-0.528 0.55,-1.058 0.838,-1.581 0.159,-0.289 0.339,-0.565 0.501,-0.853 0.73,-1.29 1.465,-2.577 2.255,-3.83 0.187,-0.299 0.383,-0.589 0.574,-0.884 0.977,-1.512 1.991,-2.999 3.056,-4.448 0.092,-0.126 0.179,-0.258 0.272,-0.384 1.117,-1.502 2.293,-2.956 3.502,-4.383 0.258,-0.304 0.514,-0.61 0.776,-0.912 1.204,-1.38 2.449,-2.721 3.737,-4.019 0.254,-0.254 0.513,-0.502 0.769,-0.752 1.368,-1.344 2.769,-2.655 4.231,-3.897 0.003,-0.003 0.007,-0.006 0.009,-0.009 5.751,-19.2639999 24.3209997,-31.102 45.142,-31.102 8.38,0 16.714,2.415 23.856,6.784 7.326,4.4810001 12.321,8.8590001 16.199,16.5120001 0.019,0.039 0.039,0.077 0.058,0.115 0.098,0.194 0.208,0.38 0.304,0.576 0.003,0.006 0.007,0.012 0.01,0.019 0.008,0.005 0.015,0.01 0.023,0.015 3.244,1.998 6.339,4.2629999 9.281,6.7449999 0.981,0.828 1.945,1.679 2.892,2.554 0.312,0.286 0.633,0.558 0.941,0.849 0.006,-0.012 0.011,-0.024 0.018,-0.035 0.003,-0.008 0.007,-0.017 0.011,-0.024 0.106,-0.217 0.21,-0.438 0.317,-0.652 2.934,-18.5169999 12.256,-28.614 21.89,-28.614 7.262,0 12.540996,4.3300001 16.527996,15.9860001 l 0.041,0.125 c 0.003,0.004 0.007,0.009 0.01,0.014 1.126,1.223 2.223,2.571 3.287,4.048 l -0.002,-10e-4 c 0.021,0.028 0.043,0.054 0.064,0.083 l -10e-4,-10e-4 10e-4,10e-4 c 0.057,0.169 0.106,0.343 0.161,0.512 v -10e-4 l -0.15,-0.607 C 97.069334,-27.705349 63.509334,-53.251349 23.981334,-53.251349 c -49.58,0 -89.772,40.192 -89.772,89.772 0,9.774 1.562,19.184 4.462,27.94 0.003,-0.016 0.008,-0.033 0.012,-0.051 0.57,-2.641 1.253,-5.266 2.048,-7.863 0.62,-2.024 1.309,-4.032 2.062,-6.016"
     id="path64"
     style="fill:#525353;filter:url(#filter1318)"
     transform="matrix(0.81,0,0,0.81,110.52548,103.17012)" /><path
     inkscape:connector-curvature="0"
     d="m 110.39533,37.512651 -3.131,3.503 v -10e-4 c -0.002,0.008 -0.005,0.015 -0.007,0.023 -0.119,0.461 -0.265,0.891 -0.426,1.306 -0.042,0.109 -0.089,0.212 -0.135,0.318 -0.124,0.294 -0.258,0.572 -0.403,0.837 -0.077,0.142 -0.153,0.286 -0.236,0.419 -0.13,0.208 -0.27,0.397 -0.412,0.583 -0.205,0.267 -0.421,0.507 -0.648,0.719 -0.093,0.087 -0.183,0.182 -0.281,0.26 -0.175,0.141 -0.358,0.258 -0.544,0.365 -0.072,0.04 -0.142,0.078 -0.214,0.114 -0.449,0.219 -0.92,0.347 -1.41,0.347 -2.844996,0 -5.151996,-3.952 -5.151996,-8.828 h -10.337 c 0.003,0.003 0.004,0.006 0.006,0.008 1.92,2.216 3.806,4.462 5.667,6.73 0.022,0.028 0.044,0.055 0.067,0.082 1.809,2.208 3.591,4.436 5.354,6.679 0.087,0.11 0.173,0.219 0.26,0.329 1.671996,2.132 3.324996,4.278 4.963996,6.43 0.159,0.207 0.319,0.415 0.478,0.624 1.733,2.28 3.45,4.566 5.155,6.855 0.012,0.017 0.023,0.032 0.036,0.048 2.953,-8.738 4.605,-18.073 4.708,-27.785 l -2.906,-0.11 -0.453,0.145"
     id="path66"
     style="fill:#ffffff;filter:url(#filter1314)"
     transform="matrix(0.81,0,0,0.81,110.52548,103.17012)" /><path
     inkscape:connector-curvature="0"
     d="m 10.343334,-3.9473489 c 0.234,-0.018 0.468,-0.032 0.701,-0.048 1.602,-0.109 3.214,-0.178 4.839,-0.178 4.868,0 9.624,0.521 14.25,1.47 h 10e-4 c 3.265,0.769 9.061,2.36200002 13.364,4.179 1.805,0.762 3.58,1.597 5.319,2.499 0.081,0.043 0.218,0.118 0.395,0.215 0.03,0.017 0.075,0.042 0.107,0.06 0.161,0.09 0.337,0.187 0.543,0.304 0.004,0.003 0.009,0.005 0.014,0.008 0.242,0.137 0.506,0.287 0.783,0.443 0.023,0.013 0.046,0.027 0.07,0.04 1.106,0.627 2.33,1.33 2.798,1.598 0.06,0.034 0.088,0.05 0.12,0.069 0.024,0.014 0.076,0.043 0.085,0.049 -0.096,-0.196 -0.206,-0.382 -0.304,-0.576 -0.019,-0.038 -0.039,-0.076 -0.058,-0.115 -3.878,-7.653 -9.848,-14.217 -17.174,-18.6980001 -7.142,-4.369 -15.476,-6.784 -23.857,-6.784 -20.8200003,0 -38.415,14.0240001 -44.166,33.288 5.445,-4.6489999 11.502,-8.5699999 18.021,-11.5469999 7.6019997,-3.47 15.8119997,-5.643 24.149,-6.276"
     id="path68"
     style="fill:#000000;filter:url(#filter1310)"
     transform="matrix(0.81,0,0,0.81,110.52548,103.17012)" /><path
     inkscape:connector-curvature="0"
     d="m 109.04333,7.8726511 -10e-4,-10e-4 10e-4,10e-4 c -0.021,-0.029 -0.043,-0.055 -0.064,-0.083 l 0.002,10e-4 c -1.064,-1.477 -2.161,-2.825 -3.287,-4.048 -0.002,-0.004 -0.006,-0.009 -0.009,-0.012 0.003,0.003 0.007,0.008 0.009,0.012 -0.009,-0.011 -0.019,-0.024 -0.029,-0.035 -0.512,-0.554 -1.027,-1.083 -1.551,-1.585 -0.197,-0.189 -0.401,-0.354 -0.6,-0.535 -0.329,-0.299 -0.656,-0.60799998 -0.99,-0.88199998 V 12.614651 l 4.559,20.878 v -0.001 c 0.05,0.162 0.11,0.314 0.154,0.482 l 3.158,3.539 0.031,-0.035 h 3.305 c 0.004,-0.306 0.023,-0.608 0.023,-0.915 v -0.005 c -10e-4,-9.847 -1.619,-19.309 -4.55,-28.1739999 v 10e-4 c -0.055,-0.169 -0.104,-0.343 -0.161,-0.512"
     id="path70"
     style="fill:#bbbcbd;filter:url(#filter1306)"
     transform="matrix(0.81,0,0,0.81,110.52548,103.17012)" /><path
     inkscape:connector-curvature="0"
     d="m 76.856334,2.3876511 c 3.659,-3.579 8.552,-6.477 13.8,-6.477 4.153,0 8.142,1.682 11.866996,4.75900002 0,0 0.001,0.027 0.001,0.036 v 0.006 -0.006 c 0.334,0.274 0.661,0.58299998 0.99,0.88199998 0.199,0.181 0.403,0.346 0.6,0.535 0.524,0.502 1.039,1.031 1.551,1.585 0.01,0.011 0.02,0.024 0.029,0.035 -0.002,-0.004 -0.006,-0.009 -0.009,-0.012 l -10e-4,-0.001 -0.041,-0.126 c -3.987,-11.656 -10.419996,-19.2290001 -17.679996,-19.2290001 -9.635,0 -17.804,13.3400001 -20.738,31.857 l 0.031,-0.026 c 2.502,-4.973 5.596,-9.9009999 9.6,-13.8179999"
     id="path72"
     style="fill:#000000;filter:url(#filter1302)"
     transform="matrix(0.81,0,0,0.81,110.52548,103.17012)" /><path
     inkscape:connector-curvature="0"
     d="m 63.837334,116.19365 c 0,0 -1.297,-1.028 -2.944,-2.923 -0.386,-0.444 -0.784,-0.919 -1.198,-1.46 -0.311,-0.405 -0.626,-0.838 -0.941,-1.297 -0.21,-0.306 -0.418,-0.624 -0.625,-0.952 -0.623,-0.985 -1.12,-2.184 -1.668,-3.369 -0.634,-1.372 -0.636,-2.285 -1,-3.563 -0.26,-0.914 -0.476,-1.869 -0.637,-2.862999 -0.241,-1.49 -0.356,-3.068 -0.303,-4.728 0.028,-0.913 0.122,-1.858 0.259,-2.82 0.132,-0.925 0.314,-1.872 0.557,-2.839 0.726,-2.903 1.981,-5.995 3.939,-9.259 0.005,-0.009 0.493,-1.109 0.498,-1.118 0.64,-1.066 0.782,-1.019 1.39,-2.046 8.564,-14.453 13.184,-25.382 10.924,-42.21 -0.162,-1.201 -0.603,-3.892 -0.844,-5.156 -0.128,0.874 -0.611,3.659 -0.625,3.719 -0.085,0.384 -0.318,0.801 -0.406,1.062 -3.72,11.01 -9.576,19.109 -18.002,28.254 -1.142,1.239 -2.338,2.496 -3.562,3.765 -2.06,2.135 -4.22,4.316 -6.505,6.59 -0.912,0.907 -1.842,1.827 -2.788,2.765 -0.869,0.86 -1.95,2.699 -3.24,4.054 -0.796,2.229 -1.701,4.743 -2.466,7.387 -0.345,-0.131 -0.674,-0.248 -1.025,-0.384 -16.368,-6.331 -27.3270003,-14.79 -27.3270003,-14.79 0,0 8.4320003,10.979 22.6380003,21.285 1.375,0.998 2.731,1.862 4.059,2.628 -0.586,9.275999 3.506,18.180999 21.977,20.836999 3.123,0.449 6.321,0.428 9.542,0.065 -0.032,-0.096 0.18,-0.094 0.163,-0.147 -0.018,-0.054 0.172,-0.196 0.172,-0.196"
     id="path74"
     style="fill:#000000;filter:url(#filter1298)"
     transform="matrix(0.81,0,0,0.81,110.52548,103.17012)" /><path
     inkscape:connector-curvature="0"
     d="m 53.957334,92.316651 c 16.398,2.646 40.667,2.212 65.860996,-9.584 0.607,-0.284 1.276,0.464 1.883,0.166 0,0 -17.219,17.586999 -37.782996,27.529999 -0.601,0.29 -1.194,0.599 -1.801,0.875 -1.987,0.908 -4.008,1.699 -6.037,2.429 -3.979,1.43 -8.011,2.515 -12.014,3.016 -0.184,0.024 -0.368,0.059 -0.552,0.079 -0.032,-0.096 -0.058,-0.174 -0.075,-0.227 -0.018,-0.054 -0.027,-0.083 -0.027,-0.083 0,0 -1.298,-1.029 -2.945,-2.924 -0.386,-0.444 -0.784,-0.919 -1.197,-1.46 -0.311,-0.405 -0.626,-0.838 -0.941,-1.297 -0.21,-0.306 -0.419,-0.624 -0.626,-0.952 -0.622,-0.985 -1.227,-2.074 -1.775,-3.258 -0.547,-1.184 -1.037,-2.465 -1.427,-3.837 -0.261,-0.914 -0.477,-1.869 -0.638,-2.862999 -0.241,-1.491 -0.355,-3.068 -0.303,-4.728 0.028,-0.914 0.122,-1.858 0.259,-2.82 l 0.138,-0.062"
     id="path76"
     style="fill:#9f2254;filter:url(#filter1294)"
     transform="matrix(0.81,0,0,0.81,110.52548,103.17012)" /><path
     inkscape:connector-curvature="0"
     d="m 42.204334,73.647651 c 2.286,-2.274 4.446,-4.455 6.506,-6.59 1.223,-1.269 2.42,-2.526 3.562,-3.765 8.425,-9.145 14.61,-17.703 18.331,-28.713 0.087,-0.261 0.175,-0.605 0.26,-0.992 0.014,-0.06 0.027,-0.117 0.04,-0.179 0.087,-0.411 0.172,-0.868 0.257,-1.383 0.034,-0.355 1.147,-1.071 1.178,-1.404 -0.933,-4.794 -3.083,-9.834 -5.43,-13.682 0.006,0.016 0.011,0.031 0.016,0.047 -0.009,-0.008 -0.039,-0.038 -0.045,-0.044 -0.308,-0.291 -0.629,-0.563 -0.941,-0.849 -0.947,-0.875 -1.911,-1.726 -2.892,-2.554 -2.943,-2.482 -6.037,-4.7469999 -9.281,-6.7449999 0.164,2.694 0.269,5.3849999 0.297,8.0729999 0.004,0.302 -0.004,0.603 -0.004,0.904 0.005,1.043 0.008,2.087 -0.012,3.13 -0.026,1.343 -0.073,2.687 -0.142,4.029 -0.051,0.992 -0.114,1.982 -0.191,2.973 -0.008,0.103 -0.02,0.206 -0.027,0.309 -0.301,3.754 -0.776,7.492 -1.457,11.181 l -1.184,5.599 c -2.473,10.026 -7.496,19.12 -11.626,28.51 -1.095,2.49 -2.134,5.008 -3.045,7.573 -0.083,0.235 -0.172,0.482 -0.258,0.724 1.29,-1.355 2.432,-2.527 3.3,-3.387 0.947,-0.937 1.877,-1.858 2.788,-2.765"
     id="path78"
     style="fill:#fcb03f;filter:url(#filter1290)"
     transform="matrix(0.81,0,0,0.81,110.52548,103.17012)" /><path
     inkscape:connector-curvature="0"
     d="m -11.983666,127.57065 c 6.0089997,-2.658 11.5699997,-4.327 18.1799997,-5.63 -0.038,-1.435 -0.103,-2.866 -0.224,-4.288 2.831,-7.344 5.4440003,-14.735 7.8080003,-22.167999 -4.2150003,0.409 -8.3990003,1.059 -12.5340003,1.937 -3.067,0.651 -6.093,1.469 -9.094,2.373 -2.4109997,0.725999 -4.7899997,1.559999 -7.1499997,2.446999 l 9.3309997,2.26 -7.5079997,23.566 1.191,-0.497"
     id="path80"
     style="fill:#525353;filter:url(#filter1286)"
     transform="matrix(0.81,0,0,0.81,110.52548,103.17012)" /><path
     inkscape:connector-curvature="0"
     d="m 103.37733,57.735651 c -1.639,-2.152 -3.292,-4.298 -4.963996,-6.43 -0.086,-0.11 -0.174,-0.219 -0.26,-0.329 -1.763,-2.243 -3.545,-4.471 -5.354,-6.679 -0.023,-0.027 -0.045,-0.054 -0.067,-0.082 -1.861,-2.268 -3.747,-4.514 -5.667,-6.73 -0.121,-0.141 -0.242,-0.284 -0.365,-0.424 -1.173,-1.351 -2.366,-2.684 -3.565,-4.011 -0.415,-0.459 -0.832,-0.918 -1.251,-1.374 -0.994,-1.085 -1.998,-2.159 -3.011,-3.224 -0.789,-0.827 -1.588,-1.642 -2.389,-2.456 -0.754,-0.769 -1.506,-1.541 -2.272,-2.297 -1.646,-1.621 -3.312,-3.222 -5.016,-4.781 -0.754,-0.689 -1.517,-1.367 -2.288,-2.035 -0.004,0.007 -0.008,0.016 -0.011,0.024 1.622,4.662 3.473,9.382 4.4,14.244 0.241,1.265 0.44,2.495 0.602,3.697 2.26,16.827 -3.132,27.814 -11.695,42.267 -0.615,1.036 -1.244,2.09 -1.889,3.164 -1.958,3.266 -3.212,6.357 -3.939,9.26 -0.242,0.967 -0.425,1.914 -0.557,2.839 16.793,2.71 42.045,3.215 67.881996,-9.48 0,0 -5.067,-7.447 -12.691,-17.684 -1.705,-2.289 -3.422,-4.575 -5.155,-6.855 -0.158,-0.209 -0.319,-0.417 -0.478,-0.624"
     id="path82"
     style="fill:#df0067;filter:url(#filter1282)"
     transform="matrix(0.81,0,0,0.81,110.52548,103.17012)" /><path
     inkscape:connector-curvature="0"
     d="m -14.066666,132.27965 8.3999997,-27.778 -9.3309997,-2.26 c -2.09,0.785 -4.161,1.622 -6.205,2.532 l -8.319,27.506 9.287,0.145 6.168,-0.145"
     id="path84"
     style="fill:#aa9678;filter:url(#filter1278)"
     transform="matrix(0.81,0,0,0.81,110.52548,103.17012)" /><path
     inkscape:connector-curvature="0"
     d="m -8.1616663,120.26165 c 0.82,0.315 1.654,0.599 2.486,0.89 9.285,3.255 19.2590003,5.047 29.6580003,5.047 11.857,0 23.166,-2.322 33.528,-6.498 0.548,-0.22 1.085,-0.462 1.627,-0.693 0.88,-0.375 1.754,-0.76 2.619,-1.161 0.774,-0.36 1.548,-0.717 2.31,-1.098 -0.184,0.024 -0.368,0.059 -0.552,0.079 -3.221,0.363 -6.419,0.384 -9.542,-0.065 -18.471,-2.656 -22.563,-11.561 -21.977,-20.836999 -1.328,-0.766 -2.684,-1.63 -4.059,-2.628 -14.206,-10.306 -22.6380003,-21.285 -22.6380003,-21.285 0,0 10.9590003,8.459 27.3270003,14.79 0.351,0.136 0.68,0.253 1.025,0.384 0.765,-2.644 1.67,-5.158 2.466,-7.387 0.086,-0.242 0.175,-0.489 0.258,-0.724 0.911,-2.565 1.95,-5.083 3.045,-7.573 4.13,-9.39 9.153,-18.484 11.626,-28.51 l 1.184,-5.599 h -10.102 l -10e-4,0.001 c 0,0.006 10e-4,0.013 10e-4,0.02 l -0.004,0.002 c 0,0.027 0.004,0.054 0.004,0.083 0,1.665 -0.338,3.251 -0.948,4.694 -0.305,0.722 -0.679,1.407 -1.112,2.049 -0.867,1.282 -1.974,2.39 -3.258,3.257 -0.641,0.434 -1.327,0.807 -2.048,1.111 -1.443,0.611 -3.029,0.949 -4.694,0.949 -0.423,0 -0.841,-0.023 -1.252,-0.066 -0.097,-0.01 -0.19,-0.031 -0.286,-0.043 -0.316,-0.041 -0.63,-0.084 -0.935,-0.147 -0.086,-0.019 -0.168,-0.046 -0.253,-0.066 -0.314,-0.072 -0.628,-0.15 -0.932,-0.247 -0.056,-0.019 -0.11,-0.042 -0.166,-0.061 -0.329,-0.111 -0.656,-0.23 -0.972,-0.368 -0.029,-0.012 -0.056,-0.027 -0.084,-0.04 -0.341,-0.152 -0.676,-0.316 -1,-0.498 l -0.015,-0.009 c -1.038,-0.586 -1.982,-1.319 -2.802,-2.174 l -34.608,-8.447 h -37.77 c -0.162,0.288 -0.342,0.564 -0.501,0.853 -0.288,0.523 -0.56,1.054 -0.838,1.581 -0.684,1.298 -1.344,2.608 -1.968,3.936 -0.22,0.467 -0.439,0.935 -0.652,1.406 -0.761,1.692 -1.486,3.4 -2.148,5.131 -0.03,0.077 -0.062,0.153 -0.092,0.23 -0.753,1.984 -1.442,3.992 -2.062,6.016 -0.795,2.597 -1.478,5.222 -2.048,7.863 5.946,18.136 17.515,33.72 32.638,44.703999 0.44,0.319 0.904,0.603 1.35,0.915 2.558,1.788 5.201,3.461 7.943,4.979 3.6,1.995 7.342,3.764 11.2239997,5.254"
     id="path86"
     style="fill:#ffffff;filter:url(#filter1274)"
     transform="matrix(0.81,0,0,0.81,110.52548,103.17012)" /><path
     inkscape:connector-curvature="0"
     d="m 82.398334,141.73165 c -0.232,-2.386 -0.376,-4.792 -0.376,-7.224 0,-1.462 -1.185,-2.649 -2.648,-2.649 h -111.112 c -1.463,0 -2.649,1.187 -2.649,2.649 0,2.432 -0.143,4.838 -0.376,7.224 -0.258,2.639 -0.665,5.243 -1.199,7.808 1.611,0.852 3.235,1.681 4.887,2.467 1.086,-4.772 1.756,-9.675 1.932,-14.678 0.003,-0.057 0.009,-0.115 0.011,-0.172 h 105.9 c 0.002,0.057 0.008,0.115 0.01,0.172 0.177,5.003 0.847,9.906 1.933,14.678 1.652,-0.786 3.276,-1.615 4.887,-2.467 -0.534,-2.565 -0.941,-5.169 -1.2,-7.808"
     id="path88"
     style="fill:#8b7460;filter:url(#filter1270)"
     transform="matrix(0.81,0,0,0.81,110.52548,103.17012)" /></svg>