<?xml version="1.0" encoding="UTF-8" standalone="no"?>
<svg
   xmlns:dc="http://purl.org/dc/elements/1.1/"
   xmlns:cc="http://creativecommons.org/ns#"
   xmlns:rdf="http://www.w3.org/1999/02/22-rdf-syntax-ns#"
   xmlns:svg="http://www.w3.org/2000/svg"
   xmlns="http://www.w3.org/2000/svg"
   xmlns:sodipodi="http://sodipodi.sourceforge.net/DTD/sodipodi-0.dtd"
   xmlns:inkscape="http://www.inkscape.org/namespaces/inkscape"
   enable-background="new 0 0 200 200"
   height="200px"
   id="Layer_1"
   version="1.0"
   viewBox="0 0 200 200"
   width="200px"
   xml:space="preserve"
   sodipodi:docname="promotion.svg"
   inkscape:version="0.92.2 (5c3e80d, 2017-08-06)"><metadata
     id="metadata2558"><rdf:RDF><cc:Work
         rdf:about=""><dc:format>image/svg+xml</dc:format><dc:type
           rdf:resource="http://purl.org/dc/dcmitype/StillImage" /></cc:Work></rdf:RDF></metadata><defs
     id="defs2556" /><sodipodi:namedview
     pagecolor="#ffffff"
     bordercolor="#666666"
     borderopacity="1"
     objecttolerance="10"
     gridtolerance="10"
     guidetolerance="10"
     inkscape:pageopacity="0"
     inkscape:pageshadow="2"
     inkscape:window-width="1920"
     inkscape:window-height="1017"
     id="namedview2554"
     showgrid="false"
     inkscape:zoom="1.4990664"
     inkscape:cx="154.2802"
     inkscape:cy="77.103618"
     inkscape:window-x="-8"
     inkscape:window-y="-8"
     inkscape:window-maximized="1"
     inkscape:current-layer="Layer_1" /><g
     id="New_Symbol" /><g
     id="New_Symbol_1_" /><g
     id="New_Symbol_1" /><g
     id="New_Symbol_9_2_" /><g
     id="New_Symbol_7" /><g
     id="New_Symbol_9_1_" /><g
     id="New_Symbol_9" /><g
     id="Nuevo_símbolo" /><g
     id="New_Symbol_10" /><g
     id="New_Symbol_12" /><g
     id="New_Symbol_14" /><g
     id="New_Symbol_15" /><g
     id="New_Symbol_16" /><g
     id="New_Symbol_17_1_" /><g
     id="New_Symbol_18" /><g
     id="New_Symbol_19" /><g
     id="New_Symbol_17" /><g
     id="g2551"
     transform="matrix(1.21,0,0,1.21,-20.960625,-21.033254)"
     style="fill:#00c3d7;fill-opacity:1"><polygon
       points="158.7,179 172.7,179 172.7,165 169.7,165 169.7,176 158.7,176 "
       id="polygon2517"
       style="fill:#00c3d7;fill-opacity:1" /><rect
       height="3"
       width="30"
       x="117.7"
       y="176"
       id="rect2519"
       style="fill:#00c3d7;fill-opacity:1" /><rect
       height="3"
       width="30"
       x="75.699997"
       y="176"
       id="rect2521"
       style="fill:#00c3d7;fill-opacity:1" /><polygon
       points="50.7,179 64.7,179 64.7,176 53.7,176 53.7,165 50.7,165 "
       id="polygon2523"
       style="fill:#00c3d7;fill-opacity:1" /><rect
       height="31"
       width="3"
       x="50.700001"
       y="121"
       id="rect2525"
       style="fill:#00c3d7;fill-opacity:1" /><rect
       height="3"
       width="30"
       x="118.7"
       y="95"
       id="rect2527"
       style="fill:#00c3d7;fill-opacity:1" /><polygon
       points="169.7,98 169.7,109 172.7,109 172.7,95 158.7,95 158.7,98 "
       id="polygon2529"
       style="fill:#00c3d7;fill-opacity:1" /><rect
       height="31"
       width="3"
       x="169.7"
       y="122"
       id="rect2531"
       style="fill:#00c3d7;fill-opacity:1" /><path
       d="M 100.5,166.8 132.3,112 123,107 91.5,161.5 Z m 23.4,-56.4 4.9,2.6 -29.3,50.4 -4.7,-2.7 z"
       id="path2533"
       inkscape:connector-curvature="0"
       style="fill:#00c3d7;fill-opacity:1" /><path
       d="m 105.8,112.3 c -1.1,-1.4 -2.5,-2.6 -4.1,-3.4 -1.6,-0.9 -3.6,-1.3 -5.8,-1.3 -2.2,0 -4.1,0.4 -5.7,1.3 -1.6,0.8 -3,2 -4.1,3.4 -1.1,1.4 -1.8,3.1 -2.4,4.9 -0.5,1.8 -0.7,3.7 -0.7,5.7 0,4.4 1.1,8.1 3.1,10.9 2.2,3 5.5,4.5 9.8,4.5 2.1,0 4,-0.4 5.6,-1.2 1.6,-0.8 3,-1.9 4.1,-3.3 1.1,-1.4 1.9,-3 2.5,-4.9 0.5,-1.8 0.8,-3.8 0.8,-6 0,-2 -0.3,-3.9 -0.7,-5.7 -0.5,-1.9 -1.3,-3.5 -2.4,-4.9 z m 0,15.8 c -0.5,1.6 -1.1,2.9 -2,4 -0.9,1.1 -2,2 -3.2,2.6 -1.3,0.6 -2.8,0.9 -4.5,0.9 -3.5,0 -6.1,-1.1 -7.8,-3.5 -1.8,-2.4 -2.7,-5.6 -2.7,-9.4 0,-1.8 0.2,-3.5 0.7,-5.1 0.4,-1.5 1.1,-2.9 1.9,-4.1 0.8,-1.1 1.9,-2 3.2,-2.7 1.3,-0.7 2.8,-1 4.6,-1 1.8,0 3.3,0.3 4.6,1 1.3,0.7 2.4,1.6 3.3,2.8 0.9,1.2 1.6,2.5 2,4 0.4,1.6 0.7,3.3 0.7,5 -0.1,2.2 -0.4,3.9 -0.8,5.5 z"
       id="path2535"
       inkscape:connector-curvature="0"
       style="fill:#00c3d7;fill-opacity:1" /><path
       d="m 122.8,156.4 c 0.4,0.9 1.1,1.6 1.8,2.2 0.8,0.6 1.8,0.9 3,0.9 1.1,0 2.1,-0.3 3,-0.9 0.8,-0.6 1.4,-1.3 1.9,-2.2 0.4,-0.8 0.8,-1.8 1,-2.8 0.2,-1 0.3,-2 0.3,-2.9 0,-1 -0.1,-1.9 -0.3,-2.9 -0.2,-1 -0.5,-1.9 -1,-2.8 -0.5,-0.9 -1.1,-1.6 -1.9,-2.2 -0.8,-0.6 -1.8,-0.9 -3,-0.9 -1.1,0 -2.1,0.3 -3,0.9 -0.8,0.6 -1.4,1.3 -1.8,2.2 -0.4,0.8 -0.7,1.7 -0.9,2.7 -0.2,1 -0.3,1.9 -0.3,2.9 0,1 0.1,1.9 0.3,2.9 0.2,1.1 0.5,2 0.9,2.9 z m 1.6,-8.2 c 0.1,-0.8 0.4,-1.5 0.7,-2.1 0.3,-0.5 0.6,-1 1.1,-1.3 0.4,-0.3 0.9,-0.4 1.5,-0.4 0.6,0 1.1,0.1 1.5,0.4 0.5,0.3 0.8,0.8 1.1,1.3 0.3,0.6 0.6,1.3 0.7,2 0.2,0.8 0.2,1.6 0.2,2.4 0,0.8 -0.1,1.6 -0.2,2.5 -0.1,0.8 -0.4,1.5 -0.7,2.1 -0.3,0.6 -0.7,1 -1.1,1.3 -0.4,0.3 -0.9,0.4 -1.5,0.4 -0.6,0 -1.1,-0.1 -1.5,-0.4 -0.4,-0.3 -0.8,-0.7 -1.1,-1.3 -0.3,-0.6 -0.5,-1.3 -0.7,-2.1 -0.2,-0.8 -0.2,-1.7 -0.2,-2.5 -0.1,-0.6 0,-1.5 0.2,-2.3 z"
       id="path2537"
       inkscape:connector-curvature="0"
       style="fill:#00c3d7;fill-opacity:1" /><path
       d="m 100.8,117.2 c -0.5,-0.9 -1.1,-1.6 -1.9,-2.2 -0.8,-0.6 -1.8,-0.9 -3,-0.9 -1.1,0 -2.1,0.3 -3,0.9 -0.8,0.6 -1.4,1.3 -1.8,2.2 -0.4,0.8 -0.7,1.7 -0.9,2.7 -0.2,1 -0.3,1.9 -0.3,2.9 0,1 0.1,1.9 0.3,2.9 0.2,1 0.5,2 0.9,2.8 0.4,0.9 1.1,1.6 1.8,2.2 0.8,0.6 1.8,0.9 3,0.9 1.1,0 2.1,-0.3 3,-0.9 0.8,-0.5 1.4,-1.3 1.9,-2.2 0.4,-0.8 0.8,-1.8 1,-2.8 0.2,-1 0.3,-2 0.3,-2.9 0,-1 -0.1,-1.9 -0.3,-2.9 -0.2,-0.9 -0.6,-1.9 -1,-2.7 z m -1.5,8.1 c -0.1,0.8 -0.4,1.5 -0.7,2.1 -0.3,0.6 -0.7,1 -1.1,1.3 -0.4,0.3 -0.9,0.4 -1.5,0.4 -0.6,0 -1.1,-0.1 -1.5,-0.4 -0.4,-0.3 -0.8,-0.7 -1.1,-1.3 -0.3,-0.6 -0.5,-1.3 -0.7,-2.1 -0.2,-0.8 -0.2,-1.7 -0.2,-2.5 0,-0.8 0.1,-1.6 0.2,-2.4 0.1,-0.8 0.4,-1.5 0.7,-2.1 0.3,-0.5 0.6,-1 1.1,-1.3 0.4,-0.3 0.9,-0.4 1.5,-0.4 0.6,0 1.1,0.1 1.5,0.4 0.5,0.3 0.8,0.8 1.1,1.3 0.3,0.6 0.6,1.3 0.7,2 0.2,0.8 0.2,1.6 0.2,2.4 0,1 0,1.8 -0.2,2.6 z"
       id="path2539"
       inkscape:connector-curvature="0"
       style="fill:#00c3d7;fill-opacity:1" /><path
       d="m 127.6,166.1 c 2.1,0 4,-0.4 5.6,-1.2 1.6,-0.8 3,-1.9 4.1,-3.3 1.1,-1.4 1.9,-3 2.5,-4.9 0.5,-1.8 0.8,-3.8 0.8,-6 0,-2 -0.3,-3.9 -0.8,-5.7 -0.5,-1.8 -1.3,-3.5 -2.4,-4.9 -1.1,-1.4 -2.5,-2.6 -4.1,-3.4 -1.6,-0.9 -3.6,-1.3 -5.8,-1.3 -2.2,0 -4.1,0.4 -5.7,1.3 -1.6,0.8 -3,2 -4.1,3.4 -1.1,1.4 -1.8,3.1 -2.4,4.9 -0.5,1.8 -0.7,3.7 -0.7,5.7 0,4.4 1.1,8.1 3.1,10.9 2.3,3 5.6,4.5 9.9,4.5 z m -9.8,-20.5 c 0.4,-1.6 1.1,-2.9 2,-4.1 0.8,-1.1 1.9,-2 3.2,-2.7 1.3,-0.7 2.8,-1 4.6,-1 1.8,0 3.3,0.3 4.6,1 1.3,0.7 2.4,1.6 3.3,2.8 0.9,1.2 1.6,2.5 2,4 0.4,1.6 0.7,3.3 0.7,5 0,1.9 -0.2,3.7 -0.7,5.3 -0.5,1.5 -1.1,2.9 -2,4 -0.9,1.1 -2,2 -3.2,2.6 -1.3,0.6 -2.8,0.9 -4.5,0.9 -3.5,0 -6.1,-1.1 -7.8,-3.5 -1.8,-2.4 -2.7,-5.6 -2.7,-9.4 -0.1,-1.6 0.1,-3.3 0.5,-4.9 z"
       id="path2541"
       inkscape:connector-curvature="0"
       style="fill:#00c3d7;fill-opacity:1" /><path
       d="m 80.7,82.1 c 0.9,0.5 1.9,0.8 2.9,0.8 0.5,0 1.1,-0.1 1.6,-0.2 1.5,-0.4 2.8,-1.4 3.5,-2.8 v 0 c 1.6,-2.8 0.6,-6.4 -2.2,-8 -2.8,-1.6 -6.4,-0.6 -8,2.2 -0.8,1.4 -1,2.9 -0.5,4.5 0.3,1.5 1.3,2.7 2.7,3.5 z m 0.4,-6.5 c 0.5,-0.9 1.5,-1.5 2.5,-1.5 0.5,0 1,0.1 1.4,0.4 1.4,0.8 1.9,2.5 1.1,3.9 -0.4,0.7 -1,1.1 -1.7,1.4 -0.7,0.2 -1.5,0.1 -2.2,-0.3 -0.7,-0.4 -1.1,-1 -1.3,-1.7 -0.3,-0.8 -0.2,-1.6 0.2,-2.2 z"
       id="path2543"
       inkscape:connector-curvature="0"
       style="fill:#00c3d7;fill-opacity:1" /><path
       d="m 45.6,81.2 c -1.5,-1.2 -3.3,-1.7 -5.2,-1.5 -2.2,0.3 -4.2,1.6 -5.3,3.6 -0.7,1.3 -1,2.8 -0.9,4.3 0.2,1.9 1.2,3.5 2.7,4.7 1.3,1 2.8,1.5 4.3,1.5 0.3,0 0.6,0 0.9,-0.1 2.2,-0.3 4.2,-1.6 5.3,-3.6 0.7,-1.3 1,-2.8 0.9,-4.3 C 48,84 47.1,82.3 45.6,81.2 Z m -0.9,7.5 v 0 c -1,1.1 -1.8,1.9 -3,2.1 -1.1,0.1 -2.1,-0.2 -3,-0.8 -0.9,-0.7 -1.4,-1.7 -1.5,-2.7 -0.1,-0.9 0.1,-1.7 0.5,-2.5 0.6,-1.1 1.8,-1.9 3.1,-2.1 0.2,0 0.3,0 0.5,0 0.9,0 1.8,0.3 2.5,0.9 0.8,0.7 1.4,1.6 1.5,2.7 0,0.8 -0.6,1.7 -0.6,2.4 z"
       id="path2545"
       inkscape:connector-curvature="0"
       style="fill:#00c3d7;fill-opacity:1" /><path
       d="m 82.8,95 h -6.1 v 3 h 30 v -3 h -3.4 l -7.2,-11.2 41.1,-1.3 4.3,-0.1 -1.7,-3.9 c -0.4,-0.8 -2.4,-4.8 -6.4,-5.9 -1.9,-0.5 -17.4,-2.4 -46,-5.4 -1,-3.2 -1.6,-6.2 -1.6,-6.2 0,-0.1 -1.2,-6.8 -1,-16 0,-1.8 0.1,-3.3 0.1,-4.5 v -0.9 c 0,-1 -0.1,-1.8 -0.1,-2.4 0.1,-1.8 -0.3,-4.8 -1.5,-7.4 C 80,22.6 71.4,19.3 64.2,22.6 c -2.8,1.3 -5.1,3.4 -6.6,6 -2.2,4 -2.5,8.8 -0.6,13 0.8,1.7 1.9,3.3 3.2,4.5 0.9,1 1.7,1.7 2.4,2.3 l 0.9,-1.2 -0.8,1.3 c 1.1,0.9 2.3,1.9 4.4,4.5 4.2,5.2 6.5,11.9 6.5,11.9 V 65 c 0.6,1.6 0.8,3.9 0.6,6.6 -2.3,1.6 -4.4,2.7 -6,3 v 0 c 0,0 -0.1,0 -0.1,0 -1.7,0.3 -7.7,1.4 -13.5,0.6 -3.5,-0.5 -4.9,-1 -6.2,-1.5 -1,-0.4 -2,-0.7 -3.2,-0.9 -1.8,-0.5 -3.7,-0.6 -5.7,-0.4 -4.5,0.6 -8.5,3.3 -10.7,7.3 -1.5,2.7 -2.1,5.7 -1.8,8.8 0.9,7.3 7.1,12.7 14.3,12.7 0.6,0 1.2,0 1.7,-0.1 2.8,-0.3 5.5,-1.6 7,-2.6 0.2,-0.2 0.5,-0.3 0.8,-0.5 v 11 h 3 V 98 h 11 v -3 h -9.2 c 0.4,-0.2 0.7,-0.4 1,-0.7 7.8,-4.9 14.1,-7.2 14.1,-7.2 v 0 c 0,0 0.2,0 0.3,-0.1 2.1,-0.8 4.2,-1.4 6,-1.9 2.1,3 4.6,7.6 5.8,9.9 z M 69.9,84.2 h -0.2 v 0 c -1,0.3 -7.1,2.7 -14.8,7.6 -1.1,0.7 -1.9,1.2 -2.7,1.7 l -1,0.6 c -1,0.6 -2.1,1.3 -3,1.8 -1.3,0.8 -3.6,1.9 -5.7,2.1 -6.2,0.8 -11.9,-3.7 -12.7,-10 -0.3,-2.4 0.2,-4.8 1.4,-6.9 1.8,-3.1 4.9,-5.3 8.5,-5.8 1.6,-0.2 3.2,-0.1 4.6,0.3 h 0.1 c 1,0.2 1.8,0.5 2.7,0.8 1.4,0.5 3,1.1 6.8,1.6 6.2,0.8 12.5,-0.2 14.4,-0.6 h 0.1 c 2.3,-0.4 4.9,-1.7 7.8,-3.9 l 0.5,-0.4 0.1,-0.7 c 0.3,-3.5 0.1,-6.5 -0.7,-8.7 v 0 C 75.8,62.8 73.4,56.2 69.1,50.9 66.8,48 65.4,46.9 64.3,46 l -0.1,-0.1 c -0.7,-0.6 -1.4,-1.1 -2.1,-2 V 44 c -1,-0.9 -1.9,-2.2 -2.5,-3.6 -1.5,-3.3 -1.3,-7.2 0.5,-10.3 1.2,-2.1 3,-3.8 5.2,-4.8 5.7,-2.6 12.5,0 15.1,5.7 0.9,1.9 1.3,4.4 1.3,6 0,0.7 0.1,1.6 0.1,2.6 v 0.9 c 0,1.2 -0.1,2.9 -0.1,4.7 -0.1,9 0.9,15.9 1.1,16.9 v 0 c 0,0 0.8,3.6 2,7.3 l 0.3,0.8 h 1 c 38.2,4.1 45.5,5.1 46.5,5.4 2.5,0.7 4,3.2 4.4,4 L 90.7,81 99.8,95 H 86.2 C 86,94.6 81.9,86.5 78.9,82.5 l -0.6,-0.8 -1,0.2 c -2.2,0.5 -4.8,1.3 -7.4,2.3 z"
       id="path2547"
       inkscape:connector-curvature="0"
       style="fill:#00c3d7;fill-opacity:1" /><path
       d="m 72.5,29.1 c -1.8,-0.7 -3.7,-0.6 -5.4,0.2 -1.4,0.6 -2.5,1.6 -3.3,3 -1.1,2 -1.2,4.4 -0.3,6.4 0.8,1.7 2.2,3 3.9,3.7 0.8,0.3 1.7,0.5 2.5,0.5 1,0 1.8,-0.2 2.7,-0.6 1.4,-0.6 3,-1.7 3,-3 v 0 c 1,-2 1.4,-4.4 0.5,-6.4 -0.7,-1.8 -1.9,-3.2 -3.6,-3.8 z m 1,8.6 c -0.4,0.8 -1.1,1.3 -1.9,1.7 -1,0.4 -2.1,0.5 -3.1,0.1 -1,-0.4 -1.8,-1.1 -2.3,-2.1 -0.5,-1.2 -0.5,-2.5 0.2,-3.7 0.4,-0.8 1.1,-1.4 1.9,-1.7 0.5,-0.2 1.1,-0.4 1.7,-0.4 0.5,0 1,0.1 1.5,0.3 1,0.4 1.8,1.1 2.3,2.1 0.4,1.2 0.3,2.6 -0.3,3.7 z"
       id="path2549"
       inkscape:connector-curvature="0"
       style="fill:#00c3d7;fill-opacity:1" /></g></svg>