<?xml version="1.0" encoding="UTF-8" standalone="no"?>
<!-- Generator: Adobe Illustrator 16.0.0, SVG Export Plug-In . SVG Version: 6.00 Build 0)  -->

<svg
   xmlns:dc="http://purl.org/dc/elements/1.1/"
   xmlns:cc="http://creativecommons.org/ns#"
   xmlns:rdf="http://www.w3.org/1999/02/22-rdf-syntax-ns#"
   xmlns:svg="http://www.w3.org/2000/svg"
   xmlns="http://www.w3.org/2000/svg"
   xmlns:sodipodi="http://sodipodi.sourceforge.net/DTD/sodipodi-0.dtd"
   xmlns:inkscape="http://www.inkscape.org/namespaces/inkscape"
   version="1.1"
   id="Layer_1"
   x="0px"
   y="0px"
   width="256px"
   height="256px"
   viewBox="0 0 256 256"
   style="enable-background:new 0 0 256 256;"
   xml:space="preserve"
   sodipodi:docname="react.svg"
   inkscape:version="0.92.3 (2405546, 2018-03-11)"><metadata
     id="metadata15"><rdf:RDF><cc:Work
         rdf:about=""><dc:format>image/svg+xml</dc:format><dc:type
           rdf:resource="http://purl.org/dc/dcmitype/StillImage" /><dc:title /></cc:Work></rdf:RDF></metadata><defs
     id="defs13" /><sodipodi:namedview
     pagecolor="#ffffff"
     bordercolor="#666666"
     borderopacity="1"
     objecttolerance="10"
     gridtolerance="10"
     guidetolerance="10"
     inkscape:pageopacity="0"
     inkscape:pageshadow="2"
     inkscape:window-width="1920"
     inkscape:window-height="1026"
     id="namedview11"
     showgrid="false"
     inkscape:zoom="6.53125"
     inkscape:cx="161.02309"
     inkscape:cy="119.0117"
     inkscape:window-x="0"
     inkscape:window-y="0"
     inkscape:window-maximized="1"
     inkscape:current-layer="Layer_1"
     showguides="false" /><g
     id="g8"
     transform="translate(0.7751196,0.7751196)"
     style="fill:#4a4f55;fill-opacity:1"><path
       style="fill:#4a4f55;fill-opacity:1"
       d="M 30.775391 14.775391 C 21.938391 14.775391 14.775391 21.939391 14.775391 30.775391 L 14.775391 226.77539 C 14.775391 235.61239 21.938391 242.77539 30.775391 242.77539 L 226.77539 242.77539 C 235.61139 242.77539 242.77539 235.61239 242.77539 226.77539 L 242.77539 30.775391 C 242.77539 21.939391 235.61139 14.775391 226.77539 14.775391 L 30.775391 14.775391 z M 169.73828 35.533203 L 169.73828 35.578125 C 173.22753 35.584108 176.42188 36.342853 179.15625 37.941406 C 191.06624 44.783314 193.7692 66.152848 187.6875 93.013672 C 214.04152 101.08037 231.23047 114.0884 231.23047 127.81445 C 231.23047 141.49827 214.12649 154.50752 187.94141 162.57422 C 194.06534 189.35057 191.40486 210.67762 179.53711 217.51953 C 176.74967 219.12442 173.53984 219.88477 169.99219 219.88477 C 158.37784 219.88477 143.17396 211.69111 127.80078 197.41602 C 112.42761 211.77558 97.223725 220.05469 85.609375 220.05469 C 82.061719 220.05469 78.850679 219.29435 76.105469 217.68945 C 64.195481 210.84755 61.492523 189.47606 67.574219 162.61523 C 41.220203 154.54854 24.03125 141.5405 24.03125 127.81445 C 24.03125 114.13064 41.136702 101.16557 67.40625 93.056641 C 61.28232 66.280285 63.942793 44.951283 75.810547 38.109375 C 78.597991 36.504483 81.807813 35.744141 85.355469 35.744141 L 85.355469 35.703125 C 96.969819 35.703125 112.1737 43.896783 127.54688 58.171875 C 142.92005 43.812315 158.12393 35.533203 169.73828 35.533203 z M 169.69727 44.953125 C 160.91339 44.974292 148.00918 51.982213 134.26172 64.759766 C 140.21671 70.968164 146.13044 78.063663 151.83203 85.876953 C 161.33468 86.890569 170.37253 88.453237 178.65039 90.480469 C 179.57954 86.214835 180.34011 82.032496 180.80469 78.0625 C 182.74745 61.929112 180.25554 49.386049 174.51172 46.091797 C 173.20246 45.373819 171.64003 44.994141 169.69727 44.994141 L 169.69727 44.953125 z M 85.355469 45.121094 L 85.355469 45.162109 C 83.412705 45.162109 81.765067 45.501507 80.498047 46.261719 C 74.796457 49.598205 72.347033 62.14005 74.332031 78.273438 C 74.838839 82.2012 75.555962 86.298084 76.527344 90.521484 C 84.805208 88.452018 93.84379 86.890569 103.38867 85.876953 C 109.00579 78.063663 114.91927 71.009179 120.83203 64.800781 C 107.06375 52.088347 94.097907 45.121094 85.355469 45.121094 z M 127.50391 71.431641 C 123.61838 75.486105 119.69169 80.005888 115.89062 84.947266 C 119.73392 84.736096 123.66086 84.652344 127.63086 84.652344 C 131.55862 84.652344 135.44503 84.77833 139.24609 84.947266 C 135.36057 80.005888 131.43167 75.486105 127.50391 71.431641 z M 127.63086 94.111328 C 121.21129 94.111328 114.83388 94.407989 108.54102 94.957031 C 105.03559 99.982877 101.65753 105.38825 98.363281 111.08984 C 95.195731 116.6225 92.239602 122.28205 89.621094 127.94141 C 92.281836 133.60076 95.196466 139.21735 98.40625 144.75 C 101.7005 150.40936 105.11958 155.77298 108.625 160.79883 C 114.87563 161.30564 121.25353 161.60156 127.63086 161.60156 C 134.05043 161.60156 140.42784 161.30685 146.7207 160.75781 C 150.22613 155.73197 153.60614 150.32464 156.90039 144.62305 C 160.06794 139.09039 162.98184 133.43279 165.64258 127.77344 C 162.98184 122.11408 160.06721 116.49554 156.85742 110.96289 C 153.56317 105.30353 150.14214 99.93991 146.63672 94.914062 C 140.38609 94.407254 134.00819 94.111328 127.63086 94.111328 z M 96.251953 96.308594 C 90.212491 97.195508 84.384217 98.335277 78.851562 99.644531 C 80.456456 105.13495 82.399051 110.79377 84.679688 116.45312 C 86.411282 113.0744 88.227158 109.69708 90.169922 106.31836 C 92.112686 102.89741 94.182487 99.560612 96.251953 96.308594 z M 158.92578 96.308594 C 160.99525 99.518378 163.06505 102.81269 165.00781 106.19141 C 166.99281 109.57013 168.80942 112.9494 170.54102 116.32812 C 172.73718 110.71101 174.67953 105.09272 176.24219 99.644531 C 170.70953 98.293043 164.92301 97.195508 158.92578 96.308594 z M 185.36523 102.13672 C 183.00013 110.37235 179.87381 118.9458 175.98828 127.73047 C 179.91604 136.55737 183.08485 145.17331 185.49219 153.45117 C 189.58889 152.14192 193.55928 150.7482 197.19141 149.18555 C 212.14224 142.85045 221.81323 134.44519 221.85547 127.81445 C 221.85547 121.18372 212.18326 112.82265 197.23242 106.44531 C 193.51583 104.88265 189.5464 103.44597 185.36523 102.13672 z M 69.728516 102.17969 C 65.631818 103.48894 61.661421 104.88265 58.029297 106.44531 C 43.078461 112.78041 33.40625 121.18372 33.40625 127.81445 C 33.40625 134.44519 43.078461 142.80821 58.029297 149.18555 C 61.703655 150.7482 65.674303 152.18293 69.855469 153.49219 C 72.220573 145.25656 75.344941 136.68311 79.230469 127.89844 C 75.302707 119.07153 72.135854 110.45755 69.728516 102.17969 z M 127.58984 108.51367 A 19.300938 19.300938 0 0 1 146.89062 127.81445 A 19.300938 19.300938 0 0 1 127.58984 147.11523 A 19.300938 19.300938 0 0 1 108.28906 127.81445 A 19.300938 19.300938 0 0 1 127.58984 108.51367 z M 170.54102 139.13281 C 168.80942 142.51153 166.99355 145.93378 165.05078 149.3125 C 163.10802 152.73345 161.03822 156.07025 158.96875 159.32227 C 165.00821 158.43535 170.83649 157.29485 176.36914 155.94336 C 174.76425 150.45294 172.82165 144.79217 170.54102 139.13281 z M 84.679688 139.30273 C 82.483519 144.91986 80.541174 150.53619 78.978516 155.98438 C 84.51117 157.33586 90.295741 158.43535 96.292969 159.32227 C 94.223503 156.11248 92.197889 152.81817 90.212891 149.43945 C 88.227893 146.06073 86.411282 142.68145 84.679688 139.30273 z M 178.73438 165.06445 C 170.45651 167.13392 161.41793 168.69732 151.87305 169.71094 C 146.25592 177.52423 140.3444 184.57676 134.43164 190.78516 C 148.19992 203.49759 161.16577 210.4668 169.9082 210.4668 C 171.85097 210.4668 173.49665 210.12935 174.76367 209.36914 C 180.46526 206.03265 182.91469 193.48886 180.92969 177.35547 C 180.46511 173.42771 179.70576 169.33009 178.73438 165.06445 z M 76.613281 165.15039 C 75.684133 169.41602 74.923558 173.59641 74.458984 177.56641 C 72.51622 193.69979 75.008129 206.24286 80.751953 209.53711 C 82.018973 210.25509 83.622906 210.6355 85.523438 210.67773 C 94.30811 210.67773 107.23172 203.668 121 190.87109 C 115.04501 184.6627 109.13323 177.5672 103.43164 169.75391 C 93.928992 168.74029 84.891145 167.17762 76.613281 165.15039 z M 115.97461 170.68164 C 119.86014 175.62302 123.78708 180.1428 127.71484 184.19727 C 131.60037 180.1428 135.52902 175.62302 139.33008 170.68164 C 135.48678 170.89281 131.55984 170.97852 127.58984 170.97852 C 123.66208 170.97852 119.77567 170.85058 115.97461 170.68164 z "
       transform="translate(-0.7751196,-0.7751196)"
       id="path4" /></g><g
     transform="matrix(0.42234,0,0,0.42234,-50.173864,2.5909959)"
     id="g3777"><polygon
       style="fill:#61dafb"
       points=""
       id="polygon3771" /><polygon
       style="fill:#61dafb"
       points=""
       id="polygon3775" /></g></svg>