<?xml version="1.0" encoding="UTF-8" standalone="no"?>
<svg
   xmlns:dc="http://purl.org/dc/elements/1.1/"
   xmlns:cc="http://creativecommons.org/ns#"
   xmlns:rdf="http://www.w3.org/1999/02/22-rdf-syntax-ns#"
   xmlns:svg="http://www.w3.org/2000/svg"
   xmlns="http://www.w3.org/2000/svg"
   xmlns:sodipodi="http://sodipodi.sourceforge.net/DTD/sodipodi-0.dtd"
   xmlns:inkscape="http://www.inkscape.org/namespaces/inkscape"
   viewBox="0 0 128 128"
   version="1.1"
   id="svg29"
   sodipodi:docname="simpleCheckout.svg"
   inkscape:version="0.92.2 (unknown)">
  <metadata
     id="metadata33">
    <rdf:RDF>
      <cc:Work
         rdf:about="">
        <dc:format>image/svg+xml</dc:format>
        <dc:type
           rdf:resource="http://purl.org/dc/dcmitype/StillImage" />
      </cc:Work>
    </rdf:RDF>
  </metadata>
  <sodipodi:namedview
     pagecolor="#ffffff"
     bordercolor="#666666"
     borderopacity="1"
     objecttolerance="10"
     gridtolerance="10"
     guidetolerance="10"
     inkscape:pageopacity="0"
     inkscape:pageshadow="2"
     inkscape:window-width="1920"
     inkscape:window-height="1027"
     id="namedview31"
     showgrid="false"
     inkscape:zoom="5.2149125"
     inkscape:cx="1.8494239"
     inkscape:cy="76.838536"
     inkscape:window-x="0"
     inkscape:window-y="0"
     inkscape:window-maximized="1"
     inkscape:current-layer="_25_Campaign_Launch" />
  <defs
     id="defs4">
    <style
       id="style2">.cls-1{fill:#7ad0cb;}.cls-2{fill:#4d91bb;}.cls-3{fill:#c3edf5;}.cls-4{fill:#2175aa;}.cls-5{fill:#4dbab4;}</style>
  </defs>
  <title
     id="title6" />
  <g
     data-name="25 Campaign Launch"
     id="_25_Campaign_Launch">
    <polygon
       class="cls-1"
       points="46 91 64 88 82 91 76 100 52 100 46 91"
       id="polygon8"
       style="fill:#00dcf0;fill-opacity:1" />
    <polygon
       class="cls-2"
       points="46 64 28 82 28 100 46 91 49 76.66 46 64"
       id="polygon10"
       style="fill:#545960;fill-opacity:1" />
    <polygon
       class="cls-2"
       points="82 64 100 82 100 100 82 91 79 74.48 82 64"
       id="polygon12"
       style="fill:#545960;fill-opacity:1" />
    <polygon
       class="cls-3"
       points="82 91 46 91 46 34.29 64 16 82 34.29 82 91"
       id="polygon14"
       style="fill:#00dcf0;fill-opacity:1" />
    <circle
       class="cls-2"
       cx="64"
       cy="53.5"
       r="8"
       id="circle16"
       style="fill:#545960;fill-opacity:1" />
    <path
       class="cls-4"
       d="M58,53.5a8,8,0,0,1,7-7.93,8,8,0,1,0,0,15.86A8,8,0,0,1,58,53.5Z"
       id="path18"
       style="fill:#2b2f32;fill-opacity:1" />
    <rect
       class="cls-2"
       height="9"
       width="9"
       x="59.5"
       y="103"
       id="rect20"
       style="fill:#545960;fill-opacity:1" />
    <polygon
       class="cls-4"
       points="82 64 83.91 91.95 82 91 82 64"
       id="polygon22"
       style="fill:#2b2f32;fill-opacity:1" />
    <polygon
       class="cls-4"
       points="46 64 44.09 91.95 46 91 46 64"
       id="polygon24"
       style="fill:#2b2f32;fill-opacity:1" />
    <polygon
       class="cls-5"
       points="46 91 81.13 92.3 82 91 46 91"
       id="polygon26"
       style="fill:#0097a7;fill-opacity:1" />
  </g>
</svg>
