<?xml version="1.0" encoding="UTF-8" standalone="no"?>
<svg
   xmlns:dc="http://purl.org/dc/elements/1.1/"
   xmlns:cc="http://creativecommons.org/ns#"
   xmlns:rdf="http://www.w3.org/1999/02/22-rdf-syntax-ns#"
   xmlns:svg="http://www.w3.org/2000/svg"
   xmlns="http://www.w3.org/2000/svg"
   xmlns:sodipodi="http://sodipodi.sourceforge.net/DTD/sodipodi-0.dtd"
   xmlns:inkscape="http://www.inkscape.org/namespaces/inkscape"
   contentScriptType="text/ecmascript"
   contentStyleType="text/css"
   enable-background="new 0 0 2048 2048"
   height="100.89063"
   id="Layer_1"
   preserveAspectRatio="xMidYMid meet"
   version="1.1"
   viewBox="0 0 110 100.89063"
   width="110"
   xml:space="preserve"
   zoomAndPan="magnify"
   sodipodi:docname="simple.svg"
   inkscape:version="0.92.3 (2405546, 2018-03-11)"><metadata
     id="metadata5801"><rdf:RDF><cc:Work
         rdf:about=""><dc:format>image/svg+xml</dc:format><dc:type
           rdf:resource="http://purl.org/dc/dcmitype/StillImage" /><dc:title /></cc:Work></rdf:RDF></metadata><defs
     id="defs5799" /><sodipodi:namedview
     pagecolor="#ffffff"
     bordercolor="#666666"
     borderopacity="1"
     objecttolerance="10"
     gridtolerance="10"
     guidetolerance="10"
     inkscape:pageopacity="0"
     inkscape:pageshadow="2"
     inkscape:window-width="1920"
     inkscape:window-height="1026"
     id="namedview5797"
     showgrid="false"
     inkscape:zoom="0.4609375"
     inkscape:cx="419.26154"
     inkscape:cy="288.39925"
     inkscape:window-x="0"
     inkscape:window-y="0"
     inkscape:window-maximized="1"
     inkscape:current-layer="Layer_1" /><path
     d="m 51.33333,50.41667 c 0,-4.04863 -1.43229,-7.50521 -4.29687,-10.36979 C 44.17187,37.18229 40.7153,35.75 36.66667,35.75 c -4.04863,0 -7.50521,1.43229 -10.36979,4.29688 C 23.43229,42.91146 22,46.36804 22,50.41667 c 0,4.04863 1.43229,7.50521 4.29688,10.36979 2.86458,2.86458 6.32116,4.29688 10.36979,4.29688 4.04863,0 7.5052,-1.4323 10.36979,-4.29688 2.86458,-2.86458 4.29687,-6.32116 4.29687,-10.36979 z M 95.33335,79.75 c 0,-1.98613 -0.72573,-3.70488 -2.1771,-5.15625 C 91.70489,73.14238 89.98614,72.41667 88,72.41667 c -1.98614,0 -3.7049,0.72571 -5.15624,2.17708 -1.45137,1.45137 -2.17708,3.17012 -2.17708,5.15625 0,2.02428 0.71613,3.75261 2.14841,5.1849 1.43232,1.43229 3.16064,2.14843 5.18491,2.14843 2.02428,0 3.75262,-0.71614 5.1849,-2.14843 1.43231,-1.43229 2.14845,-3.16062 2.14845,-5.1849 z m 0,-58.66667 c 0,-1.98613 -0.72573,-3.70488 -2.1771,-5.15625 C 91.70489,14.47571 89.98614,13.75 88,13.75 c -1.98614,0 -3.7049,0.72571 -5.15624,2.17708 -1.45137,1.45137 -2.17708,3.17012 -2.17708,5.15625 0,2.02429 0.71613,3.75261 2.14841,5.1849 1.43232,1.43229 3.16064,2.14844 5.18491,2.14844 2.02428,0 3.75262,-0.71615 5.1849,-2.14844 1.43231,-1.43229 2.14845,-3.16061 2.14845,-5.1849 z m -22.00002,24.1198 v 10.59895 c 0,0.38197 -0.13363,0.75436 -0.40103,1.11719 -0.2674,0.36283 -0.57292,0.56335 -0.91667,0.60156 l -8.88022,1.37501 c -0.42013,1.33678 -1.03125,2.78821 -1.83332,4.35416 1.29862,1.83334 3.01738,4.0295 5.15626,6.58854 0.26738,0.38197 0.40104,0.76387 0.40104,1.14584 0,0.45833 -0.13366,0.82116 -0.40104,1.08854 -0.87847,1.14583 -2.45398,2.85501 -4.72658,5.1276 -2.27259,2.27259 -3.77168,3.40885 -4.4974,3.40885 -0.42011,0 -0.82116,-0.13365 -1.20312,-0.40103 l -6.58854,-5.15626 c -1.41321,0.72572 -2.88366,1.31771 -4.41146,1.77605 -0.42012,4.125 -0.85937,7.08509 -1.31771,8.8802 -0.26738,0.91667 -0.84029,1.375 -1.71875,1.375 H 31.33855 c -0.42013,0 -0.80209,-0.14322 -1.14584,-0.42968 -0.34375,-0.28646 -0.5347,-0.62064 -0.57292,-1.00261 l -1.3177,-8.76562 c -1.29863,-0.38197 -2.73093,-0.97396 -4.29688,-1.77604 l -6.76042,5.09896 c -0.26738,0.26738 -0.64928,0.40103 -1.14583,0.40103 -0.42012,0 -0.82116,-0.15279 -1.20313,-0.45832 -5.5,-5.07989 -8.25,-8.13542 -8.25,-9.16667 0,-0.34375 0.13367,-0.70658 0.40105,-1.08854 0.38196,-0.53471 1.16491,-1.54688 2.34895,-3.03646 1.18405,-1.48959 2.08158,-2.6545 2.69271,-3.4948 -0.87845,-1.68053 -1.54688,-3.24654 -2.00521,-4.69791 L 1.375,57.29167 C 0.99304,57.25347 0.66842,57.07207 0.40104,56.7474 0.13366,56.42272 0,56.05033 0,55.63021 V 45.03125 C 0,44.64929 0.13366,44.27689 0.40104,43.91406 0.66842,43.55123 0.97396,43.35071 1.31771,43.3125 l 8.88021,-1.375 c 0.42012,-1.33679 1.03125,-2.78821 1.83333,-4.35417 C 10.73262,35.75 9.01387,33.55384 6.875,30.99479 6.60762,30.57467 6.47396,30.19271 6.47396,29.84896 c 0,-0.45834 0.13366,-0.8403 0.40104,-1.14583 0.8403,-1.14584 2.40625,-2.84551 4.69792,-5.09896 2.29166,-2.25345 3.80032,-3.38021 4.52604,-3.38021 0.42012,0 0.82116,0.13366 1.20312,0.40104 l 6.58855,5.15625 c 1.29862,-0.6875 2.76907,-1.29863 4.41146,-1.83333 0.42011,-4.125 0.85937,-7.06596 1.3177,-8.82292 0.26738,-0.91667 0.8403,-1.375 1.71876,-1.375 h 10.65624 c 0.42012,0 0.80209,0.14323 1.14584,0.42969 0.34374,0.28645 0.5347,0.62064 0.57291,1.0026 l 1.31771,8.76563 c 1.29863,0.38196 2.73092,0.97396 4.29688,1.77604 L 56.08854,20.625 c 0.30554,-0.26738 0.68751,-0.40104 1.14583,-0.40104 0.42013,0 0.82117,0.1528 1.20313,0.45833 5.49999,5.07988 8.25,8.13542 8.25,9.16667 0,0.34375 -0.13365,0.70658 -0.40105,1.08854 -0.45831,0.61113 -1.26041,1.64238 -2.40622,3.09375 -1.14585,1.45137 -2.00523,2.5972 -2.57814,3.4375 0.87844,1.83333 1.5278,3.39929 1.94791,4.69792 l 8.70835,1.31771 c 0.38196,0.0764 0.70655,0.27689 0.97395,0.60156 0.2674,0.32467 0.40103,0.69707 0.40103,1.11719 z M 110,75.73958 v 8.02084 c 0,0.61113 -2.8455,1.20312 -8.53646,1.77604 -0.45833,1.03125 -1.03123,2.02429 -1.71874,2.97917 1.94791,4.31595 2.92186,6.95137 2.92186,7.90625 0,0.15279 -0.0763,0.28646 -0.22917,0.40104 -4.65969,2.71179 -7.02779,4.06771 -7.10414,4.06771 -0.30552,0 -1.18406,-0.89759 -2.63542,-2.69271 -1.45137,-1.79512 -2.44449,-3.09375 -2.97919,-3.89583 -0.76386,0.0764 -1.33676,0.11458 -1.71874,0.11458 -0.38195,0 -0.95487,-0.0382 -1.71875,-0.11458 -0.53471,0.80208 -1.5278,2.10071 -2.97917,3.89583 -1.45135,1.79512 -2.3299,2.69271 -2.6354,2.69271 -0.0764,0 -2.44447,-1.35592 -7.10417,-4.06771 -0.1528,-0.11458 -0.22918,-0.24825 -0.22918,-0.40104 0,-0.95488 0.97396,-3.5903 2.92188,-7.90625 -0.68751,-0.95488 -1.26043,-1.94792 -1.71873,-2.97917 -5.69099,-0.57292 -8.53649,-1.16491 -8.53649,-1.77604 v -8.02084 c 0,-0.61113 2.8455,-1.20312 8.53649,-1.77604 0.49654,-1.10762 1.06944,-2.10071 1.71873,-2.97916 -1.94792,-4.31596 -2.92188,-6.95137 -2.92188,-7.90625 0,-0.1528 0.0764,-0.28646 0.22918,-0.40105 0.1528,-0.0764 0.82115,-0.45833 2.00519,-1.14583 1.18406,-0.6875 2.31074,-1.33679 3.38022,-1.94791 1.06947,-0.61114 1.64238,-0.91667 1.71876,-0.91667 0.3055,0 1.18405,0.88802 2.6354,2.66406 1.45137,1.77604 2.44446,3.0651 2.97917,3.86719 0.76388,-0.0764 1.3368,-0.11458 1.71875,-0.11458 0.38198,0 0.95488,0.0382 1.71874,0.11458 1.94793,-2.71179 3.7049,-4.85071 5.27085,-6.41667 l 0.34376,-0.11458 c 0.15279,0 2.52082,1.33678 7.10414,4.01041 0.15283,0.11459 0.22917,0.24825 0.22917,0.40105 0,0.95488 -0.97394,3.59029 -2.92186,7.90625 0.64928,0.87845 1.22219,1.87154 1.71874,2.97916 C 107.1545,74.53646 110,75.12845 110,75.73958 Z m 0,-58.66666 v 8.02083 c 0,0.61113 -2.8455,1.20312 -8.53646,1.77604 -0.45833,1.03125 -1.03123,2.02429 -1.71874,2.97917 1.94791,4.31595 2.92186,6.95137 2.92186,7.90625 0,0.15279 -0.0763,0.28646 -0.22917,0.40104 -4.65969,2.71179 -7.02779,4.06771 -7.10414,4.06771 -0.30552,0 -1.18406,-0.89759 -2.63542,-2.69271 C 91.24656,37.73613 90.25344,36.4375 89.71874,35.63542 88.95488,35.71182 88.38198,35.75 88,35.75 c -0.38195,0 -0.95487,-0.0382 -1.71875,-0.11458 -0.53471,0.80208 -1.5278,2.10071 -2.97917,3.89583 -1.45135,1.79512 -2.3299,2.69271 -2.6354,2.69271 -0.0764,0 -2.44447,-1.35592 -7.10417,-4.06771 -0.1528,-0.11458 -0.22918,-0.24825 -0.22918,-0.40104 0,-0.95488 0.97396,-3.5903 2.92188,-7.90625 -0.68751,-0.95488 -1.26043,-1.94792 -1.71873,-2.97917 -5.69099,-0.57292 -8.53649,-1.16491 -8.53649,-1.77604 v -8.02083 c 0,-0.61113 2.8455,-1.20313 8.53649,-1.77605 0.49654,-1.10761 1.06944,-2.10071 1.71873,-2.97916 -1.94792,-4.31595 -2.92188,-6.95137 -2.92188,-7.90625 0,-0.1528 0.0764,-0.28646 0.22918,-0.40104 0.1528,-0.0764 0.82115,-0.45834 2.00519,-1.14583 C 76.75176,2.17708 77.87844,1.5278 78.94792,0.91667 80.01739,0.30553 80.5903,0 80.66668,0 c 0.3055,0 1.18405,0.88802 2.6354,2.66406 1.45137,1.77604 2.44446,3.06511 2.97917,3.86719 0.76388,-0.0764 1.3368,-0.11458 1.71875,-0.11458 0.38198,0 0.95488,0.0382 1.71874,0.11458 1.94793,-2.71179 3.7049,-4.85071 5.27085,-6.41666 L 95.33335,0 c 0.15279,0 2.52082,1.33678 7.10414,4.01042 0.15283,0.11458 0.22917,0.24824 0.22917,0.40104 0,0.95488 -0.97394,3.5903 -2.92186,7.90625 0.64928,0.87845 1.22219,1.87155 1.71874,2.97916 C 107.1545,15.86979 110,16.46179 110,17.07292 Z"
     id="path5794"
     style="fill:#00c3d7;fill-opacity:1;stroke-width:0.05729167"
     inkscape:connector-curvature="0" /></svg>