<?xml version="1.0" encoding="UTF-8" standalone="no"?>
<svg
   xmlns:dc="http://purl.org/dc/elements/1.1/"
   xmlns:cc="http://creativecommons.org/ns#"
   xmlns:rdf="http://www.w3.org/1999/02/22-rdf-syntax-ns#"
   xmlns:svg="http://www.w3.org/2000/svg"
   xmlns="http://www.w3.org/2000/svg"
   xmlns:sodipodi="http://sodipodi.sourceforge.net/DTD/sodipodi-0.dtd"
   xmlns:inkscape="http://www.inkscape.org/namespaces/inkscape"
   contentScriptType="text/ecmascript"
   contentStyleType="text/css"
   enable-background="new 0 0 2048 2048"
   height="512"
   id="Layer_1"
   preserveAspectRatio="xMidYMid meet"
   version="1.1"
   viewBox="0 0 512 512"
   width="512"
   xml:space="preserve"
   zoomAndPan="magnify"
   sodipodi:docname="simple.svg"
   inkscape:version="0.92.2 (5c3e80d, 2017-08-06)"><metadata
     id="metadata5801"><rdf:RDF><cc:Work
         rdf:about=""><dc:format>image/svg+xml</dc:format><dc:type
           rdf:resource="http://purl.org/dc/dcmitype/StillImage" /><dc:title></dc:title></cc:Work></rdf:RDF></metadata><defs
     id="defs5799" /><sodipodi:namedview
     pagecolor="#ffffff"
     bordercolor="#666666"
     borderopacity="1"
     objecttolerance="10"
     gridtolerance="10"
     guidetolerance="10"
     inkscape:pageopacity="0"
     inkscape:pageshadow="2"
     inkscape:window-width="1920"
     inkscape:window-height="1017"
     id="namedview5797"
     showgrid="false"
     inkscape:zoom="0.4609375"
     inkscape:cx="993.41409"
     inkscape:cy="489.11493"
     inkscape:window-x="-8"
     inkscape:window-y="-8"
     inkscape:window-maximized="1"
     inkscape:current-layer="Layer_1" /><path
     d="m 238.64731,260.7119 c 0,-17.96259 -6.35466,-33.29844 -19.06398,-46.00777 -12.70934,-12.70932 -28.04518,-19.06399 -46.00778,-19.06399 -17.96259,0 -33.29843,6.35467 -46.00776,19.06399 -12.70933,12.70933 -19.064,28.04518 -19.064,46.00777 0,17.96262 6.35467,33.29845 19.064,46.00778 12.70933,12.70933 28.04517,19.06399 46.00776,19.06399 17.9626,0 33.29844,-6.35466 46.00778,-19.06399 12.70932,-12.70933 19.06398,-28.04516 19.06398,-46.00778 z m 195.21535,130.14353 c 0,-8.81189 -3.21984,-16.43747 -9.65917,-22.87679 -6.43926,-6.43931 -14.06482,-9.65909 -22.87675,-9.65909 -8.81194,0 -16.43757,3.21978 -22.87675,9.65909 -6.43933,6.43932 -9.65911,14.0649 -9.65911,22.87679 0,8.98116 3.17728,16.64923 9.53189,23.00388 6.35478,6.35468 14.02283,9.532 23.00397,9.532 8.98113,0 16.64926,-3.17732 23.00388,-9.532 6.35477,-6.35465 9.53204,-14.02272 9.53204,-23.00388 z m 0,-260.28706 c 0,-8.81188 -3.21984,-16.43748 -9.65917,-22.87679 -6.43926,-6.4393 -14.06482,-9.659082 -22.87675,-9.659082 -8.81194,0 -16.43757,3.219782 -22.87675,9.659082 -6.43933,6.43931 -9.65911,14.06491 -9.65911,22.87679 0,8.98118 3.17728,16.64922 9.53189,23.00389 6.35478,6.35465 14.02283,9.53201 23.00397,9.53201 8.98113,0 16.64926,-3.17736 23.00388,-9.53201 6.35477,-6.35467 9.53204,-14.02271 9.53204,-23.00389 z m -97.6077,107.01257 v 47.0245 c 0,1.69466 -0.5929,3.34687 -1.77927,4.95664 -1.18638,1.60976 -2.54188,2.49941 -4.06702,2.66896 l -39.39896,6.10048 c -1.86397,5.93092 -4.57534,12.3705 -8.13391,19.31818 5.7616,8.13397 13.38724,17.8777 22.87685,29.23146 1.1863,1.69466 1.77927,3.38906 1.77927,5.08373 0,2.03349 -0.59297,3.64326 -1.77927,4.82954 -3.89752,5.08373 -10.88761,12.66688 -20.97049,22.7497 -10.08282,10.08282 -16.73384,15.12409 -19.95363,15.12409 -1.86394,0 -3.64325,-0.593 -5.33791,-1.77928 l -29.23146,-22.87681 c -6.27001,3.21978 -12.79396,5.84629 -19.57237,7.87979 -1.86395,18.30143 -3.81279,31.43449 -5.84628,39.39891 -1.1863,4.067 -3.72816,6.10048 -7.62561,6.10048 h -47.27868 c -1.86397,0 -3.55864,-0.63546 -5.08374,-1.9064 -1.52513,-1.27092 -2.37233,-2.75359 -2.54187,-4.44826 l -5.84629,-38.89054 c -5.76164,-1.69467 -12.11633,-4.32118 -19.06399,-7.87979 L 87.4063,392.88894 c -1.186288,1.18628 -2.880688,1.77928 -5.083726,1.77928 -1.863943,0 -3.64325,-0.6779 -5.337912,-2.03347 -24.40192,-22.53798 -36.602872,-36.09451 -36.602872,-40.66986 0,-1.52511 0.593019,-3.13489 1.779307,-4.82954 1.694655,-2.37233 5.168369,-6.86305 10.421645,-13.4719 5.253284,-6.60885 9.235366,-11.77722 11.946772,-15.50538 -3.897446,-7.45605 -6.863046,-14.40399 -8.896526,-20.84329 l -38.636366,-6.10049 c -1.694663,-0.16953 -3.134882,-0.9743 -4.321169,-2.41477 -1.186295,-1.44048 -1.7793,-3.09268 -1.7793,-4.95664 v -47.02452 c 0,-1.69465 0.593005,-3.34687 1.7793,-4.95663 1.186287,-1.60977 2.541862,-2.49942 4.066974,-2.66896 l 39.398928,-6.10047 c 1.863952,-5.93095 4.575366,-12.37051 8.133972,-19.3182 -5.761652,-8.13396 -13.38724,-17.87769 -22.876793,-29.23146 -1.186288,-1.86394 -1.7793,-3.5586 -1.7793,-5.08372 0,-2.0335 0.593012,-3.72816 1.7793,-5.08373 3.728157,-5.08374 10.67584,-12.62469 20.843298,-22.62261 10.167465,-9.99791 16.860953,-14.99701 20.080742,-14.99701 1.863951,0 3.643251,0.59303 5.337921,1.77932 l 29.231455,22.87678 c 5.76164,-3.05023 12.2856,-5.76165 19.57237,-8.13397 1.86394,-18.30143 3.8128,-31.34959 5.84629,-39.14473 1.18629,-4.06698 3.72815,-6.100472 7.62561,-6.100472 h 47.27868 c 1.86395,0 3.55863,0.635455 5.08374,1.906401 1.52511,1.270921 2.37233,2.753591 2.54187,4.448261 l 5.84628,38.89054 c 5.76165,1.69467 12.11632,4.32118 19.064,7.87979 l 29.99401,-22.6226 c 1.35558,-1.18629 3.05026,-1.77932 5.08373,-1.77932 1.86396,0 3.64326,0.67793 5.33793,2.03351 24.40187,22.53795 36.60286,36.09448 36.60286,40.66984 0,1.52512 -0.59298,3.13488 -1.77935,4.82955 -2.0334,2.71141 -5.59208,7.28677 -10.6757,13.72608 -5.08382,6.4393 -8.89663,11.52303 -11.43847,15.25119 3.89741,8.13397 6.77842,15.08164 8.64232,20.84329 l 38.63642,5.8463 c 1.69464,0.33883 3.13477,1.22848 4.32115,2.66896 1.18637,1.44048 1.77927,3.09269 1.77927,4.95665 z m 162.67941,135.48143 v 35.58612 c 0,2.71141 -12.62467,5.33792 -37.87381,7.87979 -2.03347,4.57536 -4.57528,8.98117 -7.62556,13.21771 8.6423,19.14863 12.96345,30.84121 12.96345,35.07775 0,0.6779 -0.3387,1.27093 -1.01674,1.77929 -20.67371,12.03142 -31.18028,18.04725 -31.51905,18.04725 -1.3555,0 -5.25331,-3.98234 -11.69257,-11.94677 -6.43933,-7.96442 -10.84549,-13.72607 -13.2178,-17.28469 -3.38905,0.33884 -5.93084,0.50837 -7.62555,0.50837 -1.69464,0 -4.23651,-0.16953 -7.62563,-0.50837 -2.37232,3.55862 -6.7784,9.32027 -13.21772,17.28469 -6.43919,7.96443 -10.33708,11.94677 -11.69251,11.94677 -0.33884,0 -10.8454,-6.01583 -31.51911,-18.04725 -0.67797,-0.50836 -1.01681,-1.10139 -1.01681,-1.77929 0,-4.23654 4.32115,-15.92912 12.96351,-35.07775 -3.05028,-4.23654 -5.59215,-8.64235 -7.62548,-13.21771 -25.24928,-2.54187 -37.87396,-5.16838 -37.87396,-7.87979 v -35.58612 c 0,-2.71141 12.62468,-5.33791 37.87396,-7.87978 2.20297,-4.91419 4.74476,-9.32026 7.62548,-13.2177 -8.64236,-19.14864 -12.96351,-30.84122 -12.96351,-35.07775 0,-0.67793 0.33884,-1.27094 1.01681,-1.77931 0.67789,-0.33882 3.64318,-2.0335 8.89642,-5.08373 5.25332,-3.05024 10.25208,-5.93094 14.99706,-8.64234 4.74492,-2.71141 7.28679,-4.06698 7.62563,-4.06698 1.35543,0 5.25332,3.93987 11.69251,11.81966 6.43932,7.8798 10.8454,13.59898 13.21772,17.1576 3.38912,-0.33882 5.93099,-0.50837 7.62563,-0.50837 1.69471,0 4.2365,0.16955 7.62555,0.50837 8.64237,-12.03141 16.43757,-21.5212 23.38523,-28.4689 l 1.52514,-0.50836 c 0.6779,0 11.18418,5.93092 31.51905,17.79305 0.67804,0.50837 1.01674,1.10138 1.01674,1.77931 0,4.23653 -4.32108,15.92911 -12.96345,35.07775 2.88065,3.89744 5.42252,8.30351 7.62556,13.2177 25.24914,2.54187 37.87381,5.16837 37.87381,7.87978 z m 0,-260.28706 v 35.58613 c 0,2.71141 -12.62467,5.33791 -37.87381,7.87978 -2.03347,4.57536 -4.57528,8.98117 -7.62556,13.2177 8.6423,19.14863 12.96345,30.84122 12.96345,35.07775 0,0.67791 -0.3387,1.27093 -1.01674,1.7793 -20.67371,12.03141 -31.18028,18.04725 -31.51905,18.04725 -1.3555,0 -5.25331,-3.98234 -11.69257,-11.94677 -6.43933,-7.96442 -10.84549,-13.72608 -13.2178,-17.28469 -3.38905,0.33884 -5.93084,0.50838 -7.62555,0.50838 -1.69464,0 -4.23651,-0.16954 -7.62563,-0.50838 -2.37232,3.55861 -6.7784,9.32027 -13.21772,17.28469 -6.43919,7.96443 -10.33708,11.94677 -11.69251,11.94677 -0.33884,0 -10.8454,-6.01584 -31.51911,-18.04725 -0.67797,-0.50837 -1.01681,-1.10139 -1.01681,-1.7793 0,-4.23653 4.32115,-15.92912 12.96351,-35.07775 -3.05028,-4.23653 -5.59215,-8.64234 -7.62548,-13.2177 -25.24928,-2.54187 -37.87396,-5.16837 -37.87396,-7.87978 v -35.58613 c 0,-2.71139 12.62468,-5.33791 37.87396,-7.87978 2.20297,-4.914175 4.74476,-9.320272 7.62548,-13.217703 -8.64236,-19.148614 -12.96351,-30.841212 -12.96351,-35.07773 0,-0.677948 0.33884,-1.270938 1.01681,-1.779306 0.67789,-0.33884 3.64318,-2.033531 8.89642,-5.083733 5.25332,-3.050253 10.25208,-5.930932 14.99706,-8.64236 4.74492,-2.711428 7.28679,-4.066967 7.62563,-4.066967 1.35543,0 5.25332,3.939888 11.69251,11.819641 6.43932,7.879797 10.8454,13.599014 13.21772,17.157635 3.38912,-0.338854 5.93099,-0.508383 7.62563,-0.508383 1.69471,0 4.2365,0.169529 7.62555,0.508383 8.64237,-12.031431 16.43757,-21.521239 23.38523,-28.468894 l 1.52514,-0.508382 c 0.6779,0 11.18418,5.930888 31.51905,17.79306 0.67804,0.508368 1.01674,1.101358 1.01674,1.779306 0,4.236518 -4.32108,15.929116 -12.96345,35.07773 2.88065,3.897431 5.42252,8.303528 7.62556,13.217703 25.24914,2.54187 37.87381,5.16839 37.87381,7.87978 z"
     id="path5794"
     style="fill:#00c3d7;fill-opacity:1;stroke-width:0.25418657"
     inkscape:connector-curvature="0" /></svg>