<?xml version="1.0" encoding="UTF-8" standalone="no"?>
<svg
   xmlns:dc="http://purl.org/dc/elements/1.1/"
   xmlns:cc="http://creativecommons.org/ns#"
   xmlns:rdf="http://www.w3.org/1999/02/22-rdf-syntax-ns#"
   xmlns:svg="http://www.w3.org/2000/svg"
   xmlns="http://www.w3.org/2000/svg"
   xmlns:sodipodi="http://sodipodi.sourceforge.net/DTD/sodipodi-0.dtd"
   xmlns:inkscape="http://www.inkscape.org/namespaces/inkscape"
   height="90"
   version="1.1"
   viewBox="0 0 90 90"
   width="90"
   id="svg2459"
   sodipodi:docname="solution.svg"
   inkscape:version="0.92.3 (2405546, 2018-03-11)">
  <metadata
     id="metadata2463">
    <rdf:RDF>
      <cc:Work
         rdf:about="">
        <dc:format>image/svg+xml</dc:format>
        <dc:type
           rdf:resource="http://purl.org/dc/dcmitype/StillImage" />
        <dc:title />
      </cc:Work>
    </rdf:RDF>
  </metadata>
  <sodipodi:namedview
     pagecolor="#ffffff"
     bordercolor="#666666"
     borderopacity="1"
     objecttolerance="10"
     gridtolerance="10"
     guidetolerance="10"
     inkscape:pageopacity="0"
     inkscape:pageshadow="2"
     inkscape:window-width="1920"
     inkscape:window-height="1026"
     id="namedview2461"
     showgrid="false"
     inkscape:zoom="3.9333333"
     inkscape:cx="1.1440685"
     inkscape:cy="45.000001"
     inkscape:window-x="0"
     inkscape:window-y="0"
     inkscape:window-maximized="1"
     inkscape:current-layer="svg2459" />
  <desc
     id="desc2452" />
  <defs
     id="defs2454" />
  <g
     id="People"
     style="fill:#00c3d7;fill-opacity:1;fill-rule:evenodd;stroke:none;stroke-width:1"
     transform="scale(1.5)">
    <g
       id="Icon-36"
       style="fill:#00c3d7;fill-opacity:1">
      <path
         d="M 31.293,42.707 C 31.488,42.902 31.744,43 32,43 c 0.256,0 0.512,-0.098 0.707,-0.293 L 35,40.414 37.293,42.707 C 37.488,42.902 37.744,43 38,43 c 0.256,0 0.512,-0.098 0.707,-0.293 0.391,-0.391 0.391,-1.023 0,-1.414 L 36.414,39 38.707,36.707 c 0.391,-0.391 0.391,-1.023 0,-1.414 -0.391,-0.391 -1.023,-0.391 -1.414,0 L 35,37.586 32.707,35.293 c -0.391,-0.391 -1.023,-0.391 -1.414,0 -0.391,0.391 -0.391,1.023 0,1.414 L 33.586,39 31.293,41.293 c -0.391,0.391 -0.391,1.023 0,1.414 m 22.414,-0.414 c -0.391,-0.391 -1.023,-0.391 -1.414,0 L 50,44.586 47.707,42.293 c -0.391,-0.391 -1.023,-0.391 -1.414,0 -0.391,0.391 -0.391,1.023 0,1.414 L 48.586,46 46.293,48.293 c -0.391,0.391 -0.391,1.023 0,1.414 C 46.488,49.902 46.744,50 47,50 c 0.256,0 0.512,-0.098 0.707,-0.293 L 50,47.414 52.293,49.707 C 52.488,49.902 52.744,50 53,50 c 0.256,0 0.512,-0.098 0.707,-0.293 0.391,-0.391 0.391,-1.023 0,-1.414 L 51.414,46 53.707,43.707 c 0.391,-0.391 0.391,-1.023 0,-1.414 M 10.293,21.707 C 10.488,21.902 10.744,22 11,22 c 0.256,0 0.512,-0.098 0.707,-0.293 L 14,19.414 16.293,21.707 C 16.488,21.902 16.744,22 17,22 c 0.256,0 0.512,-0.098 0.707,-0.293 0.391,-0.391 0.391,-1.023 0,-1.414 L 15.414,18 17.707,15.707 c 0.391,-0.391 0.391,-1.023 0,-1.414 -0.391,-0.391 -1.023,-0.391 -1.414,0 L 14,16.586 11.707,14.293 c -0.391,-0.391 -1.023,-0.391 -1.414,0 -0.391,0.391 -0.391,1.023 0,1.414 L 12.586,18 10.293,20.293 c -0.391,0.391 -0.391,1.023 0,1.414 m 13.414,24.586 c -0.391,-0.391 -1.023,-0.391 -1.414,0 L 20,48.586 17.707,46.293 c -0.391,-0.391 -1.023,-0.391 -1.414,0 -0.391,0.391 -0.391,1.023 0,1.414 L 18.586,50 16.293,52.293 c -0.391,0.391 -0.391,1.023 0,1.414 C 16.488,53.902 16.744,54 17,54 c 0.256,0 0.512,-0.098 0.707,-0.293 L 20,51.414 22.293,53.707 C 22.488,53.902 22.744,54 23,54 c 0.256,0 0.512,-0.098 0.707,-0.293 0.391,-0.391 0.391,-1.023 0,-1.414 L 21.414,50 23.707,47.707 c 0.391,-0.391 0.391,-1.023 0,-1.414 M 43,14 c 1.654,0 3,-1.346 3,-3 0,-1.654 -1.346,-3 -3,-3 -1.654,0 -3,1.346 -3,3 0,1.654 1.346,3 3,3 m 0,2 c -2.757,0 -5,-2.243 -5,-5 0,-2.757 2.243,-5 5,-5 2.757,0 5,2.243 5,5 0,2.757 -2.243,5 -5,5 M 60,4 v 52 c 0,2.206 -1.794,4 -4,4 H 11 c -0.552,0 -1,-0.447 -1,-1 V 35 c 0,-4.963 4.038,-9 9,-9 4.962,0 9,4.037 9,9 v 6 c 0,3.859 3.14,7 7,7 3.86,0 7,-3.141 7,-7 V 21.414 l -4.293,4.293 c -0.391,0.391 -1.023,0.391 -1.414,0 -0.391,-0.391 -0.391,-1.023 0,-1.414 l 6,-5.999 c 0.092,-0.093 0.202,-0.166 0.325,-0.217 0.244,-0.101 0.52,-0.101 0.764,0 0.123,0.051 0.233,0.124 0.326,0.217 l 5.999,5.999 c 0.391,0.391 0.391,1.023 0,1.414 C 49.512,25.902 49.256,26 49,26 48.744,26 48.488,25.902 48.293,25.707 L 44,21.414 V 41 c 0,4.963 -4.038,9 -9,9 -4.962,0 -9,-4.037 -9,-9 v -6 c 0,-3.859 -3.14,-7 -7,-7 -3.86,0 -7,3.141 -7,7 v 23 h 44 c 1.103,0 2,-0.897 2,-2 V 4 C 58,2.897 57.103,2 56,2 H 4 C 2.897,2 2,2.897 2,4 v 52 c 0,1.103 0.897,2 2,2 h 3 c 0.552,0 1,0.447 1,1 0,0.553 -0.448,1 -1,1 H 4 C 1.794,60 0,58.206 0,56 V 4 C 0,1.794 1.794,0 4,0 h 52 c 2.206,0 4,1.794 4,4"
         id="strategy"
         style="fill:#00c3d7;fill-opacity:1"
         inkscape:connector-curvature="0" />
    </g>
  </g>
</svg>
