<?xml version="1.0" encoding="UTF-8" standalone="no"?>
<svg
   xmlns:dc="http://purl.org/dc/elements/1.1/"
   xmlns:cc="http://creativecommons.org/ns#"
   xmlns:rdf="http://www.w3.org/1999/02/22-rdf-syntax-ns#"
   xmlns:svg="http://www.w3.org/2000/svg"
   xmlns="http://www.w3.org/2000/svg"
   id="svg45"
   version="1.1"
   viewBox="0 0 43.98045 41.980556"
   height="41.980556mm"
   width="43.98045mm">
  <defs
     id="defs39" />
  <metadata
     id="metadata42">
    <rdf:RDF>
      <cc:Work
         rdf:about="">
        <dc:format>image/svg+xml</dc:format>
        <dc:type
           rdf:resource="http://purl.org/dc/dcmitype/StillImage" />
        <dc:title></dc:title>
      </cc:Work>
    </rdf:RDF>
  </metadata>
  <g
     transform="translate(-75.527631,-28.813294)"
     id="layer1">
    <path
       id="path20"
       style="fill:#f1443b;fill-opacity:1;fill-rule:nonzero;stroke:none;stroke-width:0.03527778"
       d="m 119.50808,39.241758 c 0,-0.89147 -0.0935,-1.871839 -0.2801,-2.763309 -0.18662,-0.891116 -0.46708,-1.782586 -0.9338,-2.674055 -0.46673,-0.801864 -1.02729,-1.604081 -1.68099,-2.228145 -0.65335,-0.624063 -1.49366,-1.247774 -2.33433,-1.60408 -0.84032,-0.445911 -1.77412,-0.713317 -2.70792,-0.891469 -0.93367,-0.178506 -1.96085,-0.178506 -2.89462,-0.267406 H 85.612242 c -0.747007,0 -1.493908,0.0889 -2.147676,0.178153 -0.746866,0.08925 -1.400633,0.267405 -2.054225,0.534811 -0.186725,0.08925 -0.466866,0.178153 -0.653591,0.267405 -0.653768,0.356659 -1.213802,0.712964 -1.774239,1.158523 -0.186726,0.178505 -0.373447,0.267758 -0.560173,0.445911 -0.653605,0.624064 -1.307345,1.42628 -1.680792,2.228497 -0.46688,0.801864 -0.747035,1.693333 -0.93376,2.673703 -0.186724,0.891469 -0.186724,1.871838 -0.280155,2.762955 v 21.302134 c 0,0.891468 0.09343,1.871837 0.280155,2.763308 0.186725,0.891117 0.46688,1.782585 0.93376,2.674054 0.466739,0.801865 1.027187,1.604081 1.680792,2.228146 0.653602,0.624062 1.493919,1.247778 2.334412,1.604078 0.840317,0.44591 1.774084,0.71332 2.707816,0.89147 0.933768,0.17851 1.960951,0.17851 2.894718,0.26741 h 22.317036 c 0.93377,0 1.96095,-0.0889 2.89462,-0.26741 0.9338,-0.17815 1.8676,-0.44556 2.70792,-0.89147 0.84067,-0.44556 1.68098,-0.980016 2.33433,-1.604078 0.6537,-0.624065 1.30739,-1.426281 1.68099,-2.228146 0.46672,-0.802217 0.74718,-1.693685 0.9338,-2.674054 0.18662,-0.891471 0.18662,-1.87184 0.2801,-2.763308 V 39.241758" />
    <path
       id="path22"
       style="fill:#ffffff;fill-opacity:1;fill-rule:nonzero;stroke:none;stroke-width:0.03527778"
       d="m 104.91511,61.269554 c -3.91886,2.161469 -9.306839,2.383015 -14.72734,0.165452 -4.388803,-1.782585 -8.030386,-4.9022 -10.364787,-8.467371 1.120492,0.891469 2.427675,1.604433 3.828309,2.228497 5.598018,2.50437 11.195049,2.333272 15.13279,0.006 -0.0019,-0.0018 -0.0037,-0.0042 -0.0056,-0.006 -5.602579,-4.099983 -10.364832,-9.448094 -13.913247,-13.815483 -0.746901,-0.712964 -1.307218,-1.60408 -1.867394,-2.406297 4.295352,3.743325 11.111794,8.467372 13.539505,9.804047 -5.135668,-5.169605 -9.711195,-11.586633 -9.52447,-11.40848 8.123978,7.843308 15.687464,12.299949 15.687464,12.299949 0.25107,0.134409 0.44344,0.246945 0.59944,0.346781 0.16344,-0.397581 0.30621,-0.810331 0.4276,-1.23825 1.30736,-4.545542 -0.18687,-9.715147 -3.455,-13.993283 7.56349,4.367036 12.04574,12.567355 10.17817,19.430294 -0.0496,0.185561 -0.10181,0.3683 -0.15875,0.547158 0.0215,0.02611 0.043,0.05115 0.0655,0.07691 3.73496,4.45664 2.70767,9.180337 2.24095,8.28922 -2.02639,-3.783896 -5.77727,-2.626783 -7.68311,-1.85914" />
  </g>
</svg>
