<?xml version="1.0" encoding="UTF-8" standalone="no"?>
<svg
   xmlns:dc="http://purl.org/dc/elements/1.1/"
   xmlns:cc="http://creativecommons.org/ns#"
   xmlns:rdf="http://www.w3.org/1999/02/22-rdf-syntax-ns#"
   xmlns:svg="http://www.w3.org/2000/svg"
   xmlns="http://www.w3.org/2000/svg"
   xmlns:sodipodi="http://sodipodi.sourceforge.net/DTD/sodipodi-0.dtd"
   xmlns:inkscape="http://www.inkscape.org/namespaces/inkscape"
   width="128.21213"
   height="109.53113"
   viewBox="0 0 128.21213 109.53113"
   version="1.1"
   id="svg857"
   sodipodi:docname="VTEX_Logo.svg"
   inkscape:version="0.92.2 (5c3e80d, 2017-08-06)">
  <metadata
     id="metadata861">
    <rdf:RDF>
      <cc:Work
         rdf:about="">
        <dc:format>image/svg+xml</dc:format>
        <dc:type
           rdf:resource="http://purl.org/dc/dcmitype/StillImage" />
      </cc:Work>
    </rdf:RDF>
  </metadata>
  <sodipodi:namedview
     pagecolor="#ffffff"
     bordercolor="#666666"
     borderopacity="1"
     objecttolerance="10"
     gridtolerance="10"
     guidetolerance="10"
     inkscape:pageopacity="0"
     inkscape:pageshadow="2"
     inkscape:window-width="1920"
     inkscape:window-height="1017"
     id="namedview859"
     showgrid="false"
     inkscape:zoom="2.5173001"
     inkscape:cx="134.13413"
     inkscape:cy="71.067708"
     inkscape:window-x="-8"
     inkscape:window-y="-8"
     inkscape:window-maximized="1"
     inkscape:current-layer="svg857" />
  <!-- Generator: Sketch 42 (36781) - http://www.bohemiancoding.com/sketch -->
  <title
     id="title839">Artboard</title>
  <desc
     id="desc841">Created with Sketch.</desc>
  <defs
     id="defs843" />
  <path
     style="fill:#ff3366;fill-rule:nonzero;stroke:none;stroke-width:1"
     inkscape:connector-curvature="0"
     id="path852"
     d="M 118.58389,4.0964929e-4 H 22.863892 C 19.400207,0.03207965 16.202793,1.8645626 14.424572,4.8371116 12.646351,7.8096596 12.543798,11.493537 14.153892,14.56041 l 9.58,18.24 h -17.36 c -2.217871,-0.04036 -4.291479,1.096027 -5.450839,2.987181 -1.15936,1.891154 -1.23132,4.254636 -0.189161,6.212819 l 30.8,58.2 c 1.10523,2.09008 3.275685,3.39759 5.64,3.39759 2.364314,0 4.53477,-1.30751 5.64,-3.39759 l 8.36,-15.77 10.5,19.86 c 1.70721,3.22421 5.0567,5.24072 8.705,5.24072 3.6483,0 6.99779,-2.01651 8.705,-5.24072 l 47.999998,-90.25 c 1.5893,-2.970574 1.49395,-6.5591524 -0.25085,-9.4411414 -1.74479,-2.881989 -4.88029,-4.63001595 -8.24915,-4.59885895071 z M 75.813892,38.13041 l -21,39.38 c -0.7215,1.3602 -2.13529,2.21065 -3.675,2.21065 -1.53971,0 -2.953501,-0.85045 -3.675,-2.21065 l -20.73,-39 c -0.639579,-1.200204 -0.602231,-2.64804 0.09838,-3.813673 0.700609,-1.165632 1.961641,-1.877968 3.321622,-1.876327 h 42.42 c 1.27814,-0.01967 2.47138,0.638051 3.1372,1.729251 0.66582,1.0912 0.70492,2.453148 0.1028,3.580749 z" />
</svg>
