<?xml version="1.0" encoding="UTF-8" standalone="no"?>
<svg
   xmlns:dc="http://purl.org/dc/elements/1.1/"
   xmlns:cc="http://creativecommons.org/ns#"
   xmlns:rdf="http://www.w3.org/1999/02/22-rdf-syntax-ns#"
   xmlns:svg="http://www.w3.org/2000/svg"
   xmlns="http://www.w3.org/2000/svg"
   xmlns:sodipodi="http://sodipodi.sourceforge.net/DTD/sodipodi-0.dtd"
   xmlns:inkscape="http://www.inkscape.org/namespaces/inkscape"
   enable-background="new 0 0 48 48"
   height="512"
   id="Layer_1"
   version="1.1"
   viewBox="0 0 512 512"
   width="512"
   xml:space="preserve"
   sodipodi:docname="whitelabel.svg"
   inkscape:version="0.92.2 (5c3e80d, 2017-08-06)"><metadata
     id="metadata6822"><rdf:RDF><cc:Work
         rdf:about=""><dc:format>image/svg+xml</dc:format><dc:type
           rdf:resource="http://purl.org/dc/dcmitype/StillImage" /><dc:title></dc:title></cc:Work></rdf:RDF></metadata><defs
     id="defs6820" /><sodipodi:namedview
     pagecolor="#ffffff"
     bordercolor="#666666"
     borderopacity="1"
     objecttolerance="10"
     gridtolerance="10"
     guidetolerance="10"
     inkscape:pageopacity="0"
     inkscape:pageshadow="2"
     inkscape:window-width="1920"
     inkscape:window-height="1017"
     id="namedview6818"
     showgrid="false"
     inkscape:zoom="0.43457604"
     inkscape:cx="-62.088428"
     inkscape:cy="422.49932"
     inkscape:window-x="-8"
     inkscape:window-y="-8"
     inkscape:window-maximized="1"
     inkscape:current-layer="Layer_1" /><path
     d="m 479.64781,253.16951 -246.98792,246.9879 c -0.34673,0.51985 -0.57423,1.10516 -1.02931,1.5604 -2.13446,2.12342 -4.95145,3.10944 -7.7468,3.04442 -2.79535,0.0745 -5.61242,-0.921 -7.74684,-3.04442 -0.45499,-0.45496 -0.67174,-1.04019 -1.0293,-1.5604 L 33.507161,318.55703 c -0.520077,-0.34787 -1.094312,-0.57436 -1.560203,-1.02929 -2.134454,-2.13446 -3.098753,-4.95148 -3.044553,-7.74695 -0.065,-2.79525 0.910099,-5.61239 3.044553,-7.74664 0.46592,-0.45586 1.04014,-0.67215 1.560203,-1.02932 L 280.49509,54.027679 c 1.98276,-2.546201 4.92982,-4.279754 8.39692,-4.279754 h 0.22744 c 0.0211,0 0.0431,0 0.0655,0 h 43.65302 C 334.279,33.474273 340.92066,19.194092 350.93193,9.8436862 l 0.17344,0.1954928 c 2.1236,-2.2427435 5.01649,-3.6296642 8.21272,-3.6296642 6.41413,0 11.61477,5.5474132 11.61477,12.3841872 0,4.062985 -1.95021,7.48674 -4.77808,9.74038 -5.18982,4.788997 -8.88443,12.340709 -10.11962,21.214253 h 51.73568 c 0.0215,0 0.0427,0 0.0869,0 h 0.21677 c 3.46712,0 6.43583,1.733567 8.39691,4.279755 l 63.1663,63.16612 c 2.53532,1.9827 4.27972,4.94064 4.27972,8.40773 v 0.2273 c 0,0.002 0,0.004 0,0.0741 v 118.58592 c 0,0.002 0,0.004 0,0.0808 v 0.2167 c 0,3.46707 -1.73354,6.42491 -4.26887,8.39692 z M 367.53029,176.1457 c -2.09108,2.23179 -4.99479,3.61869 -8.21272,3.61869 -6.41414,0 -11.59313,-5.54728 -11.59313,-12.38395 0,-4.06314 1.95027,-7.48676 4.77809,-9.75129 2.68706,-2.48116 4.88648,-5.81834 6.68505,-9.5671 -9.26368,2.47035 -16.12204,10.83465 -16.12204,20.85686 0,11.9614 9.70787,21.6694 21.6694,21.6694 11.97236,0 21.66942,-9.708 21.66942,-21.6694 0,-5.12487 -1.84192,-9.76213 -4.82145,-13.47842 -6.66336,16.76123 -14.05262,20.70521 -14.05262,20.70521 z m 94.71705,-46.42678 -58.3016,-58.301555 h -45.64663 c 1.88525,4.81058 4.59393,8.906081 7.85519,11.918147 v 0 c 0.44418,0.357387 0.99678,0.574313 1.37599,0.996834 l 0.19513,-0.195512 c 11.27894,10.542137 18.68986,27.173436 18.68986,46.090836 0,0.45579 -0.10835,0.85597 -0.13003,1.30018 12.96916,7.48671 21.79941,21.34441 21.79941,37.40134 0,23.93391 -19.40494,43.33886 -43.3388,43.33886 -23.93385,0 -43.3388,-19.40495 -43.3388,-43.33886 0,-23.26206 18.36481,-42.09288 41.38854,-43.14367 -0.97509,-9.62132 -4.7781,-17.85569 -10.28211,-22.94797 -0.44421,-0.35731 -0.99681,-0.57429 -1.39768,-0.9968 l -0.17343,0.19506 C 342.88135,94.505724 336.93311,83.779294 334.11607,71.416952 H 293.02009 L 54.656559,309.78032 223.88383,479.00762 462.2474,240.6441 Z m -311.1078,161.48039 c 4.13889,-4.12805 10.83471,-4.12805 14.96275,0 l 76.37384,76.37387 c 4.12804,4.12817 4.12804,10.82382 0,14.96288 -4.12802,4.12791 -10.8347,4.12791 -14.96276,0 l -76.37383,-76.37392 c -4.12801,-4.12799 -4.12801,-10.82388 0,-14.96283 z m 43.33882,-43.33887 c 4.13885,-4.12803 10.83471,-4.12803 14.96274,0 l 76.36299,76.37393 c 4.12803,4.12809 4.12803,10.82385 0,14.96275 -4.12798,4.12801 -10.83468,4.12801 -14.9627,0 l -76.36303,-76.37386 c -4.128,-4.12808 -4.128,-10.82383 0,-14.96282 z"
     id="path6815"
     style="clip-rule:evenodd;fill:#00c3d7;fill-opacity:1;fill-rule:evenodd;stroke-width:10.83470726"
     inkscape:connector-curvature="0" /></svg>