<?xml version="1.0" encoding="UTF-8" standalone="no"?>
<!-- Created with Inkscape (http://www.inkscape.org/) -->

<svg
   xmlns:dc="http://purl.org/dc/elements/1.1/"
   xmlns:cc="http://creativecommons.org/ns#"
   xmlns:rdf="http://www.w3.org/1999/02/22-rdf-syntax-ns#"
   xmlns:svg="http://www.w3.org/2000/svg"
   xmlns="http://www.w3.org/2000/svg"
   xmlns:sodipodi="http://sodipodi.sourceforge.net/DTD/sodipodi-0.dtd"
   xmlns:inkscape="http://www.inkscape.org/namespaces/inkscape"
   version="1.1"
   id="svg10181"
   width="309.33334"
   height="341.33334"
   viewBox="0 0 309.33334 341.33334"
   sodipodi:docname="widePayment.svg"
   inkscape:version="0.92.2 (5c3e80d, 2017-08-06)">
  <metadata
     id="metadata10187">
    <rdf:RDF>
      <cc:Work
         rdf:about="">
        <dc:format>image/svg+xml</dc:format>
        <dc:type
           rdf:resource="http://purl.org/dc/dcmitype/StillImage" />
        <dc:title></dc:title>
      </cc:Work>
    </rdf:RDF>
  </metadata>
  <defs
     id="defs10185" />
  <sodipodi:namedview
     pagecolor="#ffffff"
     bordercolor="#666666"
     borderopacity="1"
     objecttolerance="10"
     gridtolerance="10"
     guidetolerance="10"
     inkscape:pageopacity="0"
     inkscape:pageshadow="2"
     inkscape:window-width="1920"
     inkscape:window-height="1017"
     id="namedview10183"
     showgrid="false"
     inkscape:zoom="2.7656249"
     inkscape:cx="134.53902"
     inkscape:cy="130.20074"
     inkscape:window-x="-8"
     inkscape:window-y="-8"
     inkscape:window-maximized="1"
     inkscape:current-layer="svg10181" />
  <path
     style="fill:#00c3d7;stroke-width:1.33333337;fill-opacity:1"
     d="m 148.05051,339.81599 c -4.22724,-1.68066 -10.36157,-7.46628 -12.73794,-12.01381 -1.44322,-2.76179 -3.19075,-3.7112 -8.21431,-4.46277 -8.38856,-1.255 -25.62291,-6.71979 -36.049737,-11.4309 -23.85569,-10.7786 -50.60345,-34.14289 -65.50516,-57.21905 -32.8841098,-50.92295 -33.4189298,-114.74588 -1.39158,-166.066078 7.80237,-12.502414 26.54659,-33.34894 36.19053,-40.249578 l 5.96727,-4.269828 2.99798,4.054978 2.99797,4.054979 -3.12751,2.168135 c -4.14187,2.871325 -14.91206,12.839616 -21.68575,20.071123 -14.22489,15.186297 -26.50867,37.854649 -32.41627,59.820639 -3.15569,11.73363 -3.50608,15.36836 -3.50608,36.3698 0,21.08873 0.34328,24.61596 3.56847,36.66667 8.41107,31.42732 27.5944,60.29967 52.78772,79.44943 11.67726,8.87605 35.559387,20.48572 48.791067,23.7185 16.9466,4.14044 18,4.3079 18,2.86131 0,-0.74519 2.13959,-3.72315 4.75463,-6.61769 8.67486,-9.60204 19.28814,-10.31306 28.58388,-1.91492 9.32424,8.42389 10.18949,19.05908 2.28322,28.06382 -6.61265,7.53139 -14.5742,10.01227 -22.2884,6.94524 z m 14.2474,-12.07144 c 6.87608,-6.45974 2.07318,-18.43425 -7.39388,-18.43425 -6.37366,0 -10.85352,4.32561 -10.85352,10.47981 0,9.69406 11.1991,14.57598 18.2474,7.95444 z m 77.76686,-34.70013 -3.06891,-4.15092 3.86067,-2.72981 c 8.12228,-5.74318 26.12815,-24.38879 32.61857,-33.77753 9.0128,-13.03746 16.65123,-29.64901 20.90746,-45.46812 3.12797,-11.62573 3.48186,-15.31269 3.48186,-36.27441 0,-21.08873 -0.34328,-24.61596 -3.56846,-36.66667 -8.41107,-31.42732 -27.5944,-60.299661 -52.78771,-79.449428 -11.67727,-8.87604 -35.55939,-20.485713 -48.79107,-23.718506 -16.9466,-4.140431 -18,-4.307881 -18,-2.861305 0,0.745192 -2.13959,3.723154 -4.75463,6.617694 -8.67486,9.602043 -19.28814,10.313058 -28.58388,1.914918 -9.51805,-8.598988 -10.20191,-19.243531 -1.83153,-28.5085483 5.41007,-5.9882896 12.05245,-8.62632366 18.61879,-7.39447261 5.19757,0.97507101 13.07601,7.30179161 15.90494,12.77235891 1.50787,2.915893 3.15847,3.834173 8.26523,4.598189 8.38856,1.255003 25.62292,6.719787 36.04972,11.430886 23.8557,10.778609 50.60346,34.142898 65.50516,57.21906 39.90168,61.790064 31.52275,140.988614 -20.39718,192.796254 -6.66047,6.64607 -13.96624,13.3702 -16.23504,14.94251 l -4.1251,2.85876 z M 162.29791,29.077879 c 6.87608,-6.459747 2.07318,-18.434248 -7.39388,-18.434248 -6.37366,0 -10.85352,4.325612 -10.85352,10.479817 0,9.694047 11.1991,14.575971 18.2474,7.954431 z m -24.1955,257.415951 c -27.92634,-4.06854 -53.982797,-18.68408 -73.141687,-41.02647 -5.52709,-6.44548 -15.57689,-22.24457 -15.57689,-24.48809 0,-0.5762 7.32519,-3.66897 8.6899,-3.66897 0.16058,0 2.5079,3.75 5.21627,8.33333 2.70838,4.58333 6.61869,10.32829 8.68958,12.76657 l 3.76527,4.43324 6.48616,-3.26462 c 6.78327,-3.41418 23.307867,-9.23354 30.942927,-10.89696 4.14047,-0.90208 4.40194,-1.26908 3.68432,-5.17128 -1.37598,-7.48204 -3.29119,-23.91695 -4.17969,-35.86695 l -0.86744,-11.66667 H 87.353993 c -22.95621,0 -24.50704,0.15728 -25.27057,2.56295 -1.32882,4.18675 -10.85317,11.88663 -15.86646,12.82713 -13.24316,2.48443 -26.70763,-10.98004 -24.2232,-24.2232 1.11646,-5.95125 8.86985,-14.56837 14.89827,-16.55792 2.56609,-0.84689 6.76231,-1.14645 9.32493,-0.6657 5.01329,0.9405 14.53764,8.64038 15.86646,12.82713 0.76353,2.40567 2.31436,2.56295 25.27057,2.56295 h 24.457137 l 0.85023,-11.66667 c 0.46764,-6.41667 1.71696,-17.9212 2.77628,-25.56564 1.05931,-7.64444 1.78057,-14.00087 1.60278,-14.12539 -0.17778,-0.12453 -5.72324,-1.88418 -12.32324,-3.91034 -6.600006,-2.02616 -15.849907,-5.42741 -20.555347,-7.55832 l -8.55534,-3.874387 -3.69609,4.350367 c -2.03284,2.39271 -5.91202,8.10038 -8.6204,12.68371 -2.70837,4.58333 -5.05569,8.33333 -5.21627,8.33333 -1.36471,0 -8.6899,-3.09277 -8.6899,-3.66896 0,-0.40779 2.05889,-4.3991 4.57531,-8.86957 14.0784,-25.010595 42.2607,-46.229621 72.091367,-54.279058 14.95122,-4.034399 42.21002,-4.083458 56.9313,-0.10246 27.30305,7.383424 52.78179,25.045167 67.6866,46.920048 4.69397,6.88906 9.38211,15.11894 9.38211,16.47002 0,0.47805 -7.51308,3.52998 -8.6899,3.52998 -0.16057,0 -2.5079,-3.75 -5.21628,-8.33333 -2.70837,-4.58333 -6.62004,-10.32992 -8.6926,-12.77019 l -3.76828,-4.436847 -5.14981,2.620687 c -6.53674,3.32651 -27.98068,10.91313 -30.92271,10.9401 -5.32885,0.0489 -5.64307,1.44311 -3.61808,16.05442 1.06144,7.65884 2.31251,19.17516 2.78013,25.59183 l 0.85024,11.66667 h 24.45712 c 22.95622,0 24.50706,-0.15728 25.27058,-2.56295 1.32883,-4.18675 10.85317,-11.88663 15.86647,-12.82713 6.61526,-1.24103 13.24656,1.382 18.66982,7.3849 8.37038,9.26502 7.68652,19.90955 -1.83153,28.50855 -9.29573,8.39813 -19.90901,7.68712 -28.58388,-1.91492 -2.61504,-2.89455 -4.75463,-5.86108 -4.75463,-6.59229 0,-0.83564 -9.12048,-1.3295 -24.55291,-1.3295 h -24.5529 l -0.80914,10.33334 c -0.98936,12.63514 -3.2092,32.28741 -4.21522,37.31753 -0.73302,3.66504 -0.58158,3.75951 12.16658,7.58937 7.09986,2.13298 16.53762,5.59428 20.97279,7.69179 l 8.06398,3.81365 3.71484,-4.37284 c 2.04316,-2.40506 5.93077,-8.12284 8.63914,-12.70617 2.70838,-4.58333 5.05571,-8.33333 5.21628,-8.33333 0.16059,0 2.21826,0.6715 4.5726,1.49224 4.89903,1.7078 4.8395,2.1865 -1.61409,12.98078 -23.11299,38.65881 -71.1555,61.27543 -116.21672,54.71051 z m 24.58312,-12.69484 c 2.29512,-1.93121 5.87228,-6.88121 7.94924,-11 4.3568,-8.63987 9.83106,-25.51783 8.65726,-26.69161 -1.0411,-1.04111 -48.1086,-1.04111 -49.1497,0 -0.43839,0.43838 0.48048,4.93838 2.04194,10 6.02442,19.52868 14.45487,31.20292 22.53291,31.20292 2.15445,0 5.59959,-1.51812 7.96835,-3.51131 z m -27.96835,1.33535 c 0,-0.46344 -1.28513,-2.922 -2.85585,-5.46348 -1.57072,-2.54147 -5.02542,-10.78643 -7.67712,-18.32212 l -4.82127,-13.70126 -9.23691,2.40318 c -10.11994,2.63292 -26.075527,9.0324 -26.075527,10.45838 0,1.61507 12.76907,10.4773 21.480347,14.90818 4.68581,2.38339 12.71966,5.70751 17.853,7.38693 10.2402,3.3502 11.33333,3.57495 11.33333,2.33019 z m 52.66667,-2.79461 c 12.13874,-3.76407 38,-18.54927 38,-21.7251 0,-1.76868 -19.66836,-9.3514 -30.66467,-11.82211 l -5.17279,-1.16224 -2.86666,9.50667 c -1.57666,5.22868 -5.13015,13.84726 -7.89664,19.15242 l -5.02998,9.64572 3.48203,-0.76406 c 1.91512,-0.42022 6.48204,-1.69432 10.14871,-2.8313 z m -19.20899,-47.58762 c 7.40173,0.67895 13.74615,0.76773 14.09869,0.19729 1.098,-1.7766 4.3583,-31.87533 4.40204,-40.6391 l 0.0416,-8.33334 h -32.2032 -32.20321 l 0.87331,15 c 0.77685,13.34334 2.78424,29.95222 4.07008,33.67534 0.30791,0.89154 4.99484,0.92633 13.96326,0.10373 8.29283,-0.76069 18.69045,-0.76219 26.95744,-0.004 z M 50.297903,178.41122 c 6.87608,-6.45975 2.07317,-18.43426 -7.39388,-18.43426 -6.37366,0 -10.85352,4.32562 -10.85352,10.47982 0,9.69405 11.19909,14.57597 18.2474,7.95444 z m 224.000017,0 c 6.87608,-6.45975 2.07317,-18.43426 -7.39388,-18.43426 -6.37367,0 -10.85352,4.32562 -10.85352,10.47982 0,9.69405 11.19909,14.57597 18.2474,7.95444 z m -88.12455,-28.76759 c -1.14923,-19.07423 -3.68411,-34.42758 -5.62443,-34.06625 -6.5456,1.2189 -33.88113,1.70282 -42.23851,0.74774 -5.7237,-0.65411 -10.71812,-0.68547 -11.09869,-0.0697 -1.13792,1.84119 -4.40818,31.74707 -4.45297,40.72153 l -0.0416,8.33333 h 32.20005 32.20006 z m -6.8809,-44.46374 c 1.26096,-1.26167 -4.43241,-18.440343 -8.92784,-26.938107 -12.44342,-23.521922 -26.49348,-17.716418 -37.83958,15.635387 -1.72766,5.078443 -3.1412,9.68859 -3.1412,10.24477 0,0.55617 1.65,1.29109 3.66666,1.63314 5.20552,0.88293 45.2829,0.38441 46.24196,-0.57519 z M 121.4495,98.310303 c 2.24121,-8.456803 7.93972,-22.337306 11.49513,-28.000004 1.72664,-2.75 2.47031,-5 1.65262,-5 -3.32026,0 -26.28354,8.39148 -31.88007,11.649947 -7.557727,4.40033 -18.666677,12.628609 -18.666677,13.826204 0,1.28027 16.350637,7.770573 26.666677,10.58519 4.76667,1.30054 8.79354,2.41877 8.94861,2.48497 0.15507,0.0662 0.95774,-2.42965 1.78371,-5.546307 z m 84.85507,0.873997 c 10.12665,-3.392367 19.07928,-7.43725 19.07928,-8.6202 0,-2.116414 -22.36655,-15.927008 -31.1459,-19.231545 -8.66137,-3.260132 -19.52077,-6.2014 -19.52077,-5.2872 0,0.248377 2.03209,4.5346 4.51577,9.524937 2.48367,4.990338 5.87464,13.339122 7.5355,18.552861 l 3.01973,9.479497 5.05189,-1.13508 c 2.77854,-0.6243 7.93756,-2.10177 11.4645,-3.28327 z"
     id="path10734"
     inkscape:connector-curvature="0" />
  <rect
     style="fill:#ffffff;fill-opacity:1;stroke:none;stroke-width:0.89190823;stroke-linecap:butt;stroke-linejoin:miter;stroke-miterlimit:4;stroke-dasharray:2.67572484, 0.89190827;stroke-dashoffset:0;stroke-opacity:1"
     id="rect12636"
     width="59.741505"
     height="61.825485"
     x="124.70554"
     y="141.92343" />
  <g
     id="g12617"
     transform="matrix(4.0121072,0,0,3.6478617,-40.041169,-3.218329)"
     style="fill:#00c3d7;fill-opacity:1">
    <path
       inkscape:connector-curvature="0"
       d="m 48.379,40.22 c 0.434,0 0.775,0.342 0.775,0.774 v 0.396 c 1.063,0.126 1.963,0.468 2.791,0.99 0.287,0.162 0.539,0.432 0.539,0.864 0,0.558 -0.449,0.991 -1.008,0.991 -0.18,0 -0.359,-0.054 -0.539,-0.162 -0.631,-0.378 -1.244,-0.648 -1.855,-0.792 v 3.457 c 2.736,0.684 3.906,1.783 3.906,3.709 0,1.98 -1.547,3.295 -3.834,3.511 v 1.08 c 0,0.433 -0.342,0.774 -0.775,0.774 -0.432,0 -0.791,-0.342 -0.791,-0.774 v -1.116 c -1.352,-0.145 -2.594,-0.63 -3.691,-1.404 -0.307,-0.198 -0.486,-0.486 -0.486,-0.864 0,-0.558 0.432,-0.99 0.99,-0.99 0.217,0 0.432,0.071 0.594,0.198 0.848,0.611 1.676,1.025 2.666,1.206 v -3.547 c -2.629,-0.685 -3.854,-1.675 -3.854,-3.709 0,-1.927 1.529,-3.259 3.781,-3.439 v -0.378 c 0,-0.433 0.359,-0.775 0.791,-0.775 z m -0.719,6.14 v -3.187 c -1.152,0.108 -1.729,0.72 -1.729,1.512 0.001,0.756 0.342,1.225 1.729,1.675 z m 1.422,2.502 v 3.277 c 1.152,-0.126 1.783,-0.702 1.783,-1.566 0,-0.792 -0.396,-1.278 -1.783,-1.711 z"
       id="path12615"
       style="fill:#00c3d7;fill-opacity:1" />
  </g>
</svg>
