<?xml version="1.0" encoding="UTF-8" standalone="no"?>
<!-- Generator: Adobe Illustrator 16.0.0, SVG Export Plug-In . SVG Version: 6.00 Build 0)  -->

<svg
   xmlns:dc="http://purl.org/dc/elements/1.1/"
   xmlns:cc="http://creativecommons.org/ns#"
   xmlns:rdf="http://www.w3.org/1999/02/22-rdf-syntax-ns#"
   xmlns:svg="http://www.w3.org/2000/svg"
   xmlns="http://www.w3.org/2000/svg"
   xmlns:sodipodi="http://sodipodi.sourceforge.net/DTD/sodipodi-0.dtd"
   xmlns:inkscape="http://www.inkscape.org/namespaces/inkscape"
   version="1.1"
   id="Layer_1"
   x="0px"
   y="0px"
   width="256px"
   height="256px"
   viewBox="0 0 256 256"
   style="enable-background:new 0 0 256 256;"
   xml:space="preserve"
   sodipodi:docname="woocommerce.svg"
   inkscape:version="0.92.3 (2405546, 2018-03-11)"><metadata
     id="metadata15"><rdf:RDF><cc:Work
         rdf:about=""><dc:format>image/svg+xml</dc:format><dc:type
           rdf:resource="http://purl.org/dc/dcmitype/StillImage" /><dc:title></dc:title></cc:Work></rdf:RDF></metadata><defs
     id="defs13" /><sodipodi:namedview
     pagecolor="#ffffff"
     bordercolor="#666666"
     borderopacity="1"
     objecttolerance="10"
     gridtolerance="10"
     guidetolerance="10"
     inkscape:pageopacity="0"
     inkscape:pageshadow="2"
     inkscape:window-width="1920"
     inkscape:window-height="1026"
     id="namedview11"
     showgrid="false"
     inkscape:zoom="1.6328125"
     inkscape:cx="-116.76024"
     inkscape:cy="109.83423"
     inkscape:window-x="0"
     inkscape:window-y="0"
     inkscape:window-maximized="1"
     inkscape:current-layer="Layer_1"
     showguides="false" /><g
     id="g8"
     transform="translate(0.7751196,0.7751196)"
     style="fill:#4a4f55;fill-opacity:1"><path
       d="m 180,121.064 h -8.703 l -3.428,20.309 h 8.176 c 3.691,-0.35 6.593,-1.494 8.703,-3.429 2.109,-1.935 3.251,-5.54 3.428,-10.814 0,-4.044 -2.728,-6.066 -8.176,-6.066 z"
       id="path2"
       inkscape:connector-curvature="0"
       style="fill:#4a4f55;fill-opacity:1" /><path
       d="M 226,14 H 30 c -8.837,0 -16,7.164 -16,16 v 196 c 0,8.837 7.163,16 16,16 h 196 c 8.836,0 16,-7.163 16,-16 V 30 c 0,-8.836 -7.164,-16 -16,-16 z"
       id="path4"
       inkscape:connector-curvature="0"
       sodipodi:nodetypes="sssssssss"
       style="fill:#4a4f55;fill-opacity:1" /></g><path
     style="fill:#fcfffc;fill-opacity:1;stroke-width:0.59958971"
     d="m 162.91579,198.02722 c 0.17417,-0.45619 -1.3144,-4.82116 -3.30796,-9.69989 -1.99351,-4.87873 -3.62458,-9.09129 -3.62458,-9.36125 0,-0.26996 14.59949,-0.57144 32.44328,-0.66995 l 32.44326,-0.17913 3.5838,-1.45034 c 4.84568,-1.96104 9.76744,-6.90846 11.71829,-11.77938 l 1.44286,-3.60247 V 123.11174 84.938671 l -1.6742,-3.6069 c -2.17939,-4.695237 -6.24581,-8.802277 -10.81852,-10.926568 l -3.65417,-1.6976 -91.17048,-0.157884 C 48.79044,68.408573 38.783453,68.492179 35.886604,69.338723 29.652332,71.160531 25.319185,74.91624 22.396436,81.031196 l -1.867643,3.907475 v 38.173069 38.17307 l 1.442826,3.60247 c 1.950865,4.87092 6.872633,9.81834 11.718309,11.77938 l 3.583786,1.45034 43.955389,0.30059 43.955447,0.30056 17.94099,10.06749 c 9.86754,5.53711 18.28581,10.06829 18.70729,10.06927 0.42148,0.002 0.90879,-0.37147 1.08296,-0.82769 z M 48.750632,164.1099 c -1.74152,-1.82724 -4.337576,-8.88105 -6.681465,-18.15444 -3.477215,-13.75723 -9.878734,-48.419705 -9.878734,-53.490602 0,-3.482239 2.482897,-6.023305 5.885415,-6.023305 3.213128,0 4.170107,0.445011 5.180463,2.409005 0.47029,0.9142 1.81016,7.441471 2.97748,14.505062 2.304382,13.944 6.113893,32.62689 7.008247,34.37029 0.30705,0.59855 0.964422,1.00432 1.460832,0.90172 0.496411,-0.1026 5.289625,-8.5726 10.651605,-18.82222 5.361991,-10.24961 10.423531,-19.37959 11.247889,-20.288833 1.150469,-1.268913 2.046641,-1.653164 3.855596,-1.653164 3.818901,0 4.648361,1.417944 7.055648,12.061517 2.187447,9.67156 2.946489,12.396 5.474507,19.64918 1.158131,3.32279 1.786159,4.35834 2.643065,4.35834 1.32091,0 1.377017,-0.21563 2.659213,-10.21956 2.437557,-19.01799 8.225847,-38.116317 12.200277,-40.254457 2.66966,-1.436215 7.67564,-0.129093 8.99483,2.348668 1.0008,1.879793 0.71289,4.587444 -0.87053,8.186522 -5.29022,12.024427 -9.55954,35.841127 -10.28449,57.372197 -0.38291,11.37221 -0.91477,13.5338 -3.48993,14.1835 -3.74639,0.94518 -7.916368,-2.36506 -13.444291,-10.67252 -4.374332,-6.57375 -7.54293,-13.25329 -10.409943,-21.94448 -2.113052,-6.40561 -2.989672,-7.79039 -4.37398,-6.9095 -0.341605,0.21739 -3.635384,6.45518 -7.319514,13.86174 -7.805351,15.69189 -10.427116,20.05717 -14.077935,23.43992 -3.142428,2.91168 -4.303301,3.05274 -6.464255,0.78542 z m 90.328848,-8.55412 c -3.65108,-0.92116 -6.60873,-2.70795 -9.24964,-5.58794 -5.72111,-6.23903 -8.01343,-15.10902 -6.75703,-26.14624 1.11211,-9.77017 5.17647,-19.01624 10.9662,-24.947389 4.25485,-4.358765 7.90247,-6.044686 13.68085,-6.323264 15.54614,-0.749502 25.01831,12.631983 22.62812,31.967003 -1.69624,13.72132 -8.20306,25.17576 -16.81035,29.59242 -3.58569,1.83993 -10.2526,2.50643 -14.45815,1.44541 z m 8.23227,-13.12646 c 8.45227,-3.86953 13.31921,-18.46275 9.885,-29.63949 -2.20851,-7.18752 -7.03296,-9.76828 -12.22773,-6.54101 -5.10399,3.1709 -9.91692,13.50516 -9.91692,21.29347 0,6.87111 2.78121,13.64564 6.21982,15.15037 2.44536,1.0701 3.19893,1.03724 6.03983,-0.26334 z m 45.10924,12.95935 c -7.98625,-2.26866 -13.03884,-8.11988 -15.27212,-17.68621 -1.1567,-4.95454 -0.85247,-15.4613 0.60523,-20.9028 2.52174,-9.41336 8.96387,-18.712191 15.40916,-22.24222 4.49241,-2.460448 11.73327,-2.833665 16.91171,-0.8717 6.83377,2.589127 11.83917,9.20138 13.51203,17.84968 0.91168,4.71311 0.4461,15.39097 -0.88481,20.293 -2.60076,9.57901 -9.35657,19.20469 -15.65194,22.30077 -3.92275,1.92922 -10.32979,2.48082 -14.62926,1.25948 z m 10.46444,-14.1487 c 5.10314,-3.46896 8.87389,-12.14698 8.92188,-20.53283 0.0799,-13.97895 -8.15383,-20.54422 -15.59211,-12.43254 -6.67512,7.27941 -9.36259,18.62243 -6.43512,27.16073 2.66936,7.78535 7.22389,9.80266 13.10535,5.80464 z"
     id="path77"
     inkscape:connector-curvature="0"
     sodipodi:nodetypes="scsscsccccsccscsccccscccscssssscsccsssccscsccsscscssscscssscccccsccscccssccsccscc" /></svg>